M48
; DRILL file {KiCad 7.0.1} date Mon Dec 18 14:14:54 2023
; FORMAT={-:-/ absolute / inch / decimal}
; #@! TF.CreationDate,2023-12-18T14:14:54-05:00
; #@! TF.GenerationSoftware,Kicad,Pcbnew,7.0.1
; #@! TF.FileFunction,Plated,1,2,PTH
FMAT,2
INCH
; #@! TA.AperFunction,Plated,PTH,ViaDrill
T1C0.0157
; #@! TA.AperFunction,Plated,PTH,ComponentDrill
T2C0.0354
; #@! TA.AperFunction,Plated,PTH,ComponentDrill
T3C0.0362
; #@! TA.AperFunction,Plated,PTH,ComponentDrill
T4C0.0394
; #@! TA.AperFunction,Plated,PTH,ComponentDrill
T5C0.0512
; #@! TA.AperFunction,Plated,PTH,ComponentDrill
T6C0.0917
%
G90
G05
T1
X2.0965Y-2.7854
X2.0965Y-2.9921
X2.0965Y-5.5906
X2.1063Y-3.4154
X2.1063Y-3.5531
X2.1063Y-3.7205
X2.1063Y-4.0453
X2.1063Y-4.439
X2.1063Y-4.7736
X2.1063Y-5.0787
X2.1063Y-5.3051
X2.1063Y-5.8661
X2.2047Y-3.376
X2.2146Y-2.9724
X2.2146Y-3.1791
X2.2244Y-3.5039
X2.2736Y-2.9232
X2.2736Y-3.8878
X2.2835Y-3.7205
X2.3031Y-2.7756
X2.3031Y-3.3366
X2.3031Y-5.8661
X2.313Y-3.1299
X2.313Y-4.9508
X2.3327Y-3.5039
X2.3524Y-4.2717
X2.3622Y-3.6417
X2.3622Y-4.5768
X2.372Y-3.4154
X2.3917Y-5.7776
X2.4016Y-3.3661
X2.4311Y-3.8681
X2.4409Y-5.0787
X2.4606Y-3.2972
X2.5098Y-3.7894
X2.5197Y-5.3051
X2.5197Y-5.561
X2.5492Y-3.6122
X2.5492Y-3.7106
X2.5492Y-3.8878
X2.5492Y-4.6752
X2.5591Y-4.1732
X2.5689Y-3.061
X2.5787Y-5.1083
X2.5886Y-4.4587
X2.6083Y-2.7854
X2.6378Y-4.8917
X2.6575Y-3.8189
X2.6772Y-5.0098
X2.687Y-3.4547
X2.6969Y-3.5433
X2.7067Y-4.0354
X2.7559Y-5.3051
X2.7657Y-3.5531
X2.7756Y-3.1299
X2.7756Y-5.561
X2.8051Y-3.3858
X2.8051Y-3.9665
X2.8346Y-3.7303
X2.8346Y-4.1535
X2.8346Y-4.3799
X2.8346Y-4.6358
X2.8346Y-4.8917
X2.8346Y-5.0098
X2.8445Y-5.0886
X2.8937Y-4.1339
X2.8937Y-5.1575
X2.8937Y-5.2165
X2.9134Y-5.7874
X2.9232Y-2.7953
X2.9331Y-5.3543
X2.9429Y-4.0846
X2.9429Y-4.1831
X2.9429Y-5.1083
X2.9528Y-4.3701
X2.9528Y-4.6457
X2.9528Y-4.8917
X2.9528Y-5.0098
X2.9921Y-3.4547
X3.002Y-3.5531
X3.002Y-3.9075
X3.0315Y-3.002
X3.0512Y-3.1791
X3.0709Y-5.4528
X3.0709Y-5.876
X3.0807Y-5.2165
X3.1102Y-4.9016
X3.1102Y-5.0
X3.1102Y-5.1083
X3.1693Y-4.0846
X3.1693Y-4.1831
X3.189Y-3.7205
X3.189Y-4.3898
X3.189Y-4.7047
X3.2087Y-5.3543
X3.2185Y-2.8937
X3.2283Y-3.4449
X3.248Y-3.5531
X3.2579Y-5.7972
X3.2972Y-4.9016
X3.2972Y-5.0
X3.2972Y-5.0886
X3.3169Y-3.9075
X3.3465Y-3.061
X3.3563Y-5.6004
X3.376Y-4.065
X3.376Y-4.1831
X3.4055Y-4.3898
X3.4252Y-3.4547
X3.4449Y-4.0059
X3.4449Y-4.7047
X3.4547Y-3.7205
X3.5039Y-5.3445
X3.5138Y-4.9016
X3.5138Y-5.0295
X3.5236Y-4.0059
X3.563Y-3.4547
X3.5728Y-4.2421
X3.5827Y-3.3169
X3.6024Y-4.0059
X3.6319Y-3.189
X3.6417Y-3.8484
X3.6417Y-4.4685
X3.6417Y-5.4921
X3.6443Y-4.2939
X3.6614Y-3.6909
X3.6811Y-3.4154
X3.6811Y-4.0059
X3.6811Y-4.4685
X3.6811Y-4.5866
X3.6811Y-4.7244
X3.6811Y-4.8622
X3.7205Y-3.5827
X3.7303Y-5.0
X3.737Y-4.9
X3.75Y-5.05
X3.7598Y-5.1575
X3.7697Y-2.8445
X3.7697Y-4.3012
X3.7697Y-5.8268
X3.7894Y-4.7343
X3.8091Y-3.3169
X3.8287Y-3.878
X3.8386Y-3.6713
X3.8386Y-4.0748
X3.8386Y-4.1339
X3.8386Y-5.1969
X3.8583Y-4.0167
X3.8681Y-2.7854
X3.878Y-5.3248
X3.8878Y-4.7146
X3.8878Y-4.7539
X3.8878Y-4.8031
X3.9173Y-3.1496
X3.9173Y-5.0984
X3.9213Y-4.0604
X3.9272Y-2.9429
X3.9272Y-3.5728
X3.937Y-3.4547
X3.937Y-3.8287
X3.937Y-5.4528
X3.937Y-5.7776
X3.9665Y-3.3071
X3.9764Y-4.0748
X3.9764Y-4.1339
X3.9862Y-4.7146
X3.9961Y-3.6811
X4.0157Y-3.8976
X4.0256Y-5.3346
X4.0354Y-3.1398
X4.0354Y-4.1142
X4.065Y-3.2776
X4.0748Y-3.6811
X4.0748Y-5.8366
X4.0846Y-4.4783
X4.0846Y-4.5965
X4.0846Y-4.7244
X4.0945Y-2.9823
X4.0945Y-3.3858
X4.1043Y-5.0984
X4.1142Y-3.7795
X4.124Y-4.3996
X4.124Y-4.8327
X4.125Y-4.9
X4.125Y-5.05
X4.1339Y-2.7756
X4.1535Y-3.622
X4.1585Y-4.247
X4.1634Y-2.9035
X4.1732Y-4.1142
X4.1831Y-4.9016
X4.2224Y-4.7244
X4.2224Y-5.6004
X4.2421Y-3.3366
X4.2421Y-3.4449
X4.2618Y-4.3512
X4.2618Y-4.8327
X4.2618Y-5.0492
X4.2717Y-2.9921
X4.2913Y-3.622
X4.311Y-4.7835
X4.3307Y-2.8346
X4.3406Y-3.1398
X4.3406Y-5.3445
X4.3504Y-4.1535
X4.3602Y-4.5472
X4.3602Y-4.872
X4.3602Y-5.0492
X4.3701Y-3.5031
X4.3701Y-3.622
X4.3701Y-3.8681
X4.3799Y-3.2579
X4.3799Y-3.4449
X4.3799Y-3.6811
X4.4193Y-4.9508
X4.4291Y-3.2087
X4.4291Y-3.8976
X4.439Y-5.1083
X4.4783Y-3.9469
X4.5177Y-5.4724
X4.5276Y-2.8051
X4.5276Y-3.1004
X4.5276Y-3.4449
X4.5276Y-3.6319
X4.5276Y-3.9272
X4.5374Y-4.0846
X4.5374Y-4.3996
X4.5472Y-5.6299
X4.5669Y-4.3012
X4.5768Y-3.9665
X4.5768Y-4.6555
X4.6063Y-5.0492
X4.626Y-3.6909
X4.626Y-4.4783
X4.626Y-5.1575
X4.6358Y-3.1398
X4.6358Y-3.8386
X4.6358Y-3.9764
X4.6457Y-3.4449
X4.6457Y-3.5531
X4.6457Y-5.8169
X4.6555Y-4.7244
X4.6555Y-5.1083
X4.6654Y-4.9508
X4.6949Y-5.3445
X4.7539Y-3.6516
X4.7539Y-4.0748
X4.7638Y-3.2874
X4.7638Y-3.8189
X4.7736Y-2.8248
X4.7736Y-3.9764
X4.7835Y-2.9823
X4.7835Y-4.2224
X4.7933Y-3.5531
X4.7933Y-4.439
X4.8031Y-3.4449
X4.8031Y-5.4528
X4.8524Y-3.75
X4.8622Y-5.0492
X4.8622Y-5.3248
X4.8917Y-4.4783
X4.9016Y-4.2126
X4.9016Y-4.9508
X4.9114Y-3.8681
X4.9213Y-3.9764
X4.9213Y-4.7638
X4.9213Y-5.1083
X4.9311Y-3.5531
X4.9606Y-2.8543
X4.9606Y-5.8169
X4.9705Y-3.7008
X4.9803Y-3.4449
X5.0295Y-4.3701
X5.0591Y-5.0886
X5.0787Y-3.8681
X5.0886Y-3.0807
X5.0886Y-3.9764
X5.0984Y-5.4626
X5.1083Y-3.7008
X5.1181Y-5.5906
X5.1575Y-4.5079
X5.1673Y-3.7894
X5.1673Y-4.685
X5.1772Y-3.6024
X5.1772Y-4.8917
X5.187Y-5.2953
X5.2165Y-3.7402
X5.2165Y-5.0984
X5.2362Y-4.1535
X5.2559Y-3.3661
X5.2559Y-3.8681
X5.2559Y-5.3445
X5.2854Y-3.7992
X5.2953Y-3.5925
X5.3051Y-3.9764
X5.3346Y-3.8091
X5.3445Y-4.2618
X5.3642Y-4.4488
X5.374Y-4.8819
X5.4035Y-5.4823
X5.4134Y-5.0886
X5.4134Y-5.5807
X5.4232Y-3.1299
X5.4626Y-3.8189
X5.4823Y-2.8346
X5.4823Y-3.7402
X5.4921Y-3.3957
X5.4921Y-3.6122
X5.4921Y-5.1575
X5.5118Y-4.7146
X5.5118Y-5.8366
X5.5315Y-3.3071
X5.5512Y-4.9409
X5.5709Y-4.3898
X5.5709Y-5.7776
X5.5906Y-4.1437
X5.6201Y-3.937
X5.6496Y-2.9331
X5.6594Y-3.2382
X5.6594Y-3.5827
X5.6988Y-5.6201
X5.7087Y-5.7874
X5.748Y-5.4921
X5.7579Y-5.1476
X5.7677Y-2.7854
X5.7677Y-3.0217
X5.7677Y-3.2776
X5.7677Y-3.5433
X5.7677Y-3.8484
X5.7677Y-4.1929
X5.7677Y-4.5276
X5.7677Y-4.8031
T2
X2.1539Y-2.8474
X2.2539Y-2.8474
X3.965Y-2.8474
X4.065Y-2.8474
T3
X2.5886Y-3.1496
X2.5886Y-3.2283
X2.687Y-3.1496
X2.687Y-3.2283
T4
X3.737Y-4.6654
X3.837Y-4.6654
X3.937Y-4.6654
X4.037Y-4.6654
X4.137Y-4.6654
X4.1732Y-3.8386
X4.2732Y-3.8386
X4.4776Y-2.9278
X4.4776Y-3.0278
X4.5776Y-2.9278
X4.5776Y-3.0278
X4.8425Y-3.825
X4.8425Y-3.925
X4.8425Y-4.025
T5
X2.3425Y-5.4528
X2.4409Y-5.3543
X2.5394Y-5.8465
X2.6378Y-5.4528
X2.7362Y-5.8465
X2.8346Y-5.3543
X2.9331Y-5.4528
X3.2087Y-3.2087
X3.2087Y-5.4528
X3.3071Y-3.3071
X3.3071Y-5.3543
X3.4055Y-2.815
X3.4055Y-5.8465
X3.5039Y-3.2087
X3.5039Y-5.4528
X3.6024Y-2.815
X3.6024Y-5.8465
X3.7008Y-3.3071
X3.7008Y-5.3543
X3.7992Y-3.2087
X3.7992Y-5.4528
X4.0748Y-5.4528
X4.1732Y-5.3543
X4.2717Y-5.8465
X4.3701Y-5.4528
X4.4685Y-5.8465
X4.5669Y-5.3543
X4.6654Y-5.4528
X4.9409Y-3.2087
X4.9409Y-5.4528
X5.0394Y-3.3071
X5.0394Y-5.3543
X5.1378Y-2.815
X5.1378Y-5.8465
X5.2362Y-3.2087
X5.2362Y-5.4528
X5.3346Y-2.815
X5.3346Y-5.8465
X5.4331Y-3.3071
X5.4331Y-5.3543
X5.5315Y-3.2087
X5.5315Y-5.4528
T6
X2.4008Y-3.0429
X2.8748Y-3.0429
T0
M30
