%TF.GenerationSoftware,KiCad,Pcbnew,7.0.1*%
%TF.CreationDate,2023-12-18T14:14:52-05:00*%
%TF.ProjectId,channel_splitter,6368616e-6e65-46c5-9f73-706c69747465,rev?*%
%TF.SameCoordinates,Original*%
%TF.FileFunction,Paste,Top*%
%TF.FilePolarity,Positive*%
%FSLAX46Y46*%
G04 Gerber Fmt 4.6, Leading zero omitted, Abs format (unit mm)*
G04 Created by KiCad (PCBNEW 7.0.1) date 2023-12-18 14:14:52*
%MOMM*%
%LPD*%
G01*
G04 APERTURE LIST*
G04 Aperture macros list*
%AMRoundRect*
0 Rectangle with rounded corners*
0 $1 Rounding radius*
0 $2 $3 $4 $5 $6 $7 $8 $9 X,Y pos of 4 corners*
0 Add a 4 corners polygon primitive as box body*
4,1,4,$2,$3,$4,$5,$6,$7,$8,$9,$2,$3,0*
0 Add four circle primitives for the rounded corners*
1,1,$1+$1,$2,$3*
1,1,$1+$1,$4,$5*
1,1,$1+$1,$6,$7*
1,1,$1+$1,$8,$9*
0 Add four rect primitives between the rounded corners*
20,1,$1+$1,$2,$3,$4,$5,0*
20,1,$1+$1,$4,$5,$6,$7,0*
20,1,$1+$1,$6,$7,$8,$9,0*
20,1,$1+$1,$8,$9,$2,$3,0*%
G04 Aperture macros list end*
%ADD10RoundRect,0.218750X-0.381250X0.218750X-0.381250X-0.218750X0.381250X-0.218750X0.381250X0.218750X0*%
%ADD11RoundRect,0.250000X0.262500X0.450000X-0.262500X0.450000X-0.262500X-0.450000X0.262500X-0.450000X0*%
%ADD12RoundRect,0.250000X-0.475000X0.250000X-0.475000X-0.250000X0.475000X-0.250000X0.475000X0.250000X0*%
%ADD13RoundRect,0.218750X0.218750X0.381250X-0.218750X0.381250X-0.218750X-0.381250X0.218750X-0.381250X0*%
%ADD14RoundRect,0.250000X-0.250000X-0.475000X0.250000X-0.475000X0.250000X0.475000X-0.250000X0.475000X0*%
%ADD15RoundRect,0.250000X0.475000X-0.250000X0.475000X0.250000X-0.475000X0.250000X-0.475000X-0.250000X0*%
%ADD16R,2.000000X0.640000*%
%ADD17RoundRect,0.250000X0.450000X-0.262500X0.450000X0.262500X-0.450000X0.262500X-0.450000X-0.262500X0*%
%ADD18RoundRect,0.225000X0.225000X0.375000X-0.225000X0.375000X-0.225000X-0.375000X0.225000X-0.375000X0*%
%ADD19RoundRect,0.150000X0.150000X-0.512500X0.150000X0.512500X-0.150000X0.512500X-0.150000X-0.512500X0*%
%ADD20RoundRect,0.250000X0.250000X0.475000X-0.250000X0.475000X-0.250000X-0.475000X0.250000X-0.475000X0*%
%ADD21RoundRect,0.250000X-0.262500X-0.450000X0.262500X-0.450000X0.262500X0.450000X-0.262500X0.450000X0*%
%ADD22R,1.600000X0.550000*%
%ADD23R,0.550000X1.600000*%
%ADD24R,0.400000X1.900000*%
%ADD25RoundRect,0.150000X-0.150000X0.587500X-0.150000X-0.587500X0.150000X-0.587500X0.150000X0.587500X0*%
%ADD26RoundRect,0.218750X-0.218750X-0.381250X0.218750X-0.381250X0.218750X0.381250X-0.218750X0.381250X0*%
%ADD27RoundRect,0.225000X-0.375000X0.225000X-0.375000X-0.225000X0.375000X-0.225000X0.375000X0.225000X0*%
%ADD28RoundRect,0.150000X-0.825000X-0.150000X0.825000X-0.150000X0.825000X0.150000X-0.825000X0.150000X0*%
%ADD29RoundRect,0.250000X-0.450000X0.262500X-0.450000X-0.262500X0.450000X-0.262500X0.450000X0.262500X0*%
G04 APERTURE END LIST*
D10*
%TO.C,FB3*%
X92000000Y-88437500D03*
X92000000Y-90562500D03*
%TD*%
D11*
%TO.C,R8*%
X93825000Y-131000000D03*
X92000000Y-131000000D03*
%TD*%
D12*
%TO.C,C3*%
X93500000Y-103100000D03*
X93500000Y-105000000D03*
%TD*%
D13*
%TO.C,FB11*%
X138000000Y-133000000D03*
X135875000Y-133000000D03*
%TD*%
D14*
%TO.C,C2*%
X62100000Y-90000000D03*
X64000000Y-90000000D03*
%TD*%
D15*
%TO.C,C11*%
X134250000Y-94900000D03*
X134250000Y-93000000D03*
%TD*%
D16*
%TO.C,U2*%
X97350000Y-89500000D03*
X97350000Y-92040000D03*
X103650000Y-92040000D03*
X103650000Y-90770000D03*
X103650000Y-89500000D03*
%TD*%
D17*
%TO.C,R1*%
X54750000Y-79575000D03*
X54750000Y-77750000D03*
%TD*%
D18*
%TO.C,D1*%
X66000000Y-85500000D03*
X62700000Y-85500000D03*
%TD*%
D10*
%TO.C,FB2*%
X84000000Y-87375000D03*
X84000000Y-89500000D03*
%TD*%
D19*
%TO.C,U4*%
X136100000Y-95137500D03*
X137050000Y-95137500D03*
X138000000Y-95137500D03*
X138000000Y-92862500D03*
X136100000Y-92862500D03*
%TD*%
D11*
%TO.C,R15*%
X107325000Y-81500000D03*
X105500000Y-81500000D03*
%TD*%
D12*
%TO.C,C5*%
X89500000Y-103100000D03*
X89500000Y-105000000D03*
%TD*%
D11*
%TO.C,R7*%
X86000000Y-131000000D03*
X84175000Y-131000000D03*
%TD*%
D13*
%TO.C,FB6*%
X86125000Y-133000000D03*
X84000000Y-133000000D03*
%TD*%
D20*
%TO.C,C10*%
X102500000Y-121500000D03*
X100600000Y-121500000D03*
%TD*%
D14*
%TO.C,C1*%
X62100000Y-88000000D03*
X64000000Y-88000000D03*
%TD*%
D21*
%TO.C,R13*%
X136000000Y-90000000D03*
X137825000Y-90000000D03*
%TD*%
D11*
%TO.C,R10*%
X115825000Y-131000000D03*
X114000000Y-131000000D03*
%TD*%
D10*
%TO.C,FB1*%
X66000000Y-87937500D03*
X66000000Y-90062500D03*
%TD*%
D22*
%TO.C,U1*%
X95750000Y-102200000D03*
X95750000Y-103000000D03*
X95750000Y-103800000D03*
X95750000Y-104600000D03*
X95750000Y-105400000D03*
X95750000Y-106200000D03*
X95750000Y-107000000D03*
X95750000Y-107800000D03*
D23*
X97200000Y-109250000D03*
X98000000Y-109250000D03*
X98800000Y-109250000D03*
X99600000Y-109250000D03*
X100400000Y-109250000D03*
X101200000Y-109250000D03*
X102000000Y-109250000D03*
X102800000Y-109250000D03*
D22*
X104250000Y-107800000D03*
X104250000Y-107000000D03*
X104250000Y-106200000D03*
X104250000Y-105400000D03*
X104250000Y-104600000D03*
X104250000Y-103800000D03*
X104250000Y-103000000D03*
X104250000Y-102200000D03*
D23*
X102800000Y-100750000D03*
X102000000Y-100750000D03*
X101200000Y-100750000D03*
X100400000Y-100750000D03*
X99600000Y-100750000D03*
X98800000Y-100750000D03*
X98000000Y-100750000D03*
X97200000Y-100750000D03*
%TD*%
D24*
%TO.C,Y1*%
X91300000Y-111000000D03*
X92500000Y-111000000D03*
X93700000Y-111000000D03*
%TD*%
D11*
%TO.C,R6*%
X71825000Y-131000000D03*
X70000000Y-131000000D03*
%TD*%
D12*
%TO.C,C6*%
X87500000Y-103100000D03*
X87500000Y-105000000D03*
%TD*%
D11*
%TO.C,R5*%
X64000000Y-131000000D03*
X62175000Y-131000000D03*
%TD*%
%TO.C,R12*%
X137825000Y-131000000D03*
X136000000Y-131000000D03*
%TD*%
%TO.C,R9*%
X108000000Y-131000000D03*
X106175000Y-131000000D03*
%TD*%
D12*
%TO.C,C8*%
X89000000Y-84750000D03*
X89000000Y-86650000D03*
%TD*%
D25*
%TO.C,Q1*%
X102900000Y-81562500D03*
X101000000Y-81562500D03*
X101950000Y-83437500D03*
%TD*%
D20*
%TO.C,C9*%
X103500000Y-87500000D03*
X101600000Y-87500000D03*
%TD*%
D11*
%TO.C,R2*%
X107825000Y-94500000D03*
X106000000Y-94500000D03*
%TD*%
D13*
%TO.C,FB7*%
X94000000Y-133000000D03*
X91875000Y-133000000D03*
%TD*%
%TO.C,FB8*%
X108125000Y-133000000D03*
X106000000Y-133000000D03*
%TD*%
D11*
%TO.C,R11*%
X130000000Y-131000000D03*
X128175000Y-131000000D03*
%TD*%
D26*
%TO.C,FB12*%
X135875000Y-88000000D03*
X138000000Y-88000000D03*
%TD*%
D12*
%TO.C,C7*%
X77000000Y-71500000D03*
X77000000Y-73400000D03*
%TD*%
%TO.C,C4*%
X91500000Y-103100000D03*
X91500000Y-105000000D03*
%TD*%
D13*
%TO.C,FB10*%
X130125000Y-133000000D03*
X128000000Y-133000000D03*
%TD*%
%TO.C,FB9*%
X116000000Y-133000000D03*
X113875000Y-133000000D03*
%TD*%
D27*
%TO.C,D3*%
X94500000Y-89500000D03*
X94500000Y-92800000D03*
%TD*%
D13*
%TO.C,FB5*%
X72000000Y-133000000D03*
X69875000Y-133000000D03*
%TD*%
D28*
%TO.C,U3*%
X97525000Y-123190000D03*
X97525000Y-124460000D03*
X97525000Y-125730000D03*
X97525000Y-127000000D03*
X97525000Y-128270000D03*
X97525000Y-129540000D03*
X97525000Y-130810000D03*
X102475000Y-130810000D03*
X102475000Y-129540000D03*
X102475000Y-128270000D03*
X102475000Y-127000000D03*
X102475000Y-125730000D03*
X102475000Y-124460000D03*
X102475000Y-123190000D03*
%TD*%
D11*
%TO.C,R3*%
X89500000Y-89500000D03*
X87675000Y-89500000D03*
%TD*%
D17*
%TO.C,R16*%
X101000000Y-78825000D03*
X101000000Y-77000000D03*
%TD*%
D26*
%TO.C,FB13*%
X128000000Y-88000000D03*
X130125000Y-88000000D03*
%TD*%
D13*
%TO.C,FB4*%
X64125000Y-133000000D03*
X62000000Y-133000000D03*
%TD*%
D21*
%TO.C,R14*%
X128175000Y-90000000D03*
X130000000Y-90000000D03*
%TD*%
D29*
%TO.C,R4*%
X107500000Y-88980000D03*
X107500000Y-90805000D03*
%TD*%
M02*
