%TF.GenerationSoftware,KiCad,Pcbnew,7.0.1*%
%TF.CreationDate,2023-12-17T22:31:34-05:00*%
%TF.ProjectId,channel_splitter,6368616e-6e65-46c5-9f73-706c69747465,rev?*%
%TF.SameCoordinates,Original*%
%TF.FileFunction,Legend,Top*%
%TF.FilePolarity,Positive*%
%FSLAX46Y46*%
G04 Gerber Fmt 4.6, Leading zero omitted, Abs format (unit mm)*
G04 Created by KiCad (PCBNEW 7.0.1) date 2023-12-17 22:31:34*
%MOMM*%
%LPD*%
G01*
G04 APERTURE LIST*
G04 Aperture macros list*
%AMRoundRect*
0 Rectangle with rounded corners*
0 $1 Rounding radius*
0 $2 $3 $4 $5 $6 $7 $8 $9 X,Y pos of 4 corners*
0 Add a 4 corners polygon primitive as box body*
4,1,4,$2,$3,$4,$5,$6,$7,$8,$9,$2,$3,0*
0 Add four circle primitives for the rounded corners*
1,1,$1+$1,$2,$3*
1,1,$1+$1,$4,$5*
1,1,$1+$1,$6,$7*
1,1,$1+$1,$8,$9*
0 Add four rect primitives between the rounded corners*
20,1,$1+$1,$2,$3,$4,$5,0*
20,1,$1+$1,$4,$5,$6,$7,0*
20,1,$1+$1,$6,$7,$8,$9,0*
20,1,$1+$1,$8,$9,$2,$3,0*%
G04 Aperture macros list end*
%ADD10C,0.150000*%
%ADD11C,0.120000*%
%ADD12C,0.100000*%
%ADD13R,1.800000X1.800000*%
%ADD14C,1.800000*%
%ADD15R,0.400000X1.900000*%
%ADD16RoundRect,0.250000X0.475000X-0.250000X0.475000X0.250000X-0.475000X0.250000X-0.475000X-0.250000X0*%
%ADD17RoundRect,0.250000X0.250000X0.475000X-0.250000X0.475000X-0.250000X-0.475000X0.250000X-0.475000X0*%
%ADD18RoundRect,0.250000X-0.475000X0.250000X-0.475000X-0.250000X0.475000X-0.250000X0.475000X0.250000X0*%
%ADD19R,1.700000X1.700000*%
%ADD20C,1.700000*%
%ADD21C,3.500000*%
%ADD22C,2.400000*%
%ADD23C,2.600000*%
%ADD24RoundRect,0.218750X-0.381250X0.218750X-0.381250X-0.218750X0.381250X-0.218750X0.381250X0.218750X0*%
%ADD25RoundRect,0.250000X0.262500X0.450000X-0.262500X0.450000X-0.262500X-0.450000X0.262500X-0.450000X0*%
%ADD26RoundRect,0.218750X0.218750X0.381250X-0.218750X0.381250X-0.218750X-0.381250X0.218750X-0.381250X0*%
%ADD27RoundRect,0.250000X-0.250000X-0.475000X0.250000X-0.475000X0.250000X0.475000X-0.250000X0.475000X0*%
%ADD28R,2.000000X0.640000*%
%ADD29RoundRect,0.250000X0.450000X-0.262500X0.450000X0.262500X-0.450000X0.262500X-0.450000X-0.262500X0*%
%ADD30RoundRect,0.225000X0.225000X0.375000X-0.225000X0.375000X-0.225000X-0.375000X0.225000X-0.375000X0*%
%ADD31RoundRect,0.150000X0.150000X-0.512500X0.150000X0.512500X-0.150000X0.512500X-0.150000X-0.512500X0*%
%ADD32O,1.700000X1.700000*%
%ADD33RoundRect,0.250000X-0.262500X-0.450000X0.262500X-0.450000X0.262500X0.450000X-0.262500X0.450000X0*%
%ADD34R,1.600000X0.550000*%
%ADD35R,0.550000X1.600000*%
%ADD36RoundRect,0.150000X-0.150000X0.587500X-0.150000X-0.587500X0.150000X-0.587500X0.150000X0.587500X0*%
%ADD37C,0.990600*%
%ADD38C,0.787400*%
%ADD39RoundRect,0.218750X-0.218750X-0.381250X0.218750X-0.381250X0.218750X0.381250X-0.218750X0.381250X0*%
%ADD40RoundRect,0.225000X-0.375000X0.225000X-0.375000X-0.225000X0.375000X-0.225000X0.375000X0.225000X0*%
%ADD41R,2.000000X2.000000*%
%ADD42C,2.000000*%
%ADD43RoundRect,0.150000X-0.825000X-0.150000X0.825000X-0.150000X0.825000X0.150000X-0.825000X0.150000X0*%
%ADD44RoundRect,0.250000X-0.450000X0.262500X-0.450000X-0.262500X0.450000X-0.262500X0.450000X0.262500X0*%
G04 APERTURE END LIST*
D10*
X125405000Y-102735000D02*
X124905000Y-102235000D01*
X125405000Y-101735000D01*
X125405000Y-102735000D01*
G36*
X125405000Y-102735000D02*
G01*
X124905000Y-102235000D01*
X125405000Y-101735000D01*
X125405000Y-102735000D01*
G37*
X125675000Y-97655000D02*
X125175000Y-97155000D01*
X125675000Y-96655000D01*
X125675000Y-97655000D01*
G36*
X125675000Y-97655000D02*
G01*
X125175000Y-97155000D01*
X125675000Y-96655000D01*
X125675000Y-97655000D01*
G37*
X126143095Y-101697619D02*
X126143095Y-102507142D01*
X126143095Y-102507142D02*
X126190714Y-102602380D01*
X126190714Y-102602380D02*
X126238333Y-102650000D01*
X126238333Y-102650000D02*
X126333571Y-102697619D01*
X126333571Y-102697619D02*
X126524047Y-102697619D01*
X126524047Y-102697619D02*
X126619285Y-102650000D01*
X126619285Y-102650000D02*
X126666904Y-102602380D01*
X126666904Y-102602380D02*
X126714523Y-102507142D01*
X126714523Y-102507142D02*
X126714523Y-101697619D01*
X127143095Y-102411904D02*
X127619285Y-102411904D01*
X127047857Y-102697619D02*
X127381190Y-101697619D01*
X127381190Y-101697619D02*
X127714523Y-102697619D01*
X128619285Y-102697619D02*
X128285952Y-102221428D01*
X128047857Y-102697619D02*
X128047857Y-101697619D01*
X128047857Y-101697619D02*
X128428809Y-101697619D01*
X128428809Y-101697619D02*
X128524047Y-101745238D01*
X128524047Y-101745238D02*
X128571666Y-101792857D01*
X128571666Y-101792857D02*
X128619285Y-101888095D01*
X128619285Y-101888095D02*
X128619285Y-102030952D01*
X128619285Y-102030952D02*
X128571666Y-102126190D01*
X128571666Y-102126190D02*
X128524047Y-102173809D01*
X128524047Y-102173809D02*
X128428809Y-102221428D01*
X128428809Y-102221428D02*
X128047857Y-102221428D01*
X128905000Y-101697619D02*
X129476428Y-101697619D01*
X129190714Y-102697619D02*
X129190714Y-101697619D01*
X126413095Y-97617619D02*
X126413095Y-96617619D01*
X126413095Y-96617619D02*
X126746428Y-97331904D01*
X126746428Y-97331904D02*
X127079761Y-96617619D01*
X127079761Y-96617619D02*
X127079761Y-97617619D01*
X127555952Y-97617619D02*
X127555952Y-96617619D01*
X128032142Y-97617619D02*
X128032142Y-96617619D01*
X128032142Y-96617619D02*
X128270237Y-96617619D01*
X128270237Y-96617619D02*
X128413094Y-96665238D01*
X128413094Y-96665238D02*
X128508332Y-96760476D01*
X128508332Y-96760476D02*
X128555951Y-96855714D01*
X128555951Y-96855714D02*
X128603570Y-97046190D01*
X128603570Y-97046190D02*
X128603570Y-97189047D01*
X128603570Y-97189047D02*
X128555951Y-97379523D01*
X128555951Y-97379523D02*
X128508332Y-97474761D01*
X128508332Y-97474761D02*
X128413094Y-97570000D01*
X128413094Y-97570000D02*
X128270237Y-97617619D01*
X128270237Y-97617619D02*
X128032142Y-97617619D01*
X129032142Y-97617619D02*
X129032142Y-96617619D01*
%TO.C,D4*%
X101241905Y-74747619D02*
X101241905Y-73747619D01*
X101241905Y-73747619D02*
X101480000Y-73747619D01*
X101480000Y-73747619D02*
X101622857Y-73795238D01*
X101622857Y-73795238D02*
X101718095Y-73890476D01*
X101718095Y-73890476D02*
X101765714Y-73985714D01*
X101765714Y-73985714D02*
X101813333Y-74176190D01*
X101813333Y-74176190D02*
X101813333Y-74319047D01*
X101813333Y-74319047D02*
X101765714Y-74509523D01*
X101765714Y-74509523D02*
X101718095Y-74604761D01*
X101718095Y-74604761D02*
X101622857Y-74700000D01*
X101622857Y-74700000D02*
X101480000Y-74747619D01*
X101480000Y-74747619D02*
X101241905Y-74747619D01*
X102670476Y-74080952D02*
X102670476Y-74747619D01*
X102432381Y-73700000D02*
X102194286Y-74414285D01*
X102194286Y-74414285D02*
X102813333Y-74414285D01*
%TO.C,D2*%
X55241905Y-74747619D02*
X55241905Y-73747619D01*
X55241905Y-73747619D02*
X55480000Y-73747619D01*
X55480000Y-73747619D02*
X55622857Y-73795238D01*
X55622857Y-73795238D02*
X55718095Y-73890476D01*
X55718095Y-73890476D02*
X55765714Y-73985714D01*
X55765714Y-73985714D02*
X55813333Y-74176190D01*
X55813333Y-74176190D02*
X55813333Y-74319047D01*
X55813333Y-74319047D02*
X55765714Y-74509523D01*
X55765714Y-74509523D02*
X55718095Y-74604761D01*
X55718095Y-74604761D02*
X55622857Y-74700000D01*
X55622857Y-74700000D02*
X55480000Y-74747619D01*
X55480000Y-74747619D02*
X55241905Y-74747619D01*
X56194286Y-73842857D02*
X56241905Y-73795238D01*
X56241905Y-73795238D02*
X56337143Y-73747619D01*
X56337143Y-73747619D02*
X56575238Y-73747619D01*
X56575238Y-73747619D02*
X56670476Y-73795238D01*
X56670476Y-73795238D02*
X56718095Y-73842857D01*
X56718095Y-73842857D02*
X56765714Y-73938095D01*
X56765714Y-73938095D02*
X56765714Y-74033333D01*
X56765714Y-74033333D02*
X56718095Y-74176190D01*
X56718095Y-74176190D02*
X56146667Y-74747619D01*
X56146667Y-74747619D02*
X56765714Y-74747619D01*
%TO.C,Y1*%
X92023809Y-108986428D02*
X92023809Y-109462619D01*
X91690476Y-108462619D02*
X92023809Y-108986428D01*
X92023809Y-108986428D02*
X92357142Y-108462619D01*
X93214285Y-109462619D02*
X92642857Y-109462619D01*
X92928571Y-109462619D02*
X92928571Y-108462619D01*
X92928571Y-108462619D02*
X92833333Y-108605476D01*
X92833333Y-108605476D02*
X92738095Y-108700714D01*
X92738095Y-108700714D02*
X92642857Y-108748333D01*
%TO.C,C11*%
X131107142Y-94367380D02*
X131059523Y-94415000D01*
X131059523Y-94415000D02*
X130916666Y-94462619D01*
X130916666Y-94462619D02*
X130821428Y-94462619D01*
X130821428Y-94462619D02*
X130678571Y-94415000D01*
X130678571Y-94415000D02*
X130583333Y-94319761D01*
X130583333Y-94319761D02*
X130535714Y-94224523D01*
X130535714Y-94224523D02*
X130488095Y-94034047D01*
X130488095Y-94034047D02*
X130488095Y-93891190D01*
X130488095Y-93891190D02*
X130535714Y-93700714D01*
X130535714Y-93700714D02*
X130583333Y-93605476D01*
X130583333Y-93605476D02*
X130678571Y-93510238D01*
X130678571Y-93510238D02*
X130821428Y-93462619D01*
X130821428Y-93462619D02*
X130916666Y-93462619D01*
X130916666Y-93462619D02*
X131059523Y-93510238D01*
X131059523Y-93510238D02*
X131107142Y-93557857D01*
X132059523Y-94462619D02*
X131488095Y-94462619D01*
X131773809Y-94462619D02*
X131773809Y-93462619D01*
X131773809Y-93462619D02*
X131678571Y-93605476D01*
X131678571Y-93605476D02*
X131583333Y-93700714D01*
X131583333Y-93700714D02*
X131488095Y-93748333D01*
X133011904Y-94462619D02*
X132440476Y-94462619D01*
X132726190Y-94462619D02*
X132726190Y-93462619D01*
X132726190Y-93462619D02*
X132630952Y-93605476D01*
X132630952Y-93605476D02*
X132535714Y-93700714D01*
X132535714Y-93700714D02*
X132440476Y-93748333D01*
%TO.C,C10*%
X104357142Y-121867380D02*
X104309523Y-121915000D01*
X104309523Y-121915000D02*
X104166666Y-121962619D01*
X104166666Y-121962619D02*
X104071428Y-121962619D01*
X104071428Y-121962619D02*
X103928571Y-121915000D01*
X103928571Y-121915000D02*
X103833333Y-121819761D01*
X103833333Y-121819761D02*
X103785714Y-121724523D01*
X103785714Y-121724523D02*
X103738095Y-121534047D01*
X103738095Y-121534047D02*
X103738095Y-121391190D01*
X103738095Y-121391190D02*
X103785714Y-121200714D01*
X103785714Y-121200714D02*
X103833333Y-121105476D01*
X103833333Y-121105476D02*
X103928571Y-121010238D01*
X103928571Y-121010238D02*
X104071428Y-120962619D01*
X104071428Y-120962619D02*
X104166666Y-120962619D01*
X104166666Y-120962619D02*
X104309523Y-121010238D01*
X104309523Y-121010238D02*
X104357142Y-121057857D01*
X105309523Y-121962619D02*
X104738095Y-121962619D01*
X105023809Y-121962619D02*
X105023809Y-120962619D01*
X105023809Y-120962619D02*
X104928571Y-121105476D01*
X104928571Y-121105476D02*
X104833333Y-121200714D01*
X104833333Y-121200714D02*
X104738095Y-121248333D01*
X105928571Y-120962619D02*
X106023809Y-120962619D01*
X106023809Y-120962619D02*
X106119047Y-121010238D01*
X106119047Y-121010238D02*
X106166666Y-121057857D01*
X106166666Y-121057857D02*
X106214285Y-121153095D01*
X106214285Y-121153095D02*
X106261904Y-121343571D01*
X106261904Y-121343571D02*
X106261904Y-121581666D01*
X106261904Y-121581666D02*
X106214285Y-121772142D01*
X106214285Y-121772142D02*
X106166666Y-121867380D01*
X106166666Y-121867380D02*
X106119047Y-121915000D01*
X106119047Y-121915000D02*
X106023809Y-121962619D01*
X106023809Y-121962619D02*
X105928571Y-121962619D01*
X105928571Y-121962619D02*
X105833333Y-121915000D01*
X105833333Y-121915000D02*
X105785714Y-121867380D01*
X105785714Y-121867380D02*
X105738095Y-121772142D01*
X105738095Y-121772142D02*
X105690476Y-121581666D01*
X105690476Y-121581666D02*
X105690476Y-121343571D01*
X105690476Y-121343571D02*
X105738095Y-121153095D01*
X105738095Y-121153095D02*
X105785714Y-121057857D01*
X105785714Y-121057857D02*
X105833333Y-121010238D01*
X105833333Y-121010238D02*
X105928571Y-120962619D01*
%TO.C,C9*%
X105333333Y-87867380D02*
X105285714Y-87915000D01*
X105285714Y-87915000D02*
X105142857Y-87962619D01*
X105142857Y-87962619D02*
X105047619Y-87962619D01*
X105047619Y-87962619D02*
X104904762Y-87915000D01*
X104904762Y-87915000D02*
X104809524Y-87819761D01*
X104809524Y-87819761D02*
X104761905Y-87724523D01*
X104761905Y-87724523D02*
X104714286Y-87534047D01*
X104714286Y-87534047D02*
X104714286Y-87391190D01*
X104714286Y-87391190D02*
X104761905Y-87200714D01*
X104761905Y-87200714D02*
X104809524Y-87105476D01*
X104809524Y-87105476D02*
X104904762Y-87010238D01*
X104904762Y-87010238D02*
X105047619Y-86962619D01*
X105047619Y-86962619D02*
X105142857Y-86962619D01*
X105142857Y-86962619D02*
X105285714Y-87010238D01*
X105285714Y-87010238D02*
X105333333Y-87057857D01*
X105809524Y-87962619D02*
X106000000Y-87962619D01*
X106000000Y-87962619D02*
X106095238Y-87915000D01*
X106095238Y-87915000D02*
X106142857Y-87867380D01*
X106142857Y-87867380D02*
X106238095Y-87724523D01*
X106238095Y-87724523D02*
X106285714Y-87534047D01*
X106285714Y-87534047D02*
X106285714Y-87153095D01*
X106285714Y-87153095D02*
X106238095Y-87057857D01*
X106238095Y-87057857D02*
X106190476Y-87010238D01*
X106190476Y-87010238D02*
X106095238Y-86962619D01*
X106095238Y-86962619D02*
X105904762Y-86962619D01*
X105904762Y-86962619D02*
X105809524Y-87010238D01*
X105809524Y-87010238D02*
X105761905Y-87057857D01*
X105761905Y-87057857D02*
X105714286Y-87153095D01*
X105714286Y-87153095D02*
X105714286Y-87391190D01*
X105714286Y-87391190D02*
X105761905Y-87486428D01*
X105761905Y-87486428D02*
X105809524Y-87534047D01*
X105809524Y-87534047D02*
X105904762Y-87581666D01*
X105904762Y-87581666D02*
X106095238Y-87581666D01*
X106095238Y-87581666D02*
X106190476Y-87534047D01*
X106190476Y-87534047D02*
X106238095Y-87486428D01*
X106238095Y-87486428D02*
X106285714Y-87391190D01*
%TO.C,C8*%
X86583333Y-86117380D02*
X86535714Y-86165000D01*
X86535714Y-86165000D02*
X86392857Y-86212619D01*
X86392857Y-86212619D02*
X86297619Y-86212619D01*
X86297619Y-86212619D02*
X86154762Y-86165000D01*
X86154762Y-86165000D02*
X86059524Y-86069761D01*
X86059524Y-86069761D02*
X86011905Y-85974523D01*
X86011905Y-85974523D02*
X85964286Y-85784047D01*
X85964286Y-85784047D02*
X85964286Y-85641190D01*
X85964286Y-85641190D02*
X86011905Y-85450714D01*
X86011905Y-85450714D02*
X86059524Y-85355476D01*
X86059524Y-85355476D02*
X86154762Y-85260238D01*
X86154762Y-85260238D02*
X86297619Y-85212619D01*
X86297619Y-85212619D02*
X86392857Y-85212619D01*
X86392857Y-85212619D02*
X86535714Y-85260238D01*
X86535714Y-85260238D02*
X86583333Y-85307857D01*
X87154762Y-85641190D02*
X87059524Y-85593571D01*
X87059524Y-85593571D02*
X87011905Y-85545952D01*
X87011905Y-85545952D02*
X86964286Y-85450714D01*
X86964286Y-85450714D02*
X86964286Y-85403095D01*
X86964286Y-85403095D02*
X87011905Y-85307857D01*
X87011905Y-85307857D02*
X87059524Y-85260238D01*
X87059524Y-85260238D02*
X87154762Y-85212619D01*
X87154762Y-85212619D02*
X87345238Y-85212619D01*
X87345238Y-85212619D02*
X87440476Y-85260238D01*
X87440476Y-85260238D02*
X87488095Y-85307857D01*
X87488095Y-85307857D02*
X87535714Y-85403095D01*
X87535714Y-85403095D02*
X87535714Y-85450714D01*
X87535714Y-85450714D02*
X87488095Y-85545952D01*
X87488095Y-85545952D02*
X87440476Y-85593571D01*
X87440476Y-85593571D02*
X87345238Y-85641190D01*
X87345238Y-85641190D02*
X87154762Y-85641190D01*
X87154762Y-85641190D02*
X87059524Y-85688809D01*
X87059524Y-85688809D02*
X87011905Y-85736428D01*
X87011905Y-85736428D02*
X86964286Y-85831666D01*
X86964286Y-85831666D02*
X86964286Y-86022142D01*
X86964286Y-86022142D02*
X87011905Y-86117380D01*
X87011905Y-86117380D02*
X87059524Y-86165000D01*
X87059524Y-86165000D02*
X87154762Y-86212619D01*
X87154762Y-86212619D02*
X87345238Y-86212619D01*
X87345238Y-86212619D02*
X87440476Y-86165000D01*
X87440476Y-86165000D02*
X87488095Y-86117380D01*
X87488095Y-86117380D02*
X87535714Y-86022142D01*
X87535714Y-86022142D02*
X87535714Y-85831666D01*
X87535714Y-85831666D02*
X87488095Y-85736428D01*
X87488095Y-85736428D02*
X87440476Y-85688809D01*
X87440476Y-85688809D02*
X87345238Y-85641190D01*
%TO.C,C7*%
X79047380Y-72616666D02*
X79095000Y-72664285D01*
X79095000Y-72664285D02*
X79142619Y-72807142D01*
X79142619Y-72807142D02*
X79142619Y-72902380D01*
X79142619Y-72902380D02*
X79095000Y-73045237D01*
X79095000Y-73045237D02*
X78999761Y-73140475D01*
X78999761Y-73140475D02*
X78904523Y-73188094D01*
X78904523Y-73188094D02*
X78714047Y-73235713D01*
X78714047Y-73235713D02*
X78571190Y-73235713D01*
X78571190Y-73235713D02*
X78380714Y-73188094D01*
X78380714Y-73188094D02*
X78285476Y-73140475D01*
X78285476Y-73140475D02*
X78190238Y-73045237D01*
X78190238Y-73045237D02*
X78142619Y-72902380D01*
X78142619Y-72902380D02*
X78142619Y-72807142D01*
X78142619Y-72807142D02*
X78190238Y-72664285D01*
X78190238Y-72664285D02*
X78237857Y-72616666D01*
X78142619Y-72283332D02*
X78142619Y-71616666D01*
X78142619Y-71616666D02*
X79142619Y-72045237D01*
%TO.C,C4*%
X91867380Y-106916666D02*
X91915000Y-106964285D01*
X91915000Y-106964285D02*
X91962619Y-107107142D01*
X91962619Y-107107142D02*
X91962619Y-107202380D01*
X91962619Y-107202380D02*
X91915000Y-107345237D01*
X91915000Y-107345237D02*
X91819761Y-107440475D01*
X91819761Y-107440475D02*
X91724523Y-107488094D01*
X91724523Y-107488094D02*
X91534047Y-107535713D01*
X91534047Y-107535713D02*
X91391190Y-107535713D01*
X91391190Y-107535713D02*
X91200714Y-107488094D01*
X91200714Y-107488094D02*
X91105476Y-107440475D01*
X91105476Y-107440475D02*
X91010238Y-107345237D01*
X91010238Y-107345237D02*
X90962619Y-107202380D01*
X90962619Y-107202380D02*
X90962619Y-107107142D01*
X90962619Y-107107142D02*
X91010238Y-106964285D01*
X91010238Y-106964285D02*
X91057857Y-106916666D01*
X91295952Y-106059523D02*
X91962619Y-106059523D01*
X90915000Y-106297618D02*
X91629285Y-106535713D01*
X91629285Y-106535713D02*
X91629285Y-105916666D01*
%TO.C,C3*%
X93867380Y-106916666D02*
X93915000Y-106964285D01*
X93915000Y-106964285D02*
X93962619Y-107107142D01*
X93962619Y-107107142D02*
X93962619Y-107202380D01*
X93962619Y-107202380D02*
X93915000Y-107345237D01*
X93915000Y-107345237D02*
X93819761Y-107440475D01*
X93819761Y-107440475D02*
X93724523Y-107488094D01*
X93724523Y-107488094D02*
X93534047Y-107535713D01*
X93534047Y-107535713D02*
X93391190Y-107535713D01*
X93391190Y-107535713D02*
X93200714Y-107488094D01*
X93200714Y-107488094D02*
X93105476Y-107440475D01*
X93105476Y-107440475D02*
X93010238Y-107345237D01*
X93010238Y-107345237D02*
X92962619Y-107202380D01*
X92962619Y-107202380D02*
X92962619Y-107107142D01*
X92962619Y-107107142D02*
X93010238Y-106964285D01*
X93010238Y-106964285D02*
X93057857Y-106916666D01*
X92962619Y-106583332D02*
X92962619Y-105964285D01*
X92962619Y-105964285D02*
X93343571Y-106297618D01*
X93343571Y-106297618D02*
X93343571Y-106154761D01*
X93343571Y-106154761D02*
X93391190Y-106059523D01*
X93391190Y-106059523D02*
X93438809Y-106011904D01*
X93438809Y-106011904D02*
X93534047Y-105964285D01*
X93534047Y-105964285D02*
X93772142Y-105964285D01*
X93772142Y-105964285D02*
X93867380Y-106011904D01*
X93867380Y-106011904D02*
X93915000Y-106059523D01*
X93915000Y-106059523D02*
X93962619Y-106154761D01*
X93962619Y-106154761D02*
X93962619Y-106440475D01*
X93962619Y-106440475D02*
X93915000Y-106535713D01*
X93915000Y-106535713D02*
X93867380Y-106583332D01*
%TO.C,J9*%
X133333333Y-77537380D02*
X133333333Y-76823095D01*
X133333333Y-76823095D02*
X133380952Y-76680238D01*
X133380952Y-76680238D02*
X133476190Y-76585000D01*
X133476190Y-76585000D02*
X133619047Y-76537380D01*
X133619047Y-76537380D02*
X133714285Y-76537380D01*
X132809523Y-76537380D02*
X132619047Y-76537380D01*
X132619047Y-76537380D02*
X132523809Y-76585000D01*
X132523809Y-76585000D02*
X132476190Y-76632619D01*
X132476190Y-76632619D02*
X132380952Y-76775476D01*
X132380952Y-76775476D02*
X132333333Y-76965952D01*
X132333333Y-76965952D02*
X132333333Y-77346904D01*
X132333333Y-77346904D02*
X132380952Y-77442142D01*
X132380952Y-77442142D02*
X132428571Y-77489761D01*
X132428571Y-77489761D02*
X132523809Y-77537380D01*
X132523809Y-77537380D02*
X132714285Y-77537380D01*
X132714285Y-77537380D02*
X132809523Y-77489761D01*
X132809523Y-77489761D02*
X132857142Y-77442142D01*
X132857142Y-77442142D02*
X132904761Y-77346904D01*
X132904761Y-77346904D02*
X132904761Y-77108809D01*
X132904761Y-77108809D02*
X132857142Y-77013571D01*
X132857142Y-77013571D02*
X132809523Y-76965952D01*
X132809523Y-76965952D02*
X132714285Y-76918333D01*
X132714285Y-76918333D02*
X132523809Y-76918333D01*
X132523809Y-76918333D02*
X132428571Y-76965952D01*
X132428571Y-76965952D02*
X132380952Y-77013571D01*
X132380952Y-77013571D02*
X132333333Y-77108809D01*
%TO.C,J8*%
X132666666Y-142462619D02*
X132666666Y-143176904D01*
X132666666Y-143176904D02*
X132619047Y-143319761D01*
X132619047Y-143319761D02*
X132523809Y-143415000D01*
X132523809Y-143415000D02*
X132380952Y-143462619D01*
X132380952Y-143462619D02*
X132285714Y-143462619D01*
X133285714Y-142891190D02*
X133190476Y-142843571D01*
X133190476Y-142843571D02*
X133142857Y-142795952D01*
X133142857Y-142795952D02*
X133095238Y-142700714D01*
X133095238Y-142700714D02*
X133095238Y-142653095D01*
X133095238Y-142653095D02*
X133142857Y-142557857D01*
X133142857Y-142557857D02*
X133190476Y-142510238D01*
X133190476Y-142510238D02*
X133285714Y-142462619D01*
X133285714Y-142462619D02*
X133476190Y-142462619D01*
X133476190Y-142462619D02*
X133571428Y-142510238D01*
X133571428Y-142510238D02*
X133619047Y-142557857D01*
X133619047Y-142557857D02*
X133666666Y-142653095D01*
X133666666Y-142653095D02*
X133666666Y-142700714D01*
X133666666Y-142700714D02*
X133619047Y-142795952D01*
X133619047Y-142795952D02*
X133571428Y-142843571D01*
X133571428Y-142843571D02*
X133476190Y-142891190D01*
X133476190Y-142891190D02*
X133285714Y-142891190D01*
X133285714Y-142891190D02*
X133190476Y-142938809D01*
X133190476Y-142938809D02*
X133142857Y-142986428D01*
X133142857Y-142986428D02*
X133095238Y-143081666D01*
X133095238Y-143081666D02*
X133095238Y-143272142D01*
X133095238Y-143272142D02*
X133142857Y-143367380D01*
X133142857Y-143367380D02*
X133190476Y-143415000D01*
X133190476Y-143415000D02*
X133285714Y-143462619D01*
X133285714Y-143462619D02*
X133476190Y-143462619D01*
X133476190Y-143462619D02*
X133571428Y-143415000D01*
X133571428Y-143415000D02*
X133619047Y-143367380D01*
X133619047Y-143367380D02*
X133666666Y-143272142D01*
X133666666Y-143272142D02*
X133666666Y-143081666D01*
X133666666Y-143081666D02*
X133619047Y-142986428D01*
X133619047Y-142986428D02*
X133571428Y-142938809D01*
X133571428Y-142938809D02*
X133476190Y-142891190D01*
%TO.C,J7*%
X110666666Y-142462619D02*
X110666666Y-143176904D01*
X110666666Y-143176904D02*
X110619047Y-143319761D01*
X110619047Y-143319761D02*
X110523809Y-143415000D01*
X110523809Y-143415000D02*
X110380952Y-143462619D01*
X110380952Y-143462619D02*
X110285714Y-143462619D01*
X111047619Y-142462619D02*
X111714285Y-142462619D01*
X111714285Y-142462619D02*
X111285714Y-143462619D01*
%TO.C,J5*%
X66666666Y-142462619D02*
X66666666Y-143176904D01*
X66666666Y-143176904D02*
X66619047Y-143319761D01*
X66619047Y-143319761D02*
X66523809Y-143415000D01*
X66523809Y-143415000D02*
X66380952Y-143462619D01*
X66380952Y-143462619D02*
X66285714Y-143462619D01*
X67619047Y-142462619D02*
X67142857Y-142462619D01*
X67142857Y-142462619D02*
X67095238Y-142938809D01*
X67095238Y-142938809D02*
X67142857Y-142891190D01*
X67142857Y-142891190D02*
X67238095Y-142843571D01*
X67238095Y-142843571D02*
X67476190Y-142843571D01*
X67476190Y-142843571D02*
X67571428Y-142891190D01*
X67571428Y-142891190D02*
X67619047Y-142938809D01*
X67619047Y-142938809D02*
X67666666Y-143034047D01*
X67666666Y-143034047D02*
X67666666Y-143272142D01*
X67666666Y-143272142D02*
X67619047Y-143367380D01*
X67619047Y-143367380D02*
X67571428Y-143415000D01*
X67571428Y-143415000D02*
X67476190Y-143462619D01*
X67476190Y-143462619D02*
X67238095Y-143462619D01*
X67238095Y-143462619D02*
X67142857Y-143415000D01*
X67142857Y-143415000D02*
X67095238Y-143367380D01*
%TO.C,J2*%
X89333333Y-77537380D02*
X89333333Y-76823095D01*
X89333333Y-76823095D02*
X89380952Y-76680238D01*
X89380952Y-76680238D02*
X89476190Y-76585000D01*
X89476190Y-76585000D02*
X89619047Y-76537380D01*
X89619047Y-76537380D02*
X89714285Y-76537380D01*
X88904761Y-77442142D02*
X88857142Y-77489761D01*
X88857142Y-77489761D02*
X88761904Y-77537380D01*
X88761904Y-77537380D02*
X88523809Y-77537380D01*
X88523809Y-77537380D02*
X88428571Y-77489761D01*
X88428571Y-77489761D02*
X88380952Y-77442142D01*
X88380952Y-77442142D02*
X88333333Y-77346904D01*
X88333333Y-77346904D02*
X88333333Y-77251666D01*
X88333333Y-77251666D02*
X88380952Y-77108809D01*
X88380952Y-77108809D02*
X88952380Y-76537380D01*
X88952380Y-76537380D02*
X88333333Y-76537380D01*
%TO.C,J6*%
X88666666Y-142462619D02*
X88666666Y-143176904D01*
X88666666Y-143176904D02*
X88619047Y-143319761D01*
X88619047Y-143319761D02*
X88523809Y-143415000D01*
X88523809Y-143415000D02*
X88380952Y-143462619D01*
X88380952Y-143462619D02*
X88285714Y-143462619D01*
X89571428Y-142462619D02*
X89380952Y-142462619D01*
X89380952Y-142462619D02*
X89285714Y-142510238D01*
X89285714Y-142510238D02*
X89238095Y-142557857D01*
X89238095Y-142557857D02*
X89142857Y-142700714D01*
X89142857Y-142700714D02*
X89095238Y-142891190D01*
X89095238Y-142891190D02*
X89095238Y-143272142D01*
X89095238Y-143272142D02*
X89142857Y-143367380D01*
X89142857Y-143367380D02*
X89190476Y-143415000D01*
X89190476Y-143415000D02*
X89285714Y-143462619D01*
X89285714Y-143462619D02*
X89476190Y-143462619D01*
X89476190Y-143462619D02*
X89571428Y-143415000D01*
X89571428Y-143415000D02*
X89619047Y-143367380D01*
X89619047Y-143367380D02*
X89666666Y-143272142D01*
X89666666Y-143272142D02*
X89666666Y-143034047D01*
X89666666Y-143034047D02*
X89619047Y-142938809D01*
X89619047Y-142938809D02*
X89571428Y-142891190D01*
X89571428Y-142891190D02*
X89476190Y-142843571D01*
X89476190Y-142843571D02*
X89285714Y-142843571D01*
X89285714Y-142843571D02*
X89190476Y-142891190D01*
X89190476Y-142891190D02*
X89142857Y-142938809D01*
X89142857Y-142938809D02*
X89095238Y-143034047D01*
%TO.C,FB3*%
X91166666Y-92438809D02*
X90833333Y-92438809D01*
X90833333Y-92962619D02*
X90833333Y-91962619D01*
X90833333Y-91962619D02*
X91309523Y-91962619D01*
X92023809Y-92438809D02*
X92166666Y-92486428D01*
X92166666Y-92486428D02*
X92214285Y-92534047D01*
X92214285Y-92534047D02*
X92261904Y-92629285D01*
X92261904Y-92629285D02*
X92261904Y-92772142D01*
X92261904Y-92772142D02*
X92214285Y-92867380D01*
X92214285Y-92867380D02*
X92166666Y-92915000D01*
X92166666Y-92915000D02*
X92071428Y-92962619D01*
X92071428Y-92962619D02*
X91690476Y-92962619D01*
X91690476Y-92962619D02*
X91690476Y-91962619D01*
X91690476Y-91962619D02*
X92023809Y-91962619D01*
X92023809Y-91962619D02*
X92119047Y-92010238D01*
X92119047Y-92010238D02*
X92166666Y-92057857D01*
X92166666Y-92057857D02*
X92214285Y-92153095D01*
X92214285Y-92153095D02*
X92214285Y-92248333D01*
X92214285Y-92248333D02*
X92166666Y-92343571D01*
X92166666Y-92343571D02*
X92119047Y-92391190D01*
X92119047Y-92391190D02*
X92023809Y-92438809D01*
X92023809Y-92438809D02*
X91690476Y-92438809D01*
X92595238Y-91962619D02*
X93214285Y-91962619D01*
X93214285Y-91962619D02*
X92880952Y-92343571D01*
X92880952Y-92343571D02*
X93023809Y-92343571D01*
X93023809Y-92343571D02*
X93119047Y-92391190D01*
X93119047Y-92391190D02*
X93166666Y-92438809D01*
X93166666Y-92438809D02*
X93214285Y-92534047D01*
X93214285Y-92534047D02*
X93214285Y-92772142D01*
X93214285Y-92772142D02*
X93166666Y-92867380D01*
X93166666Y-92867380D02*
X93119047Y-92915000D01*
X93119047Y-92915000D02*
X93023809Y-92962619D01*
X93023809Y-92962619D02*
X92738095Y-92962619D01*
X92738095Y-92962619D02*
X92642857Y-92915000D01*
X92642857Y-92915000D02*
X92595238Y-92867380D01*
%TO.C,R8*%
X89857142Y-131462619D02*
X89523809Y-130986428D01*
X89285714Y-131462619D02*
X89285714Y-130462619D01*
X89285714Y-130462619D02*
X89666666Y-130462619D01*
X89666666Y-130462619D02*
X89761904Y-130510238D01*
X89761904Y-130510238D02*
X89809523Y-130557857D01*
X89809523Y-130557857D02*
X89857142Y-130653095D01*
X89857142Y-130653095D02*
X89857142Y-130795952D01*
X89857142Y-130795952D02*
X89809523Y-130891190D01*
X89809523Y-130891190D02*
X89761904Y-130938809D01*
X89761904Y-130938809D02*
X89666666Y-130986428D01*
X89666666Y-130986428D02*
X89285714Y-130986428D01*
X90428571Y-130891190D02*
X90333333Y-130843571D01*
X90333333Y-130843571D02*
X90285714Y-130795952D01*
X90285714Y-130795952D02*
X90238095Y-130700714D01*
X90238095Y-130700714D02*
X90238095Y-130653095D01*
X90238095Y-130653095D02*
X90285714Y-130557857D01*
X90285714Y-130557857D02*
X90333333Y-130510238D01*
X90333333Y-130510238D02*
X90428571Y-130462619D01*
X90428571Y-130462619D02*
X90619047Y-130462619D01*
X90619047Y-130462619D02*
X90714285Y-130510238D01*
X90714285Y-130510238D02*
X90761904Y-130557857D01*
X90761904Y-130557857D02*
X90809523Y-130653095D01*
X90809523Y-130653095D02*
X90809523Y-130700714D01*
X90809523Y-130700714D02*
X90761904Y-130795952D01*
X90761904Y-130795952D02*
X90714285Y-130843571D01*
X90714285Y-130843571D02*
X90619047Y-130891190D01*
X90619047Y-130891190D02*
X90428571Y-130891190D01*
X90428571Y-130891190D02*
X90333333Y-130938809D01*
X90333333Y-130938809D02*
X90285714Y-130986428D01*
X90285714Y-130986428D02*
X90238095Y-131081666D01*
X90238095Y-131081666D02*
X90238095Y-131272142D01*
X90238095Y-131272142D02*
X90285714Y-131367380D01*
X90285714Y-131367380D02*
X90333333Y-131415000D01*
X90333333Y-131415000D02*
X90428571Y-131462619D01*
X90428571Y-131462619D02*
X90619047Y-131462619D01*
X90619047Y-131462619D02*
X90714285Y-131415000D01*
X90714285Y-131415000D02*
X90761904Y-131367380D01*
X90761904Y-131367380D02*
X90809523Y-131272142D01*
X90809523Y-131272142D02*
X90809523Y-131081666D01*
X90809523Y-131081666D02*
X90761904Y-130986428D01*
X90761904Y-130986428D02*
X90714285Y-130938809D01*
X90714285Y-130938809D02*
X90619047Y-130891190D01*
%TO.C,FB11*%
X131809523Y-132938809D02*
X131476190Y-132938809D01*
X131476190Y-133462619D02*
X131476190Y-132462619D01*
X131476190Y-132462619D02*
X131952380Y-132462619D01*
X132666666Y-132938809D02*
X132809523Y-132986428D01*
X132809523Y-132986428D02*
X132857142Y-133034047D01*
X132857142Y-133034047D02*
X132904761Y-133129285D01*
X132904761Y-133129285D02*
X132904761Y-133272142D01*
X132904761Y-133272142D02*
X132857142Y-133367380D01*
X132857142Y-133367380D02*
X132809523Y-133415000D01*
X132809523Y-133415000D02*
X132714285Y-133462619D01*
X132714285Y-133462619D02*
X132333333Y-133462619D01*
X132333333Y-133462619D02*
X132333333Y-132462619D01*
X132333333Y-132462619D02*
X132666666Y-132462619D01*
X132666666Y-132462619D02*
X132761904Y-132510238D01*
X132761904Y-132510238D02*
X132809523Y-132557857D01*
X132809523Y-132557857D02*
X132857142Y-132653095D01*
X132857142Y-132653095D02*
X132857142Y-132748333D01*
X132857142Y-132748333D02*
X132809523Y-132843571D01*
X132809523Y-132843571D02*
X132761904Y-132891190D01*
X132761904Y-132891190D02*
X132666666Y-132938809D01*
X132666666Y-132938809D02*
X132333333Y-132938809D01*
X133857142Y-133462619D02*
X133285714Y-133462619D01*
X133571428Y-133462619D02*
X133571428Y-132462619D01*
X133571428Y-132462619D02*
X133476190Y-132605476D01*
X133476190Y-132605476D02*
X133380952Y-132700714D01*
X133380952Y-132700714D02*
X133285714Y-132748333D01*
X134809523Y-133462619D02*
X134238095Y-133462619D01*
X134523809Y-133462619D02*
X134523809Y-132462619D01*
X134523809Y-132462619D02*
X134428571Y-132605476D01*
X134428571Y-132605476D02*
X134333333Y-132700714D01*
X134333333Y-132700714D02*
X134238095Y-132748333D01*
%TO.C,C2*%
X59833333Y-90367380D02*
X59785714Y-90415000D01*
X59785714Y-90415000D02*
X59642857Y-90462619D01*
X59642857Y-90462619D02*
X59547619Y-90462619D01*
X59547619Y-90462619D02*
X59404762Y-90415000D01*
X59404762Y-90415000D02*
X59309524Y-90319761D01*
X59309524Y-90319761D02*
X59261905Y-90224523D01*
X59261905Y-90224523D02*
X59214286Y-90034047D01*
X59214286Y-90034047D02*
X59214286Y-89891190D01*
X59214286Y-89891190D02*
X59261905Y-89700714D01*
X59261905Y-89700714D02*
X59309524Y-89605476D01*
X59309524Y-89605476D02*
X59404762Y-89510238D01*
X59404762Y-89510238D02*
X59547619Y-89462619D01*
X59547619Y-89462619D02*
X59642857Y-89462619D01*
X59642857Y-89462619D02*
X59785714Y-89510238D01*
X59785714Y-89510238D02*
X59833333Y-89557857D01*
X60214286Y-89557857D02*
X60261905Y-89510238D01*
X60261905Y-89510238D02*
X60357143Y-89462619D01*
X60357143Y-89462619D02*
X60595238Y-89462619D01*
X60595238Y-89462619D02*
X60690476Y-89510238D01*
X60690476Y-89510238D02*
X60738095Y-89557857D01*
X60738095Y-89557857D02*
X60785714Y-89653095D01*
X60785714Y-89653095D02*
X60785714Y-89748333D01*
X60785714Y-89748333D02*
X60738095Y-89891190D01*
X60738095Y-89891190D02*
X60166667Y-90462619D01*
X60166667Y-90462619D02*
X60785714Y-90462619D01*
%TO.C,U2*%
X96738095Y-86967619D02*
X96738095Y-87777142D01*
X96738095Y-87777142D02*
X96785714Y-87872380D01*
X96785714Y-87872380D02*
X96833333Y-87920000D01*
X96833333Y-87920000D02*
X96928571Y-87967619D01*
X96928571Y-87967619D02*
X97119047Y-87967619D01*
X97119047Y-87967619D02*
X97214285Y-87920000D01*
X97214285Y-87920000D02*
X97261904Y-87872380D01*
X97261904Y-87872380D02*
X97309523Y-87777142D01*
X97309523Y-87777142D02*
X97309523Y-86967619D01*
X97738095Y-87062857D02*
X97785714Y-87015238D01*
X97785714Y-87015238D02*
X97880952Y-86967619D01*
X97880952Y-86967619D02*
X98119047Y-86967619D01*
X98119047Y-86967619D02*
X98214285Y-87015238D01*
X98214285Y-87015238D02*
X98261904Y-87062857D01*
X98261904Y-87062857D02*
X98309523Y-87158095D01*
X98309523Y-87158095D02*
X98309523Y-87253333D01*
X98309523Y-87253333D02*
X98261904Y-87396190D01*
X98261904Y-87396190D02*
X97690476Y-87967619D01*
X97690476Y-87967619D02*
X98309523Y-87967619D01*
%TO.C,R1*%
X54583333Y-81800119D02*
X54250000Y-81323928D01*
X54011905Y-81800119D02*
X54011905Y-80800119D01*
X54011905Y-80800119D02*
X54392857Y-80800119D01*
X54392857Y-80800119D02*
X54488095Y-80847738D01*
X54488095Y-80847738D02*
X54535714Y-80895357D01*
X54535714Y-80895357D02*
X54583333Y-80990595D01*
X54583333Y-80990595D02*
X54583333Y-81133452D01*
X54583333Y-81133452D02*
X54535714Y-81228690D01*
X54535714Y-81228690D02*
X54488095Y-81276309D01*
X54488095Y-81276309D02*
X54392857Y-81323928D01*
X54392857Y-81323928D02*
X54011905Y-81323928D01*
X55535714Y-81800119D02*
X54964286Y-81800119D01*
X55250000Y-81800119D02*
X55250000Y-80800119D01*
X55250000Y-80800119D02*
X55154762Y-80942976D01*
X55154762Y-80942976D02*
X55059524Y-81038214D01*
X55059524Y-81038214D02*
X54964286Y-81085833D01*
%TO.C,D1*%
X67261905Y-85962619D02*
X67261905Y-84962619D01*
X67261905Y-84962619D02*
X67500000Y-84962619D01*
X67500000Y-84962619D02*
X67642857Y-85010238D01*
X67642857Y-85010238D02*
X67738095Y-85105476D01*
X67738095Y-85105476D02*
X67785714Y-85200714D01*
X67785714Y-85200714D02*
X67833333Y-85391190D01*
X67833333Y-85391190D02*
X67833333Y-85534047D01*
X67833333Y-85534047D02*
X67785714Y-85724523D01*
X67785714Y-85724523D02*
X67738095Y-85819761D01*
X67738095Y-85819761D02*
X67642857Y-85915000D01*
X67642857Y-85915000D02*
X67500000Y-85962619D01*
X67500000Y-85962619D02*
X67261905Y-85962619D01*
X68785714Y-85962619D02*
X68214286Y-85962619D01*
X68500000Y-85962619D02*
X68500000Y-84962619D01*
X68500000Y-84962619D02*
X68404762Y-85105476D01*
X68404762Y-85105476D02*
X68309524Y-85200714D01*
X68309524Y-85200714D02*
X68214286Y-85248333D01*
%TO.C,FB2*%
X83166666Y-91438809D02*
X82833333Y-91438809D01*
X82833333Y-91962619D02*
X82833333Y-90962619D01*
X82833333Y-90962619D02*
X83309523Y-90962619D01*
X84023809Y-91438809D02*
X84166666Y-91486428D01*
X84166666Y-91486428D02*
X84214285Y-91534047D01*
X84214285Y-91534047D02*
X84261904Y-91629285D01*
X84261904Y-91629285D02*
X84261904Y-91772142D01*
X84261904Y-91772142D02*
X84214285Y-91867380D01*
X84214285Y-91867380D02*
X84166666Y-91915000D01*
X84166666Y-91915000D02*
X84071428Y-91962619D01*
X84071428Y-91962619D02*
X83690476Y-91962619D01*
X83690476Y-91962619D02*
X83690476Y-90962619D01*
X83690476Y-90962619D02*
X84023809Y-90962619D01*
X84023809Y-90962619D02*
X84119047Y-91010238D01*
X84119047Y-91010238D02*
X84166666Y-91057857D01*
X84166666Y-91057857D02*
X84214285Y-91153095D01*
X84214285Y-91153095D02*
X84214285Y-91248333D01*
X84214285Y-91248333D02*
X84166666Y-91343571D01*
X84166666Y-91343571D02*
X84119047Y-91391190D01*
X84119047Y-91391190D02*
X84023809Y-91438809D01*
X84023809Y-91438809D02*
X83690476Y-91438809D01*
X84642857Y-91057857D02*
X84690476Y-91010238D01*
X84690476Y-91010238D02*
X84785714Y-90962619D01*
X84785714Y-90962619D02*
X85023809Y-90962619D01*
X85023809Y-90962619D02*
X85119047Y-91010238D01*
X85119047Y-91010238D02*
X85166666Y-91057857D01*
X85166666Y-91057857D02*
X85214285Y-91153095D01*
X85214285Y-91153095D02*
X85214285Y-91248333D01*
X85214285Y-91248333D02*
X85166666Y-91391190D01*
X85166666Y-91391190D02*
X84595238Y-91962619D01*
X84595238Y-91962619D02*
X85214285Y-91962619D01*
%TO.C,U4*%
X136238095Y-96462619D02*
X136238095Y-97272142D01*
X136238095Y-97272142D02*
X136285714Y-97367380D01*
X136285714Y-97367380D02*
X136333333Y-97415000D01*
X136333333Y-97415000D02*
X136428571Y-97462619D01*
X136428571Y-97462619D02*
X136619047Y-97462619D01*
X136619047Y-97462619D02*
X136714285Y-97415000D01*
X136714285Y-97415000D02*
X136761904Y-97367380D01*
X136761904Y-97367380D02*
X136809523Y-97272142D01*
X136809523Y-97272142D02*
X136809523Y-96462619D01*
X137714285Y-96795952D02*
X137714285Y-97462619D01*
X137476190Y-96415000D02*
X137238095Y-97129285D01*
X137238095Y-97129285D02*
X137857142Y-97129285D01*
%TO.C,R15*%
X105769642Y-83612619D02*
X105436309Y-83136428D01*
X105198214Y-83612619D02*
X105198214Y-82612619D01*
X105198214Y-82612619D02*
X105579166Y-82612619D01*
X105579166Y-82612619D02*
X105674404Y-82660238D01*
X105674404Y-82660238D02*
X105722023Y-82707857D01*
X105722023Y-82707857D02*
X105769642Y-82803095D01*
X105769642Y-82803095D02*
X105769642Y-82945952D01*
X105769642Y-82945952D02*
X105722023Y-83041190D01*
X105722023Y-83041190D02*
X105674404Y-83088809D01*
X105674404Y-83088809D02*
X105579166Y-83136428D01*
X105579166Y-83136428D02*
X105198214Y-83136428D01*
X106722023Y-83612619D02*
X106150595Y-83612619D01*
X106436309Y-83612619D02*
X106436309Y-82612619D01*
X106436309Y-82612619D02*
X106341071Y-82755476D01*
X106341071Y-82755476D02*
X106245833Y-82850714D01*
X106245833Y-82850714D02*
X106150595Y-82898333D01*
X107626785Y-82612619D02*
X107150595Y-82612619D01*
X107150595Y-82612619D02*
X107102976Y-83088809D01*
X107102976Y-83088809D02*
X107150595Y-83041190D01*
X107150595Y-83041190D02*
X107245833Y-82993571D01*
X107245833Y-82993571D02*
X107483928Y-82993571D01*
X107483928Y-82993571D02*
X107579166Y-83041190D01*
X107579166Y-83041190D02*
X107626785Y-83088809D01*
X107626785Y-83088809D02*
X107674404Y-83184047D01*
X107674404Y-83184047D02*
X107674404Y-83422142D01*
X107674404Y-83422142D02*
X107626785Y-83517380D01*
X107626785Y-83517380D02*
X107579166Y-83565000D01*
X107579166Y-83565000D02*
X107483928Y-83612619D01*
X107483928Y-83612619D02*
X107245833Y-83612619D01*
X107245833Y-83612619D02*
X107150595Y-83565000D01*
X107150595Y-83565000D02*
X107102976Y-83517380D01*
%TO.C,C5*%
X89867380Y-106916666D02*
X89915000Y-106964285D01*
X89915000Y-106964285D02*
X89962619Y-107107142D01*
X89962619Y-107107142D02*
X89962619Y-107202380D01*
X89962619Y-107202380D02*
X89915000Y-107345237D01*
X89915000Y-107345237D02*
X89819761Y-107440475D01*
X89819761Y-107440475D02*
X89724523Y-107488094D01*
X89724523Y-107488094D02*
X89534047Y-107535713D01*
X89534047Y-107535713D02*
X89391190Y-107535713D01*
X89391190Y-107535713D02*
X89200714Y-107488094D01*
X89200714Y-107488094D02*
X89105476Y-107440475D01*
X89105476Y-107440475D02*
X89010238Y-107345237D01*
X89010238Y-107345237D02*
X88962619Y-107202380D01*
X88962619Y-107202380D02*
X88962619Y-107107142D01*
X88962619Y-107107142D02*
X89010238Y-106964285D01*
X89010238Y-106964285D02*
X89057857Y-106916666D01*
X88962619Y-106011904D02*
X88962619Y-106488094D01*
X88962619Y-106488094D02*
X89438809Y-106535713D01*
X89438809Y-106535713D02*
X89391190Y-106488094D01*
X89391190Y-106488094D02*
X89343571Y-106392856D01*
X89343571Y-106392856D02*
X89343571Y-106154761D01*
X89343571Y-106154761D02*
X89391190Y-106059523D01*
X89391190Y-106059523D02*
X89438809Y-106011904D01*
X89438809Y-106011904D02*
X89534047Y-105964285D01*
X89534047Y-105964285D02*
X89772142Y-105964285D01*
X89772142Y-105964285D02*
X89867380Y-106011904D01*
X89867380Y-106011904D02*
X89915000Y-106059523D01*
X89915000Y-106059523D02*
X89962619Y-106154761D01*
X89962619Y-106154761D02*
X89962619Y-106392856D01*
X89962619Y-106392856D02*
X89915000Y-106488094D01*
X89915000Y-106488094D02*
X89867380Y-106535713D01*
%TO.C,J4*%
X91666666Y-117962619D02*
X91666666Y-118676904D01*
X91666666Y-118676904D02*
X91619047Y-118819761D01*
X91619047Y-118819761D02*
X91523809Y-118915000D01*
X91523809Y-118915000D02*
X91380952Y-118962619D01*
X91380952Y-118962619D02*
X91285714Y-118962619D01*
X92571428Y-118295952D02*
X92571428Y-118962619D01*
X92333333Y-117915000D02*
X92095238Y-118629285D01*
X92095238Y-118629285D02*
X92714285Y-118629285D01*
%TO.C,R7*%
X82032142Y-131462619D02*
X81698809Y-130986428D01*
X81460714Y-131462619D02*
X81460714Y-130462619D01*
X81460714Y-130462619D02*
X81841666Y-130462619D01*
X81841666Y-130462619D02*
X81936904Y-130510238D01*
X81936904Y-130510238D02*
X81984523Y-130557857D01*
X81984523Y-130557857D02*
X82032142Y-130653095D01*
X82032142Y-130653095D02*
X82032142Y-130795952D01*
X82032142Y-130795952D02*
X81984523Y-130891190D01*
X81984523Y-130891190D02*
X81936904Y-130938809D01*
X81936904Y-130938809D02*
X81841666Y-130986428D01*
X81841666Y-130986428D02*
X81460714Y-130986428D01*
X82365476Y-130462619D02*
X83032142Y-130462619D01*
X83032142Y-130462619D02*
X82603571Y-131462619D01*
%TO.C,FB6*%
X80761904Y-132938809D02*
X80428571Y-132938809D01*
X80428571Y-133462619D02*
X80428571Y-132462619D01*
X80428571Y-132462619D02*
X80904761Y-132462619D01*
X81619047Y-132938809D02*
X81761904Y-132986428D01*
X81761904Y-132986428D02*
X81809523Y-133034047D01*
X81809523Y-133034047D02*
X81857142Y-133129285D01*
X81857142Y-133129285D02*
X81857142Y-133272142D01*
X81857142Y-133272142D02*
X81809523Y-133367380D01*
X81809523Y-133367380D02*
X81761904Y-133415000D01*
X81761904Y-133415000D02*
X81666666Y-133462619D01*
X81666666Y-133462619D02*
X81285714Y-133462619D01*
X81285714Y-133462619D02*
X81285714Y-132462619D01*
X81285714Y-132462619D02*
X81619047Y-132462619D01*
X81619047Y-132462619D02*
X81714285Y-132510238D01*
X81714285Y-132510238D02*
X81761904Y-132557857D01*
X81761904Y-132557857D02*
X81809523Y-132653095D01*
X81809523Y-132653095D02*
X81809523Y-132748333D01*
X81809523Y-132748333D02*
X81761904Y-132843571D01*
X81761904Y-132843571D02*
X81714285Y-132891190D01*
X81714285Y-132891190D02*
X81619047Y-132938809D01*
X81619047Y-132938809D02*
X81285714Y-132938809D01*
X82714285Y-132462619D02*
X82523809Y-132462619D01*
X82523809Y-132462619D02*
X82428571Y-132510238D01*
X82428571Y-132510238D02*
X82380952Y-132557857D01*
X82380952Y-132557857D02*
X82285714Y-132700714D01*
X82285714Y-132700714D02*
X82238095Y-132891190D01*
X82238095Y-132891190D02*
X82238095Y-133272142D01*
X82238095Y-133272142D02*
X82285714Y-133367380D01*
X82285714Y-133367380D02*
X82333333Y-133415000D01*
X82333333Y-133415000D02*
X82428571Y-133462619D01*
X82428571Y-133462619D02*
X82619047Y-133462619D01*
X82619047Y-133462619D02*
X82714285Y-133415000D01*
X82714285Y-133415000D02*
X82761904Y-133367380D01*
X82761904Y-133367380D02*
X82809523Y-133272142D01*
X82809523Y-133272142D02*
X82809523Y-133034047D01*
X82809523Y-133034047D02*
X82761904Y-132938809D01*
X82761904Y-132938809D02*
X82714285Y-132891190D01*
X82714285Y-132891190D02*
X82619047Y-132843571D01*
X82619047Y-132843571D02*
X82428571Y-132843571D01*
X82428571Y-132843571D02*
X82333333Y-132891190D01*
X82333333Y-132891190D02*
X82285714Y-132938809D01*
X82285714Y-132938809D02*
X82238095Y-133034047D01*
%TO.C,C1*%
X59833333Y-88367380D02*
X59785714Y-88415000D01*
X59785714Y-88415000D02*
X59642857Y-88462619D01*
X59642857Y-88462619D02*
X59547619Y-88462619D01*
X59547619Y-88462619D02*
X59404762Y-88415000D01*
X59404762Y-88415000D02*
X59309524Y-88319761D01*
X59309524Y-88319761D02*
X59261905Y-88224523D01*
X59261905Y-88224523D02*
X59214286Y-88034047D01*
X59214286Y-88034047D02*
X59214286Y-87891190D01*
X59214286Y-87891190D02*
X59261905Y-87700714D01*
X59261905Y-87700714D02*
X59309524Y-87605476D01*
X59309524Y-87605476D02*
X59404762Y-87510238D01*
X59404762Y-87510238D02*
X59547619Y-87462619D01*
X59547619Y-87462619D02*
X59642857Y-87462619D01*
X59642857Y-87462619D02*
X59785714Y-87510238D01*
X59785714Y-87510238D02*
X59833333Y-87557857D01*
X60785714Y-88462619D02*
X60214286Y-88462619D01*
X60500000Y-88462619D02*
X60500000Y-87462619D01*
X60500000Y-87462619D02*
X60404762Y-87605476D01*
X60404762Y-87605476D02*
X60309524Y-87700714D01*
X60309524Y-87700714D02*
X60214286Y-87748333D01*
%TO.C,R13*%
X139607142Y-90462619D02*
X139273809Y-89986428D01*
X139035714Y-90462619D02*
X139035714Y-89462619D01*
X139035714Y-89462619D02*
X139416666Y-89462619D01*
X139416666Y-89462619D02*
X139511904Y-89510238D01*
X139511904Y-89510238D02*
X139559523Y-89557857D01*
X139559523Y-89557857D02*
X139607142Y-89653095D01*
X139607142Y-89653095D02*
X139607142Y-89795952D01*
X139607142Y-89795952D02*
X139559523Y-89891190D01*
X139559523Y-89891190D02*
X139511904Y-89938809D01*
X139511904Y-89938809D02*
X139416666Y-89986428D01*
X139416666Y-89986428D02*
X139035714Y-89986428D01*
X140559523Y-90462619D02*
X139988095Y-90462619D01*
X140273809Y-90462619D02*
X140273809Y-89462619D01*
X140273809Y-89462619D02*
X140178571Y-89605476D01*
X140178571Y-89605476D02*
X140083333Y-89700714D01*
X140083333Y-89700714D02*
X139988095Y-89748333D01*
X140892857Y-89462619D02*
X141511904Y-89462619D01*
X141511904Y-89462619D02*
X141178571Y-89843571D01*
X141178571Y-89843571D02*
X141321428Y-89843571D01*
X141321428Y-89843571D02*
X141416666Y-89891190D01*
X141416666Y-89891190D02*
X141464285Y-89938809D01*
X141464285Y-89938809D02*
X141511904Y-90034047D01*
X141511904Y-90034047D02*
X141511904Y-90272142D01*
X141511904Y-90272142D02*
X141464285Y-90367380D01*
X141464285Y-90367380D02*
X141416666Y-90415000D01*
X141416666Y-90415000D02*
X141321428Y-90462619D01*
X141321428Y-90462619D02*
X141035714Y-90462619D01*
X141035714Y-90462619D02*
X140940476Y-90415000D01*
X140940476Y-90415000D02*
X140892857Y-90367380D01*
%TO.C,R10*%
X110904761Y-131462619D02*
X110571428Y-130986428D01*
X110333333Y-131462619D02*
X110333333Y-130462619D01*
X110333333Y-130462619D02*
X110714285Y-130462619D01*
X110714285Y-130462619D02*
X110809523Y-130510238D01*
X110809523Y-130510238D02*
X110857142Y-130557857D01*
X110857142Y-130557857D02*
X110904761Y-130653095D01*
X110904761Y-130653095D02*
X110904761Y-130795952D01*
X110904761Y-130795952D02*
X110857142Y-130891190D01*
X110857142Y-130891190D02*
X110809523Y-130938809D01*
X110809523Y-130938809D02*
X110714285Y-130986428D01*
X110714285Y-130986428D02*
X110333333Y-130986428D01*
X111857142Y-131462619D02*
X111285714Y-131462619D01*
X111571428Y-131462619D02*
X111571428Y-130462619D01*
X111571428Y-130462619D02*
X111476190Y-130605476D01*
X111476190Y-130605476D02*
X111380952Y-130700714D01*
X111380952Y-130700714D02*
X111285714Y-130748333D01*
X112476190Y-130462619D02*
X112571428Y-130462619D01*
X112571428Y-130462619D02*
X112666666Y-130510238D01*
X112666666Y-130510238D02*
X112714285Y-130557857D01*
X112714285Y-130557857D02*
X112761904Y-130653095D01*
X112761904Y-130653095D02*
X112809523Y-130843571D01*
X112809523Y-130843571D02*
X112809523Y-131081666D01*
X112809523Y-131081666D02*
X112761904Y-131272142D01*
X112761904Y-131272142D02*
X112714285Y-131367380D01*
X112714285Y-131367380D02*
X112666666Y-131415000D01*
X112666666Y-131415000D02*
X112571428Y-131462619D01*
X112571428Y-131462619D02*
X112476190Y-131462619D01*
X112476190Y-131462619D02*
X112380952Y-131415000D01*
X112380952Y-131415000D02*
X112333333Y-131367380D01*
X112333333Y-131367380D02*
X112285714Y-131272142D01*
X112285714Y-131272142D02*
X112238095Y-131081666D01*
X112238095Y-131081666D02*
X112238095Y-130843571D01*
X112238095Y-130843571D02*
X112285714Y-130653095D01*
X112285714Y-130653095D02*
X112333333Y-130557857D01*
X112333333Y-130557857D02*
X112380952Y-130510238D01*
X112380952Y-130510238D02*
X112476190Y-130462619D01*
%TO.C,FB1*%
X67666666Y-88938809D02*
X67333333Y-88938809D01*
X67333333Y-89462619D02*
X67333333Y-88462619D01*
X67333333Y-88462619D02*
X67809523Y-88462619D01*
X68523809Y-88938809D02*
X68666666Y-88986428D01*
X68666666Y-88986428D02*
X68714285Y-89034047D01*
X68714285Y-89034047D02*
X68761904Y-89129285D01*
X68761904Y-89129285D02*
X68761904Y-89272142D01*
X68761904Y-89272142D02*
X68714285Y-89367380D01*
X68714285Y-89367380D02*
X68666666Y-89415000D01*
X68666666Y-89415000D02*
X68571428Y-89462619D01*
X68571428Y-89462619D02*
X68190476Y-89462619D01*
X68190476Y-89462619D02*
X68190476Y-88462619D01*
X68190476Y-88462619D02*
X68523809Y-88462619D01*
X68523809Y-88462619D02*
X68619047Y-88510238D01*
X68619047Y-88510238D02*
X68666666Y-88557857D01*
X68666666Y-88557857D02*
X68714285Y-88653095D01*
X68714285Y-88653095D02*
X68714285Y-88748333D01*
X68714285Y-88748333D02*
X68666666Y-88843571D01*
X68666666Y-88843571D02*
X68619047Y-88891190D01*
X68619047Y-88891190D02*
X68523809Y-88938809D01*
X68523809Y-88938809D02*
X68190476Y-88938809D01*
X69714285Y-89462619D02*
X69142857Y-89462619D01*
X69428571Y-89462619D02*
X69428571Y-88462619D01*
X69428571Y-88462619D02*
X69333333Y-88605476D01*
X69333333Y-88605476D02*
X69238095Y-88700714D01*
X69238095Y-88700714D02*
X69142857Y-88748333D01*
%TO.C,U1*%
X94238095Y-99462619D02*
X94238095Y-100272142D01*
X94238095Y-100272142D02*
X94285714Y-100367380D01*
X94285714Y-100367380D02*
X94333333Y-100415000D01*
X94333333Y-100415000D02*
X94428571Y-100462619D01*
X94428571Y-100462619D02*
X94619047Y-100462619D01*
X94619047Y-100462619D02*
X94714285Y-100415000D01*
X94714285Y-100415000D02*
X94761904Y-100367380D01*
X94761904Y-100367380D02*
X94809523Y-100272142D01*
X94809523Y-100272142D02*
X94809523Y-99462619D01*
X95809523Y-100462619D02*
X95238095Y-100462619D01*
X95523809Y-100462619D02*
X95523809Y-99462619D01*
X95523809Y-99462619D02*
X95428571Y-99605476D01*
X95428571Y-99605476D02*
X95333333Y-99700714D01*
X95333333Y-99700714D02*
X95238095Y-99748333D01*
%TO.C,R6*%
X67857142Y-131462619D02*
X67523809Y-130986428D01*
X67285714Y-131462619D02*
X67285714Y-130462619D01*
X67285714Y-130462619D02*
X67666666Y-130462619D01*
X67666666Y-130462619D02*
X67761904Y-130510238D01*
X67761904Y-130510238D02*
X67809523Y-130557857D01*
X67809523Y-130557857D02*
X67857142Y-130653095D01*
X67857142Y-130653095D02*
X67857142Y-130795952D01*
X67857142Y-130795952D02*
X67809523Y-130891190D01*
X67809523Y-130891190D02*
X67761904Y-130938809D01*
X67761904Y-130938809D02*
X67666666Y-130986428D01*
X67666666Y-130986428D02*
X67285714Y-130986428D01*
X68714285Y-130462619D02*
X68523809Y-130462619D01*
X68523809Y-130462619D02*
X68428571Y-130510238D01*
X68428571Y-130510238D02*
X68380952Y-130557857D01*
X68380952Y-130557857D02*
X68285714Y-130700714D01*
X68285714Y-130700714D02*
X68238095Y-130891190D01*
X68238095Y-130891190D02*
X68238095Y-131272142D01*
X68238095Y-131272142D02*
X68285714Y-131367380D01*
X68285714Y-131367380D02*
X68333333Y-131415000D01*
X68333333Y-131415000D02*
X68428571Y-131462619D01*
X68428571Y-131462619D02*
X68619047Y-131462619D01*
X68619047Y-131462619D02*
X68714285Y-131415000D01*
X68714285Y-131415000D02*
X68761904Y-131367380D01*
X68761904Y-131367380D02*
X68809523Y-131272142D01*
X68809523Y-131272142D02*
X68809523Y-131034047D01*
X68809523Y-131034047D02*
X68761904Y-130938809D01*
X68761904Y-130938809D02*
X68714285Y-130891190D01*
X68714285Y-130891190D02*
X68619047Y-130843571D01*
X68619047Y-130843571D02*
X68428571Y-130843571D01*
X68428571Y-130843571D02*
X68333333Y-130891190D01*
X68333333Y-130891190D02*
X68285714Y-130938809D01*
X68285714Y-130938809D02*
X68238095Y-131034047D01*
%TO.C,C6*%
X87867380Y-106916666D02*
X87915000Y-106964285D01*
X87915000Y-106964285D02*
X87962619Y-107107142D01*
X87962619Y-107107142D02*
X87962619Y-107202380D01*
X87962619Y-107202380D02*
X87915000Y-107345237D01*
X87915000Y-107345237D02*
X87819761Y-107440475D01*
X87819761Y-107440475D02*
X87724523Y-107488094D01*
X87724523Y-107488094D02*
X87534047Y-107535713D01*
X87534047Y-107535713D02*
X87391190Y-107535713D01*
X87391190Y-107535713D02*
X87200714Y-107488094D01*
X87200714Y-107488094D02*
X87105476Y-107440475D01*
X87105476Y-107440475D02*
X87010238Y-107345237D01*
X87010238Y-107345237D02*
X86962619Y-107202380D01*
X86962619Y-107202380D02*
X86962619Y-107107142D01*
X86962619Y-107107142D02*
X87010238Y-106964285D01*
X87010238Y-106964285D02*
X87057857Y-106916666D01*
X86962619Y-106059523D02*
X86962619Y-106249999D01*
X86962619Y-106249999D02*
X87010238Y-106345237D01*
X87010238Y-106345237D02*
X87057857Y-106392856D01*
X87057857Y-106392856D02*
X87200714Y-106488094D01*
X87200714Y-106488094D02*
X87391190Y-106535713D01*
X87391190Y-106535713D02*
X87772142Y-106535713D01*
X87772142Y-106535713D02*
X87867380Y-106488094D01*
X87867380Y-106488094D02*
X87915000Y-106440475D01*
X87915000Y-106440475D02*
X87962619Y-106345237D01*
X87962619Y-106345237D02*
X87962619Y-106154761D01*
X87962619Y-106154761D02*
X87915000Y-106059523D01*
X87915000Y-106059523D02*
X87867380Y-106011904D01*
X87867380Y-106011904D02*
X87772142Y-105964285D01*
X87772142Y-105964285D02*
X87534047Y-105964285D01*
X87534047Y-105964285D02*
X87438809Y-106011904D01*
X87438809Y-106011904D02*
X87391190Y-106059523D01*
X87391190Y-106059523D02*
X87343571Y-106154761D01*
X87343571Y-106154761D02*
X87343571Y-106345237D01*
X87343571Y-106345237D02*
X87391190Y-106440475D01*
X87391190Y-106440475D02*
X87438809Y-106488094D01*
X87438809Y-106488094D02*
X87534047Y-106535713D01*
%TO.C,R5*%
X59857142Y-131462619D02*
X59523809Y-130986428D01*
X59285714Y-131462619D02*
X59285714Y-130462619D01*
X59285714Y-130462619D02*
X59666666Y-130462619D01*
X59666666Y-130462619D02*
X59761904Y-130510238D01*
X59761904Y-130510238D02*
X59809523Y-130557857D01*
X59809523Y-130557857D02*
X59857142Y-130653095D01*
X59857142Y-130653095D02*
X59857142Y-130795952D01*
X59857142Y-130795952D02*
X59809523Y-130891190D01*
X59809523Y-130891190D02*
X59761904Y-130938809D01*
X59761904Y-130938809D02*
X59666666Y-130986428D01*
X59666666Y-130986428D02*
X59285714Y-130986428D01*
X60761904Y-130462619D02*
X60285714Y-130462619D01*
X60285714Y-130462619D02*
X60238095Y-130938809D01*
X60238095Y-130938809D02*
X60285714Y-130891190D01*
X60285714Y-130891190D02*
X60380952Y-130843571D01*
X60380952Y-130843571D02*
X60619047Y-130843571D01*
X60619047Y-130843571D02*
X60714285Y-130891190D01*
X60714285Y-130891190D02*
X60761904Y-130938809D01*
X60761904Y-130938809D02*
X60809523Y-131034047D01*
X60809523Y-131034047D02*
X60809523Y-131272142D01*
X60809523Y-131272142D02*
X60761904Y-131367380D01*
X60761904Y-131367380D02*
X60714285Y-131415000D01*
X60714285Y-131415000D02*
X60619047Y-131462619D01*
X60619047Y-131462619D02*
X60380952Y-131462619D01*
X60380952Y-131462619D02*
X60285714Y-131415000D01*
X60285714Y-131415000D02*
X60238095Y-131367380D01*
%TO.C,R12*%
X132904761Y-131462619D02*
X132571428Y-130986428D01*
X132333333Y-131462619D02*
X132333333Y-130462619D01*
X132333333Y-130462619D02*
X132714285Y-130462619D01*
X132714285Y-130462619D02*
X132809523Y-130510238D01*
X132809523Y-130510238D02*
X132857142Y-130557857D01*
X132857142Y-130557857D02*
X132904761Y-130653095D01*
X132904761Y-130653095D02*
X132904761Y-130795952D01*
X132904761Y-130795952D02*
X132857142Y-130891190D01*
X132857142Y-130891190D02*
X132809523Y-130938809D01*
X132809523Y-130938809D02*
X132714285Y-130986428D01*
X132714285Y-130986428D02*
X132333333Y-130986428D01*
X133857142Y-131462619D02*
X133285714Y-131462619D01*
X133571428Y-131462619D02*
X133571428Y-130462619D01*
X133571428Y-130462619D02*
X133476190Y-130605476D01*
X133476190Y-130605476D02*
X133380952Y-130700714D01*
X133380952Y-130700714D02*
X133285714Y-130748333D01*
X134238095Y-130557857D02*
X134285714Y-130510238D01*
X134285714Y-130510238D02*
X134380952Y-130462619D01*
X134380952Y-130462619D02*
X134619047Y-130462619D01*
X134619047Y-130462619D02*
X134714285Y-130510238D01*
X134714285Y-130510238D02*
X134761904Y-130557857D01*
X134761904Y-130557857D02*
X134809523Y-130653095D01*
X134809523Y-130653095D02*
X134809523Y-130748333D01*
X134809523Y-130748333D02*
X134761904Y-130891190D01*
X134761904Y-130891190D02*
X134190476Y-131462619D01*
X134190476Y-131462619D02*
X134809523Y-131462619D01*
%TO.C,R9*%
X107008333Y-129462619D02*
X106675000Y-128986428D01*
X106436905Y-129462619D02*
X106436905Y-128462619D01*
X106436905Y-128462619D02*
X106817857Y-128462619D01*
X106817857Y-128462619D02*
X106913095Y-128510238D01*
X106913095Y-128510238D02*
X106960714Y-128557857D01*
X106960714Y-128557857D02*
X107008333Y-128653095D01*
X107008333Y-128653095D02*
X107008333Y-128795952D01*
X107008333Y-128795952D02*
X106960714Y-128891190D01*
X106960714Y-128891190D02*
X106913095Y-128938809D01*
X106913095Y-128938809D02*
X106817857Y-128986428D01*
X106817857Y-128986428D02*
X106436905Y-128986428D01*
X107484524Y-129462619D02*
X107675000Y-129462619D01*
X107675000Y-129462619D02*
X107770238Y-129415000D01*
X107770238Y-129415000D02*
X107817857Y-129367380D01*
X107817857Y-129367380D02*
X107913095Y-129224523D01*
X107913095Y-129224523D02*
X107960714Y-129034047D01*
X107960714Y-129034047D02*
X107960714Y-128653095D01*
X107960714Y-128653095D02*
X107913095Y-128557857D01*
X107913095Y-128557857D02*
X107865476Y-128510238D01*
X107865476Y-128510238D02*
X107770238Y-128462619D01*
X107770238Y-128462619D02*
X107579762Y-128462619D01*
X107579762Y-128462619D02*
X107484524Y-128510238D01*
X107484524Y-128510238D02*
X107436905Y-128557857D01*
X107436905Y-128557857D02*
X107389286Y-128653095D01*
X107389286Y-128653095D02*
X107389286Y-128891190D01*
X107389286Y-128891190D02*
X107436905Y-128986428D01*
X107436905Y-128986428D02*
X107484524Y-129034047D01*
X107484524Y-129034047D02*
X107579762Y-129081666D01*
X107579762Y-129081666D02*
X107770238Y-129081666D01*
X107770238Y-129081666D02*
X107865476Y-129034047D01*
X107865476Y-129034047D02*
X107913095Y-128986428D01*
X107913095Y-128986428D02*
X107960714Y-128891190D01*
%TO.C,Q1*%
X98854761Y-83057857D02*
X98759523Y-83010238D01*
X98759523Y-83010238D02*
X98664285Y-82915000D01*
X98664285Y-82915000D02*
X98521428Y-82772142D01*
X98521428Y-82772142D02*
X98426190Y-82724523D01*
X98426190Y-82724523D02*
X98330952Y-82724523D01*
X98378571Y-82962619D02*
X98283333Y-82915000D01*
X98283333Y-82915000D02*
X98188095Y-82819761D01*
X98188095Y-82819761D02*
X98140476Y-82629285D01*
X98140476Y-82629285D02*
X98140476Y-82295952D01*
X98140476Y-82295952D02*
X98188095Y-82105476D01*
X98188095Y-82105476D02*
X98283333Y-82010238D01*
X98283333Y-82010238D02*
X98378571Y-81962619D01*
X98378571Y-81962619D02*
X98569047Y-81962619D01*
X98569047Y-81962619D02*
X98664285Y-82010238D01*
X98664285Y-82010238D02*
X98759523Y-82105476D01*
X98759523Y-82105476D02*
X98807142Y-82295952D01*
X98807142Y-82295952D02*
X98807142Y-82629285D01*
X98807142Y-82629285D02*
X98759523Y-82819761D01*
X98759523Y-82819761D02*
X98664285Y-82915000D01*
X98664285Y-82915000D02*
X98569047Y-82962619D01*
X98569047Y-82962619D02*
X98378571Y-82962619D01*
X99759523Y-82962619D02*
X99188095Y-82962619D01*
X99473809Y-82962619D02*
X99473809Y-81962619D01*
X99473809Y-81962619D02*
X99378571Y-82105476D01*
X99378571Y-82105476D02*
X99283333Y-82200714D01*
X99283333Y-82200714D02*
X99188095Y-82248333D01*
%TO.C,R2*%
X104083333Y-94962619D02*
X103750000Y-94486428D01*
X103511905Y-94962619D02*
X103511905Y-93962619D01*
X103511905Y-93962619D02*
X103892857Y-93962619D01*
X103892857Y-93962619D02*
X103988095Y-94010238D01*
X103988095Y-94010238D02*
X104035714Y-94057857D01*
X104035714Y-94057857D02*
X104083333Y-94153095D01*
X104083333Y-94153095D02*
X104083333Y-94295952D01*
X104083333Y-94295952D02*
X104035714Y-94391190D01*
X104035714Y-94391190D02*
X103988095Y-94438809D01*
X103988095Y-94438809D02*
X103892857Y-94486428D01*
X103892857Y-94486428D02*
X103511905Y-94486428D01*
X104464286Y-94057857D02*
X104511905Y-94010238D01*
X104511905Y-94010238D02*
X104607143Y-93962619D01*
X104607143Y-93962619D02*
X104845238Y-93962619D01*
X104845238Y-93962619D02*
X104940476Y-94010238D01*
X104940476Y-94010238D02*
X104988095Y-94057857D01*
X104988095Y-94057857D02*
X105035714Y-94153095D01*
X105035714Y-94153095D02*
X105035714Y-94248333D01*
X105035714Y-94248333D02*
X104988095Y-94391190D01*
X104988095Y-94391190D02*
X104416667Y-94962619D01*
X104416667Y-94962619D02*
X105035714Y-94962619D01*
%TO.C,JP1*%
G36*
X105672954Y-100071878D02*
G01*
X105703359Y-100102283D01*
X105737618Y-100170799D01*
X105737618Y-100278246D01*
X105703359Y-100346763D01*
X105672952Y-100377170D01*
X105604437Y-100411428D01*
X105483157Y-100411428D01*
X105465112Y-100409558D01*
X105461412Y-100411428D01*
X105316190Y-100411428D01*
X105316190Y-100037619D01*
X105604436Y-100037619D01*
X105672954Y-100071878D01*
G37*
G36*
X109982262Y-101555357D02*
G01*
X104547738Y-101555357D01*
X104547738Y-100497552D01*
X105163820Y-100497552D01*
X105166190Y-100502742D01*
X105166190Y-100973401D01*
X105175433Y-101004879D01*
X105208719Y-101033721D01*
X105252314Y-101039989D01*
X105292378Y-101021693D01*
X105316190Y-100984641D01*
X105316190Y-100561428D01*
X105440236Y-100561428D01*
X105757359Y-101014462D01*
X105782982Y-101034949D01*
X105826791Y-101039489D01*
X105866100Y-101019624D01*
X105888430Y-100981660D01*
X105888117Y-100973743D01*
X106163820Y-100973743D01*
X106170739Y-100988895D01*
X106175433Y-101004879D01*
X106179745Y-101008615D01*
X106182116Y-101013807D01*
X106196132Y-101022814D01*
X106208719Y-101033721D01*
X106214365Y-101034532D01*
X106219168Y-101037619D01*
X106235830Y-101037619D01*
X106252314Y-101039989D01*
X106257504Y-101037619D01*
X106728162Y-101037619D01*
X106759640Y-101028376D01*
X106788482Y-100995090D01*
X106794750Y-100951495D01*
X106776454Y-100911431D01*
X106739402Y-100887619D01*
X106316190Y-100887619D01*
X106316190Y-100513809D01*
X106585305Y-100513809D01*
X106616783Y-100504566D01*
X106645625Y-100471280D01*
X106651893Y-100427685D01*
X106633597Y-100387621D01*
X106596545Y-100363809D01*
X106316190Y-100363809D01*
X106316190Y-100161486D01*
X107020619Y-100161486D01*
X107023333Y-100168030D01*
X107023333Y-100244293D01*
X107021402Y-100262177D01*
X107028258Y-100275890D01*
X107032576Y-100290593D01*
X107037929Y-100295231D01*
X107074664Y-100368700D01*
X107077347Y-100381032D01*
X107091974Y-100395659D01*
X107106036Y-100410777D01*
X107107454Y-100411139D01*
X107133889Y-100437574D01*
X107140333Y-100448424D01*
X107158842Y-100457678D01*
X107176956Y-100467569D01*
X107178414Y-100467464D01*
X107243319Y-100499917D01*
X107249254Y-100506229D01*
X107262631Y-100509573D01*
X107264911Y-100510713D01*
X107273043Y-100512176D01*
X107453107Y-100557192D01*
X107530097Y-100595687D01*
X107560502Y-100626092D01*
X107594761Y-100694608D01*
X107594761Y-100754436D01*
X107560502Y-100822953D01*
X107530094Y-100853361D01*
X107461580Y-100887619D01*
X107253360Y-100887619D01*
X107111821Y-100840439D01*
X107079036Y-100839254D01*
X107041148Y-100861711D01*
X107021416Y-100901087D01*
X107026103Y-100944880D01*
X107053724Y-100979187D01*
X107208553Y-101030797D01*
X107219168Y-101037619D01*
X107239847Y-101037619D01*
X107260487Y-101038365D01*
X107261746Y-101037619D01*
X107475245Y-101037619D01*
X107493129Y-101039550D01*
X107506842Y-101032693D01*
X107521545Y-101028376D01*
X107526183Y-101023022D01*
X107599651Y-100986287D01*
X107611985Y-100983605D01*
X107621846Y-100973743D01*
X108020963Y-100973743D01*
X108027882Y-100988895D01*
X108032576Y-101004879D01*
X108036888Y-101008615D01*
X108039259Y-101013807D01*
X108053275Y-101022814D01*
X108065862Y-101033721D01*
X108071508Y-101034532D01*
X108076311Y-101037619D01*
X108092973Y-101037619D01*
X108109457Y-101039989D01*
X108114647Y-101037619D01*
X108585305Y-101037619D01*
X108616783Y-101028376D01*
X108645625Y-100995090D01*
X108651893Y-100951495D01*
X108633597Y-100911431D01*
X108596545Y-100887619D01*
X108173333Y-100887619D01*
X108173333Y-100513809D01*
X108442448Y-100513809D01*
X108473926Y-100504566D01*
X108502768Y-100471280D01*
X108509036Y-100427685D01*
X108490740Y-100387621D01*
X108453688Y-100363809D01*
X108173333Y-100363809D01*
X108173333Y-100037619D01*
X108585305Y-100037619D01*
X108616783Y-100028376D01*
X108645625Y-99995090D01*
X108648694Y-99973743D01*
X108782868Y-99973743D01*
X108801164Y-100013807D01*
X108838216Y-100037619D01*
X109070952Y-100037619D01*
X109070952Y-100973401D01*
X109080195Y-101004879D01*
X109113481Y-101033721D01*
X109157076Y-101039989D01*
X109197140Y-101021693D01*
X109220952Y-100984641D01*
X109220952Y-100037619D01*
X109442448Y-100037619D01*
X109473926Y-100028376D01*
X109502768Y-99995090D01*
X109509036Y-99951495D01*
X109490740Y-99911431D01*
X109453688Y-99887619D01*
X109151312Y-99887619D01*
X109134828Y-99885249D01*
X109129638Y-99887619D01*
X108849456Y-99887619D01*
X108817978Y-99896862D01*
X108789136Y-99930148D01*
X108782868Y-99973743D01*
X108648694Y-99973743D01*
X108651893Y-99951495D01*
X108633597Y-99911431D01*
X108596545Y-99887619D01*
X108103693Y-99887619D01*
X108087209Y-99885249D01*
X108072056Y-99892168D01*
X108056073Y-99896862D01*
X108052336Y-99901174D01*
X108047145Y-99903545D01*
X108038137Y-99917561D01*
X108027231Y-99930148D01*
X108026419Y-99935794D01*
X108023333Y-99940597D01*
X108023333Y-99957259D01*
X108020963Y-99973743D01*
X108023333Y-99978933D01*
X108023333Y-100433449D01*
X108020963Y-100449933D01*
X108023333Y-100455123D01*
X108023333Y-100957259D01*
X108020963Y-100973743D01*
X107621846Y-100973743D01*
X107626616Y-100968972D01*
X107641729Y-100954916D01*
X107642091Y-100953496D01*
X107668525Y-100927062D01*
X107679376Y-100920618D01*
X107688632Y-100902104D01*
X107698522Y-100883994D01*
X107698417Y-100882534D01*
X107735039Y-100809290D01*
X107744761Y-100794164D01*
X107744761Y-100778834D01*
X107747475Y-100763751D01*
X107744761Y-100757207D01*
X107744761Y-100680935D01*
X107746691Y-100663060D01*
X107739836Y-100649350D01*
X107735518Y-100634644D01*
X107730163Y-100630004D01*
X107693429Y-100556535D01*
X107690747Y-100544205D01*
X107676127Y-100529585D01*
X107662058Y-100514460D01*
X107660639Y-100514097D01*
X107634204Y-100487662D01*
X107627761Y-100476813D01*
X107609260Y-100467562D01*
X107591138Y-100457667D01*
X107589677Y-100457771D01*
X107524773Y-100425319D01*
X107518839Y-100419008D01*
X107505461Y-100415663D01*
X107503182Y-100414524D01*
X107495049Y-100413060D01*
X107314986Y-100368044D01*
X107237997Y-100329550D01*
X107207590Y-100299143D01*
X107173333Y-100230628D01*
X107173333Y-100170801D01*
X107207592Y-100102283D01*
X107237997Y-100071877D01*
X107306513Y-100037619D01*
X107514734Y-100037619D01*
X107656272Y-100084799D01*
X107689058Y-100085984D01*
X107726946Y-100063527D01*
X107746678Y-100024151D01*
X107741990Y-99980357D01*
X107714370Y-99946051D01*
X107559541Y-99894441D01*
X107548926Y-99887619D01*
X107528246Y-99887619D01*
X107507607Y-99886873D01*
X107506348Y-99887619D01*
X107292840Y-99887619D01*
X107274965Y-99885689D01*
X107261255Y-99892543D01*
X107246549Y-99896862D01*
X107241909Y-99902216D01*
X107168440Y-99938950D01*
X107156110Y-99941633D01*
X107141490Y-99956252D01*
X107126365Y-99970322D01*
X107126002Y-99971740D01*
X107099567Y-99998175D01*
X107088718Y-100004619D01*
X107079467Y-100023119D01*
X107069572Y-100041242D01*
X107069676Y-100042702D01*
X107033056Y-100115943D01*
X107023333Y-100131073D01*
X107023333Y-100146403D01*
X107020619Y-100161486D01*
X106316190Y-100161486D01*
X106316190Y-100037619D01*
X106728162Y-100037619D01*
X106759640Y-100028376D01*
X106788482Y-99995090D01*
X106794750Y-99951495D01*
X106776454Y-99911431D01*
X106739402Y-99887619D01*
X106246550Y-99887619D01*
X106230066Y-99885249D01*
X106214913Y-99892168D01*
X106198930Y-99896862D01*
X106195193Y-99901174D01*
X106190002Y-99903545D01*
X106180994Y-99917561D01*
X106170088Y-99930148D01*
X106169276Y-99935794D01*
X106166190Y-99940597D01*
X106166190Y-99957259D01*
X106163820Y-99973743D01*
X106166190Y-99978933D01*
X106166190Y-100433449D01*
X106163820Y-100449933D01*
X106166190Y-100455123D01*
X106166190Y-100957259D01*
X106163820Y-100973743D01*
X105888117Y-100973743D01*
X105886689Y-100937651D01*
X105623761Y-100562039D01*
X105635986Y-100563359D01*
X105649699Y-100556502D01*
X105664402Y-100552185D01*
X105669040Y-100546831D01*
X105742509Y-100510096D01*
X105754841Y-100507414D01*
X105769468Y-100492786D01*
X105784586Y-100478725D01*
X105784948Y-100477306D01*
X105811383Y-100450871D01*
X105822233Y-100444428D01*
X105831487Y-100425918D01*
X105841378Y-100407805D01*
X105841273Y-100406346D01*
X105877896Y-100333100D01*
X105887618Y-100317974D01*
X105887618Y-100302644D01*
X105890332Y-100287561D01*
X105887618Y-100281017D01*
X105887618Y-100157126D01*
X105889548Y-100139251D01*
X105882693Y-100125541D01*
X105878375Y-100110835D01*
X105873020Y-100106195D01*
X105836286Y-100032726D01*
X105833604Y-100020396D01*
X105818984Y-100005776D01*
X105804915Y-99990651D01*
X105803496Y-99990288D01*
X105777061Y-99963853D01*
X105770618Y-99953004D01*
X105752117Y-99943753D01*
X105733995Y-99933858D01*
X105732534Y-99933962D01*
X105659293Y-99897342D01*
X105644164Y-99887619D01*
X105628834Y-99887619D01*
X105613751Y-99884905D01*
X105607207Y-99887619D01*
X105246550Y-99887619D01*
X105230066Y-99885249D01*
X105214913Y-99892168D01*
X105198930Y-99896862D01*
X105195193Y-99901174D01*
X105190002Y-99903545D01*
X105180994Y-99917561D01*
X105170088Y-99930148D01*
X105169276Y-99935794D01*
X105166190Y-99940597D01*
X105166190Y-99957259D01*
X105163820Y-99973743D01*
X105166190Y-99978933D01*
X105166190Y-100481068D01*
X105163820Y-100497552D01*
X104547738Y-100497552D01*
X104547738Y-99444643D01*
X109982262Y-99444643D01*
X109982262Y-101555357D01*
G37*
%TO.C,FB7*%
X88761904Y-132938809D02*
X88428571Y-132938809D01*
X88428571Y-133462619D02*
X88428571Y-132462619D01*
X88428571Y-132462619D02*
X88904761Y-132462619D01*
X89619047Y-132938809D02*
X89761904Y-132986428D01*
X89761904Y-132986428D02*
X89809523Y-133034047D01*
X89809523Y-133034047D02*
X89857142Y-133129285D01*
X89857142Y-133129285D02*
X89857142Y-133272142D01*
X89857142Y-133272142D02*
X89809523Y-133367380D01*
X89809523Y-133367380D02*
X89761904Y-133415000D01*
X89761904Y-133415000D02*
X89666666Y-133462619D01*
X89666666Y-133462619D02*
X89285714Y-133462619D01*
X89285714Y-133462619D02*
X89285714Y-132462619D01*
X89285714Y-132462619D02*
X89619047Y-132462619D01*
X89619047Y-132462619D02*
X89714285Y-132510238D01*
X89714285Y-132510238D02*
X89761904Y-132557857D01*
X89761904Y-132557857D02*
X89809523Y-132653095D01*
X89809523Y-132653095D02*
X89809523Y-132748333D01*
X89809523Y-132748333D02*
X89761904Y-132843571D01*
X89761904Y-132843571D02*
X89714285Y-132891190D01*
X89714285Y-132891190D02*
X89619047Y-132938809D01*
X89619047Y-132938809D02*
X89285714Y-132938809D01*
X90190476Y-132462619D02*
X90857142Y-132462619D01*
X90857142Y-132462619D02*
X90428571Y-133462619D01*
%TO.C,FB8*%
X102761904Y-132938809D02*
X102428571Y-132938809D01*
X102428571Y-133462619D02*
X102428571Y-132462619D01*
X102428571Y-132462619D02*
X102904761Y-132462619D01*
X103619047Y-132938809D02*
X103761904Y-132986428D01*
X103761904Y-132986428D02*
X103809523Y-133034047D01*
X103809523Y-133034047D02*
X103857142Y-133129285D01*
X103857142Y-133129285D02*
X103857142Y-133272142D01*
X103857142Y-133272142D02*
X103809523Y-133367380D01*
X103809523Y-133367380D02*
X103761904Y-133415000D01*
X103761904Y-133415000D02*
X103666666Y-133462619D01*
X103666666Y-133462619D02*
X103285714Y-133462619D01*
X103285714Y-133462619D02*
X103285714Y-132462619D01*
X103285714Y-132462619D02*
X103619047Y-132462619D01*
X103619047Y-132462619D02*
X103714285Y-132510238D01*
X103714285Y-132510238D02*
X103761904Y-132557857D01*
X103761904Y-132557857D02*
X103809523Y-132653095D01*
X103809523Y-132653095D02*
X103809523Y-132748333D01*
X103809523Y-132748333D02*
X103761904Y-132843571D01*
X103761904Y-132843571D02*
X103714285Y-132891190D01*
X103714285Y-132891190D02*
X103619047Y-132938809D01*
X103619047Y-132938809D02*
X103285714Y-132938809D01*
X104428571Y-132891190D02*
X104333333Y-132843571D01*
X104333333Y-132843571D02*
X104285714Y-132795952D01*
X104285714Y-132795952D02*
X104238095Y-132700714D01*
X104238095Y-132700714D02*
X104238095Y-132653095D01*
X104238095Y-132653095D02*
X104285714Y-132557857D01*
X104285714Y-132557857D02*
X104333333Y-132510238D01*
X104333333Y-132510238D02*
X104428571Y-132462619D01*
X104428571Y-132462619D02*
X104619047Y-132462619D01*
X104619047Y-132462619D02*
X104714285Y-132510238D01*
X104714285Y-132510238D02*
X104761904Y-132557857D01*
X104761904Y-132557857D02*
X104809523Y-132653095D01*
X104809523Y-132653095D02*
X104809523Y-132700714D01*
X104809523Y-132700714D02*
X104761904Y-132795952D01*
X104761904Y-132795952D02*
X104714285Y-132843571D01*
X104714285Y-132843571D02*
X104619047Y-132891190D01*
X104619047Y-132891190D02*
X104428571Y-132891190D01*
X104428571Y-132891190D02*
X104333333Y-132938809D01*
X104333333Y-132938809D02*
X104285714Y-132986428D01*
X104285714Y-132986428D02*
X104238095Y-133081666D01*
X104238095Y-133081666D02*
X104238095Y-133272142D01*
X104238095Y-133272142D02*
X104285714Y-133367380D01*
X104285714Y-133367380D02*
X104333333Y-133415000D01*
X104333333Y-133415000D02*
X104428571Y-133462619D01*
X104428571Y-133462619D02*
X104619047Y-133462619D01*
X104619047Y-133462619D02*
X104714285Y-133415000D01*
X104714285Y-133415000D02*
X104761904Y-133367380D01*
X104761904Y-133367380D02*
X104809523Y-133272142D01*
X104809523Y-133272142D02*
X104809523Y-133081666D01*
X104809523Y-133081666D02*
X104761904Y-132986428D01*
X104761904Y-132986428D02*
X104714285Y-132938809D01*
X104714285Y-132938809D02*
X104619047Y-132891190D01*
%TO.C,J3*%
G36*
X114984145Y-114821878D02*
G01*
X115014550Y-114852283D01*
X115048809Y-114920799D01*
X115048809Y-115028246D01*
X115014550Y-115096763D01*
X114984143Y-115127170D01*
X114915628Y-115161428D01*
X114627381Y-115161428D01*
X114627381Y-114787619D01*
X114915627Y-114787619D01*
X114984145Y-114821878D01*
G37*
G36*
X115769643Y-116305357D02*
G01*
X111430358Y-116305357D01*
X111430358Y-115723401D01*
X112048810Y-115723401D01*
X112058053Y-115754879D01*
X112091339Y-115783721D01*
X112134934Y-115789989D01*
X112174998Y-115771693D01*
X112198810Y-115734641D01*
X112198810Y-115280873D01*
X112474279Y-115280873D01*
X112477381Y-115293281D01*
X112477381Y-115294829D01*
X112479985Y-115303698D01*
X112523999Y-115479753D01*
X112523069Y-115488367D01*
X112529235Y-115500700D01*
X112529854Y-115503173D01*
X112534036Y-115510300D01*
X112576331Y-115594890D01*
X112579014Y-115607222D01*
X112593643Y-115621851D01*
X112607703Y-115636967D01*
X112609121Y-115637329D01*
X112686969Y-115715178D01*
X112698248Y-115729187D01*
X112712789Y-115734034D01*
X112726242Y-115741380D01*
X112733310Y-115740874D01*
X112853077Y-115780797D01*
X112863692Y-115787619D01*
X112884371Y-115787619D01*
X112905011Y-115788365D01*
X112906270Y-115787619D01*
X112971550Y-115787619D01*
X112983777Y-115790734D01*
X113003389Y-115784196D01*
X113023212Y-115778376D01*
X113024170Y-115777269D01*
X113143694Y-115737428D01*
X113161271Y-115733605D01*
X113172112Y-115722762D01*
X113184694Y-115714019D01*
X113187401Y-115707473D01*
X113232085Y-115662788D01*
X113247808Y-115633994D01*
X113244665Y-115590063D01*
X113218270Y-115554805D01*
X113177003Y-115539413D01*
X113133966Y-115548776D01*
X113083295Y-115599447D01*
X112968780Y-115637619D01*
X112897884Y-115637619D01*
X112783369Y-115599447D01*
X112709257Y-115525333D01*
X112670764Y-115448347D01*
X112627381Y-115274813D01*
X112627381Y-115150425D01*
X112670764Y-114976891D01*
X112703467Y-114911486D01*
X113474667Y-114911486D01*
X113477381Y-114918030D01*
X113477381Y-114994293D01*
X113475450Y-115012177D01*
X113482306Y-115025890D01*
X113486624Y-115040593D01*
X113491977Y-115045231D01*
X113528712Y-115118700D01*
X113531395Y-115131032D01*
X113546022Y-115145659D01*
X113560084Y-115160777D01*
X113561502Y-115161139D01*
X113587937Y-115187574D01*
X113594381Y-115198424D01*
X113612890Y-115207678D01*
X113631004Y-115217569D01*
X113632462Y-115217464D01*
X113697367Y-115249917D01*
X113703302Y-115256229D01*
X113716679Y-115259573D01*
X113718959Y-115260713D01*
X113727091Y-115262176D01*
X113907155Y-115307192D01*
X113984145Y-115345687D01*
X114014550Y-115376092D01*
X114048809Y-115444608D01*
X114048809Y-115504436D01*
X114014550Y-115572953D01*
X113984142Y-115603361D01*
X113915628Y-115637619D01*
X113707408Y-115637619D01*
X113565869Y-115590439D01*
X113533084Y-115589254D01*
X113495196Y-115611711D01*
X113475464Y-115651087D01*
X113480151Y-115694880D01*
X113507772Y-115729187D01*
X113662601Y-115780797D01*
X113673216Y-115787619D01*
X113693895Y-115787619D01*
X113714535Y-115788365D01*
X113715794Y-115787619D01*
X113929293Y-115787619D01*
X113947177Y-115789550D01*
X113960890Y-115782693D01*
X113975593Y-115778376D01*
X113980231Y-115773022D01*
X114053699Y-115736287D01*
X114066033Y-115733605D01*
X114080664Y-115718972D01*
X114095777Y-115704916D01*
X114096139Y-115703496D01*
X114122573Y-115677062D01*
X114133424Y-115670618D01*
X114142680Y-115652104D01*
X114152570Y-115633994D01*
X114152465Y-115632534D01*
X114189087Y-115559290D01*
X114198809Y-115544164D01*
X114198809Y-115528834D01*
X114201523Y-115513751D01*
X114198809Y-115507207D01*
X114198809Y-115430935D01*
X114200739Y-115413060D01*
X114193884Y-115399350D01*
X114189566Y-115384644D01*
X114184211Y-115380004D01*
X114147477Y-115306535D01*
X114144795Y-115294205D01*
X114130175Y-115279585D01*
X114116106Y-115264460D01*
X114114687Y-115264097D01*
X114098142Y-115247552D01*
X114475011Y-115247552D01*
X114477381Y-115252742D01*
X114477381Y-115723401D01*
X114486624Y-115754879D01*
X114519910Y-115783721D01*
X114563505Y-115789989D01*
X114603569Y-115771693D01*
X114627381Y-115734641D01*
X114627381Y-115311428D01*
X114929293Y-115311428D01*
X114947177Y-115313359D01*
X114960890Y-115306502D01*
X114975593Y-115302185D01*
X114980231Y-115296831D01*
X115053700Y-115260096D01*
X115066032Y-115257414D01*
X115080659Y-115242786D01*
X115095777Y-115228725D01*
X115096139Y-115227306D01*
X115122574Y-115200871D01*
X115133424Y-115194428D01*
X115142678Y-115175918D01*
X115152569Y-115157805D01*
X115152464Y-115156346D01*
X115189087Y-115083100D01*
X115198809Y-115067974D01*
X115198809Y-115052644D01*
X115201523Y-115037561D01*
X115198809Y-115031017D01*
X115198809Y-114907126D01*
X115200739Y-114889251D01*
X115193884Y-114875541D01*
X115189566Y-114860835D01*
X115184211Y-114856195D01*
X115147477Y-114782726D01*
X115144795Y-114770396D01*
X115130175Y-114755776D01*
X115116106Y-114740651D01*
X115114687Y-114740288D01*
X115088252Y-114713853D01*
X115081809Y-114703004D01*
X115063308Y-114693753D01*
X115045186Y-114683858D01*
X115043725Y-114683962D01*
X114970484Y-114647342D01*
X114955355Y-114637619D01*
X114940025Y-114637619D01*
X114924942Y-114634905D01*
X114918398Y-114637619D01*
X114557741Y-114637619D01*
X114541257Y-114635249D01*
X114526104Y-114642168D01*
X114510121Y-114646862D01*
X114506384Y-114651174D01*
X114501193Y-114653545D01*
X114492185Y-114667561D01*
X114481279Y-114680148D01*
X114480467Y-114685794D01*
X114477381Y-114690597D01*
X114477381Y-114707259D01*
X114475011Y-114723743D01*
X114477381Y-114728933D01*
X114477381Y-115231068D01*
X114475011Y-115247552D01*
X114098142Y-115247552D01*
X114088252Y-115237662D01*
X114081809Y-115226813D01*
X114063308Y-115217562D01*
X114045186Y-115207667D01*
X114043725Y-115207771D01*
X113978821Y-115175319D01*
X113972887Y-115169008D01*
X113959509Y-115165663D01*
X113957230Y-115164524D01*
X113949097Y-115163060D01*
X113769034Y-115118044D01*
X113692045Y-115079550D01*
X113661638Y-115049143D01*
X113627381Y-114980628D01*
X113627381Y-114920801D01*
X113661640Y-114852283D01*
X113692045Y-114821877D01*
X113760561Y-114787619D01*
X113968782Y-114787619D01*
X114110320Y-114834799D01*
X114143106Y-114835984D01*
X114180994Y-114813527D01*
X114200726Y-114774151D01*
X114196038Y-114730357D01*
X114168418Y-114696051D01*
X114013589Y-114644441D01*
X114002974Y-114637619D01*
X113982294Y-114637619D01*
X113961655Y-114636873D01*
X113960396Y-114637619D01*
X113746888Y-114637619D01*
X113729013Y-114635689D01*
X113715303Y-114642543D01*
X113700597Y-114646862D01*
X113695957Y-114652216D01*
X113622488Y-114688950D01*
X113610158Y-114691633D01*
X113595538Y-114706252D01*
X113580413Y-114720322D01*
X113580050Y-114721740D01*
X113553615Y-114748175D01*
X113542766Y-114754619D01*
X113533515Y-114773119D01*
X113523620Y-114791242D01*
X113523724Y-114792702D01*
X113487104Y-114865943D01*
X113477381Y-114881073D01*
X113477381Y-114896403D01*
X113474667Y-114911486D01*
X112703467Y-114911486D01*
X112709259Y-114899902D01*
X112783370Y-114825790D01*
X112897885Y-114787619D01*
X112968782Y-114787619D01*
X113083295Y-114825790D01*
X113126019Y-114868514D01*
X113154813Y-114884236D01*
X113198744Y-114881094D01*
X113234002Y-114854700D01*
X113249395Y-114813433D01*
X113240033Y-114770396D01*
X113179695Y-114710058D01*
X113168418Y-114696051D01*
X113153876Y-114691203D01*
X113140424Y-114683858D01*
X113133356Y-114684363D01*
X113013589Y-114644441D01*
X113002974Y-114637619D01*
X112982294Y-114637619D01*
X112961655Y-114636873D01*
X112960396Y-114637619D01*
X112895116Y-114637619D01*
X112882888Y-114634504D01*
X112863268Y-114641043D01*
X112843454Y-114646862D01*
X112842495Y-114647968D01*
X112722966Y-114687810D01*
X112705396Y-114691633D01*
X112694557Y-114702471D01*
X112681971Y-114711219D01*
X112679262Y-114717766D01*
X112601234Y-114795794D01*
X112590385Y-114802238D01*
X112581134Y-114820738D01*
X112571239Y-114838861D01*
X112571343Y-114840321D01*
X112538891Y-114905225D01*
X112532580Y-114911160D01*
X112529235Y-114924537D01*
X112528096Y-114926817D01*
X112526632Y-114934949D01*
X112482613Y-115111026D01*
X112477381Y-115119168D01*
X112477381Y-115131956D01*
X112477005Y-115133460D01*
X112477381Y-115142706D01*
X112477381Y-115271704D01*
X112474279Y-115280873D01*
X112198810Y-115280873D01*
X112198810Y-114701837D01*
X112189567Y-114670359D01*
X112156281Y-114641517D01*
X112112686Y-114635249D01*
X112072622Y-114653545D01*
X112048810Y-114690597D01*
X112048810Y-115723401D01*
X111430358Y-115723401D01*
X111430358Y-114194643D01*
X115769643Y-114194643D01*
X115769643Y-116305357D01*
G37*
%TO.C,R11*%
X124904761Y-131462619D02*
X124571428Y-130986428D01*
X124333333Y-131462619D02*
X124333333Y-130462619D01*
X124333333Y-130462619D02*
X124714285Y-130462619D01*
X124714285Y-130462619D02*
X124809523Y-130510238D01*
X124809523Y-130510238D02*
X124857142Y-130557857D01*
X124857142Y-130557857D02*
X124904761Y-130653095D01*
X124904761Y-130653095D02*
X124904761Y-130795952D01*
X124904761Y-130795952D02*
X124857142Y-130891190D01*
X124857142Y-130891190D02*
X124809523Y-130938809D01*
X124809523Y-130938809D02*
X124714285Y-130986428D01*
X124714285Y-130986428D02*
X124333333Y-130986428D01*
X125857142Y-131462619D02*
X125285714Y-131462619D01*
X125571428Y-131462619D02*
X125571428Y-130462619D01*
X125571428Y-130462619D02*
X125476190Y-130605476D01*
X125476190Y-130605476D02*
X125380952Y-130700714D01*
X125380952Y-130700714D02*
X125285714Y-130748333D01*
X126809523Y-131462619D02*
X126238095Y-131462619D01*
X126523809Y-131462619D02*
X126523809Y-130462619D01*
X126523809Y-130462619D02*
X126428571Y-130605476D01*
X126428571Y-130605476D02*
X126333333Y-130700714D01*
X126333333Y-130700714D02*
X126238095Y-130748333D01*
%TO.C,FB12*%
X139440476Y-87938809D02*
X139107143Y-87938809D01*
X139107143Y-88462619D02*
X139107143Y-87462619D01*
X139107143Y-87462619D02*
X139583333Y-87462619D01*
X140297619Y-87938809D02*
X140440476Y-87986428D01*
X140440476Y-87986428D02*
X140488095Y-88034047D01*
X140488095Y-88034047D02*
X140535714Y-88129285D01*
X140535714Y-88129285D02*
X140535714Y-88272142D01*
X140535714Y-88272142D02*
X140488095Y-88367380D01*
X140488095Y-88367380D02*
X140440476Y-88415000D01*
X140440476Y-88415000D02*
X140345238Y-88462619D01*
X140345238Y-88462619D02*
X139964286Y-88462619D01*
X139964286Y-88462619D02*
X139964286Y-87462619D01*
X139964286Y-87462619D02*
X140297619Y-87462619D01*
X140297619Y-87462619D02*
X140392857Y-87510238D01*
X140392857Y-87510238D02*
X140440476Y-87557857D01*
X140440476Y-87557857D02*
X140488095Y-87653095D01*
X140488095Y-87653095D02*
X140488095Y-87748333D01*
X140488095Y-87748333D02*
X140440476Y-87843571D01*
X140440476Y-87843571D02*
X140392857Y-87891190D01*
X140392857Y-87891190D02*
X140297619Y-87938809D01*
X140297619Y-87938809D02*
X139964286Y-87938809D01*
X141488095Y-88462619D02*
X140916667Y-88462619D01*
X141202381Y-88462619D02*
X141202381Y-87462619D01*
X141202381Y-87462619D02*
X141107143Y-87605476D01*
X141107143Y-87605476D02*
X141011905Y-87700714D01*
X141011905Y-87700714D02*
X140916667Y-87748333D01*
X141869048Y-87557857D02*
X141916667Y-87510238D01*
X141916667Y-87510238D02*
X142011905Y-87462619D01*
X142011905Y-87462619D02*
X142250000Y-87462619D01*
X142250000Y-87462619D02*
X142345238Y-87510238D01*
X142345238Y-87510238D02*
X142392857Y-87557857D01*
X142392857Y-87557857D02*
X142440476Y-87653095D01*
X142440476Y-87653095D02*
X142440476Y-87748333D01*
X142440476Y-87748333D02*
X142392857Y-87891190D01*
X142392857Y-87891190D02*
X141821429Y-88462619D01*
X141821429Y-88462619D02*
X142440476Y-88462619D01*
%TO.C,JP2*%
G36*
X123678192Y-104981878D02*
G01*
X123708597Y-105012283D01*
X123742856Y-105080799D01*
X123742856Y-105188246D01*
X123708597Y-105256763D01*
X123678190Y-105287170D01*
X123609675Y-105321428D01*
X123488395Y-105321428D01*
X123470350Y-105319558D01*
X123466650Y-105321428D01*
X123321428Y-105321428D01*
X123321428Y-104947619D01*
X123609674Y-104947619D01*
X123678192Y-104981878D01*
G37*
G36*
X131606548Y-106465357D02*
G01*
X120743452Y-106465357D01*
X120743452Y-104883743D01*
X121216677Y-104883743D01*
X121234973Y-104923807D01*
X121272025Y-104947619D01*
X121504761Y-104947619D01*
X121504761Y-105883401D01*
X121514004Y-105914879D01*
X121547290Y-105943721D01*
X121590885Y-105949989D01*
X121630949Y-105931693D01*
X121654761Y-105894641D01*
X121654761Y-105359933D01*
X122121439Y-105359933D01*
X122123809Y-105365123D01*
X122123809Y-105883401D01*
X122133052Y-105914879D01*
X122166338Y-105943721D01*
X122209933Y-105949989D01*
X122249997Y-105931693D01*
X122273809Y-105894641D01*
X122273809Y-105423809D01*
X122695237Y-105423809D01*
X122695237Y-105883401D01*
X122704480Y-105914879D01*
X122737766Y-105943721D01*
X122781361Y-105949989D01*
X122821425Y-105931693D01*
X122845237Y-105894641D01*
X122845237Y-105407552D01*
X123169058Y-105407552D01*
X123171428Y-105412742D01*
X123171428Y-105883401D01*
X123180671Y-105914879D01*
X123213957Y-105943721D01*
X123257552Y-105949989D01*
X123297616Y-105931693D01*
X123321428Y-105894641D01*
X123321428Y-105471428D01*
X123445474Y-105471428D01*
X123762597Y-105924462D01*
X123788220Y-105944949D01*
X123832029Y-105949489D01*
X123871338Y-105929624D01*
X123893668Y-105891660D01*
X123891927Y-105847651D01*
X123785762Y-105695986D01*
X124169497Y-105695986D01*
X124176353Y-105709699D01*
X124180671Y-105724402D01*
X124186024Y-105729040D01*
X124222759Y-105802509D01*
X124225442Y-105814840D01*
X124240061Y-105829460D01*
X124254131Y-105844586D01*
X124255549Y-105844948D01*
X124281983Y-105871383D01*
X124288428Y-105882234D01*
X124306939Y-105891489D01*
X124325050Y-105901379D01*
X124326509Y-105901274D01*
X124399755Y-105937897D01*
X124414882Y-105947619D01*
X124430212Y-105947619D01*
X124445295Y-105950333D01*
X124451839Y-105947619D01*
X124623340Y-105947619D01*
X124641224Y-105949550D01*
X124654937Y-105942693D01*
X124669640Y-105938376D01*
X124674278Y-105933022D01*
X124747746Y-105896287D01*
X124760080Y-105893605D01*
X124774711Y-105878972D01*
X124789824Y-105864916D01*
X124790186Y-105863496D01*
X124816620Y-105837062D01*
X124827471Y-105830618D01*
X124836727Y-105812104D01*
X124846617Y-105793994D01*
X124846512Y-105792534D01*
X124883134Y-105719290D01*
X124892856Y-105704164D01*
X124892856Y-105688834D01*
X124895570Y-105673751D01*
X124892856Y-105667207D01*
X124892856Y-105071486D01*
X125930619Y-105071486D01*
X125933333Y-105078030D01*
X125933333Y-105154293D01*
X125931402Y-105172177D01*
X125938258Y-105185890D01*
X125942576Y-105200593D01*
X125947929Y-105205231D01*
X125984664Y-105278700D01*
X125987347Y-105291032D01*
X126001974Y-105305659D01*
X126016036Y-105320777D01*
X126017454Y-105321139D01*
X126043889Y-105347574D01*
X126050333Y-105358424D01*
X126068842Y-105367678D01*
X126086956Y-105377569D01*
X126088414Y-105377464D01*
X126153319Y-105409917D01*
X126159254Y-105416229D01*
X126172631Y-105419573D01*
X126174911Y-105420713D01*
X126183043Y-105422176D01*
X126363107Y-105467192D01*
X126440097Y-105505687D01*
X126470502Y-105536092D01*
X126504761Y-105604608D01*
X126504761Y-105664436D01*
X126470502Y-105732953D01*
X126440094Y-105763361D01*
X126371580Y-105797619D01*
X126163360Y-105797619D01*
X126021821Y-105750439D01*
X125989036Y-105749254D01*
X125951148Y-105771711D01*
X125931416Y-105811087D01*
X125936103Y-105854880D01*
X125963724Y-105889187D01*
X126118553Y-105940797D01*
X126129168Y-105947619D01*
X126149847Y-105947619D01*
X126170487Y-105948365D01*
X126171746Y-105947619D01*
X126385245Y-105947619D01*
X126403129Y-105949550D01*
X126416842Y-105942693D01*
X126431545Y-105938376D01*
X126436183Y-105933022D01*
X126509651Y-105896287D01*
X126521985Y-105893605D01*
X126531846Y-105883743D01*
X126930963Y-105883743D01*
X126937882Y-105898895D01*
X126942576Y-105914879D01*
X126946888Y-105918615D01*
X126949259Y-105923807D01*
X126963275Y-105932814D01*
X126975862Y-105943721D01*
X126981508Y-105944532D01*
X126986311Y-105947619D01*
X127002973Y-105947619D01*
X127019457Y-105949989D01*
X127024647Y-105947619D01*
X127495305Y-105947619D01*
X127526783Y-105938376D01*
X127555625Y-105905090D01*
X127558694Y-105883743D01*
X127835725Y-105883743D01*
X127842644Y-105898895D01*
X127847338Y-105914879D01*
X127851650Y-105918615D01*
X127854021Y-105923807D01*
X127868037Y-105932814D01*
X127880624Y-105943721D01*
X127886270Y-105944532D01*
X127891073Y-105947619D01*
X127907735Y-105947619D01*
X127924219Y-105949989D01*
X127929409Y-105947619D01*
X128400067Y-105947619D01*
X128431545Y-105938376D01*
X128460387Y-105905090D01*
X128463456Y-105883743D01*
X128645249Y-105883743D01*
X128652168Y-105898895D01*
X128656862Y-105914879D01*
X128661174Y-105918615D01*
X128663545Y-105923807D01*
X128677561Y-105932814D01*
X128690148Y-105943721D01*
X128695794Y-105944532D01*
X128700597Y-105947619D01*
X128717259Y-105947619D01*
X128733743Y-105949989D01*
X128738933Y-105947619D01*
X129209591Y-105947619D01*
X129241069Y-105938376D01*
X129269911Y-105905090D01*
X129276179Y-105861495D01*
X129257883Y-105821431D01*
X129220831Y-105797619D01*
X128797619Y-105797619D01*
X128797619Y-105440873D01*
X129501660Y-105440873D01*
X129504762Y-105453281D01*
X129504762Y-105454829D01*
X129507366Y-105463698D01*
X129551380Y-105639753D01*
X129550450Y-105648367D01*
X129556616Y-105660700D01*
X129557235Y-105663173D01*
X129561417Y-105670300D01*
X129603712Y-105754890D01*
X129606395Y-105767222D01*
X129621024Y-105781851D01*
X129635084Y-105796967D01*
X129636502Y-105797329D01*
X129714350Y-105875178D01*
X129725629Y-105889187D01*
X129740170Y-105894034D01*
X129753623Y-105901380D01*
X129760691Y-105900874D01*
X129880458Y-105940797D01*
X129891073Y-105947619D01*
X129911752Y-105947619D01*
X129932392Y-105948365D01*
X129933651Y-105947619D01*
X129998931Y-105947619D01*
X130011158Y-105950734D01*
X130030770Y-105944196D01*
X130050593Y-105938376D01*
X130051551Y-105937269D01*
X130171075Y-105897428D01*
X130188652Y-105893605D01*
X130199493Y-105882762D01*
X130212075Y-105874019D01*
X130214782Y-105867473D01*
X130259466Y-105822788D01*
X130275189Y-105793994D01*
X130272046Y-105750063D01*
X130245651Y-105714805D01*
X130204384Y-105699413D01*
X130161347Y-105708776D01*
X130110676Y-105759447D01*
X129996161Y-105797619D01*
X129925265Y-105797619D01*
X129810750Y-105759447D01*
X129736638Y-105685333D01*
X129698145Y-105608347D01*
X129654762Y-105434813D01*
X129654762Y-105310425D01*
X129698145Y-105136891D01*
X129736640Y-105059902D01*
X129810751Y-104985790D01*
X129925266Y-104947619D01*
X129996163Y-104947619D01*
X130110676Y-104985790D01*
X130153400Y-105028514D01*
X130182194Y-105044236D01*
X130226125Y-105041094D01*
X130261383Y-105014700D01*
X130276776Y-104973433D01*
X130267414Y-104930396D01*
X130220761Y-104883743D01*
X130407154Y-104883743D01*
X130425450Y-104923807D01*
X130462502Y-104947619D01*
X130695238Y-104947619D01*
X130695238Y-105883401D01*
X130704481Y-105914879D01*
X130737767Y-105943721D01*
X130781362Y-105949989D01*
X130821426Y-105931693D01*
X130845238Y-105894641D01*
X130845238Y-104947619D01*
X131066734Y-104947619D01*
X131098212Y-104938376D01*
X131127054Y-104905090D01*
X131133322Y-104861495D01*
X131115026Y-104821431D01*
X131077974Y-104797619D01*
X130775598Y-104797619D01*
X130759114Y-104795249D01*
X130753924Y-104797619D01*
X130473742Y-104797619D01*
X130442264Y-104806862D01*
X130413422Y-104840148D01*
X130407154Y-104883743D01*
X130220761Y-104883743D01*
X130207076Y-104870058D01*
X130195799Y-104856051D01*
X130181257Y-104851203D01*
X130167805Y-104843858D01*
X130160737Y-104844363D01*
X130040970Y-104804441D01*
X130030355Y-104797619D01*
X130009675Y-104797619D01*
X129989036Y-104796873D01*
X129987777Y-104797619D01*
X129922497Y-104797619D01*
X129910269Y-104794504D01*
X129890649Y-104801043D01*
X129870835Y-104806862D01*
X129869876Y-104807968D01*
X129750347Y-104847810D01*
X129732777Y-104851633D01*
X129721938Y-104862471D01*
X129709352Y-104871219D01*
X129706643Y-104877766D01*
X129628615Y-104955794D01*
X129617766Y-104962238D01*
X129608515Y-104980738D01*
X129598620Y-104998861D01*
X129598724Y-105000321D01*
X129566272Y-105065225D01*
X129559961Y-105071160D01*
X129556616Y-105084537D01*
X129555477Y-105086817D01*
X129554013Y-105094949D01*
X129509994Y-105271026D01*
X129504762Y-105279168D01*
X129504762Y-105291956D01*
X129504386Y-105293460D01*
X129504762Y-105302706D01*
X129504762Y-105431704D01*
X129501660Y-105440873D01*
X128797619Y-105440873D01*
X128797619Y-105423809D01*
X129066734Y-105423809D01*
X129098212Y-105414566D01*
X129127054Y-105381280D01*
X129133322Y-105337685D01*
X129115026Y-105297621D01*
X129077974Y-105273809D01*
X128797619Y-105273809D01*
X128797619Y-104947619D01*
X129209591Y-104947619D01*
X129241069Y-104938376D01*
X129269911Y-104905090D01*
X129276179Y-104861495D01*
X129257883Y-104821431D01*
X129220831Y-104797619D01*
X128727979Y-104797619D01*
X128711495Y-104795249D01*
X128696342Y-104802168D01*
X128680359Y-104806862D01*
X128676622Y-104811174D01*
X128671431Y-104813545D01*
X128662423Y-104827561D01*
X128651517Y-104840148D01*
X128650705Y-104845794D01*
X128647619Y-104850597D01*
X128647619Y-104867259D01*
X128645249Y-104883743D01*
X128647619Y-104888933D01*
X128647619Y-105343449D01*
X128645249Y-105359933D01*
X128647619Y-105365123D01*
X128647619Y-105867259D01*
X128645249Y-105883743D01*
X128463456Y-105883743D01*
X128466655Y-105861495D01*
X128448359Y-105821431D01*
X128411307Y-105797619D01*
X127988095Y-105797619D01*
X127988095Y-104861837D01*
X127978852Y-104830359D01*
X127945566Y-104801517D01*
X127901971Y-104795249D01*
X127861907Y-104813545D01*
X127838095Y-104850597D01*
X127838095Y-105867259D01*
X127835725Y-105883743D01*
X127558694Y-105883743D01*
X127561893Y-105861495D01*
X127543597Y-105821431D01*
X127506545Y-105797619D01*
X127083333Y-105797619D01*
X127083333Y-105423809D01*
X127352448Y-105423809D01*
X127383926Y-105414566D01*
X127412768Y-105381280D01*
X127419036Y-105337685D01*
X127400740Y-105297621D01*
X127363688Y-105273809D01*
X127083333Y-105273809D01*
X127083333Y-104947619D01*
X127495305Y-104947619D01*
X127526783Y-104938376D01*
X127555625Y-104905090D01*
X127561893Y-104861495D01*
X127543597Y-104821431D01*
X127506545Y-104797619D01*
X127013693Y-104797619D01*
X126997209Y-104795249D01*
X126982056Y-104802168D01*
X126966073Y-104806862D01*
X126962336Y-104811174D01*
X126957145Y-104813545D01*
X126948137Y-104827561D01*
X126937231Y-104840148D01*
X126936419Y-104845794D01*
X126933333Y-104850597D01*
X126933333Y-104867259D01*
X126930963Y-104883743D01*
X126933333Y-104888933D01*
X126933333Y-105343449D01*
X126930963Y-105359933D01*
X126933333Y-105365123D01*
X126933333Y-105867259D01*
X126930963Y-105883743D01*
X126531846Y-105883743D01*
X126536616Y-105878972D01*
X126551729Y-105864916D01*
X126552091Y-105863496D01*
X126578525Y-105837062D01*
X126589376Y-105830618D01*
X126598632Y-105812104D01*
X126608522Y-105793994D01*
X126608417Y-105792534D01*
X126645039Y-105719290D01*
X126654761Y-105704164D01*
X126654761Y-105688834D01*
X126657475Y-105673751D01*
X126654761Y-105667207D01*
X126654761Y-105590935D01*
X126656691Y-105573060D01*
X126649836Y-105559350D01*
X126645518Y-105544644D01*
X126640163Y-105540004D01*
X126603429Y-105466535D01*
X126600747Y-105454205D01*
X126586127Y-105439585D01*
X126572058Y-105424460D01*
X126570639Y-105424097D01*
X126544204Y-105397662D01*
X126537761Y-105386813D01*
X126519260Y-105377562D01*
X126501138Y-105367667D01*
X126499677Y-105367771D01*
X126434773Y-105335319D01*
X126428839Y-105329008D01*
X126415461Y-105325663D01*
X126413182Y-105324524D01*
X126405049Y-105323060D01*
X126224986Y-105278044D01*
X126147997Y-105239550D01*
X126117590Y-105209143D01*
X126083333Y-105140628D01*
X126083333Y-105080801D01*
X126117592Y-105012283D01*
X126147997Y-104981877D01*
X126216513Y-104947619D01*
X126424734Y-104947619D01*
X126566272Y-104994799D01*
X126599058Y-104995984D01*
X126636946Y-104973527D01*
X126656678Y-104934151D01*
X126651990Y-104890357D01*
X126624370Y-104856051D01*
X126469541Y-104804441D01*
X126458926Y-104797619D01*
X126438246Y-104797619D01*
X126417607Y-104796873D01*
X126416348Y-104797619D01*
X126202840Y-104797619D01*
X126184965Y-104795689D01*
X126171255Y-104802543D01*
X126156549Y-104806862D01*
X126151909Y-104812216D01*
X126078440Y-104848950D01*
X126066110Y-104851633D01*
X126051490Y-104866252D01*
X126036365Y-104880322D01*
X126036002Y-104881740D01*
X126009567Y-104908175D01*
X125998718Y-104914619D01*
X125989467Y-104933119D01*
X125979572Y-104951242D01*
X125979676Y-104952702D01*
X125943056Y-105025943D01*
X125933333Y-105041073D01*
X125933333Y-105056403D01*
X125930619Y-105071486D01*
X124892856Y-105071486D01*
X124892856Y-104861837D01*
X124883613Y-104830359D01*
X124850327Y-104801517D01*
X124806732Y-104795249D01*
X124766668Y-104813545D01*
X124742856Y-104850597D01*
X124742856Y-105664436D01*
X124708597Y-105732953D01*
X124678189Y-105763361D01*
X124609675Y-105797619D01*
X124454610Y-105797619D01*
X124386092Y-105763360D01*
X124355684Y-105732951D01*
X124321428Y-105664437D01*
X124321428Y-104861837D01*
X124312185Y-104830359D01*
X124278899Y-104801517D01*
X124235304Y-104795249D01*
X124195240Y-104813545D01*
X124171428Y-104850597D01*
X124171428Y-105678102D01*
X124169497Y-105695986D01*
X123785762Y-105695986D01*
X123628999Y-105472039D01*
X123641224Y-105473359D01*
X123654937Y-105466502D01*
X123669640Y-105462185D01*
X123674278Y-105456831D01*
X123747747Y-105420096D01*
X123760079Y-105417414D01*
X123774706Y-105402786D01*
X123789824Y-105388725D01*
X123790186Y-105387306D01*
X123816621Y-105360871D01*
X123827471Y-105354428D01*
X123836725Y-105335918D01*
X123846616Y-105317805D01*
X123846511Y-105316346D01*
X123883134Y-105243100D01*
X123892856Y-105227974D01*
X123892856Y-105212644D01*
X123895570Y-105197561D01*
X123892856Y-105191017D01*
X123892856Y-105067126D01*
X123894786Y-105049251D01*
X123887931Y-105035541D01*
X123883613Y-105020835D01*
X123878258Y-105016195D01*
X123841524Y-104942726D01*
X123838842Y-104930396D01*
X123824222Y-104915776D01*
X123810153Y-104900651D01*
X123808734Y-104900288D01*
X123782299Y-104873853D01*
X123775856Y-104863004D01*
X123757355Y-104853753D01*
X123739233Y-104843858D01*
X123737772Y-104843962D01*
X123664531Y-104807342D01*
X123649402Y-104797619D01*
X123634072Y-104797619D01*
X123618989Y-104794905D01*
X123612445Y-104797619D01*
X123251788Y-104797619D01*
X123235304Y-104795249D01*
X123220151Y-104802168D01*
X123204168Y-104806862D01*
X123200431Y-104811174D01*
X123195240Y-104813545D01*
X123186232Y-104827561D01*
X123175326Y-104840148D01*
X123174514Y-104845794D01*
X123171428Y-104850597D01*
X123171428Y-104867259D01*
X123169058Y-104883743D01*
X123171428Y-104888933D01*
X123171428Y-105391068D01*
X123169058Y-105407552D01*
X122845237Y-105407552D01*
X122845237Y-105354169D01*
X122847607Y-105337685D01*
X122845237Y-105332495D01*
X122845237Y-104861837D01*
X122835994Y-104830359D01*
X122802708Y-104801517D01*
X122759113Y-104795249D01*
X122719049Y-104813545D01*
X122695237Y-104850597D01*
X122695237Y-105273809D01*
X122273809Y-105273809D01*
X122273809Y-104861837D01*
X122264566Y-104830359D01*
X122231280Y-104801517D01*
X122187685Y-104795249D01*
X122147621Y-104813545D01*
X122123809Y-104850597D01*
X122123809Y-105343449D01*
X122121439Y-105359933D01*
X121654761Y-105359933D01*
X121654761Y-104947619D01*
X121876257Y-104947619D01*
X121907735Y-104938376D01*
X121936577Y-104905090D01*
X121942845Y-104861495D01*
X121924549Y-104821431D01*
X121887497Y-104797619D01*
X121585121Y-104797619D01*
X121568637Y-104795249D01*
X121563447Y-104797619D01*
X121283265Y-104797619D01*
X121251787Y-104806862D01*
X121222945Y-104840148D01*
X121216677Y-104883743D01*
X120743452Y-104883743D01*
X120743452Y-104354643D01*
X131606548Y-104354643D01*
X131606548Y-106465357D01*
G37*
%TO.C,FB10*%
X123809523Y-132938809D02*
X123476190Y-132938809D01*
X123476190Y-133462619D02*
X123476190Y-132462619D01*
X123476190Y-132462619D02*
X123952380Y-132462619D01*
X124666666Y-132938809D02*
X124809523Y-132986428D01*
X124809523Y-132986428D02*
X124857142Y-133034047D01*
X124857142Y-133034047D02*
X124904761Y-133129285D01*
X124904761Y-133129285D02*
X124904761Y-133272142D01*
X124904761Y-133272142D02*
X124857142Y-133367380D01*
X124857142Y-133367380D02*
X124809523Y-133415000D01*
X124809523Y-133415000D02*
X124714285Y-133462619D01*
X124714285Y-133462619D02*
X124333333Y-133462619D01*
X124333333Y-133462619D02*
X124333333Y-132462619D01*
X124333333Y-132462619D02*
X124666666Y-132462619D01*
X124666666Y-132462619D02*
X124761904Y-132510238D01*
X124761904Y-132510238D02*
X124809523Y-132557857D01*
X124809523Y-132557857D02*
X124857142Y-132653095D01*
X124857142Y-132653095D02*
X124857142Y-132748333D01*
X124857142Y-132748333D02*
X124809523Y-132843571D01*
X124809523Y-132843571D02*
X124761904Y-132891190D01*
X124761904Y-132891190D02*
X124666666Y-132938809D01*
X124666666Y-132938809D02*
X124333333Y-132938809D01*
X125857142Y-133462619D02*
X125285714Y-133462619D01*
X125571428Y-133462619D02*
X125571428Y-132462619D01*
X125571428Y-132462619D02*
X125476190Y-132605476D01*
X125476190Y-132605476D02*
X125380952Y-132700714D01*
X125380952Y-132700714D02*
X125285714Y-132748333D01*
X126476190Y-132462619D02*
X126571428Y-132462619D01*
X126571428Y-132462619D02*
X126666666Y-132510238D01*
X126666666Y-132510238D02*
X126714285Y-132557857D01*
X126714285Y-132557857D02*
X126761904Y-132653095D01*
X126761904Y-132653095D02*
X126809523Y-132843571D01*
X126809523Y-132843571D02*
X126809523Y-133081666D01*
X126809523Y-133081666D02*
X126761904Y-133272142D01*
X126761904Y-133272142D02*
X126714285Y-133367380D01*
X126714285Y-133367380D02*
X126666666Y-133415000D01*
X126666666Y-133415000D02*
X126571428Y-133462619D01*
X126571428Y-133462619D02*
X126476190Y-133462619D01*
X126476190Y-133462619D02*
X126380952Y-133415000D01*
X126380952Y-133415000D02*
X126333333Y-133367380D01*
X126333333Y-133367380D02*
X126285714Y-133272142D01*
X126285714Y-133272142D02*
X126238095Y-133081666D01*
X126238095Y-133081666D02*
X126238095Y-132843571D01*
X126238095Y-132843571D02*
X126285714Y-132653095D01*
X126285714Y-132653095D02*
X126333333Y-132557857D01*
X126333333Y-132557857D02*
X126380952Y-132510238D01*
X126380952Y-132510238D02*
X126476190Y-132462619D01*
%TO.C,FB9*%
X110761904Y-132938809D02*
X110428571Y-132938809D01*
X110428571Y-133462619D02*
X110428571Y-132462619D01*
X110428571Y-132462619D02*
X110904761Y-132462619D01*
X111619047Y-132938809D02*
X111761904Y-132986428D01*
X111761904Y-132986428D02*
X111809523Y-133034047D01*
X111809523Y-133034047D02*
X111857142Y-133129285D01*
X111857142Y-133129285D02*
X111857142Y-133272142D01*
X111857142Y-133272142D02*
X111809523Y-133367380D01*
X111809523Y-133367380D02*
X111761904Y-133415000D01*
X111761904Y-133415000D02*
X111666666Y-133462619D01*
X111666666Y-133462619D02*
X111285714Y-133462619D01*
X111285714Y-133462619D02*
X111285714Y-132462619D01*
X111285714Y-132462619D02*
X111619047Y-132462619D01*
X111619047Y-132462619D02*
X111714285Y-132510238D01*
X111714285Y-132510238D02*
X111761904Y-132557857D01*
X111761904Y-132557857D02*
X111809523Y-132653095D01*
X111809523Y-132653095D02*
X111809523Y-132748333D01*
X111809523Y-132748333D02*
X111761904Y-132843571D01*
X111761904Y-132843571D02*
X111714285Y-132891190D01*
X111714285Y-132891190D02*
X111619047Y-132938809D01*
X111619047Y-132938809D02*
X111285714Y-132938809D01*
X112333333Y-133462619D02*
X112523809Y-133462619D01*
X112523809Y-133462619D02*
X112619047Y-133415000D01*
X112619047Y-133415000D02*
X112666666Y-133367380D01*
X112666666Y-133367380D02*
X112761904Y-133224523D01*
X112761904Y-133224523D02*
X112809523Y-133034047D01*
X112809523Y-133034047D02*
X112809523Y-132653095D01*
X112809523Y-132653095D02*
X112761904Y-132557857D01*
X112761904Y-132557857D02*
X112714285Y-132510238D01*
X112714285Y-132510238D02*
X112619047Y-132462619D01*
X112619047Y-132462619D02*
X112428571Y-132462619D01*
X112428571Y-132462619D02*
X112333333Y-132510238D01*
X112333333Y-132510238D02*
X112285714Y-132557857D01*
X112285714Y-132557857D02*
X112238095Y-132653095D01*
X112238095Y-132653095D02*
X112238095Y-132891190D01*
X112238095Y-132891190D02*
X112285714Y-132986428D01*
X112285714Y-132986428D02*
X112333333Y-133034047D01*
X112333333Y-133034047D02*
X112428571Y-133081666D01*
X112428571Y-133081666D02*
X112619047Y-133081666D01*
X112619047Y-133081666D02*
X112714285Y-133034047D01*
X112714285Y-133034047D02*
X112761904Y-132986428D01*
X112761904Y-132986428D02*
X112809523Y-132891190D01*
%TO.C,D3*%
X93761905Y-88462619D02*
X93761905Y-87462619D01*
X93761905Y-87462619D02*
X94000000Y-87462619D01*
X94000000Y-87462619D02*
X94142857Y-87510238D01*
X94142857Y-87510238D02*
X94238095Y-87605476D01*
X94238095Y-87605476D02*
X94285714Y-87700714D01*
X94285714Y-87700714D02*
X94333333Y-87891190D01*
X94333333Y-87891190D02*
X94333333Y-88034047D01*
X94333333Y-88034047D02*
X94285714Y-88224523D01*
X94285714Y-88224523D02*
X94238095Y-88319761D01*
X94238095Y-88319761D02*
X94142857Y-88415000D01*
X94142857Y-88415000D02*
X94000000Y-88462619D01*
X94000000Y-88462619D02*
X93761905Y-88462619D01*
X94666667Y-87462619D02*
X95285714Y-87462619D01*
X95285714Y-87462619D02*
X94952381Y-87843571D01*
X94952381Y-87843571D02*
X95095238Y-87843571D01*
X95095238Y-87843571D02*
X95190476Y-87891190D01*
X95190476Y-87891190D02*
X95238095Y-87938809D01*
X95238095Y-87938809D02*
X95285714Y-88034047D01*
X95285714Y-88034047D02*
X95285714Y-88272142D01*
X95285714Y-88272142D02*
X95238095Y-88367380D01*
X95238095Y-88367380D02*
X95190476Y-88415000D01*
X95190476Y-88415000D02*
X95095238Y-88462619D01*
X95095238Y-88462619D02*
X94809524Y-88462619D01*
X94809524Y-88462619D02*
X94714286Y-88415000D01*
X94714286Y-88415000D02*
X94666667Y-88367380D01*
%TO.C,SW1*%
X113666667Y-79820000D02*
X113809524Y-79867619D01*
X113809524Y-79867619D02*
X114047619Y-79867619D01*
X114047619Y-79867619D02*
X114142857Y-79820000D01*
X114142857Y-79820000D02*
X114190476Y-79772380D01*
X114190476Y-79772380D02*
X114238095Y-79677142D01*
X114238095Y-79677142D02*
X114238095Y-79581904D01*
X114238095Y-79581904D02*
X114190476Y-79486666D01*
X114190476Y-79486666D02*
X114142857Y-79439047D01*
X114142857Y-79439047D02*
X114047619Y-79391428D01*
X114047619Y-79391428D02*
X113857143Y-79343809D01*
X113857143Y-79343809D02*
X113761905Y-79296190D01*
X113761905Y-79296190D02*
X113714286Y-79248571D01*
X113714286Y-79248571D02*
X113666667Y-79153333D01*
X113666667Y-79153333D02*
X113666667Y-79058095D01*
X113666667Y-79058095D02*
X113714286Y-78962857D01*
X113714286Y-78962857D02*
X113761905Y-78915238D01*
X113761905Y-78915238D02*
X113857143Y-78867619D01*
X113857143Y-78867619D02*
X114095238Y-78867619D01*
X114095238Y-78867619D02*
X114238095Y-78915238D01*
X114571429Y-78867619D02*
X114809524Y-79867619D01*
X114809524Y-79867619D02*
X115000000Y-79153333D01*
X115000000Y-79153333D02*
X115190476Y-79867619D01*
X115190476Y-79867619D02*
X115428572Y-78867619D01*
X116333333Y-79867619D02*
X115761905Y-79867619D01*
X116047619Y-79867619D02*
X116047619Y-78867619D01*
X116047619Y-78867619D02*
X115952381Y-79010476D01*
X115952381Y-79010476D02*
X115857143Y-79105714D01*
X115857143Y-79105714D02*
X115761905Y-79153333D01*
%TO.C,FB5*%
X66761904Y-132938809D02*
X66428571Y-132938809D01*
X66428571Y-133462619D02*
X66428571Y-132462619D01*
X66428571Y-132462619D02*
X66904761Y-132462619D01*
X67619047Y-132938809D02*
X67761904Y-132986428D01*
X67761904Y-132986428D02*
X67809523Y-133034047D01*
X67809523Y-133034047D02*
X67857142Y-133129285D01*
X67857142Y-133129285D02*
X67857142Y-133272142D01*
X67857142Y-133272142D02*
X67809523Y-133367380D01*
X67809523Y-133367380D02*
X67761904Y-133415000D01*
X67761904Y-133415000D02*
X67666666Y-133462619D01*
X67666666Y-133462619D02*
X67285714Y-133462619D01*
X67285714Y-133462619D02*
X67285714Y-132462619D01*
X67285714Y-132462619D02*
X67619047Y-132462619D01*
X67619047Y-132462619D02*
X67714285Y-132510238D01*
X67714285Y-132510238D02*
X67761904Y-132557857D01*
X67761904Y-132557857D02*
X67809523Y-132653095D01*
X67809523Y-132653095D02*
X67809523Y-132748333D01*
X67809523Y-132748333D02*
X67761904Y-132843571D01*
X67761904Y-132843571D02*
X67714285Y-132891190D01*
X67714285Y-132891190D02*
X67619047Y-132938809D01*
X67619047Y-132938809D02*
X67285714Y-132938809D01*
X68761904Y-132462619D02*
X68285714Y-132462619D01*
X68285714Y-132462619D02*
X68238095Y-132938809D01*
X68238095Y-132938809D02*
X68285714Y-132891190D01*
X68285714Y-132891190D02*
X68380952Y-132843571D01*
X68380952Y-132843571D02*
X68619047Y-132843571D01*
X68619047Y-132843571D02*
X68714285Y-132891190D01*
X68714285Y-132891190D02*
X68761904Y-132938809D01*
X68761904Y-132938809D02*
X68809523Y-133034047D01*
X68809523Y-133034047D02*
X68809523Y-133272142D01*
X68809523Y-133272142D02*
X68761904Y-133367380D01*
X68761904Y-133367380D02*
X68714285Y-133415000D01*
X68714285Y-133415000D02*
X68619047Y-133462619D01*
X68619047Y-133462619D02*
X68380952Y-133462619D01*
X68380952Y-133462619D02*
X68285714Y-133415000D01*
X68285714Y-133415000D02*
X68238095Y-133367380D01*
%TO.C,U3*%
X96738095Y-121182619D02*
X96738095Y-121992142D01*
X96738095Y-121992142D02*
X96785714Y-122087380D01*
X96785714Y-122087380D02*
X96833333Y-122135000D01*
X96833333Y-122135000D02*
X96928571Y-122182619D01*
X96928571Y-122182619D02*
X97119047Y-122182619D01*
X97119047Y-122182619D02*
X97214285Y-122135000D01*
X97214285Y-122135000D02*
X97261904Y-122087380D01*
X97261904Y-122087380D02*
X97309523Y-121992142D01*
X97309523Y-121992142D02*
X97309523Y-121182619D01*
X97690476Y-121182619D02*
X98309523Y-121182619D01*
X98309523Y-121182619D02*
X97976190Y-121563571D01*
X97976190Y-121563571D02*
X98119047Y-121563571D01*
X98119047Y-121563571D02*
X98214285Y-121611190D01*
X98214285Y-121611190D02*
X98261904Y-121658809D01*
X98261904Y-121658809D02*
X98309523Y-121754047D01*
X98309523Y-121754047D02*
X98309523Y-121992142D01*
X98309523Y-121992142D02*
X98261904Y-122087380D01*
X98261904Y-122087380D02*
X98214285Y-122135000D01*
X98214285Y-122135000D02*
X98119047Y-122182619D01*
X98119047Y-122182619D02*
X97833333Y-122182619D01*
X97833333Y-122182619D02*
X97738095Y-122135000D01*
X97738095Y-122135000D02*
X97690476Y-122087380D01*
%TO.C,R3*%
X88333333Y-91962619D02*
X88000000Y-91486428D01*
X87761905Y-91962619D02*
X87761905Y-90962619D01*
X87761905Y-90962619D02*
X88142857Y-90962619D01*
X88142857Y-90962619D02*
X88238095Y-91010238D01*
X88238095Y-91010238D02*
X88285714Y-91057857D01*
X88285714Y-91057857D02*
X88333333Y-91153095D01*
X88333333Y-91153095D02*
X88333333Y-91295952D01*
X88333333Y-91295952D02*
X88285714Y-91391190D01*
X88285714Y-91391190D02*
X88238095Y-91438809D01*
X88238095Y-91438809D02*
X88142857Y-91486428D01*
X88142857Y-91486428D02*
X87761905Y-91486428D01*
X88666667Y-90962619D02*
X89285714Y-90962619D01*
X89285714Y-90962619D02*
X88952381Y-91343571D01*
X88952381Y-91343571D02*
X89095238Y-91343571D01*
X89095238Y-91343571D02*
X89190476Y-91391190D01*
X89190476Y-91391190D02*
X89238095Y-91438809D01*
X89238095Y-91438809D02*
X89285714Y-91534047D01*
X89285714Y-91534047D02*
X89285714Y-91772142D01*
X89285714Y-91772142D02*
X89238095Y-91867380D01*
X89238095Y-91867380D02*
X89190476Y-91915000D01*
X89190476Y-91915000D02*
X89095238Y-91962619D01*
X89095238Y-91962619D02*
X88809524Y-91962619D01*
X88809524Y-91962619D02*
X88714286Y-91915000D01*
X88714286Y-91915000D02*
X88666667Y-91867380D01*
%TO.C,R16*%
X102857142Y-78375119D02*
X102523809Y-77898928D01*
X102285714Y-78375119D02*
X102285714Y-77375119D01*
X102285714Y-77375119D02*
X102666666Y-77375119D01*
X102666666Y-77375119D02*
X102761904Y-77422738D01*
X102761904Y-77422738D02*
X102809523Y-77470357D01*
X102809523Y-77470357D02*
X102857142Y-77565595D01*
X102857142Y-77565595D02*
X102857142Y-77708452D01*
X102857142Y-77708452D02*
X102809523Y-77803690D01*
X102809523Y-77803690D02*
X102761904Y-77851309D01*
X102761904Y-77851309D02*
X102666666Y-77898928D01*
X102666666Y-77898928D02*
X102285714Y-77898928D01*
X103809523Y-78375119D02*
X103238095Y-78375119D01*
X103523809Y-78375119D02*
X103523809Y-77375119D01*
X103523809Y-77375119D02*
X103428571Y-77517976D01*
X103428571Y-77517976D02*
X103333333Y-77613214D01*
X103333333Y-77613214D02*
X103238095Y-77660833D01*
X104666666Y-77375119D02*
X104476190Y-77375119D01*
X104476190Y-77375119D02*
X104380952Y-77422738D01*
X104380952Y-77422738D02*
X104333333Y-77470357D01*
X104333333Y-77470357D02*
X104238095Y-77613214D01*
X104238095Y-77613214D02*
X104190476Y-77803690D01*
X104190476Y-77803690D02*
X104190476Y-78184642D01*
X104190476Y-78184642D02*
X104238095Y-78279880D01*
X104238095Y-78279880D02*
X104285714Y-78327500D01*
X104285714Y-78327500D02*
X104380952Y-78375119D01*
X104380952Y-78375119D02*
X104571428Y-78375119D01*
X104571428Y-78375119D02*
X104666666Y-78327500D01*
X104666666Y-78327500D02*
X104714285Y-78279880D01*
X104714285Y-78279880D02*
X104761904Y-78184642D01*
X104761904Y-78184642D02*
X104761904Y-77946547D01*
X104761904Y-77946547D02*
X104714285Y-77851309D01*
X104714285Y-77851309D02*
X104666666Y-77803690D01*
X104666666Y-77803690D02*
X104571428Y-77756071D01*
X104571428Y-77756071D02*
X104380952Y-77756071D01*
X104380952Y-77756071D02*
X104285714Y-77803690D01*
X104285714Y-77803690D02*
X104238095Y-77851309D01*
X104238095Y-77851309D02*
X104190476Y-77946547D01*
%TO.C,FB13*%
X131571428Y-87938809D02*
X131238095Y-87938809D01*
X131238095Y-88462619D02*
X131238095Y-87462619D01*
X131238095Y-87462619D02*
X131714285Y-87462619D01*
X132428571Y-87938809D02*
X132571428Y-87986428D01*
X132571428Y-87986428D02*
X132619047Y-88034047D01*
X132619047Y-88034047D02*
X132666666Y-88129285D01*
X132666666Y-88129285D02*
X132666666Y-88272142D01*
X132666666Y-88272142D02*
X132619047Y-88367380D01*
X132619047Y-88367380D02*
X132571428Y-88415000D01*
X132571428Y-88415000D02*
X132476190Y-88462619D01*
X132476190Y-88462619D02*
X132095238Y-88462619D01*
X132095238Y-88462619D02*
X132095238Y-87462619D01*
X132095238Y-87462619D02*
X132428571Y-87462619D01*
X132428571Y-87462619D02*
X132523809Y-87510238D01*
X132523809Y-87510238D02*
X132571428Y-87557857D01*
X132571428Y-87557857D02*
X132619047Y-87653095D01*
X132619047Y-87653095D02*
X132619047Y-87748333D01*
X132619047Y-87748333D02*
X132571428Y-87843571D01*
X132571428Y-87843571D02*
X132523809Y-87891190D01*
X132523809Y-87891190D02*
X132428571Y-87938809D01*
X132428571Y-87938809D02*
X132095238Y-87938809D01*
X133619047Y-88462619D02*
X133047619Y-88462619D01*
X133333333Y-88462619D02*
X133333333Y-87462619D01*
X133333333Y-87462619D02*
X133238095Y-87605476D01*
X133238095Y-87605476D02*
X133142857Y-87700714D01*
X133142857Y-87700714D02*
X133047619Y-87748333D01*
X133952381Y-87462619D02*
X134571428Y-87462619D01*
X134571428Y-87462619D02*
X134238095Y-87843571D01*
X134238095Y-87843571D02*
X134380952Y-87843571D01*
X134380952Y-87843571D02*
X134476190Y-87891190D01*
X134476190Y-87891190D02*
X134523809Y-87938809D01*
X134523809Y-87938809D02*
X134571428Y-88034047D01*
X134571428Y-88034047D02*
X134571428Y-88272142D01*
X134571428Y-88272142D02*
X134523809Y-88367380D01*
X134523809Y-88367380D02*
X134476190Y-88415000D01*
X134476190Y-88415000D02*
X134380952Y-88462619D01*
X134380952Y-88462619D02*
X134095238Y-88462619D01*
X134095238Y-88462619D02*
X134000000Y-88415000D01*
X134000000Y-88415000D02*
X133952381Y-88367380D01*
%TO.C,FB4*%
X58761904Y-132938809D02*
X58428571Y-132938809D01*
X58428571Y-133462619D02*
X58428571Y-132462619D01*
X58428571Y-132462619D02*
X58904761Y-132462619D01*
X59619047Y-132938809D02*
X59761904Y-132986428D01*
X59761904Y-132986428D02*
X59809523Y-133034047D01*
X59809523Y-133034047D02*
X59857142Y-133129285D01*
X59857142Y-133129285D02*
X59857142Y-133272142D01*
X59857142Y-133272142D02*
X59809523Y-133367380D01*
X59809523Y-133367380D02*
X59761904Y-133415000D01*
X59761904Y-133415000D02*
X59666666Y-133462619D01*
X59666666Y-133462619D02*
X59285714Y-133462619D01*
X59285714Y-133462619D02*
X59285714Y-132462619D01*
X59285714Y-132462619D02*
X59619047Y-132462619D01*
X59619047Y-132462619D02*
X59714285Y-132510238D01*
X59714285Y-132510238D02*
X59761904Y-132557857D01*
X59761904Y-132557857D02*
X59809523Y-132653095D01*
X59809523Y-132653095D02*
X59809523Y-132748333D01*
X59809523Y-132748333D02*
X59761904Y-132843571D01*
X59761904Y-132843571D02*
X59714285Y-132891190D01*
X59714285Y-132891190D02*
X59619047Y-132938809D01*
X59619047Y-132938809D02*
X59285714Y-132938809D01*
X60714285Y-132795952D02*
X60714285Y-133462619D01*
X60476190Y-132415000D02*
X60238095Y-133129285D01*
X60238095Y-133129285D02*
X60857142Y-133129285D01*
%TO.C,R14*%
X131809523Y-90462619D02*
X131476190Y-89986428D01*
X131238095Y-90462619D02*
X131238095Y-89462619D01*
X131238095Y-89462619D02*
X131619047Y-89462619D01*
X131619047Y-89462619D02*
X131714285Y-89510238D01*
X131714285Y-89510238D02*
X131761904Y-89557857D01*
X131761904Y-89557857D02*
X131809523Y-89653095D01*
X131809523Y-89653095D02*
X131809523Y-89795952D01*
X131809523Y-89795952D02*
X131761904Y-89891190D01*
X131761904Y-89891190D02*
X131714285Y-89938809D01*
X131714285Y-89938809D02*
X131619047Y-89986428D01*
X131619047Y-89986428D02*
X131238095Y-89986428D01*
X132761904Y-90462619D02*
X132190476Y-90462619D01*
X132476190Y-90462619D02*
X132476190Y-89462619D01*
X132476190Y-89462619D02*
X132380952Y-89605476D01*
X132380952Y-89605476D02*
X132285714Y-89700714D01*
X132285714Y-89700714D02*
X132190476Y-89748333D01*
X133619047Y-89795952D02*
X133619047Y-90462619D01*
X133380952Y-89415000D02*
X133142857Y-90129285D01*
X133142857Y-90129285D02*
X133761904Y-90129285D01*
%TO.C,R4*%
X109333333Y-90355119D02*
X109000000Y-89878928D01*
X108761905Y-90355119D02*
X108761905Y-89355119D01*
X108761905Y-89355119D02*
X109142857Y-89355119D01*
X109142857Y-89355119D02*
X109238095Y-89402738D01*
X109238095Y-89402738D02*
X109285714Y-89450357D01*
X109285714Y-89450357D02*
X109333333Y-89545595D01*
X109333333Y-89545595D02*
X109333333Y-89688452D01*
X109333333Y-89688452D02*
X109285714Y-89783690D01*
X109285714Y-89783690D02*
X109238095Y-89831309D01*
X109238095Y-89831309D02*
X109142857Y-89878928D01*
X109142857Y-89878928D02*
X108761905Y-89878928D01*
X110190476Y-89688452D02*
X110190476Y-90355119D01*
X109952381Y-89307500D02*
X109714286Y-90021785D01*
X109714286Y-90021785D02*
X110333333Y-90021785D01*
D11*
%TO.C,D4*%
X103540000Y-71115000D02*
X100420000Y-71115000D01*
X100710000Y-71115000D02*
X100710000Y-71115000D01*
X100420000Y-71115000D02*
X100020000Y-71115000D01*
X103250000Y-71245000D02*
X103250000Y-71245000D01*
X100020000Y-71115000D02*
X100020000Y-69995000D01*
X103250000Y-71115000D02*
X103250000Y-71245000D01*
X100710000Y-71245000D02*
X100710000Y-71245000D01*
X103250000Y-71115000D02*
X103250000Y-71115000D01*
X100420000Y-71115000D02*
X100420000Y-67255000D01*
X100710000Y-71115000D02*
X100710000Y-71245000D01*
X103540000Y-71115000D02*
X103540000Y-67255000D01*
X103250000Y-71245000D02*
X103250000Y-71115000D01*
X100420000Y-69995000D02*
X100420000Y-71115000D01*
X100020000Y-69995000D02*
X100420000Y-69995000D01*
X100710000Y-71245000D02*
X100710000Y-71115000D01*
X103540000Y-67255000D02*
G75*
G03*
X100420000Y-67255000I-1560000J0D01*
G01*
%TO.C,D2*%
X54710000Y-71115000D02*
X54710000Y-71245000D01*
X57250000Y-71115000D02*
X57250000Y-71245000D01*
X54710000Y-71245000D02*
X54710000Y-71245000D01*
X54020000Y-71115000D02*
X54020000Y-69995000D01*
X57250000Y-71245000D02*
X57250000Y-71245000D01*
X57540000Y-71115000D02*
X54420000Y-71115000D01*
X54710000Y-71245000D02*
X54710000Y-71115000D01*
X54020000Y-69995000D02*
X54420000Y-69995000D01*
X57540000Y-71115000D02*
X57540000Y-67255000D01*
X54710000Y-71115000D02*
X54710000Y-71115000D01*
X54420000Y-71115000D02*
X54020000Y-71115000D01*
X54420000Y-69995000D02*
X54420000Y-71115000D01*
X57250000Y-71245000D02*
X57250000Y-71115000D01*
X54420000Y-71115000D02*
X54420000Y-67255000D01*
X57250000Y-71115000D02*
X57250000Y-71115000D01*
X57540000Y-67255000D02*
G75*
G03*
X54420000Y-67255000I-1560000J0D01*
G01*
%TO.C,Y1*%
X90700000Y-109800000D02*
X91700000Y-109800000D01*
X94300000Y-111800000D02*
X94300000Y-112200000D01*
X94300000Y-112200000D02*
X93500000Y-112200000D01*
X93500000Y-109800000D02*
X94300000Y-109800000D01*
X91700000Y-112200000D02*
X90700000Y-112200000D01*
X90700000Y-111800000D02*
X90700000Y-109800000D01*
X90500000Y-111800000D02*
X90500000Y-112200000D01*
X90700000Y-111800000D02*
X90700000Y-112200000D01*
X91700000Y-112200000D02*
X91700000Y-112600000D01*
X90500000Y-109800000D02*
X90500000Y-111800000D01*
X94300000Y-109800000D02*
X94300000Y-111800000D01*
%TO.C,C11*%
X134985000Y-94211252D02*
X134985000Y-93688748D01*
X133515000Y-94211252D02*
X133515000Y-93688748D01*
%TO.C,C10*%
X101811252Y-120765000D02*
X101288748Y-120765000D01*
X101811252Y-122235000D02*
X101288748Y-122235000D01*
%TO.C,C9*%
X102811252Y-88235000D02*
X102288748Y-88235000D01*
X102811252Y-86765000D02*
X102288748Y-86765000D01*
%TO.C,C8*%
X88265000Y-85438748D02*
X88265000Y-85961252D01*
X89735000Y-85438748D02*
X89735000Y-85961252D01*
%TO.C,C7*%
X76265000Y-72188748D02*
X76265000Y-72711252D01*
X77735000Y-72188748D02*
X77735000Y-72711252D01*
%TO.C,C4*%
X92235000Y-103788748D02*
X92235000Y-104311252D01*
X90765000Y-103788748D02*
X90765000Y-104311252D01*
%TO.C,C3*%
X92765000Y-103788748D02*
X92765000Y-104311252D01*
X94235000Y-103788748D02*
X94235000Y-104311252D01*
%TO.C,J1*%
X65250000Y-84320000D02*
X66250000Y-84320000D01*
X66250000Y-84320000D02*
X65750000Y-83820000D01*
X65750000Y-83820000D02*
X65250000Y-84320000D01*
X60840000Y-83600000D02*
X73160000Y-83600000D01*
X73160000Y-83600000D02*
X73160000Y-79340000D01*
X60840000Y-79340000D02*
X60840000Y-83600000D01*
X60840000Y-75240000D02*
X60840000Y-66880000D01*
X60840000Y-66880000D02*
X73160000Y-66880000D01*
X73160000Y-66880000D02*
X73160000Y-75240000D01*
%TO.C,J9*%
X143000000Y-79500000D02*
X123000000Y-79500000D01*
X123000000Y-79500000D02*
X123000000Y-69000000D01*
X123000000Y-69000000D02*
X143000000Y-69000000D01*
X143000000Y-69000000D02*
X143000000Y-79500000D01*
%TO.C,J8*%
X123000000Y-140500000D02*
X143000000Y-140500000D01*
X143000000Y-140500000D02*
X143000000Y-151000000D01*
X143000000Y-151000000D02*
X123000000Y-151000000D01*
X123000000Y-151000000D02*
X123000000Y-140500000D01*
%TO.C,J7*%
X101000000Y-140500000D02*
X121000000Y-140500000D01*
X121000000Y-140500000D02*
X121000000Y-151000000D01*
X121000000Y-151000000D02*
X101000000Y-151000000D01*
X101000000Y-151000000D02*
X101000000Y-140500000D01*
%TO.C,J5*%
X57000000Y-140500000D02*
X77000000Y-140500000D01*
X77000000Y-140500000D02*
X77000000Y-151000000D01*
X77000000Y-151000000D02*
X57000000Y-151000000D01*
X57000000Y-151000000D02*
X57000000Y-140500000D01*
%TO.C,J2*%
X99000000Y-79500000D02*
X79000000Y-79500000D01*
X79000000Y-79500000D02*
X79000000Y-69000000D01*
X79000000Y-69000000D02*
X99000000Y-69000000D01*
X99000000Y-69000000D02*
X99000000Y-79500000D01*
%TO.C,J6*%
X79000000Y-140500000D02*
X99000000Y-140500000D01*
X99000000Y-140500000D02*
X99000000Y-151000000D01*
X99000000Y-151000000D02*
X79000000Y-151000000D01*
X79000000Y-151000000D02*
X79000000Y-140500000D01*
%TO.C,FB3*%
X92560000Y-89100378D02*
X92560000Y-89899622D01*
X91440000Y-89100378D02*
X91440000Y-89899622D01*
%TO.C,R8*%
X93139564Y-131735000D02*
X92685436Y-131735000D01*
X93139564Y-130265000D02*
X92685436Y-130265000D01*
%TO.C,FB11*%
X137337122Y-133560000D02*
X136537878Y-133560000D01*
X137337122Y-132440000D02*
X136537878Y-132440000D01*
%TO.C,C2*%
X62788748Y-89265000D02*
X63311252Y-89265000D01*
X62788748Y-90735000D02*
X63311252Y-90735000D01*
%TO.C,U2*%
X98100000Y-88770000D02*
X102900000Y-88770000D01*
X98100000Y-88920000D02*
X96400000Y-88920000D01*
X98100000Y-88920000D02*
X98100000Y-88770000D01*
X98100000Y-91420000D02*
X98100000Y-90120000D01*
X98100000Y-92770000D02*
X98100000Y-92620000D01*
X102900000Y-88770000D02*
X102900000Y-88920000D01*
X102900000Y-92620000D02*
X102900000Y-92770000D01*
X102900000Y-92770000D02*
X98100000Y-92770000D01*
%TO.C,R1*%
X54015000Y-78889564D02*
X54015000Y-78435436D01*
X55485000Y-78889564D02*
X55485000Y-78435436D01*
%TO.C,D1*%
X66710000Y-86500000D02*
X66710000Y-84500000D01*
X66710000Y-86500000D02*
X62700000Y-86500000D01*
X66710000Y-84500000D02*
X62700000Y-84500000D01*
%TO.C,FB2*%
X84560000Y-88037878D02*
X84560000Y-88837122D01*
X83440000Y-88037878D02*
X83440000Y-88837122D01*
%TO.C,U4*%
X138610000Y-94000000D02*
X138610000Y-93200000D01*
X138610000Y-94000000D02*
X138610000Y-94800000D01*
X135490000Y-94000000D02*
X135490000Y-93200000D01*
X135490000Y-94000000D02*
X135490000Y-95800000D01*
%TO.C,R15*%
X106639564Y-82235000D02*
X106185436Y-82235000D01*
X106639564Y-80765000D02*
X106185436Y-80765000D01*
%TO.C,C5*%
X90235000Y-103788748D02*
X90235000Y-104311252D01*
X88765000Y-103788748D02*
X88765000Y-104311252D01*
%TO.C,J4*%
X93590000Y-119830000D02*
X93590000Y-118500000D01*
X94920000Y-119830000D02*
X93590000Y-119830000D01*
X96190000Y-119830000D02*
X106410000Y-119830000D01*
X96190000Y-119830000D02*
X96190000Y-117170000D01*
X106410000Y-119830000D02*
X106410000Y-117170000D01*
X96190000Y-117170000D02*
X106410000Y-117170000D01*
%TO.C,R7*%
X85314564Y-131735000D02*
X84860436Y-131735000D01*
X85314564Y-130265000D02*
X84860436Y-130265000D01*
%TO.C,FB6*%
X85462122Y-133560000D02*
X84662878Y-133560000D01*
X85462122Y-132440000D02*
X84662878Y-132440000D01*
%TO.C,C1*%
X62788748Y-87265000D02*
X63311252Y-87265000D01*
X62788748Y-88735000D02*
X63311252Y-88735000D01*
%TO.C,R13*%
X136685436Y-89265000D02*
X137139564Y-89265000D01*
X136685436Y-90735000D02*
X137139564Y-90735000D01*
%TO.C,R10*%
X115139564Y-131735000D02*
X114685436Y-131735000D01*
X115139564Y-130265000D02*
X114685436Y-130265000D01*
%TO.C,FB1*%
X66560000Y-88600378D02*
X66560000Y-89399622D01*
X65440000Y-88600378D02*
X65440000Y-89399622D01*
D10*
%TO.C,U1*%
X96375000Y-101375000D02*
X96375000Y-101600000D01*
X96375000Y-101375000D02*
X96700000Y-101375000D01*
X96375000Y-101600000D02*
X94950000Y-101600000D01*
X96375000Y-108625000D02*
X96375000Y-108300000D01*
X96375000Y-108625000D02*
X96700000Y-108625000D01*
X103625000Y-101375000D02*
X103300000Y-101375000D01*
X103625000Y-101375000D02*
X103625000Y-101700000D01*
X103625000Y-108625000D02*
X103300000Y-108625000D01*
X103625000Y-108625000D02*
X103625000Y-108300000D01*
D11*
%TO.C,R6*%
X71139564Y-131735000D02*
X70685436Y-131735000D01*
X71139564Y-130265000D02*
X70685436Y-130265000D01*
%TO.C,C6*%
X88235000Y-103788748D02*
X88235000Y-104311252D01*
X86765000Y-103788748D02*
X86765000Y-104311252D01*
%TO.C,R5*%
X63314564Y-131735000D02*
X62860436Y-131735000D01*
X63314564Y-130265000D02*
X62860436Y-130265000D01*
%TO.C,R12*%
X137139564Y-131735000D02*
X136685436Y-131735000D01*
X137139564Y-130265000D02*
X136685436Y-130265000D01*
%TO.C,R9*%
X107314564Y-131735000D02*
X106860436Y-131735000D01*
X107314564Y-130265000D02*
X106860436Y-130265000D01*
%TO.C,Q1*%
X103510000Y-82500000D02*
X103510000Y-80825000D01*
X103510000Y-82500000D02*
X103510000Y-83150000D01*
X100390000Y-82500000D02*
X100390000Y-81850000D01*
X100390000Y-82500000D02*
X100390000Y-83150000D01*
%TO.C,R2*%
X107139564Y-95235000D02*
X106685436Y-95235000D01*
X107139564Y-93765000D02*
X106685436Y-93765000D01*
%TO.C,JP1*%
X109870000Y-96170000D02*
X109870000Y-97500000D01*
X108540000Y-96170000D02*
X109870000Y-96170000D01*
X107270000Y-96170000D02*
X104670000Y-96170000D01*
X107270000Y-96170000D02*
X107270000Y-98830000D01*
X104670000Y-96170000D02*
X104670000Y-98830000D01*
X107270000Y-98830000D02*
X104670000Y-98830000D01*
%TO.C,FB7*%
X93337122Y-133560000D02*
X92537878Y-133560000D01*
X93337122Y-132440000D02*
X92537878Y-132440000D01*
%TO.C,FB8*%
X107462122Y-133560000D02*
X106662878Y-133560000D01*
X107462122Y-132440000D02*
X106662878Y-132440000D01*
%TO.C,J3*%
X112365000Y-108615000D02*
X113000000Y-108615000D01*
X112365000Y-109250000D02*
X112365000Y-108615000D01*
%TO.C,R11*%
X129314564Y-131735000D02*
X128860436Y-131735000D01*
X129314564Y-130265000D02*
X128860436Y-130265000D01*
%TO.C,FB12*%
X136537878Y-87440000D02*
X137337122Y-87440000D01*
X136537878Y-88560000D02*
X137337122Y-88560000D01*
%TO.C,JP2*%
X124330000Y-103565000D02*
X123000000Y-103565000D01*
X124330000Y-102235000D02*
X124330000Y-103565000D01*
X124330000Y-100965000D02*
X124330000Y-95825000D01*
X124330000Y-100965000D02*
X121670000Y-100965000D01*
X124330000Y-95825000D02*
X121670000Y-95825000D01*
X121670000Y-100965000D02*
X121670000Y-95825000D01*
%TO.C,FB10*%
X129462122Y-133560000D02*
X128662878Y-133560000D01*
X129462122Y-132440000D02*
X128662878Y-132440000D01*
%TO.C,FB9*%
X115337122Y-133560000D02*
X114537878Y-133560000D01*
X115337122Y-132440000D02*
X114537878Y-132440000D01*
%TO.C,D3*%
X95500000Y-88790000D02*
X93500000Y-88790000D01*
X95500000Y-88790000D02*
X95500000Y-92800000D01*
X93500000Y-88790000D02*
X93500000Y-92800000D01*
D12*
%TO.C,SW1*%
X118320000Y-73655000D02*
X118320000Y-68305000D01*
X118320000Y-73655000D02*
X117270000Y-73655000D01*
X118320000Y-68305000D02*
X111770000Y-68305000D01*
X115270000Y-73655000D02*
X114770000Y-73655000D01*
X111770000Y-73655000D02*
X112770000Y-73655000D01*
X111770000Y-73655000D02*
X111770000Y-68305000D01*
X116920000Y-68305000D02*
X115620000Y-68305000D01*
X115620000Y-68305000D02*
X115620000Y-67005000D01*
X115620000Y-67005000D02*
X116920000Y-67005000D01*
X116920000Y-67005000D02*
X116920000Y-68305000D01*
X114380000Y-68305000D02*
X113080000Y-68305000D01*
X113080000Y-68305000D02*
X113080000Y-67005000D01*
X113080000Y-67005000D02*
X114380000Y-67005000D01*
X114380000Y-67005000D02*
X114380000Y-68305000D01*
D11*
%TO.C,FB5*%
X71337122Y-133560000D02*
X70537878Y-133560000D01*
X71337122Y-132440000D02*
X70537878Y-132440000D01*
%TO.C,U3*%
X100000000Y-122565000D02*
X96550000Y-122565000D01*
X100000000Y-122565000D02*
X101950000Y-122565000D01*
X100000000Y-131435000D02*
X98050000Y-131435000D01*
X100000000Y-131435000D02*
X101950000Y-131435000D01*
%TO.C,R3*%
X88814564Y-90235000D02*
X88360436Y-90235000D01*
X88814564Y-88765000D02*
X88360436Y-88765000D01*
%TO.C,R16*%
X100265000Y-78139564D02*
X100265000Y-77685436D01*
X101735000Y-78139564D02*
X101735000Y-77685436D01*
%TO.C,FB13*%
X128662878Y-87440000D02*
X129462122Y-87440000D01*
X128662878Y-88560000D02*
X129462122Y-88560000D01*
%TO.C,FB4*%
X63462122Y-133560000D02*
X62662878Y-133560000D01*
X63462122Y-132440000D02*
X62662878Y-132440000D01*
%TO.C,R14*%
X128860436Y-89265000D02*
X129314564Y-89265000D01*
X128860436Y-90735000D02*
X129314564Y-90735000D01*
%TO.C,R4*%
X108235000Y-89665436D02*
X108235000Y-90119564D01*
X106765000Y-89665436D02*
X106765000Y-90119564D01*
%TD*%
%LPC*%
D13*
%TO.C,D4*%
X103250000Y-72325000D03*
D14*
X100710000Y-72325000D03*
%TD*%
D13*
%TO.C,D2*%
X57250000Y-72325000D03*
D14*
X54710000Y-72325000D03*
%TD*%
D15*
%TO.C,Y1*%
X91300000Y-111000000D03*
X92500000Y-111000000D03*
X93700000Y-111000000D03*
%TD*%
D16*
%TO.C,C11*%
X134250000Y-94900000D03*
X134250000Y-93000000D03*
%TD*%
D17*
%TO.C,C10*%
X102500000Y-121500000D03*
X100600000Y-121500000D03*
%TD*%
%TO.C,C9*%
X101600000Y-87500000D03*
X103500000Y-87500000D03*
%TD*%
D18*
%TO.C,C8*%
X89000000Y-84750000D03*
X89000000Y-86650000D03*
%TD*%
%TO.C,C7*%
X77000000Y-71500000D03*
X77000000Y-73400000D03*
%TD*%
%TO.C,C4*%
X91500000Y-105000000D03*
X91500000Y-103100000D03*
%TD*%
%TO.C,C3*%
X93500000Y-103100000D03*
X93500000Y-105000000D03*
%TD*%
D19*
%TO.C,J1*%
X65750000Y-82000000D03*
D20*
X68250000Y-82000000D03*
X68250000Y-80000000D03*
X65750000Y-80000000D03*
D21*
X60980000Y-77290000D03*
X73020000Y-77290000D03*
%TD*%
D22*
%TO.C,J9*%
X140500000Y-76500000D03*
X125500000Y-76500000D03*
D23*
X125500000Y-81500000D03*
X133000000Y-81500000D03*
X140500000Y-81500000D03*
X128000000Y-84000000D03*
X138000000Y-84000000D03*
X135500000Y-71500000D03*
X130500000Y-71500000D03*
%TD*%
D22*
%TO.C,J8*%
X125500000Y-143500000D03*
X140500000Y-143500000D03*
D23*
X140500000Y-138500000D03*
X133000000Y-138500000D03*
X125500000Y-138500000D03*
X138000000Y-136000000D03*
X128000000Y-136000000D03*
X130500000Y-148500000D03*
X135500000Y-148500000D03*
%TD*%
D22*
%TO.C,J7*%
X103500000Y-143500000D03*
X118500000Y-143500000D03*
D23*
X118500000Y-138500000D03*
X111000000Y-138500000D03*
X103500000Y-138500000D03*
X116000000Y-136000000D03*
X106000000Y-136000000D03*
X108500000Y-148500000D03*
X113500000Y-148500000D03*
%TD*%
D22*
%TO.C,J5*%
X59500000Y-143500000D03*
X74500000Y-143500000D03*
D23*
X74500000Y-138500000D03*
X67000000Y-138500000D03*
X59500000Y-138500000D03*
X72000000Y-136000000D03*
X62000000Y-136000000D03*
X64500000Y-148500000D03*
X69500000Y-148500000D03*
%TD*%
D22*
%TO.C,J2*%
X96500000Y-76500000D03*
X81500000Y-76500000D03*
D23*
X81500000Y-81500000D03*
X89000000Y-81500000D03*
X96500000Y-81500000D03*
X84000000Y-84000000D03*
X94000000Y-84000000D03*
X91500000Y-71500000D03*
X86500000Y-71500000D03*
%TD*%
D22*
%TO.C,J6*%
X81500000Y-143500000D03*
X96500000Y-143500000D03*
D23*
X96500000Y-138500000D03*
X89000000Y-138500000D03*
X81500000Y-138500000D03*
X94000000Y-136000000D03*
X84000000Y-136000000D03*
X86500000Y-148500000D03*
X91500000Y-148500000D03*
%TD*%
D24*
%TO.C,FB3*%
X92000000Y-88437500D03*
X92000000Y-90562500D03*
%TD*%
D25*
%TO.C,R8*%
X93825000Y-131000000D03*
X92000000Y-131000000D03*
%TD*%
D26*
%TO.C,FB11*%
X138000000Y-133000000D03*
X135875000Y-133000000D03*
%TD*%
D27*
%TO.C,C2*%
X62100000Y-90000000D03*
X64000000Y-90000000D03*
%TD*%
D28*
%TO.C,U2*%
X97350000Y-89500000D03*
X97350000Y-92040000D03*
X103650000Y-92040000D03*
X103650000Y-90770000D03*
X103650000Y-89500000D03*
%TD*%
D29*
%TO.C,R1*%
X54750000Y-79575000D03*
X54750000Y-77750000D03*
%TD*%
D30*
%TO.C,D1*%
X66000000Y-85500000D03*
X62700000Y-85500000D03*
%TD*%
D24*
%TO.C,FB2*%
X84000000Y-87375000D03*
X84000000Y-89500000D03*
%TD*%
D31*
%TO.C,U4*%
X136100000Y-92862500D03*
X138000000Y-92862500D03*
X138000000Y-95137500D03*
X137050000Y-95137500D03*
X136100000Y-95137500D03*
%TD*%
D25*
%TO.C,R15*%
X107325000Y-81500000D03*
X105500000Y-81500000D03*
%TD*%
D18*
%TO.C,C5*%
X89500000Y-103100000D03*
X89500000Y-105000000D03*
%TD*%
D19*
%TO.C,J4*%
X94920000Y-118500000D03*
D32*
X97460000Y-118500000D03*
X100000000Y-118500000D03*
X102540000Y-118500000D03*
X105080000Y-118500000D03*
%TD*%
D25*
%TO.C,R7*%
X86000000Y-131000000D03*
X84175000Y-131000000D03*
%TD*%
D26*
%TO.C,FB6*%
X86125000Y-133000000D03*
X84000000Y-133000000D03*
%TD*%
D27*
%TO.C,C1*%
X62100000Y-88000000D03*
X64000000Y-88000000D03*
%TD*%
D33*
%TO.C,R13*%
X136000000Y-90000000D03*
X137825000Y-90000000D03*
%TD*%
D25*
%TO.C,R10*%
X115825000Y-131000000D03*
X114000000Y-131000000D03*
%TD*%
D24*
%TO.C,FB1*%
X66000000Y-87937500D03*
X66000000Y-90062500D03*
%TD*%
D34*
%TO.C,U1*%
X95750000Y-102200000D03*
X95750000Y-103000000D03*
X95750000Y-103800000D03*
X95750000Y-104600000D03*
X95750000Y-105400000D03*
X95750000Y-106200000D03*
X95750000Y-107000000D03*
X95750000Y-107800000D03*
D35*
X97200000Y-109250000D03*
X98000000Y-109250000D03*
X98800000Y-109250000D03*
X99600000Y-109250000D03*
X100400000Y-109250000D03*
X101200000Y-109250000D03*
X102000000Y-109250000D03*
X102800000Y-109250000D03*
D34*
X104250000Y-107800000D03*
X104250000Y-107000000D03*
X104250000Y-106200000D03*
X104250000Y-105400000D03*
X104250000Y-104600000D03*
X104250000Y-103800000D03*
X104250000Y-103000000D03*
X104250000Y-102200000D03*
D35*
X102800000Y-100750000D03*
X102000000Y-100750000D03*
X101200000Y-100750000D03*
X100400000Y-100750000D03*
X99600000Y-100750000D03*
X98800000Y-100750000D03*
X98000000Y-100750000D03*
X97200000Y-100750000D03*
%TD*%
D25*
%TO.C,R6*%
X71825000Y-131000000D03*
X70000000Y-131000000D03*
%TD*%
D18*
%TO.C,C6*%
X87500000Y-103100000D03*
X87500000Y-105000000D03*
%TD*%
D25*
%TO.C,R5*%
X64000000Y-131000000D03*
X62175000Y-131000000D03*
%TD*%
%TO.C,R12*%
X137825000Y-131000000D03*
X136000000Y-131000000D03*
%TD*%
%TO.C,R9*%
X108000000Y-131000000D03*
X106175000Y-131000000D03*
%TD*%
D36*
%TO.C,Q1*%
X102900000Y-81562500D03*
X101000000Y-81562500D03*
X101950000Y-83437500D03*
%TD*%
D25*
%TO.C,R2*%
X107825000Y-94500000D03*
X106000000Y-94500000D03*
%TD*%
D19*
%TO.C,JP1*%
X108540000Y-97500000D03*
D32*
X106000000Y-97500000D03*
%TD*%
D26*
%TO.C,FB7*%
X94000000Y-133000000D03*
X91875000Y-133000000D03*
%TD*%
%TO.C,FB8*%
X108125000Y-133000000D03*
X106000000Y-133000000D03*
%TD*%
D37*
%TO.C,J3*%
X113635000Y-107980000D03*
X114651000Y-113060000D03*
X112619000Y-113060000D03*
D38*
X113000000Y-109250000D03*
X114270000Y-109250000D03*
X113000000Y-110520000D03*
X114270000Y-110520000D03*
X113000000Y-111790000D03*
X114270000Y-111790000D03*
%TD*%
D25*
%TO.C,R11*%
X130000000Y-131000000D03*
X128175000Y-131000000D03*
%TD*%
D39*
%TO.C,FB12*%
X135875000Y-88000000D03*
X138000000Y-88000000D03*
%TD*%
D19*
%TO.C,JP2*%
X123000000Y-102235000D03*
D32*
X123000000Y-99695000D03*
X123000000Y-97155000D03*
%TD*%
D26*
%TO.C,FB10*%
X130125000Y-133000000D03*
X128000000Y-133000000D03*
%TD*%
%TO.C,FB9*%
X116000000Y-133000000D03*
X113875000Y-133000000D03*
%TD*%
D40*
%TO.C,D3*%
X94500000Y-89500000D03*
X94500000Y-92800000D03*
%TD*%
D41*
%TO.C,SW1*%
X116270000Y-76905000D03*
D42*
X116270000Y-74365000D03*
X113730000Y-76905000D03*
X113730000Y-74365000D03*
%TD*%
D26*
%TO.C,FB5*%
X72000000Y-133000000D03*
X69875000Y-133000000D03*
%TD*%
D43*
%TO.C,U3*%
X97525000Y-123190000D03*
X97525000Y-124460000D03*
X97525000Y-125730000D03*
X97525000Y-127000000D03*
X97525000Y-128270000D03*
X97525000Y-129540000D03*
X97525000Y-130810000D03*
X102475000Y-130810000D03*
X102475000Y-129540000D03*
X102475000Y-128270000D03*
X102475000Y-127000000D03*
X102475000Y-125730000D03*
X102475000Y-124460000D03*
X102475000Y-123190000D03*
%TD*%
D25*
%TO.C,R3*%
X89500000Y-89500000D03*
X87675000Y-89500000D03*
%TD*%
D29*
%TO.C,R16*%
X101000000Y-78825000D03*
X101000000Y-77000000D03*
%TD*%
D39*
%TO.C,FB13*%
X128000000Y-88000000D03*
X130125000Y-88000000D03*
%TD*%
D26*
%TO.C,FB4*%
X64125000Y-133000000D03*
X62000000Y-133000000D03*
%TD*%
D33*
%TO.C,R14*%
X128175000Y-90000000D03*
X130000000Y-90000000D03*
%TD*%
D44*
%TO.C,R4*%
X107500000Y-88980000D03*
X107500000Y-90805000D03*
%TD*%
M02*
