%TF.GenerationSoftware,KiCad,Pcbnew,7.0.1*%
%TF.CreationDate,2023-12-18T14:14:52-05:00*%
%TF.ProjectId,channel_splitter,6368616e-6e65-46c5-9f73-706c69747465,rev?*%
%TF.SameCoordinates,Original*%
%TF.FileFunction,Soldermask,Bot*%
%TF.FilePolarity,Negative*%
%FSLAX46Y46*%
G04 Gerber Fmt 4.6, Leading zero omitted, Abs format (unit mm)*
G04 Created by KiCad (PCBNEW 7.0.1) date 2023-12-18 14:14:52*
%MOMM*%
%LPD*%
G01*
G04 APERTURE LIST*
%ADD10C,2.400000*%
%ADD11C,2.600000*%
%ADD12R,1.800000X1.800000*%
%ADD13C,1.800000*%
%ADD14R,1.700000X1.700000*%
%ADD15O,1.700000X1.700000*%
%ADD16C,0.990600*%
%ADD17C,1.700000*%
%ADD18C,3.500000*%
%ADD19R,2.000000X2.000000*%
%ADD20C,2.000000*%
G04 APERTURE END LIST*
D10*
%TO.C,J9*%
X140500000Y-76500000D03*
X125500000Y-76500000D03*
D11*
X125500000Y-81500000D03*
X133000000Y-81500000D03*
X140500000Y-81500000D03*
X128000000Y-84000000D03*
X138000000Y-84000000D03*
X135500000Y-71500000D03*
X130500000Y-71500000D03*
%TD*%
D12*
%TO.C,D2*%
X57250000Y-72325000D03*
D13*
X54710000Y-72325000D03*
%TD*%
D14*
%TO.C,J4*%
X94920000Y-118500000D03*
D15*
X97460000Y-118500000D03*
X100000000Y-118500000D03*
X102540000Y-118500000D03*
X105080000Y-118500000D03*
%TD*%
D10*
%TO.C,J8*%
X125500000Y-143500000D03*
X140500000Y-143500000D03*
D11*
X140500000Y-138500000D03*
X133000000Y-138500000D03*
X125500000Y-138500000D03*
X138000000Y-136000000D03*
X128000000Y-136000000D03*
X130500000Y-148500000D03*
X135500000Y-148500000D03*
%TD*%
D10*
%TO.C,J7*%
X103500000Y-143500000D03*
X118500000Y-143500000D03*
D11*
X118500000Y-138500000D03*
X111000000Y-138500000D03*
X103500000Y-138500000D03*
X116000000Y-136000000D03*
X106000000Y-136000000D03*
X108500000Y-148500000D03*
X113500000Y-148500000D03*
%TD*%
D10*
%TO.C,J5*%
X59500000Y-143500000D03*
X74500000Y-143500000D03*
D11*
X74500000Y-138500000D03*
X67000000Y-138500000D03*
X59500000Y-138500000D03*
X72000000Y-136000000D03*
X62000000Y-136000000D03*
X64500000Y-148500000D03*
X69500000Y-148500000D03*
%TD*%
D14*
%TO.C,JP1*%
X108540000Y-97500000D03*
D15*
X106000000Y-97500000D03*
%TD*%
D16*
%TO.C,J3*%
X113635000Y-107980000D03*
X114651000Y-113060000D03*
X112619000Y-113060000D03*
%TD*%
D12*
%TO.C,D4*%
X103250000Y-72325000D03*
D13*
X100710000Y-72325000D03*
%TD*%
D14*
%TO.C,JP2*%
X123000000Y-102235000D03*
D15*
X123000000Y-99695000D03*
X123000000Y-97155000D03*
%TD*%
D14*
%TO.C,J1*%
X65750000Y-82000000D03*
D17*
X68250000Y-82000000D03*
X68250000Y-80000000D03*
X65750000Y-80000000D03*
D18*
X60980000Y-77290000D03*
X73020000Y-77290000D03*
%TD*%
D10*
%TO.C,J2*%
X96500000Y-76500000D03*
X81500000Y-76500000D03*
D11*
X81500000Y-81500000D03*
X89000000Y-81500000D03*
X96500000Y-81500000D03*
X84000000Y-84000000D03*
X94000000Y-84000000D03*
X91500000Y-71500000D03*
X86500000Y-71500000D03*
%TD*%
D10*
%TO.C,J6*%
X81500000Y-143500000D03*
X96500000Y-143500000D03*
D11*
X96500000Y-138500000D03*
X89000000Y-138500000D03*
X81500000Y-138500000D03*
X94000000Y-136000000D03*
X84000000Y-136000000D03*
X86500000Y-148500000D03*
X91500000Y-148500000D03*
%TD*%
D19*
%TO.C,SW1*%
X116270000Y-76905000D03*
D20*
X116270000Y-74365000D03*
X113730000Y-76905000D03*
X113730000Y-74365000D03*
%TD*%
M02*
