%TF.GenerationSoftware,KiCad,Pcbnew,7.0.1*%
%TF.CreationDate,2023-12-18T14:14:52-05:00*%
%TF.ProjectId,channel_splitter,6368616e-6e65-46c5-9f73-706c69747465,rev?*%
%TF.SameCoordinates,Original*%
%TF.FileFunction,Legend,Bot*%
%TF.FilePolarity,Positive*%
%FSLAX46Y46*%
G04 Gerber Fmt 4.6, Leading zero omitted, Abs format (unit mm)*
G04 Created by KiCad (PCBNEW 7.0.1) date 2023-12-18 14:14:52*
%MOMM*%
%LPD*%
G01*
G04 APERTURE LIST*
%ADD10C,0.150000*%
%ADD11C,2.400000*%
%ADD12C,2.600000*%
%ADD13R,1.800000X1.800000*%
%ADD14C,1.800000*%
%ADD15R,1.700000X1.700000*%
%ADD16O,1.700000X1.700000*%
%ADD17C,0.990600*%
%ADD18C,1.700000*%
%ADD19C,3.500000*%
%ADD20R,2.000000X2.000000*%
%ADD21C,2.000000*%
G04 APERTURE END LIST*
D10*
X53962619Y-135380951D02*
X54676904Y-135380951D01*
X54676904Y-135380951D02*
X54819761Y-135333332D01*
X54819761Y-135333332D02*
X54915000Y-135238094D01*
X54915000Y-135238094D02*
X54962619Y-135095237D01*
X54962619Y-135095237D02*
X54962619Y-134999999D01*
X54962619Y-136333332D02*
X54962619Y-135857142D01*
X54962619Y-135857142D02*
X53962619Y-135857142D01*
X54867380Y-137238094D02*
X54915000Y-137190475D01*
X54915000Y-137190475D02*
X54962619Y-137047618D01*
X54962619Y-137047618D02*
X54962619Y-136952380D01*
X54962619Y-136952380D02*
X54915000Y-136809523D01*
X54915000Y-136809523D02*
X54819761Y-136714285D01*
X54819761Y-136714285D02*
X54724523Y-136666666D01*
X54724523Y-136666666D02*
X54534047Y-136619047D01*
X54534047Y-136619047D02*
X54391190Y-136619047D01*
X54391190Y-136619047D02*
X54200714Y-136666666D01*
X54200714Y-136666666D02*
X54105476Y-136714285D01*
X54105476Y-136714285D02*
X54010238Y-136809523D01*
X54010238Y-136809523D02*
X53962619Y-136952380D01*
X53962619Y-136952380D02*
X53962619Y-137047618D01*
X53962619Y-137047618D02*
X54010238Y-137190475D01*
X54010238Y-137190475D02*
X54057857Y-137238094D01*
X53962619Y-137952380D02*
X54676904Y-137952380D01*
X54676904Y-137952380D02*
X54819761Y-137904761D01*
X54819761Y-137904761D02*
X54915000Y-137809523D01*
X54915000Y-137809523D02*
X54962619Y-137666666D01*
X54962619Y-137666666D02*
X54962619Y-137571428D01*
X54962619Y-138904761D02*
X54962619Y-138428571D01*
X54962619Y-138428571D02*
X53962619Y-138428571D01*
X54867380Y-139809523D02*
X54915000Y-139761904D01*
X54915000Y-139761904D02*
X54962619Y-139619047D01*
X54962619Y-139619047D02*
X54962619Y-139523809D01*
X54962619Y-139523809D02*
X54915000Y-139380952D01*
X54915000Y-139380952D02*
X54819761Y-139285714D01*
X54819761Y-139285714D02*
X54724523Y-139238095D01*
X54724523Y-139238095D02*
X54534047Y-139190476D01*
X54534047Y-139190476D02*
X54391190Y-139190476D01*
X54391190Y-139190476D02*
X54200714Y-139238095D01*
X54200714Y-139238095D02*
X54105476Y-139285714D01*
X54105476Y-139285714D02*
X54010238Y-139380952D01*
X54010238Y-139380952D02*
X53962619Y-139523809D01*
X53962619Y-139523809D02*
X53962619Y-139619047D01*
X53962619Y-139619047D02*
X54010238Y-139761904D01*
X54010238Y-139761904D02*
X54057857Y-139809523D01*
X53962619Y-140523809D02*
X54676904Y-140523809D01*
X54676904Y-140523809D02*
X54819761Y-140476190D01*
X54819761Y-140476190D02*
X54915000Y-140380952D01*
X54915000Y-140380952D02*
X54962619Y-140238095D01*
X54962619Y-140238095D02*
X54962619Y-140142857D01*
X54962619Y-141476190D02*
X54962619Y-141000000D01*
X54962619Y-141000000D02*
X53962619Y-141000000D01*
X54867380Y-142380952D02*
X54915000Y-142333333D01*
X54915000Y-142333333D02*
X54962619Y-142190476D01*
X54962619Y-142190476D02*
X54962619Y-142095238D01*
X54962619Y-142095238D02*
X54915000Y-141952381D01*
X54915000Y-141952381D02*
X54819761Y-141857143D01*
X54819761Y-141857143D02*
X54724523Y-141809524D01*
X54724523Y-141809524D02*
X54534047Y-141761905D01*
X54534047Y-141761905D02*
X54391190Y-141761905D01*
X54391190Y-141761905D02*
X54200714Y-141809524D01*
X54200714Y-141809524D02*
X54105476Y-141857143D01*
X54105476Y-141857143D02*
X54010238Y-141952381D01*
X54010238Y-141952381D02*
X53962619Y-142095238D01*
X53962619Y-142095238D02*
X53962619Y-142190476D01*
X53962619Y-142190476D02*
X54010238Y-142333333D01*
X54010238Y-142333333D02*
X54057857Y-142380952D01*
X53962619Y-143095238D02*
X54676904Y-143095238D01*
X54676904Y-143095238D02*
X54819761Y-143047619D01*
X54819761Y-143047619D02*
X54915000Y-142952381D01*
X54915000Y-142952381D02*
X54962619Y-142809524D01*
X54962619Y-142809524D02*
X54962619Y-142714286D01*
X54962619Y-144047619D02*
X54962619Y-143571429D01*
X54962619Y-143571429D02*
X53962619Y-143571429D01*
X54867380Y-144952381D02*
X54915000Y-144904762D01*
X54915000Y-144904762D02*
X54962619Y-144761905D01*
X54962619Y-144761905D02*
X54962619Y-144666667D01*
X54962619Y-144666667D02*
X54915000Y-144523810D01*
X54915000Y-144523810D02*
X54819761Y-144428572D01*
X54819761Y-144428572D02*
X54724523Y-144380953D01*
X54724523Y-144380953D02*
X54534047Y-144333334D01*
X54534047Y-144333334D02*
X54391190Y-144333334D01*
X54391190Y-144333334D02*
X54200714Y-144380953D01*
X54200714Y-144380953D02*
X54105476Y-144428572D01*
X54105476Y-144428572D02*
X54010238Y-144523810D01*
X54010238Y-144523810D02*
X53962619Y-144666667D01*
X53962619Y-144666667D02*
X53962619Y-144761905D01*
X53962619Y-144761905D02*
X54010238Y-144904762D01*
X54010238Y-144904762D02*
X54057857Y-144952381D01*
%LPC*%
D11*
%TO.C,J9*%
X140500000Y-76500000D03*
X125500000Y-76500000D03*
D12*
X125500000Y-81500000D03*
X133000000Y-81500000D03*
X140500000Y-81500000D03*
X128000000Y-84000000D03*
X138000000Y-84000000D03*
X135500000Y-71500000D03*
X130500000Y-71500000D03*
%TD*%
D13*
%TO.C,D2*%
X57250000Y-72325000D03*
D14*
X54710000Y-72325000D03*
%TD*%
D15*
%TO.C,J4*%
X94920000Y-118500000D03*
D16*
X97460000Y-118500000D03*
X100000000Y-118500000D03*
X102540000Y-118500000D03*
X105080000Y-118500000D03*
%TD*%
D11*
%TO.C,J8*%
X125500000Y-143500000D03*
X140500000Y-143500000D03*
D12*
X140500000Y-138500000D03*
X133000000Y-138500000D03*
X125500000Y-138500000D03*
X138000000Y-136000000D03*
X128000000Y-136000000D03*
X130500000Y-148500000D03*
X135500000Y-148500000D03*
%TD*%
D11*
%TO.C,J7*%
X103500000Y-143500000D03*
X118500000Y-143500000D03*
D12*
X118500000Y-138500000D03*
X111000000Y-138500000D03*
X103500000Y-138500000D03*
X116000000Y-136000000D03*
X106000000Y-136000000D03*
X108500000Y-148500000D03*
X113500000Y-148500000D03*
%TD*%
D11*
%TO.C,J5*%
X59500000Y-143500000D03*
X74500000Y-143500000D03*
D12*
X74500000Y-138500000D03*
X67000000Y-138500000D03*
X59500000Y-138500000D03*
X72000000Y-136000000D03*
X62000000Y-136000000D03*
X64500000Y-148500000D03*
X69500000Y-148500000D03*
%TD*%
D15*
%TO.C,JP1*%
X108540000Y-97500000D03*
D16*
X106000000Y-97500000D03*
%TD*%
D17*
%TO.C,J3*%
X113635000Y-107980000D03*
X114651000Y-113060000D03*
X112619000Y-113060000D03*
%TD*%
D13*
%TO.C,D4*%
X103250000Y-72325000D03*
D14*
X100710000Y-72325000D03*
%TD*%
D15*
%TO.C,JP2*%
X123000000Y-102235000D03*
D16*
X123000000Y-99695000D03*
X123000000Y-97155000D03*
%TD*%
D15*
%TO.C,J1*%
X65750000Y-82000000D03*
D18*
X68250000Y-82000000D03*
X68250000Y-80000000D03*
X65750000Y-80000000D03*
D19*
X60980000Y-77290000D03*
X73020000Y-77290000D03*
%TD*%
D11*
%TO.C,J2*%
X96500000Y-76500000D03*
X81500000Y-76500000D03*
D12*
X81500000Y-81500000D03*
X89000000Y-81500000D03*
X96500000Y-81500000D03*
X84000000Y-84000000D03*
X94000000Y-84000000D03*
X91500000Y-71500000D03*
X86500000Y-71500000D03*
%TD*%
D11*
%TO.C,J6*%
X81500000Y-143500000D03*
X96500000Y-143500000D03*
D12*
X96500000Y-138500000D03*
X89000000Y-138500000D03*
X81500000Y-138500000D03*
X94000000Y-136000000D03*
X84000000Y-136000000D03*
X86500000Y-148500000D03*
X91500000Y-148500000D03*
%TD*%
D20*
%TO.C,SW1*%
X116270000Y-76905000D03*
D21*
X116270000Y-74365000D03*
X113730000Y-76905000D03*
X113730000Y-74365000D03*
%TD*%
M02*
