%TF.GenerationSoftware,KiCad,Pcbnew,7.0.1*%
%TF.CreationDate,2023-12-18T14:14:52-05:00*%
%TF.ProjectId,channel_splitter,6368616e-6e65-46c5-9f73-706c69747465,rev?*%
%TF.SameCoordinates,Original*%
%TF.FileFunction,Copper,L2,Bot*%
%TF.FilePolarity,Positive*%
%FSLAX46Y46*%
G04 Gerber Fmt 4.6, Leading zero omitted, Abs format (unit mm)*
G04 Created by KiCad (PCBNEW 7.0.1) date 2023-12-18 14:14:52*
%MOMM*%
%LPD*%
G01*
G04 APERTURE LIST*
%TA.AperFunction,ComponentPad*%
%ADD10C,2.600000*%
%TD*%
%TA.AperFunction,ComponentPad*%
%ADD11R,1.800000X1.800000*%
%TD*%
%TA.AperFunction,ComponentPad*%
%ADD12C,1.800000*%
%TD*%
%TA.AperFunction,ComponentPad*%
%ADD13R,1.700000X1.700000*%
%TD*%
%TA.AperFunction,ComponentPad*%
%ADD14O,1.700000X1.700000*%
%TD*%
%TA.AperFunction,ComponentPad*%
%ADD15C,1.700000*%
%TD*%
%TA.AperFunction,ComponentPad*%
%ADD16C,3.500000*%
%TD*%
%TA.AperFunction,ComponentPad*%
%ADD17R,2.000000X2.000000*%
%TD*%
%TA.AperFunction,ComponentPad*%
%ADD18C,2.000000*%
%TD*%
%TA.AperFunction,ViaPad*%
%ADD19C,0.800000*%
%TD*%
%TA.AperFunction,Conductor*%
%ADD20C,0.600000*%
%TD*%
%TA.AperFunction,Conductor*%
%ADD21C,0.550000*%
%TD*%
%TA.AperFunction,Conductor*%
%ADD22C,0.400000*%
%TD*%
G04 APERTURE END LIST*
D10*
%TO.P,J9,1*%
%TO.N,unconnected-(J9-Pad1)*%
X125500000Y-81500000D03*
%TO.P,J9,2*%
%TO.N,GND*%
X133000000Y-81500000D03*
%TO.P,J9,3*%
%TO.N,unconnected-(J9-Pad3)*%
X140500000Y-81500000D03*
%TO.P,J9,4*%
%TO.N,Net-(FB13-Pad1)*%
X128000000Y-84000000D03*
%TO.P,J9,5*%
%TO.N,Net-(FB12-Pad2)*%
X138000000Y-84000000D03*
%TO.P,J9,S1*%
%TO.N,GND*%
X135500000Y-71500000D03*
%TO.P,J9,S2*%
X130500000Y-71500000D03*
%TD*%
D11*
%TO.P,D2,1,K*%
%TO.N,GND*%
X57250000Y-72325000D03*
D12*
%TO.P,D2,2,A*%
%TO.N,Net-(D2-A)*%
X54710000Y-72325000D03*
%TD*%
D13*
%TO.P,J4,1,Pin_1*%
%TO.N,/~{PORT1_EN}*%
X94920000Y-118500000D03*
D14*
%TO.P,J4,2,Pin_2*%
%TO.N,/~{PORT2_EN}*%
X97460000Y-118500000D03*
%TO.P,J4,3,Pin_3*%
%TO.N,/~{PORT3_EN}*%
X100000000Y-118500000D03*
%TO.P,J4,4,Pin_4*%
%TO.N,/~{PORT4_EN}*%
X102540000Y-118500000D03*
%TO.P,J4,5,Pin_5*%
%TO.N,GND*%
X105080000Y-118500000D03*
%TD*%
D10*
%TO.P,J8,1*%
%TO.N,unconnected-(J8-Pad1)*%
X140500000Y-138500000D03*
%TO.P,J8,2*%
%TO.N,GND*%
X133000000Y-138500000D03*
%TO.P,J8,3*%
%TO.N,unconnected-(J8-Pad3)*%
X125500000Y-138500000D03*
%TO.P,J8,4*%
%TO.N,Net-(FB11-Pad1)*%
X138000000Y-136000000D03*
%TO.P,J8,5*%
%TO.N,Net-(FB10-Pad2)*%
X128000000Y-136000000D03*
%TO.P,J8,S1*%
%TO.N,GND*%
X130500000Y-148500000D03*
%TO.P,J8,S2*%
X135500000Y-148500000D03*
%TD*%
%TO.P,J7,1*%
%TO.N,unconnected-(J7-Pad1)*%
X118500000Y-138500000D03*
%TO.P,J7,2*%
%TO.N,GND*%
X111000000Y-138500000D03*
%TO.P,J7,3*%
%TO.N,unconnected-(J7-Pad3)*%
X103500000Y-138500000D03*
%TO.P,J7,4*%
%TO.N,Net-(FB9-Pad1)*%
X116000000Y-136000000D03*
%TO.P,J7,5*%
%TO.N,Net-(FB8-Pad2)*%
X106000000Y-136000000D03*
%TO.P,J7,S1*%
%TO.N,GND*%
X108500000Y-148500000D03*
%TO.P,J7,S2*%
X113500000Y-148500000D03*
%TD*%
%TO.P,J5,1*%
%TO.N,unconnected-(J5-Pad1)*%
X74500000Y-138500000D03*
%TO.P,J5,2*%
%TO.N,GND*%
X67000000Y-138500000D03*
%TO.P,J5,3*%
%TO.N,unconnected-(J5-Pad3)*%
X59500000Y-138500000D03*
%TO.P,J5,4*%
%TO.N,Net-(FB5-Pad1)*%
X72000000Y-136000000D03*
%TO.P,J5,5*%
%TO.N,Net-(FB4-Pad2)*%
X62000000Y-136000000D03*
%TO.P,J5,S1*%
%TO.N,GND*%
X64500000Y-148500000D03*
%TO.P,J5,S2*%
X69500000Y-148500000D03*
%TD*%
D13*
%TO.P,JP1,1,A*%
%TO.N,GND*%
X108540000Y-97500000D03*
D14*
%TO.P,JP1,2,B*%
%TO.N,/~{RESET}*%
X106000000Y-97500000D03*
%TD*%
D11*
%TO.P,D4,1,K*%
%TO.N,GND*%
X103250000Y-72325000D03*
D12*
%TO.P,D4,2,A*%
%TO.N,Net-(D4-A)*%
X100710000Y-72325000D03*
%TD*%
D13*
%TO.P,JP2,1,A*%
%TO.N,/UART_TX*%
X123000000Y-102235000D03*
D14*
%TO.P,JP2,2,B*%
%TO.N,/THRU_SEL*%
X123000000Y-99695000D03*
%TO.P,JP2,3,C*%
%TO.N,/MIDI_IN*%
X123000000Y-97155000D03*
%TD*%
D13*
%TO.P,J1,1,VBUS*%
%TO.N,VBUS*%
X65750000Y-82000000D03*
D15*
%TO.P,J1,2,D-*%
%TO.N,unconnected-(J1-D--Pad2)*%
X68250000Y-82000000D03*
%TO.P,J1,3,D+*%
%TO.N,unconnected-(J1-D+-Pad3)*%
X68250000Y-80000000D03*
%TO.P,J1,4,GND*%
%TO.N,GND*%
X65750000Y-80000000D03*
D16*
%TO.P,J1,5,Shield*%
%TO.N,unconnected-(J1-Shield-Pad5)*%
X60980000Y-77290000D03*
X73020000Y-77290000D03*
%TD*%
D10*
%TO.P,J2,1*%
%TO.N,unconnected-(J2-Pad1)*%
X81500000Y-81500000D03*
%TO.P,J2,2*%
%TO.N,Net-(C8-Pad1)*%
X89000000Y-81500000D03*
%TO.P,J2,3*%
%TO.N,unconnected-(J2-Pad3)*%
X96500000Y-81500000D03*
%TO.P,J2,4*%
%TO.N,Net-(FB2-Pad1)*%
X84000000Y-84000000D03*
%TO.P,J2,5*%
%TO.N,Net-(FB3-Pad1)*%
X94000000Y-84000000D03*
%TO.P,J2,S1*%
%TO.N,Net-(C7-Pad1)*%
X91500000Y-71500000D03*
%TO.P,J2,S2*%
X86500000Y-71500000D03*
%TD*%
%TO.P,J6,1*%
%TO.N,unconnected-(J6-Pad1)*%
X96500000Y-138500000D03*
%TO.P,J6,2*%
%TO.N,GND*%
X89000000Y-138500000D03*
%TO.P,J6,3*%
%TO.N,unconnected-(J6-Pad3)*%
X81500000Y-138500000D03*
%TO.P,J6,4*%
%TO.N,Net-(FB7-Pad1)*%
X94000000Y-136000000D03*
%TO.P,J6,5*%
%TO.N,Net-(FB6-Pad2)*%
X84000000Y-136000000D03*
%TO.P,J6,S1*%
%TO.N,GND*%
X86500000Y-148500000D03*
%TO.P,J6,S2*%
X91500000Y-148500000D03*
%TD*%
D17*
%TO.P,SW1,1*%
%TO.N,/CFG1*%
X116270000Y-76905000D03*
D18*
%TO.P,SW1,2*%
%TO.N,GND*%
X116270000Y-74365000D03*
%TO.P,SW1,3*%
%TO.N,/CFG2*%
X113730000Y-76905000D03*
%TO.P,SW1,4*%
%TO.N,GND*%
X113730000Y-74365000D03*
%TD*%
D19*
%TO.N,GND*%
X95750000Y-72250000D03*
X118250000Y-129750000D03*
X81500000Y-136000000D03*
X146500000Y-106500000D03*
X137750000Y-79500000D03*
X135500000Y-96750000D03*
X125000000Y-129750000D03*
X115250000Y-103750000D03*
X120750000Y-103500000D03*
X121750000Y-112750000D03*
X99750000Y-90750000D03*
X129000000Y-98250000D03*
X117500000Y-93750000D03*
X110750000Y-115500000D03*
X83750000Y-129250000D03*
X111000000Y-98250000D03*
X131500000Y-91500000D03*
X92500000Y-113500000D03*
X109000000Y-92000000D03*
X123500000Y-128250000D03*
X73500000Y-132500000D03*
X101000000Y-103500000D03*
X132500000Y-129500000D03*
X80500000Y-103750000D03*
X125000000Y-101000000D03*
X100750000Y-84000000D03*
X128500000Y-129250000D03*
X129500000Y-138750000D03*
X72000000Y-111250000D03*
X115250000Y-111750000D03*
X137500000Y-129250000D03*
X75000000Y-127250000D03*
X77000000Y-76250000D03*
X115500000Y-143000000D03*
X118500000Y-125750000D03*
X107750000Y-84750000D03*
X141000000Y-125500000D03*
X131250000Y-96250000D03*
X121500000Y-107250000D03*
X60000000Y-92500000D03*
X93500000Y-101750000D03*
X98500000Y-135250000D03*
X125250000Y-90250000D03*
X74750000Y-129750000D03*
X97500000Y-132000000D03*
X80500000Y-106250000D03*
X74750000Y-106250000D03*
X99500000Y-80000000D03*
X126000000Y-147750000D03*
X126000000Y-72500000D03*
X145000000Y-147000000D03*
X107250000Y-142250000D03*
X72250000Y-129250000D03*
X68000000Y-127250000D03*
X93500000Y-86750000D03*
X96750000Y-84250000D03*
X64750000Y-98750000D03*
X60750000Y-146750000D03*
X97500000Y-93250000D03*
X137500000Y-141750000D03*
X53500000Y-129000000D03*
X94750000Y-127000000D03*
X79000000Y-124500000D03*
X78000000Y-149250000D03*
X53500000Y-86750000D03*
X111250000Y-87500000D03*
X91000000Y-84250000D03*
X91500000Y-101750000D03*
X146500000Y-90000000D03*
X122000000Y-87500000D03*
X133500000Y-98250000D03*
X94500000Y-91000000D03*
X111250000Y-82750000D03*
X108500000Y-76000000D03*
X76250000Y-90250000D03*
X133000000Y-105500000D03*
X87500000Y-119500000D03*
X115000000Y-71250000D03*
X138750000Y-97000000D03*
X87750000Y-94500000D03*
X103500000Y-148250000D03*
X97500000Y-103500000D03*
X121250000Y-71750000D03*
X105500000Y-92000000D03*
X114750000Y-139000000D03*
X100000000Y-97250000D03*
X142750000Y-100000000D03*
X129750000Y-94000000D03*
X139500000Y-91750000D03*
X121500000Y-75750000D03*
X110500000Y-105500000D03*
X98750000Y-122000000D03*
X89250000Y-127750000D03*
X72000000Y-94750000D03*
X140000000Y-148250000D03*
X67000000Y-124250000D03*
X83750000Y-127000000D03*
X117500000Y-113750000D03*
X135750000Y-108250000D03*
X66250000Y-70750000D03*
X58500000Y-84750000D03*
X124250000Y-113750000D03*
X84250000Y-99250000D03*
X110000000Y-72000000D03*
X85750000Y-106250000D03*
X115000000Y-78750000D03*
X118000000Y-87500000D03*
X76250000Y-99250000D03*
X81750000Y-73500000D03*
X76000000Y-87750000D03*
X136500000Y-124000000D03*
X81000000Y-94500000D03*
X117750000Y-79750000D03*
X105750000Y-73750000D03*
X141500000Y-111500000D03*
X82000000Y-87500000D03*
X117750000Y-97500000D03*
X59750000Y-108500000D03*
X140000000Y-119750000D03*
X119250000Y-135750000D03*
X92500000Y-97750000D03*
X102500000Y-79750000D03*
X123250000Y-95250000D03*
X117000000Y-128250000D03*
X70500000Y-141250000D03*
X53250000Y-76000000D03*
X85000000Y-77750000D03*
X71250000Y-86000000D03*
X146500000Y-70750000D03*
X143750000Y-91000000D03*
X126500000Y-87500000D03*
X53500000Y-112750000D03*
X92250000Y-81000000D03*
X59250000Y-89000000D03*
X57750000Y-98750000D03*
X93500000Y-116500000D03*
X99500000Y-129500000D03*
X58750000Y-125750000D03*
X58000000Y-94500000D03*
X53500000Y-102750000D03*
X102250000Y-135500000D03*
X108250000Y-122750000D03*
X79000000Y-127000000D03*
X146500000Y-122000000D03*
X146500000Y-97750000D03*
X58750000Y-79500000D03*
X93500000Y-120000000D03*
X99750000Y-74750000D03*
X136250000Y-113000000D03*
X133500000Y-85500000D03*
X95750000Y-148000000D03*
X103250000Y-83250000D03*
X140500000Y-84000000D03*
X93000000Y-93750000D03*
X121000000Y-97000000D03*
X121250000Y-101000000D03*
X143750000Y-82250000D03*
X102000000Y-99000000D03*
X131250000Y-119000000D03*
X64750000Y-94250000D03*
X139250000Y-72000000D03*
X127750000Y-111000000D03*
X82750000Y-147250000D03*
X78250000Y-132500000D03*
X100000000Y-146750000D03*
X139500000Y-86250000D03*
X98750000Y-120750000D03*
X118000000Y-90250000D03*
X75000000Y-124250000D03*
X106250000Y-124500000D03*
X70500000Y-79500000D03*
X108250000Y-128250000D03*
X104250000Y-129500000D03*
X141500000Y-146750000D03*
X146500000Y-115000000D03*
X53500000Y-94500000D03*
X87500000Y-101750000D03*
X131000000Y-114500000D03*
X81000000Y-119500000D03*
X98250000Y-70750000D03*
X65250000Y-77750000D03*
X100000000Y-138500000D03*
X77500000Y-80750000D03*
X85250000Y-142250000D03*
X132500000Y-95000000D03*
X75000000Y-111000000D03*
X124500000Y-125750000D03*
X53500000Y-149000000D03*
X72000000Y-105500000D03*
X103500000Y-93500000D03*
X64000000Y-141250000D03*
X116000000Y-109250000D03*
X74750000Y-103750000D03*
X146250000Y-130750000D03*
X103750000Y-116750000D03*
X142000000Y-105250000D03*
X90500000Y-87750000D03*
X70250000Y-90250000D03*
X106000000Y-104500000D03*
X74250000Y-71000000D03*
X104500000Y-96000000D03*
X107750000Y-87500000D03*
X93500000Y-123500000D03*
X110250000Y-135750000D03*
X65000000Y-106000000D03*
X110250000Y-79750000D03*
X110750000Y-128250000D03*
X57750000Y-74250000D03*
X90750000Y-107750000D03*
X139250000Y-95000000D03*
X56250000Y-80750000D03*
X110750000Y-123750000D03*
X81000000Y-111500000D03*
X102500000Y-104500000D03*
X101500000Y-93500000D03*
X70000000Y-134750000D03*
X53500000Y-90250000D03*
X112750000Y-129750000D03*
X64750000Y-91750000D03*
X104000000Y-86000000D03*
X58500000Y-70500000D03*
X89250000Y-124500000D03*
X96250000Y-120250000D03*
X71250000Y-100750000D03*
X87000000Y-87750000D03*
X124500000Y-107000000D03*
X86500000Y-111500000D03*
X131750000Y-134500000D03*
X120750000Y-92750000D03*
X97500000Y-105000000D03*
X58500000Y-149000000D03*
X112250000Y-125750000D03*
X72000000Y-127250000D03*
X92500000Y-139500000D03*
X74000000Y-147000000D03*
X100000000Y-87750000D03*
X104000000Y-75750000D03*
X133500000Y-135750000D03*
X68750000Y-102500000D03*
X146500000Y-76750000D03*
X56500000Y-89000000D03*
X123500000Y-135250000D03*
X105000000Y-70500000D03*
X82500000Y-90250000D03*
X60250000Y-86750000D03*
X78000000Y-138500000D03*
X146500000Y-83250000D03*
X137250000Y-139250000D03*
X117750000Y-101000000D03*
X103750000Y-113750000D03*
X111250000Y-93500000D03*
X72000000Y-117750000D03*
X85750000Y-103250000D03*
X121750000Y-90250000D03*
X143500000Y-74500000D03*
X72000000Y-124250000D03*
X53500000Y-121250000D03*
X53250000Y-142000000D03*
X125000000Y-121000000D03*
X64000000Y-134750000D03*
X115000000Y-87500000D03*
X121000000Y-83500000D03*
X101000000Y-105000000D03*
X115000000Y-99750000D03*
X89500000Y-101750000D03*
X56250000Y-75500000D03*
X61750000Y-98250000D03*
X74500000Y-136000000D03*
X118000000Y-147750000D03*
X53250000Y-70750000D03*
X62000000Y-129000000D03*
X129250000Y-101000000D03*
X92565332Y-109065332D03*
X62500000Y-83750000D03*
X103750000Y-120000000D03*
X116250000Y-118250000D03*
X68250000Y-87750000D03*
X53500000Y-134750000D03*
X134750000Y-101000000D03*
X98750000Y-119750000D03*
X67500000Y-97000000D03*
X134250000Y-96500000D03*
X122000000Y-138500000D03*
X79000000Y-129750000D03*
X107250000Y-120000000D03*
X97250000Y-98500000D03*
X129250000Y-78250000D03*
X104750000Y-122750000D03*
X131500000Y-124250000D03*
X93500000Y-113500000D03*
X75000000Y-118000000D03*
X130000000Y-142000000D03*
X65500000Y-129750000D03*
X83750000Y-124500000D03*
X60000000Y-116250000D03*
X61000000Y-85500000D03*
X95750000Y-109250000D03*
X64750000Y-118750000D03*
X63750000Y-96250000D03*
X89000000Y-135750000D03*
X124750000Y-98250000D03*
X115000000Y-92250000D03*
X144750000Y-142750000D03*
X126250000Y-94000000D03*
X65750000Y-113250000D03*
X146000000Y-139500000D03*
X118250000Y-120000000D03*
X56000000Y-85750000D03*
X134500000Y-91250000D03*
X101250000Y-119750000D03*
%TO.N,+5V*%
X73500000Y-105000000D03*
X139500000Y-131000000D03*
X111000000Y-92000000D03*
X111000000Y-88980000D03*
X117500000Y-131000000D03*
X95500000Y-131000000D03*
X109500000Y-121500000D03*
X68500000Y-90000000D03*
X73500000Y-131000000D03*
%TO.N,/UART_TX*%
X98000000Y-102025000D03*
%TO.N,/SER_CLK*%
X105625000Y-107875000D03*
X108250000Y-110520000D03*
%TO.N,/~{RESET}*%
X99600000Y-103134500D03*
X104750000Y-111750000D03*
%TO.N,/~{PORT1_EN}*%
X94920000Y-124460000D03*
%TO.N,/~{PORT2_EN}*%
X95250000Y-128270000D03*
%TO.N,/~{PORT3_EN}*%
X104775000Y-128270000D03*
%TO.N,/~{PORT4_EN}*%
X104775000Y-124460000D03*
%TO.N,/CFG2*%
X113750000Y-100250000D03*
%TO.N,/CFG1*%
X116250000Y-100750000D03*
%TO.N,/~{RX_LED}*%
X112500000Y-81500000D03*
X112500000Y-99000000D03*
%TD*%
D20*
%TO.N,+5V*%
X111000000Y-88980000D02*
X111000000Y-92000000D01*
D21*
X109500000Y-131000000D02*
X95500000Y-131000000D01*
D20*
X69520000Y-88980000D02*
X68500000Y-90000000D01*
X109500000Y-121500000D02*
X109500000Y-131000000D01*
D21*
X95500000Y-131000000D02*
X73500000Y-131000000D01*
X117500000Y-131000000D02*
X109500000Y-131000000D01*
D20*
X73500000Y-131000000D02*
X73500000Y-105000000D01*
X111000000Y-88980000D02*
X69520000Y-88980000D01*
D21*
X139500000Y-131000000D02*
X117500000Y-131000000D01*
D20*
X73500000Y-131000000D02*
X139500000Y-131000000D01*
%TO.N,/UART_TX*%
X98000000Y-102025000D02*
X98210000Y-102235000D01*
X98210000Y-102235000D02*
X123000000Y-102235000D01*
D22*
%TO.N,/SER_CLK*%
X105625000Y-107895000D02*
X108250000Y-110520000D01*
X105625000Y-107875000D02*
X105625000Y-107895000D01*
%TO.N,/~{RESET}*%
X99600000Y-106600000D02*
X99600000Y-103134500D01*
X104750000Y-111750000D02*
X99600000Y-106600000D01*
D20*
%TO.N,/~{PORT1_EN}*%
X94920000Y-118500000D02*
X94920000Y-124460000D01*
%TO.N,/~{PORT2_EN}*%
X97460000Y-118500000D02*
X97460000Y-126060000D01*
X97460000Y-126060000D02*
X95250000Y-128270000D01*
%TO.N,/~{PORT3_EN}*%
X104775000Y-128270000D02*
X100000000Y-123495000D01*
X100025500Y-118525500D02*
X100000000Y-118500000D01*
X100000000Y-123495000D02*
X100000000Y-121898293D01*
X100000000Y-121898293D02*
X100025500Y-121872793D01*
X100025500Y-121872793D02*
X100025500Y-118525500D01*
%TO.N,/~{PORT4_EN}*%
X102540000Y-118500000D02*
X102540000Y-122225000D01*
X102540000Y-122225000D02*
X104775000Y-124460000D01*
%TO.N,/CFG2*%
X113730000Y-100230000D02*
X113730000Y-76905000D01*
X113750000Y-100250000D02*
X113730000Y-100230000D01*
%TO.N,/CFG1*%
X116270000Y-100730000D02*
X116270000Y-76905000D01*
X116250000Y-100750000D02*
X116270000Y-100730000D01*
%TO.N,/~{RX_LED}*%
X112500000Y-99000000D02*
X112500000Y-81500000D01*
%TD*%
%TA.AperFunction,Conductor*%
%TO.N,GND*%
G36*
X85210128Y-70014439D02*
G01*
X85254405Y-70053123D01*
X85275886Y-70107855D01*
X85269740Y-70166329D01*
X85237350Y-70215398D01*
X85176439Y-70271914D01*
X85008184Y-70482899D01*
X84873257Y-70716601D01*
X84774666Y-70967804D01*
X84714616Y-71230899D01*
X84694450Y-71499999D01*
X84714616Y-71769100D01*
X84714617Y-71769103D01*
X84774666Y-72032195D01*
X84873257Y-72283398D01*
X85008185Y-72517102D01*
X85176439Y-72728085D01*
X85374259Y-72911635D01*
X85597226Y-73063651D01*
X85840359Y-73180738D01*
X86098228Y-73260280D01*
X86365071Y-73300500D01*
X86634929Y-73300500D01*
X86901772Y-73260280D01*
X87159641Y-73180738D01*
X87402775Y-73063651D01*
X87625741Y-72911635D01*
X87823561Y-72728085D01*
X87991815Y-72517102D01*
X88126743Y-72283398D01*
X88225334Y-72032195D01*
X88285383Y-71769103D01*
X88305549Y-71500000D01*
X88285383Y-71230897D01*
X88225334Y-70967805D01*
X88126743Y-70716602D01*
X87991815Y-70482898D01*
X87823561Y-70271915D01*
X87762649Y-70215397D01*
X87730260Y-70166329D01*
X87724114Y-70107855D01*
X87745595Y-70053123D01*
X87789872Y-70014439D01*
X87846992Y-70000500D01*
X90153008Y-70000500D01*
X90210128Y-70014439D01*
X90254405Y-70053123D01*
X90275886Y-70107855D01*
X90269740Y-70166329D01*
X90237350Y-70215398D01*
X90176439Y-70271914D01*
X90008184Y-70482899D01*
X89873257Y-70716601D01*
X89774666Y-70967804D01*
X89714616Y-71230899D01*
X89694450Y-71499999D01*
X89714616Y-71769100D01*
X89714617Y-71769103D01*
X89774666Y-72032195D01*
X89873257Y-72283398D01*
X90008185Y-72517102D01*
X90176439Y-72728085D01*
X90374259Y-72911635D01*
X90597226Y-73063651D01*
X90840359Y-73180738D01*
X91098228Y-73260280D01*
X91365071Y-73300500D01*
X91634929Y-73300500D01*
X91901772Y-73260280D01*
X92159641Y-73180738D01*
X92402775Y-73063651D01*
X92625741Y-72911635D01*
X92823561Y-72728085D01*
X92991815Y-72517102D01*
X93102725Y-72324999D01*
X99304699Y-72324999D01*
X99323865Y-72556299D01*
X99323865Y-72556301D01*
X99323866Y-72556305D01*
X99330918Y-72584151D01*
X99380844Y-72781303D01*
X99438013Y-72911635D01*
X99474076Y-72993849D01*
X99601021Y-73188153D01*
X99758216Y-73358913D01*
X99941374Y-73501470D01*
X100145497Y-73611936D01*
X100252383Y-73648630D01*
X100365015Y-73687297D01*
X100365017Y-73687297D01*
X100365019Y-73687298D01*
X100593951Y-73725500D01*
X100826048Y-73725500D01*
X100826049Y-73725500D01*
X101054981Y-73687298D01*
X101274503Y-73611936D01*
X101478626Y-73501470D01*
X101661784Y-73358913D01*
X101670511Y-73349432D01*
X101723132Y-73315577D01*
X101785588Y-73311727D01*
X101841971Y-73338865D01*
X101877924Y-73390079D01*
X101906647Y-73467088D01*
X101992811Y-73582188D01*
X102107910Y-73668352D01*
X102242624Y-73718597D01*
X102302176Y-73725000D01*
X103000000Y-73725000D01*
X103000000Y-72575000D01*
X103500000Y-72575000D01*
X103500000Y-73725000D01*
X104197824Y-73725000D01*
X104257375Y-73718597D01*
X104392089Y-73668352D01*
X104507188Y-73582188D01*
X104593352Y-73467089D01*
X104643597Y-73332375D01*
X104650000Y-73272824D01*
X104650000Y-73141390D01*
X112859942Y-73141390D01*
X113730000Y-74011447D01*
X113730001Y-74011447D01*
X114600057Y-73141390D01*
X115399942Y-73141390D01*
X116270000Y-74011447D01*
X116270001Y-74011447D01*
X117140057Y-73141390D01*
X117140056Y-73141388D01*
X117093235Y-73104947D01*
X116874606Y-72986631D01*
X116734995Y-72938702D01*
X129414848Y-72938702D01*
X129597479Y-73063217D01*
X129840542Y-73180270D01*
X130098339Y-73259791D01*
X130365109Y-73300000D01*
X130634891Y-73300000D01*
X130901660Y-73259791D01*
X131159460Y-73180270D01*
X131402523Y-73063217D01*
X131585150Y-72938702D01*
X134414848Y-72938702D01*
X134597479Y-73063217D01*
X134840542Y-73180270D01*
X135098339Y-73259791D01*
X135365109Y-73300000D01*
X135634891Y-73300000D01*
X135901660Y-73259791D01*
X136159460Y-73180270D01*
X136402523Y-73063217D01*
X136585150Y-72938702D01*
X135500000Y-71853553D01*
X134414848Y-72938702D01*
X131585150Y-72938702D01*
X130500000Y-71853553D01*
X129414848Y-72938702D01*
X116734995Y-72938702D01*
X116639493Y-72905916D01*
X116394293Y-72865000D01*
X116145707Y-72865000D01*
X115900506Y-72905916D01*
X115665393Y-72986631D01*
X115446764Y-73104946D01*
X115399942Y-73141388D01*
X115399942Y-73141390D01*
X114600057Y-73141390D01*
X114600056Y-73141388D01*
X114553235Y-73104947D01*
X114334606Y-72986631D01*
X114099493Y-72905916D01*
X113854293Y-72865000D01*
X113605707Y-72865000D01*
X113360506Y-72905916D01*
X113125393Y-72986631D01*
X112906764Y-73104946D01*
X112859942Y-73141388D01*
X112859942Y-73141390D01*
X104650000Y-73141390D01*
X104650000Y-72575000D01*
X103500000Y-72575000D01*
X103000000Y-72575000D01*
X103000000Y-70925000D01*
X103500000Y-70925000D01*
X103500000Y-72075000D01*
X104650000Y-72075000D01*
X104650000Y-71499999D01*
X128694952Y-71499999D01*
X128715113Y-71769026D01*
X128775146Y-72032049D01*
X128873708Y-72283178D01*
X129008598Y-72516816D01*
X129062295Y-72584150D01*
X130146447Y-71500001D01*
X130146447Y-71500000D01*
X130853553Y-71500000D01*
X131937703Y-72584151D01*
X131937704Y-72584150D01*
X131991400Y-72516818D01*
X132126291Y-72283178D01*
X132224853Y-72032049D01*
X132284886Y-71769026D01*
X132305047Y-71499999D01*
X133694952Y-71499999D01*
X133715113Y-71769026D01*
X133775146Y-72032049D01*
X133873708Y-72283178D01*
X134008598Y-72516816D01*
X134062295Y-72584150D01*
X135146447Y-71500001D01*
X135146447Y-71500000D01*
X135853553Y-71500000D01*
X136937703Y-72584151D01*
X136937704Y-72584150D01*
X136991400Y-72516818D01*
X137126291Y-72283178D01*
X137224853Y-72032049D01*
X137284886Y-71769026D01*
X137305047Y-71499999D01*
X137284886Y-71230973D01*
X137224853Y-70967950D01*
X137126291Y-70716821D01*
X136991398Y-70483178D01*
X136937704Y-70415847D01*
X135853553Y-71500000D01*
X135146447Y-71500000D01*
X134062295Y-70415848D01*
X134008598Y-70483182D01*
X133873708Y-70716821D01*
X133775146Y-70967950D01*
X133715113Y-71230973D01*
X133694952Y-71499999D01*
X132305047Y-71499999D01*
X132284886Y-71230973D01*
X132224853Y-70967950D01*
X132126291Y-70716821D01*
X131991398Y-70483178D01*
X131937704Y-70415847D01*
X130853553Y-71500000D01*
X130146447Y-71500000D01*
X129062295Y-70415848D01*
X129008598Y-70483182D01*
X128873708Y-70716821D01*
X128775146Y-70967950D01*
X128715113Y-71230973D01*
X128694952Y-71499999D01*
X104650000Y-71499999D01*
X104650000Y-71377176D01*
X104643597Y-71317624D01*
X104593352Y-71182910D01*
X104507188Y-71067811D01*
X104392089Y-70981647D01*
X104257375Y-70931402D01*
X104197824Y-70925000D01*
X103500000Y-70925000D01*
X103000000Y-70925000D01*
X102302176Y-70925000D01*
X102242624Y-70931402D01*
X102107910Y-70981647D01*
X101992811Y-71067811D01*
X101906645Y-71182913D01*
X101877923Y-71259920D01*
X101841971Y-71311134D01*
X101785589Y-71338271D01*
X101723135Y-71334423D01*
X101670513Y-71300569D01*
X101661784Y-71291087D01*
X101478626Y-71148530D01*
X101274503Y-71038064D01*
X101274499Y-71038062D01*
X101274498Y-71038062D01*
X101054984Y-70962702D01*
X100867410Y-70931402D01*
X100826049Y-70924500D01*
X100593951Y-70924500D01*
X100552590Y-70931402D01*
X100365015Y-70962702D01*
X100145501Y-71038062D01*
X100145497Y-71038063D01*
X100145497Y-71038064D01*
X100009414Y-71111708D01*
X99941372Y-71148531D01*
X99758215Y-71291087D01*
X99601020Y-71461848D01*
X99474076Y-71656150D01*
X99380844Y-71868696D01*
X99380842Y-71868700D01*
X99380843Y-71868700D01*
X99328601Y-72075000D01*
X99323865Y-72093700D01*
X99304699Y-72324999D01*
X93102725Y-72324999D01*
X93126743Y-72283398D01*
X93225334Y-72032195D01*
X93285383Y-71769103D01*
X93305549Y-71500000D01*
X93285383Y-71230897D01*
X93225334Y-70967805D01*
X93126743Y-70716602D01*
X92991815Y-70482898D01*
X92823561Y-70271915D01*
X92762649Y-70215397D01*
X92730260Y-70166329D01*
X92724114Y-70107855D01*
X92745595Y-70053123D01*
X92789872Y-70014439D01*
X92846992Y-70000500D01*
X129302691Y-70000500D01*
X129350144Y-70009939D01*
X129390372Y-70036819D01*
X130500000Y-71146447D01*
X130500001Y-71146447D01*
X131609628Y-70036819D01*
X131649856Y-70009939D01*
X131697309Y-70000500D01*
X134302691Y-70000500D01*
X134350144Y-70009939D01*
X134390372Y-70036819D01*
X135500000Y-71146447D01*
X135500001Y-71146447D01*
X136609628Y-70036819D01*
X136649856Y-70009939D01*
X136697309Y-70000500D01*
X147376000Y-70000500D01*
X147438000Y-70017113D01*
X147483387Y-70062500D01*
X147500000Y-70124500D01*
X147500000Y-149875500D01*
X147483387Y-149937500D01*
X147438000Y-149982887D01*
X147376000Y-149999500D01*
X136697310Y-149999500D01*
X136649857Y-149990061D01*
X136609629Y-149963181D01*
X135500000Y-148853553D01*
X134390370Y-149963181D01*
X134350142Y-149990061D01*
X134302689Y-149999500D01*
X131697310Y-149999500D01*
X131649857Y-149990061D01*
X131609629Y-149963181D01*
X130500000Y-148853553D01*
X129390370Y-149963181D01*
X129350142Y-149990061D01*
X129302689Y-149999500D01*
X114697310Y-149999500D01*
X114649857Y-149990061D01*
X114609629Y-149963181D01*
X113500000Y-148853553D01*
X112390370Y-149963181D01*
X112350142Y-149990061D01*
X112302689Y-149999500D01*
X109697310Y-149999500D01*
X109649857Y-149990061D01*
X109609629Y-149963181D01*
X108500000Y-148853553D01*
X107390370Y-149963181D01*
X107350142Y-149990061D01*
X107302689Y-149999500D01*
X92697310Y-149999500D01*
X92649857Y-149990061D01*
X92609629Y-149963181D01*
X91500000Y-148853553D01*
X90390370Y-149963181D01*
X90350142Y-149990061D01*
X90302689Y-149999500D01*
X87697310Y-149999500D01*
X87649857Y-149990061D01*
X87609629Y-149963181D01*
X86500000Y-148853553D01*
X85390370Y-149963181D01*
X85350142Y-149990061D01*
X85302689Y-149999500D01*
X70697310Y-149999500D01*
X70649857Y-149990061D01*
X70609629Y-149963181D01*
X69500000Y-148853553D01*
X68390370Y-149963181D01*
X68350142Y-149990061D01*
X68302689Y-149999500D01*
X65697310Y-149999500D01*
X65649857Y-149990061D01*
X65609629Y-149963181D01*
X64500000Y-148853553D01*
X63390370Y-149963181D01*
X63350142Y-149990061D01*
X63302689Y-149999500D01*
X52624000Y-149999500D01*
X52562000Y-149982887D01*
X52516613Y-149937500D01*
X52500000Y-149875500D01*
X52500000Y-148499999D01*
X62694952Y-148499999D01*
X62715113Y-148769026D01*
X62775146Y-149032049D01*
X62873708Y-149283178D01*
X63008598Y-149516816D01*
X63062295Y-149584150D01*
X64146447Y-148500000D01*
X64853553Y-148500000D01*
X65937703Y-149584151D01*
X65937704Y-149584150D01*
X65991400Y-149516818D01*
X66126291Y-149283178D01*
X66224853Y-149032049D01*
X66284886Y-148769026D01*
X66305047Y-148500000D01*
X66305047Y-148499999D01*
X67694952Y-148499999D01*
X67715113Y-148769026D01*
X67775146Y-149032049D01*
X67873708Y-149283178D01*
X68008598Y-149516816D01*
X68062295Y-149584150D01*
X69146447Y-148500001D01*
X69146447Y-148500000D01*
X69853553Y-148500000D01*
X70937703Y-149584151D01*
X70937704Y-149584150D01*
X70991400Y-149516818D01*
X71126291Y-149283178D01*
X71224853Y-149032049D01*
X71284886Y-148769026D01*
X71305047Y-148500000D01*
X71305047Y-148499999D01*
X84694952Y-148499999D01*
X84715113Y-148769026D01*
X84775146Y-149032049D01*
X84873708Y-149283178D01*
X85008598Y-149516816D01*
X85062295Y-149584150D01*
X86146447Y-148500001D01*
X86146447Y-148500000D01*
X86853552Y-148500000D01*
X87937703Y-149584151D01*
X87937704Y-149584150D01*
X87991400Y-149516818D01*
X88126291Y-149283178D01*
X88224853Y-149032049D01*
X88284886Y-148769026D01*
X88305047Y-148499999D01*
X89694952Y-148499999D01*
X89715113Y-148769026D01*
X89775146Y-149032049D01*
X89873708Y-149283178D01*
X90008598Y-149516816D01*
X90062295Y-149584150D01*
X91146445Y-148500000D01*
X91853553Y-148500000D01*
X92937703Y-149584151D01*
X92937704Y-149584150D01*
X92991400Y-149516818D01*
X93126291Y-149283178D01*
X93224853Y-149032049D01*
X93284886Y-148769026D01*
X93305047Y-148499999D01*
X106694952Y-148499999D01*
X106715113Y-148769026D01*
X106775146Y-149032049D01*
X106873708Y-149283178D01*
X107008598Y-149516816D01*
X107062295Y-149584150D01*
X108146445Y-148500000D01*
X108853553Y-148500000D01*
X109937703Y-149584151D01*
X109937704Y-149584150D01*
X109991400Y-149516818D01*
X110126291Y-149283178D01*
X110224853Y-149032049D01*
X110284886Y-148769026D01*
X110305047Y-148499999D01*
X111694952Y-148499999D01*
X111715113Y-148769026D01*
X111775146Y-149032049D01*
X111873708Y-149283178D01*
X112008598Y-149516816D01*
X112062295Y-149584150D01*
X113146447Y-148500001D01*
X113146447Y-148500000D01*
X113853553Y-148500000D01*
X114937703Y-149584151D01*
X114937704Y-149584150D01*
X114991400Y-149516818D01*
X115126291Y-149283178D01*
X115224853Y-149032049D01*
X115284886Y-148769026D01*
X115305047Y-148500000D01*
X128694952Y-148500000D01*
X128715113Y-148769026D01*
X128775146Y-149032049D01*
X128873708Y-149283178D01*
X129008598Y-149516816D01*
X129062295Y-149584150D01*
X130146447Y-148500001D01*
X130146447Y-148500000D01*
X130853553Y-148500000D01*
X131937703Y-149584151D01*
X131937704Y-149584150D01*
X131991400Y-149516818D01*
X132126291Y-149283178D01*
X132224853Y-149032049D01*
X132284886Y-148769026D01*
X132305047Y-148500000D01*
X133694952Y-148500000D01*
X133715113Y-148769026D01*
X133775146Y-149032049D01*
X133873708Y-149283178D01*
X134008598Y-149516816D01*
X134062295Y-149584150D01*
X135146447Y-148500001D01*
X135146447Y-148500000D01*
X135853553Y-148500000D01*
X136937703Y-149584151D01*
X136937704Y-149584150D01*
X136991400Y-149516818D01*
X137126291Y-149283178D01*
X137224853Y-149032049D01*
X137284886Y-148769026D01*
X137305047Y-148499999D01*
X137284886Y-148230973D01*
X137224853Y-147967950D01*
X137126291Y-147716821D01*
X136991398Y-147483178D01*
X136937704Y-147415847D01*
X135853553Y-148500000D01*
X135146447Y-148500000D01*
X134062295Y-147415848D01*
X134008598Y-147483182D01*
X133873708Y-147716821D01*
X133775146Y-147967950D01*
X133715113Y-148230973D01*
X133694952Y-148500000D01*
X132305047Y-148500000D01*
X132305047Y-148499999D01*
X132284886Y-148230973D01*
X132224853Y-147967950D01*
X132126291Y-147716821D01*
X131991398Y-147483178D01*
X131937704Y-147415847D01*
X130853553Y-148500000D01*
X130146447Y-148500000D01*
X129062295Y-147415848D01*
X129008598Y-147483182D01*
X128873708Y-147716821D01*
X128775146Y-147967950D01*
X128715113Y-148230973D01*
X128694952Y-148500000D01*
X115305047Y-148500000D01*
X115305047Y-148499999D01*
X115284886Y-148230973D01*
X115224853Y-147967950D01*
X115126291Y-147716821D01*
X114991398Y-147483178D01*
X114937704Y-147415847D01*
X113853553Y-148500000D01*
X113146447Y-148500000D01*
X112062295Y-147415848D01*
X112008598Y-147483182D01*
X111873708Y-147716821D01*
X111775146Y-147967950D01*
X111715113Y-148230973D01*
X111694952Y-148499999D01*
X110305047Y-148499999D01*
X110284886Y-148230973D01*
X110224853Y-147967950D01*
X110126291Y-147716821D01*
X109991398Y-147483178D01*
X109937704Y-147415847D01*
X108853553Y-148500000D01*
X108146445Y-148500000D01*
X108146446Y-148499999D01*
X107062295Y-147415848D01*
X107008598Y-147483182D01*
X106873708Y-147716821D01*
X106775146Y-147967950D01*
X106715113Y-148230973D01*
X106694952Y-148499999D01*
X93305047Y-148499999D01*
X93284886Y-148230973D01*
X93224853Y-147967950D01*
X93126291Y-147716821D01*
X92991398Y-147483178D01*
X92937704Y-147415847D01*
X91853553Y-148500000D01*
X91146445Y-148500000D01*
X91146446Y-148499999D01*
X90062295Y-147415848D01*
X90008598Y-147483182D01*
X89873708Y-147716821D01*
X89775146Y-147967950D01*
X89715113Y-148230973D01*
X89694952Y-148499999D01*
X88305047Y-148499999D01*
X88284886Y-148230973D01*
X88224853Y-147967950D01*
X88126291Y-147716821D01*
X87991398Y-147483178D01*
X87937704Y-147415847D01*
X86853552Y-148500000D01*
X86146447Y-148500000D01*
X85062295Y-147415848D01*
X85008598Y-147483182D01*
X84873708Y-147716821D01*
X84775146Y-147967950D01*
X84715113Y-148230973D01*
X84694952Y-148499999D01*
X71305047Y-148499999D01*
X71284886Y-148230973D01*
X71224853Y-147967950D01*
X71126291Y-147716821D01*
X70991398Y-147483178D01*
X70937704Y-147415847D01*
X69853553Y-148500000D01*
X69146447Y-148500000D01*
X68062295Y-147415848D01*
X68008598Y-147483182D01*
X67873708Y-147716821D01*
X67775146Y-147967950D01*
X67715113Y-148230973D01*
X67694952Y-148499999D01*
X66305047Y-148499999D01*
X66284886Y-148230973D01*
X66224853Y-147967950D01*
X66126291Y-147716821D01*
X65991398Y-147483178D01*
X65937704Y-147415847D01*
X64853553Y-148500000D01*
X64146447Y-148500000D01*
X63062295Y-147415848D01*
X63008598Y-147483182D01*
X62873708Y-147716821D01*
X62775146Y-147967950D01*
X62715113Y-148230973D01*
X62694952Y-148499999D01*
X52500000Y-148499999D01*
X52500000Y-147061296D01*
X63414848Y-147061296D01*
X64500000Y-148146447D01*
X64500001Y-148146447D01*
X65585150Y-147061296D01*
X68414848Y-147061296D01*
X69500000Y-148146447D01*
X69500001Y-148146447D01*
X70585150Y-147061296D01*
X85414848Y-147061296D01*
X86500000Y-148146447D01*
X86500001Y-148146447D01*
X87585150Y-147061296D01*
X90414848Y-147061296D01*
X91500000Y-148146447D01*
X91500001Y-148146447D01*
X92585150Y-147061296D01*
X107414848Y-147061296D01*
X108500000Y-148146447D01*
X108500001Y-148146447D01*
X109585150Y-147061296D01*
X112414848Y-147061296D01*
X113500000Y-148146447D01*
X113500001Y-148146447D01*
X114585150Y-147061296D01*
X129414848Y-147061296D01*
X130500000Y-148146447D01*
X130500001Y-148146447D01*
X131585150Y-147061296D01*
X134414848Y-147061296D01*
X135500000Y-148146447D01*
X135500001Y-148146447D01*
X136585150Y-147061296D01*
X136402519Y-146936780D01*
X136159460Y-146819729D01*
X135901660Y-146740208D01*
X135634891Y-146700000D01*
X135365109Y-146700000D01*
X135098339Y-146740208D01*
X134840542Y-146819729D01*
X134597476Y-146936783D01*
X134414848Y-147061296D01*
X131585150Y-147061296D01*
X131402519Y-146936780D01*
X131159460Y-146819729D01*
X130901660Y-146740208D01*
X130634891Y-146700000D01*
X130365109Y-146700000D01*
X130098339Y-146740208D01*
X129840542Y-146819729D01*
X129597476Y-146936783D01*
X129414848Y-147061296D01*
X114585150Y-147061296D01*
X114402519Y-146936780D01*
X114159460Y-146819729D01*
X113901660Y-146740208D01*
X113634891Y-146700000D01*
X113365109Y-146700000D01*
X113098339Y-146740208D01*
X112840542Y-146819729D01*
X112597476Y-146936783D01*
X112414848Y-147061296D01*
X109585150Y-147061296D01*
X109402519Y-146936780D01*
X109159460Y-146819729D01*
X108901660Y-146740208D01*
X108634891Y-146700000D01*
X108365109Y-146700000D01*
X108098339Y-146740208D01*
X107840542Y-146819729D01*
X107597476Y-146936783D01*
X107414848Y-147061296D01*
X92585150Y-147061296D01*
X92402519Y-146936780D01*
X92159460Y-146819729D01*
X91901660Y-146740208D01*
X91634891Y-146700000D01*
X91365109Y-146700000D01*
X91098339Y-146740208D01*
X90840542Y-146819729D01*
X90597476Y-146936783D01*
X90414848Y-147061296D01*
X87585150Y-147061296D01*
X87402519Y-146936780D01*
X87159460Y-146819729D01*
X86901660Y-146740208D01*
X86634891Y-146700000D01*
X86365109Y-146700000D01*
X86098339Y-146740208D01*
X85840542Y-146819729D01*
X85597476Y-146936783D01*
X85414848Y-147061296D01*
X70585150Y-147061296D01*
X70402519Y-146936780D01*
X70159460Y-146819729D01*
X69901660Y-146740208D01*
X69634891Y-146700000D01*
X69365109Y-146700000D01*
X69098339Y-146740208D01*
X68840542Y-146819729D01*
X68597476Y-146936783D01*
X68414848Y-147061296D01*
X65585150Y-147061296D01*
X65402519Y-146936780D01*
X65159460Y-146819729D01*
X64901660Y-146740208D01*
X64634891Y-146700000D01*
X64365109Y-146700000D01*
X64098339Y-146740208D01*
X63840542Y-146819729D01*
X63597476Y-146936783D01*
X63414848Y-147061296D01*
X52500000Y-147061296D01*
X52500000Y-143620191D01*
X58049500Y-143620191D01*
X58089066Y-143857299D01*
X58167116Y-144084652D01*
X58281531Y-144296072D01*
X58412523Y-144464370D01*
X58429175Y-144485764D01*
X58606031Y-144648571D01*
X58807272Y-144780049D01*
X59027409Y-144876610D01*
X59260437Y-144935620D01*
X59332266Y-144941571D01*
X59440004Y-144950500D01*
X59440010Y-144950500D01*
X59559990Y-144950500D01*
X59559996Y-144950500D01*
X59657938Y-144942383D01*
X59739563Y-144935620D01*
X59972591Y-144876610D01*
X60192728Y-144780049D01*
X60393969Y-144648571D01*
X60570825Y-144485764D01*
X60718472Y-144296067D01*
X60832882Y-144084656D01*
X60910934Y-143857297D01*
X60950500Y-143620192D01*
X60950500Y-143620191D01*
X73049500Y-143620191D01*
X73089066Y-143857299D01*
X73167116Y-144084652D01*
X73281531Y-144296072D01*
X73412523Y-144464370D01*
X73429175Y-144485764D01*
X73606031Y-144648571D01*
X73807272Y-144780049D01*
X74027409Y-144876610D01*
X74260437Y-144935620D01*
X74332266Y-144941571D01*
X74440004Y-144950500D01*
X74440010Y-144950500D01*
X74559990Y-144950500D01*
X74559996Y-144950500D01*
X74657938Y-144942383D01*
X74739563Y-144935620D01*
X74972591Y-144876610D01*
X75192728Y-144780049D01*
X75393969Y-144648571D01*
X75570825Y-144485764D01*
X75718472Y-144296067D01*
X75832882Y-144084656D01*
X75910934Y-143857297D01*
X75950500Y-143620192D01*
X75950500Y-143620191D01*
X80049500Y-143620191D01*
X80089066Y-143857299D01*
X80167116Y-144084652D01*
X80281531Y-144296072D01*
X80412523Y-144464370D01*
X80429175Y-144485764D01*
X80606031Y-144648571D01*
X80807272Y-144780049D01*
X81027409Y-144876610D01*
X81260437Y-144935620D01*
X81332266Y-144941571D01*
X81440004Y-144950500D01*
X81440010Y-144950500D01*
X81559990Y-144950500D01*
X81559996Y-144950500D01*
X81657938Y-144942383D01*
X81739563Y-144935620D01*
X81972591Y-144876610D01*
X82192728Y-144780049D01*
X82393969Y-144648571D01*
X82570825Y-144485764D01*
X82718472Y-144296067D01*
X82832882Y-144084656D01*
X82910934Y-143857297D01*
X82950500Y-143620192D01*
X82950500Y-143620191D01*
X95049500Y-143620191D01*
X95089066Y-143857299D01*
X95167116Y-144084652D01*
X95281531Y-144296072D01*
X95412523Y-144464370D01*
X95429175Y-144485764D01*
X95606031Y-144648571D01*
X95807272Y-144780049D01*
X96027409Y-144876610D01*
X96260437Y-144935620D01*
X96332266Y-144941571D01*
X96440004Y-144950500D01*
X96440010Y-144950500D01*
X96559990Y-144950500D01*
X96559996Y-144950500D01*
X96657938Y-144942383D01*
X96739563Y-144935620D01*
X96972591Y-144876610D01*
X97192728Y-144780049D01*
X97393969Y-144648571D01*
X97570825Y-144485764D01*
X97718472Y-144296067D01*
X97832882Y-144084656D01*
X97910934Y-143857297D01*
X97950500Y-143620192D01*
X97950500Y-143620191D01*
X102049500Y-143620191D01*
X102089066Y-143857299D01*
X102167116Y-144084652D01*
X102281531Y-144296072D01*
X102412523Y-144464370D01*
X102429175Y-144485764D01*
X102606031Y-144648571D01*
X102807272Y-144780049D01*
X103027409Y-144876610D01*
X103260437Y-144935620D01*
X103332266Y-144941571D01*
X103440004Y-144950500D01*
X103440010Y-144950500D01*
X103559990Y-144950500D01*
X103559996Y-144950500D01*
X103657938Y-144942383D01*
X103739563Y-144935620D01*
X103972591Y-144876610D01*
X104192728Y-144780049D01*
X104393969Y-144648571D01*
X104570825Y-144485764D01*
X104718472Y-144296067D01*
X104832882Y-144084656D01*
X104910934Y-143857297D01*
X104950500Y-143620192D01*
X104950500Y-143620191D01*
X117049500Y-143620191D01*
X117089066Y-143857299D01*
X117167116Y-144084652D01*
X117281531Y-144296072D01*
X117412523Y-144464370D01*
X117429175Y-144485764D01*
X117606031Y-144648571D01*
X117807272Y-144780049D01*
X118027409Y-144876610D01*
X118260437Y-144935620D01*
X118332266Y-144941571D01*
X118440004Y-144950500D01*
X118440010Y-144950500D01*
X118559990Y-144950500D01*
X118559996Y-144950500D01*
X118657938Y-144942383D01*
X118739563Y-144935620D01*
X118972591Y-144876610D01*
X119192728Y-144780049D01*
X119393969Y-144648571D01*
X119570825Y-144485764D01*
X119718472Y-144296067D01*
X119832882Y-144084656D01*
X119910934Y-143857297D01*
X119950500Y-143620192D01*
X119950500Y-143620191D01*
X124049500Y-143620191D01*
X124089066Y-143857299D01*
X124167116Y-144084652D01*
X124281531Y-144296072D01*
X124412523Y-144464370D01*
X124429175Y-144485764D01*
X124606031Y-144648571D01*
X124807272Y-144780049D01*
X125027409Y-144876610D01*
X125260437Y-144935620D01*
X125332266Y-144941571D01*
X125440004Y-144950500D01*
X125440010Y-144950500D01*
X125559990Y-144950500D01*
X125559996Y-144950500D01*
X125657938Y-144942383D01*
X125739563Y-144935620D01*
X125972591Y-144876610D01*
X126192728Y-144780049D01*
X126393969Y-144648571D01*
X126570825Y-144485764D01*
X126718472Y-144296067D01*
X126832882Y-144084656D01*
X126910934Y-143857297D01*
X126950500Y-143620192D01*
X126950500Y-143620191D01*
X139049500Y-143620191D01*
X139089066Y-143857299D01*
X139167116Y-144084652D01*
X139281531Y-144296072D01*
X139412523Y-144464370D01*
X139429175Y-144485764D01*
X139606031Y-144648571D01*
X139807272Y-144780049D01*
X140027409Y-144876610D01*
X140260437Y-144935620D01*
X140332266Y-144941571D01*
X140440004Y-144950500D01*
X140440010Y-144950500D01*
X140559990Y-144950500D01*
X140559996Y-144950500D01*
X140657938Y-144942383D01*
X140739563Y-144935620D01*
X140972591Y-144876610D01*
X141192728Y-144780049D01*
X141393969Y-144648571D01*
X141570825Y-144485764D01*
X141718472Y-144296067D01*
X141832882Y-144084656D01*
X141910934Y-143857297D01*
X141950500Y-143620192D01*
X141950500Y-143379808D01*
X141910934Y-143142703D01*
X141832882Y-142915344D01*
X141718472Y-142703933D01*
X141718469Y-142703929D01*
X141718468Y-142703927D01*
X141570827Y-142514239D01*
X141570825Y-142514236D01*
X141393969Y-142351429D01*
X141192728Y-142219951D01*
X140972591Y-142123390D01*
X140739563Y-142064380D01*
X140739561Y-142064379D01*
X140739558Y-142064379D01*
X140559996Y-142049500D01*
X140559990Y-142049500D01*
X140440010Y-142049500D01*
X140440004Y-142049500D01*
X140260441Y-142064379D01*
X140260437Y-142064379D01*
X140260437Y-142064380D01*
X140027409Y-142123390D01*
X139807272Y-142219951D01*
X139606031Y-142351429D01*
X139606029Y-142351430D01*
X139606030Y-142351430D01*
X139429172Y-142514239D01*
X139281531Y-142703927D01*
X139167116Y-142915347D01*
X139089066Y-143142700D01*
X139049500Y-143379809D01*
X139049500Y-143620191D01*
X126950500Y-143620191D01*
X126950500Y-143379808D01*
X126910934Y-143142703D01*
X126832882Y-142915344D01*
X126718472Y-142703933D01*
X126718469Y-142703929D01*
X126718468Y-142703927D01*
X126570827Y-142514239D01*
X126570825Y-142514236D01*
X126393969Y-142351429D01*
X126192728Y-142219951D01*
X125972591Y-142123390D01*
X125739563Y-142064380D01*
X125739561Y-142064379D01*
X125739558Y-142064379D01*
X125559996Y-142049500D01*
X125559990Y-142049500D01*
X125440010Y-142049500D01*
X125440004Y-142049500D01*
X125260441Y-142064379D01*
X125260437Y-142064379D01*
X125260437Y-142064380D01*
X125027409Y-142123390D01*
X124807272Y-142219951D01*
X124606031Y-142351429D01*
X124606029Y-142351430D01*
X124606030Y-142351430D01*
X124429172Y-142514239D01*
X124281531Y-142703927D01*
X124167116Y-142915347D01*
X124089066Y-143142700D01*
X124049500Y-143379809D01*
X124049500Y-143620191D01*
X119950500Y-143620191D01*
X119950500Y-143379808D01*
X119910934Y-143142703D01*
X119832882Y-142915344D01*
X119718472Y-142703933D01*
X119718469Y-142703929D01*
X119718468Y-142703927D01*
X119570827Y-142514239D01*
X119570825Y-142514236D01*
X119393969Y-142351429D01*
X119192728Y-142219951D01*
X118972591Y-142123390D01*
X118739563Y-142064380D01*
X118739561Y-142064379D01*
X118739558Y-142064379D01*
X118559996Y-142049500D01*
X118559990Y-142049500D01*
X118440010Y-142049500D01*
X118440004Y-142049500D01*
X118260441Y-142064379D01*
X118260437Y-142064379D01*
X118260437Y-142064380D01*
X118027409Y-142123390D01*
X117807272Y-142219951D01*
X117606031Y-142351429D01*
X117606029Y-142351430D01*
X117606030Y-142351430D01*
X117429172Y-142514239D01*
X117281531Y-142703927D01*
X117167116Y-142915347D01*
X117089066Y-143142700D01*
X117049500Y-143379809D01*
X117049500Y-143620191D01*
X104950500Y-143620191D01*
X104950500Y-143379808D01*
X104910934Y-143142703D01*
X104832882Y-142915344D01*
X104718472Y-142703933D01*
X104718469Y-142703929D01*
X104718468Y-142703927D01*
X104570827Y-142514239D01*
X104570825Y-142514236D01*
X104393969Y-142351429D01*
X104192728Y-142219951D01*
X103972591Y-142123390D01*
X103739563Y-142064380D01*
X103739561Y-142064379D01*
X103739558Y-142064379D01*
X103559996Y-142049500D01*
X103559990Y-142049500D01*
X103440010Y-142049500D01*
X103440004Y-142049500D01*
X103260441Y-142064379D01*
X103260437Y-142064379D01*
X103260437Y-142064380D01*
X103027409Y-142123390D01*
X102807272Y-142219951D01*
X102606031Y-142351429D01*
X102606029Y-142351430D01*
X102606030Y-142351430D01*
X102429172Y-142514239D01*
X102281531Y-142703927D01*
X102167116Y-142915347D01*
X102089066Y-143142700D01*
X102049500Y-143379809D01*
X102049500Y-143620191D01*
X97950500Y-143620191D01*
X97950500Y-143379808D01*
X97910934Y-143142703D01*
X97832882Y-142915344D01*
X97718472Y-142703933D01*
X97718469Y-142703929D01*
X97718468Y-142703927D01*
X97570827Y-142514239D01*
X97570825Y-142514236D01*
X97393969Y-142351429D01*
X97192728Y-142219951D01*
X96972591Y-142123390D01*
X96739563Y-142064380D01*
X96739561Y-142064379D01*
X96739558Y-142064379D01*
X96559996Y-142049500D01*
X96559990Y-142049500D01*
X96440010Y-142049500D01*
X96440004Y-142049500D01*
X96260441Y-142064379D01*
X96260437Y-142064379D01*
X96260437Y-142064380D01*
X96027409Y-142123390D01*
X95807272Y-142219951D01*
X95606031Y-142351429D01*
X95606029Y-142351430D01*
X95606030Y-142351430D01*
X95429172Y-142514239D01*
X95281531Y-142703927D01*
X95167116Y-142915347D01*
X95089066Y-143142700D01*
X95049500Y-143379809D01*
X95049500Y-143620191D01*
X82950500Y-143620191D01*
X82950500Y-143379808D01*
X82910934Y-143142703D01*
X82832882Y-142915344D01*
X82718472Y-142703933D01*
X82718469Y-142703929D01*
X82718468Y-142703927D01*
X82570827Y-142514239D01*
X82570825Y-142514236D01*
X82393969Y-142351429D01*
X82192728Y-142219951D01*
X81972591Y-142123390D01*
X81739563Y-142064380D01*
X81739561Y-142064379D01*
X81739558Y-142064379D01*
X81559996Y-142049500D01*
X81559990Y-142049500D01*
X81440010Y-142049500D01*
X81440004Y-142049500D01*
X81260441Y-142064379D01*
X81260437Y-142064379D01*
X81260437Y-142064380D01*
X81027409Y-142123390D01*
X80807272Y-142219951D01*
X80606031Y-142351429D01*
X80606029Y-142351430D01*
X80606030Y-142351430D01*
X80429172Y-142514239D01*
X80281531Y-142703927D01*
X80167116Y-142915347D01*
X80089066Y-143142700D01*
X80049500Y-143379809D01*
X80049500Y-143620191D01*
X75950500Y-143620191D01*
X75950500Y-143379808D01*
X75910934Y-143142703D01*
X75832882Y-142915344D01*
X75718472Y-142703933D01*
X75718469Y-142703929D01*
X75718468Y-142703927D01*
X75570827Y-142514239D01*
X75570825Y-142514236D01*
X75393969Y-142351429D01*
X75192728Y-142219951D01*
X74972591Y-142123390D01*
X74739563Y-142064380D01*
X74739561Y-142064379D01*
X74739558Y-142064379D01*
X74559996Y-142049500D01*
X74559990Y-142049500D01*
X74440010Y-142049500D01*
X74440004Y-142049500D01*
X74260441Y-142064379D01*
X74260437Y-142064379D01*
X74260437Y-142064380D01*
X74027409Y-142123390D01*
X73807272Y-142219951D01*
X73606031Y-142351429D01*
X73606029Y-142351430D01*
X73606030Y-142351430D01*
X73429172Y-142514239D01*
X73281531Y-142703927D01*
X73167116Y-142915347D01*
X73089066Y-143142700D01*
X73049500Y-143379809D01*
X73049500Y-143620191D01*
X60950500Y-143620191D01*
X60950500Y-143379808D01*
X60910934Y-143142703D01*
X60832882Y-142915344D01*
X60718472Y-142703933D01*
X60718469Y-142703929D01*
X60718468Y-142703927D01*
X60570827Y-142514239D01*
X60570825Y-142514236D01*
X60393969Y-142351429D01*
X60192728Y-142219951D01*
X59972591Y-142123390D01*
X59739563Y-142064380D01*
X59739561Y-142064379D01*
X59739558Y-142064379D01*
X59559996Y-142049500D01*
X59559990Y-142049500D01*
X59440010Y-142049500D01*
X59440004Y-142049500D01*
X59260441Y-142064379D01*
X59260437Y-142064379D01*
X59260437Y-142064380D01*
X59027409Y-142123390D01*
X58807272Y-142219951D01*
X58606031Y-142351429D01*
X58606029Y-142351430D01*
X58606030Y-142351430D01*
X58429172Y-142514239D01*
X58281531Y-142703927D01*
X58167116Y-142915347D01*
X58089066Y-143142700D01*
X58049500Y-143379809D01*
X58049500Y-143620191D01*
X52500000Y-143620191D01*
X52500000Y-138500000D01*
X57694450Y-138500000D01*
X57714616Y-138769100D01*
X57714617Y-138769103D01*
X57774666Y-139032195D01*
X57873257Y-139283398D01*
X58008185Y-139517102D01*
X58176439Y-139728085D01*
X58374259Y-139911635D01*
X58597226Y-140063651D01*
X58840359Y-140180738D01*
X59098228Y-140260280D01*
X59365071Y-140300500D01*
X59634929Y-140300500D01*
X59901772Y-140260280D01*
X60159641Y-140180738D01*
X60402775Y-140063651D01*
X60586041Y-139938702D01*
X65914848Y-139938702D01*
X66097479Y-140063217D01*
X66340542Y-140180270D01*
X66598339Y-140259791D01*
X66865109Y-140300000D01*
X67134891Y-140300000D01*
X67401660Y-140259791D01*
X67659460Y-140180270D01*
X67902523Y-140063217D01*
X68085150Y-139938702D01*
X67000000Y-138853553D01*
X65914848Y-139938702D01*
X60586041Y-139938702D01*
X60625741Y-139911635D01*
X60823561Y-139728085D01*
X60991815Y-139517102D01*
X61126743Y-139283398D01*
X61225334Y-139032195D01*
X61285383Y-138769103D01*
X61305549Y-138500000D01*
X61305549Y-138499999D01*
X65194952Y-138499999D01*
X65215113Y-138769026D01*
X65275146Y-139032049D01*
X65373708Y-139283178D01*
X65508598Y-139516816D01*
X65562295Y-139584150D01*
X66646447Y-138500001D01*
X66646447Y-138500000D01*
X67353553Y-138500000D01*
X68437703Y-139584151D01*
X68437704Y-139584150D01*
X68491400Y-139516818D01*
X68626291Y-139283178D01*
X68724853Y-139032049D01*
X68784886Y-138769026D01*
X68805047Y-138500000D01*
X68784886Y-138230973D01*
X68724853Y-137967950D01*
X68626291Y-137716821D01*
X68491398Y-137483178D01*
X68437704Y-137415847D01*
X67353553Y-138500000D01*
X66646447Y-138500000D01*
X65562295Y-137415848D01*
X65508598Y-137483182D01*
X65373708Y-137716821D01*
X65275146Y-137967950D01*
X65215113Y-138230973D01*
X65194952Y-138499999D01*
X61305549Y-138499999D01*
X61285383Y-138230897D01*
X61225334Y-137967805D01*
X61175031Y-137839638D01*
X61167139Y-137781374D01*
X61186975Y-137726023D01*
X61230077Y-137686032D01*
X61286757Y-137670392D01*
X61330929Y-137679783D01*
X61331480Y-137677999D01*
X61340357Y-137680737D01*
X61340359Y-137680738D01*
X61598228Y-137760280D01*
X61865071Y-137800500D01*
X62134929Y-137800500D01*
X62401772Y-137760280D01*
X62659641Y-137680738D01*
X62902775Y-137563651D01*
X63125741Y-137411635D01*
X63323561Y-137228085D01*
X63456571Y-137061296D01*
X65914848Y-137061296D01*
X67000000Y-138146447D01*
X67000001Y-138146447D01*
X68085150Y-137061296D01*
X67902519Y-136936780D01*
X67659460Y-136819729D01*
X67401660Y-136740208D01*
X67134891Y-136700000D01*
X66865109Y-136700000D01*
X66598339Y-136740208D01*
X66340542Y-136819729D01*
X66097476Y-136936783D01*
X65914848Y-137061296D01*
X63456571Y-137061296D01*
X63491815Y-137017102D01*
X63626743Y-136783398D01*
X63725334Y-136532195D01*
X63785383Y-136269103D01*
X63805549Y-136000000D01*
X70194450Y-136000000D01*
X70214616Y-136269100D01*
X70214617Y-136269103D01*
X70274666Y-136532195D01*
X70373257Y-136783398D01*
X70508185Y-137017102D01*
X70676439Y-137228085D01*
X70874259Y-137411635D01*
X71097226Y-137563651D01*
X71340359Y-137680738D01*
X71598228Y-137760280D01*
X71865071Y-137800500D01*
X72134929Y-137800500D01*
X72401772Y-137760280D01*
X72659641Y-137680738D01*
X72659642Y-137680737D01*
X72668520Y-137677999D01*
X72669070Y-137679785D01*
X72713233Y-137670392D01*
X72769916Y-137686029D01*
X72813022Y-137726019D01*
X72832859Y-137781371D01*
X72824967Y-137839639D01*
X72774666Y-137967802D01*
X72714616Y-138230899D01*
X72694450Y-138500000D01*
X72714616Y-138769100D01*
X72714617Y-138769103D01*
X72774666Y-139032195D01*
X72873257Y-139283398D01*
X73008185Y-139517102D01*
X73176439Y-139728085D01*
X73374259Y-139911635D01*
X73597226Y-140063651D01*
X73840359Y-140180738D01*
X74098228Y-140260280D01*
X74365071Y-140300500D01*
X74634929Y-140300500D01*
X74901772Y-140260280D01*
X75159641Y-140180738D01*
X75402775Y-140063651D01*
X75625741Y-139911635D01*
X75823561Y-139728085D01*
X75991815Y-139517102D01*
X76126743Y-139283398D01*
X76225334Y-139032195D01*
X76285383Y-138769103D01*
X76305549Y-138500000D01*
X79694450Y-138500000D01*
X79714616Y-138769100D01*
X79714617Y-138769103D01*
X79774666Y-139032195D01*
X79873257Y-139283398D01*
X80008185Y-139517102D01*
X80176439Y-139728085D01*
X80374259Y-139911635D01*
X80597226Y-140063651D01*
X80840359Y-140180738D01*
X81098228Y-140260280D01*
X81365071Y-140300500D01*
X81634929Y-140300500D01*
X81901772Y-140260280D01*
X82159641Y-140180738D01*
X82402775Y-140063651D01*
X82586041Y-139938702D01*
X87914848Y-139938702D01*
X88097479Y-140063217D01*
X88340542Y-140180270D01*
X88598339Y-140259791D01*
X88865109Y-140300000D01*
X89134891Y-140300000D01*
X89401660Y-140259791D01*
X89659460Y-140180270D01*
X89902523Y-140063217D01*
X90085150Y-139938702D01*
X89000000Y-138853553D01*
X87914848Y-139938702D01*
X82586041Y-139938702D01*
X82625741Y-139911635D01*
X82823561Y-139728085D01*
X82991815Y-139517102D01*
X83126743Y-139283398D01*
X83225334Y-139032195D01*
X83285383Y-138769103D01*
X83305549Y-138500000D01*
X83305549Y-138499999D01*
X87194952Y-138499999D01*
X87215113Y-138769026D01*
X87275146Y-139032049D01*
X87373708Y-139283178D01*
X87508598Y-139516816D01*
X87562295Y-139584150D01*
X88646447Y-138500001D01*
X88646447Y-138500000D01*
X89353553Y-138500000D01*
X90437703Y-139584151D01*
X90437704Y-139584150D01*
X90491400Y-139516818D01*
X90626291Y-139283178D01*
X90724853Y-139032049D01*
X90784886Y-138769026D01*
X90805047Y-138499999D01*
X90784886Y-138230973D01*
X90724853Y-137967950D01*
X90626291Y-137716821D01*
X90491398Y-137483178D01*
X90437704Y-137415847D01*
X89353553Y-138500000D01*
X88646447Y-138500000D01*
X87562295Y-137415848D01*
X87508598Y-137483182D01*
X87373708Y-137716821D01*
X87275146Y-137967950D01*
X87215113Y-138230973D01*
X87194952Y-138499999D01*
X83305549Y-138499999D01*
X83285383Y-138230897D01*
X83225334Y-137967805D01*
X83175031Y-137839638D01*
X83167139Y-137781374D01*
X83186975Y-137726023D01*
X83230077Y-137686032D01*
X83286757Y-137670392D01*
X83330929Y-137679783D01*
X83331480Y-137677999D01*
X83340357Y-137680737D01*
X83340359Y-137680738D01*
X83598228Y-137760280D01*
X83865071Y-137800500D01*
X84134929Y-137800500D01*
X84401772Y-137760280D01*
X84659641Y-137680738D01*
X84902775Y-137563651D01*
X85125741Y-137411635D01*
X85323561Y-137228085D01*
X85456571Y-137061296D01*
X87914848Y-137061296D01*
X89000000Y-138146447D01*
X89000001Y-138146447D01*
X90085150Y-137061296D01*
X89902519Y-136936780D01*
X89659460Y-136819729D01*
X89401660Y-136740208D01*
X89134891Y-136700000D01*
X88865109Y-136700000D01*
X88598339Y-136740208D01*
X88340542Y-136819729D01*
X88097476Y-136936783D01*
X87914848Y-137061296D01*
X85456571Y-137061296D01*
X85491815Y-137017102D01*
X85626743Y-136783398D01*
X85725334Y-136532195D01*
X85785383Y-136269103D01*
X85805549Y-136000000D01*
X92194450Y-136000000D01*
X92214616Y-136269100D01*
X92214617Y-136269103D01*
X92274666Y-136532195D01*
X92373257Y-136783398D01*
X92508185Y-137017102D01*
X92676439Y-137228085D01*
X92874259Y-137411635D01*
X93097226Y-137563651D01*
X93340359Y-137680738D01*
X93598228Y-137760280D01*
X93865071Y-137800500D01*
X94134929Y-137800500D01*
X94401772Y-137760280D01*
X94659641Y-137680738D01*
X94659642Y-137680737D01*
X94668520Y-137677999D01*
X94669070Y-137679785D01*
X94713233Y-137670392D01*
X94769916Y-137686029D01*
X94813022Y-137726019D01*
X94832859Y-137781371D01*
X94824967Y-137839639D01*
X94774666Y-137967802D01*
X94714616Y-138230899D01*
X94694450Y-138500000D01*
X94714616Y-138769100D01*
X94714617Y-138769103D01*
X94774666Y-139032195D01*
X94873257Y-139283398D01*
X95008185Y-139517102D01*
X95176439Y-139728085D01*
X95374259Y-139911635D01*
X95597226Y-140063651D01*
X95840359Y-140180738D01*
X96098228Y-140260280D01*
X96365071Y-140300500D01*
X96634929Y-140300500D01*
X96901772Y-140260280D01*
X97159641Y-140180738D01*
X97402775Y-140063651D01*
X97625741Y-139911635D01*
X97823561Y-139728085D01*
X97991815Y-139517102D01*
X98126743Y-139283398D01*
X98225334Y-139032195D01*
X98285383Y-138769103D01*
X98305549Y-138500000D01*
X101694450Y-138500000D01*
X101714616Y-138769100D01*
X101714617Y-138769103D01*
X101774666Y-139032195D01*
X101873257Y-139283398D01*
X102008185Y-139517102D01*
X102176439Y-139728085D01*
X102374259Y-139911635D01*
X102597226Y-140063651D01*
X102840359Y-140180738D01*
X103098228Y-140260280D01*
X103365071Y-140300500D01*
X103634929Y-140300500D01*
X103901772Y-140260280D01*
X104159641Y-140180738D01*
X104402775Y-140063651D01*
X104586041Y-139938702D01*
X109914848Y-139938702D01*
X110097479Y-140063217D01*
X110340542Y-140180270D01*
X110598339Y-140259791D01*
X110865109Y-140300000D01*
X111134891Y-140300000D01*
X111401660Y-140259791D01*
X111659460Y-140180270D01*
X111902523Y-140063217D01*
X112085150Y-139938702D01*
X111000000Y-138853553D01*
X109914848Y-139938702D01*
X104586041Y-139938702D01*
X104625741Y-139911635D01*
X104823561Y-139728085D01*
X104991815Y-139517102D01*
X105126743Y-139283398D01*
X105225334Y-139032195D01*
X105285383Y-138769103D01*
X105305549Y-138500000D01*
X105305549Y-138499999D01*
X109194952Y-138499999D01*
X109215113Y-138769026D01*
X109275146Y-139032049D01*
X109373708Y-139283178D01*
X109508598Y-139516816D01*
X109562295Y-139584150D01*
X110646447Y-138500001D01*
X110646447Y-138500000D01*
X111353553Y-138500000D01*
X112437703Y-139584151D01*
X112437704Y-139584150D01*
X112491400Y-139516818D01*
X112626291Y-139283178D01*
X112724853Y-139032049D01*
X112784886Y-138769026D01*
X112805047Y-138499999D01*
X112784886Y-138230973D01*
X112724853Y-137967950D01*
X112626291Y-137716821D01*
X112491398Y-137483178D01*
X112437704Y-137415847D01*
X111353553Y-138500000D01*
X110646447Y-138500000D01*
X109562295Y-137415848D01*
X109508598Y-137483182D01*
X109373708Y-137716821D01*
X109275146Y-137967950D01*
X109215113Y-138230973D01*
X109194952Y-138499999D01*
X105305549Y-138499999D01*
X105285383Y-138230897D01*
X105225334Y-137967805D01*
X105175031Y-137839638D01*
X105167139Y-137781374D01*
X105186975Y-137726023D01*
X105230077Y-137686032D01*
X105286757Y-137670392D01*
X105330929Y-137679783D01*
X105331480Y-137677999D01*
X105340357Y-137680737D01*
X105340359Y-137680738D01*
X105598228Y-137760280D01*
X105865071Y-137800500D01*
X106134929Y-137800500D01*
X106401772Y-137760280D01*
X106659641Y-137680738D01*
X106902775Y-137563651D01*
X107125741Y-137411635D01*
X107323561Y-137228085D01*
X107456571Y-137061296D01*
X109914848Y-137061296D01*
X111000000Y-138146447D01*
X111000001Y-138146447D01*
X112085150Y-137061296D01*
X111902519Y-136936780D01*
X111659460Y-136819729D01*
X111401660Y-136740208D01*
X111134891Y-136700000D01*
X110865109Y-136700000D01*
X110598339Y-136740208D01*
X110340542Y-136819729D01*
X110097476Y-136936783D01*
X109914848Y-137061296D01*
X107456571Y-137061296D01*
X107491815Y-137017102D01*
X107626743Y-136783398D01*
X107725334Y-136532195D01*
X107785383Y-136269103D01*
X107805549Y-136000000D01*
X114194450Y-136000000D01*
X114214616Y-136269100D01*
X114214617Y-136269103D01*
X114274666Y-136532195D01*
X114373257Y-136783398D01*
X114508185Y-137017102D01*
X114676439Y-137228085D01*
X114874259Y-137411635D01*
X115097226Y-137563651D01*
X115340359Y-137680738D01*
X115598228Y-137760280D01*
X115865071Y-137800500D01*
X116134929Y-137800500D01*
X116401772Y-137760280D01*
X116659641Y-137680738D01*
X116659642Y-137680737D01*
X116668520Y-137677999D01*
X116669070Y-137679785D01*
X116713233Y-137670392D01*
X116769916Y-137686029D01*
X116813022Y-137726019D01*
X116832859Y-137781371D01*
X116824967Y-137839639D01*
X116774666Y-137967802D01*
X116714616Y-138230899D01*
X116694450Y-138500000D01*
X116714616Y-138769100D01*
X116714617Y-138769103D01*
X116774666Y-139032195D01*
X116873257Y-139283398D01*
X117008185Y-139517102D01*
X117176439Y-139728085D01*
X117374259Y-139911635D01*
X117597226Y-140063651D01*
X117840359Y-140180738D01*
X118098228Y-140260280D01*
X118365071Y-140300500D01*
X118634929Y-140300500D01*
X118901772Y-140260280D01*
X119159641Y-140180738D01*
X119402775Y-140063651D01*
X119625741Y-139911635D01*
X119823561Y-139728085D01*
X119991815Y-139517102D01*
X120126743Y-139283398D01*
X120225334Y-139032195D01*
X120285383Y-138769103D01*
X120305549Y-138500000D01*
X123694450Y-138500000D01*
X123714616Y-138769100D01*
X123714617Y-138769103D01*
X123774666Y-139032195D01*
X123873257Y-139283398D01*
X124008185Y-139517102D01*
X124176439Y-139728085D01*
X124374259Y-139911635D01*
X124597226Y-140063651D01*
X124840359Y-140180738D01*
X125098228Y-140260280D01*
X125365071Y-140300500D01*
X125634929Y-140300500D01*
X125901772Y-140260280D01*
X126159641Y-140180738D01*
X126402775Y-140063651D01*
X126586041Y-139938702D01*
X131914848Y-139938702D01*
X132097479Y-140063217D01*
X132340542Y-140180270D01*
X132598339Y-140259791D01*
X132865109Y-140300000D01*
X133134891Y-140300000D01*
X133401660Y-140259791D01*
X133659460Y-140180270D01*
X133902523Y-140063217D01*
X134085150Y-139938702D01*
X133000000Y-138853553D01*
X131914848Y-139938702D01*
X126586041Y-139938702D01*
X126625741Y-139911635D01*
X126823561Y-139728085D01*
X126991815Y-139517102D01*
X127126743Y-139283398D01*
X127225334Y-139032195D01*
X127285383Y-138769103D01*
X127305549Y-138500000D01*
X127305549Y-138499999D01*
X131194952Y-138499999D01*
X131215113Y-138769026D01*
X131275146Y-139032049D01*
X131373708Y-139283178D01*
X131508598Y-139516816D01*
X131562295Y-139584150D01*
X132646447Y-138500000D01*
X133353552Y-138500000D01*
X134437703Y-139584151D01*
X134437704Y-139584150D01*
X134491400Y-139516818D01*
X134626291Y-139283178D01*
X134724853Y-139032049D01*
X134784886Y-138769026D01*
X134805047Y-138500000D01*
X134784886Y-138230973D01*
X134724853Y-137967950D01*
X134626291Y-137716821D01*
X134491398Y-137483178D01*
X134437704Y-137415847D01*
X133353552Y-138500000D01*
X132646447Y-138500000D01*
X131562295Y-137415848D01*
X131508598Y-137483182D01*
X131373708Y-137716821D01*
X131275146Y-137967950D01*
X131215113Y-138230973D01*
X131194952Y-138499999D01*
X127305549Y-138499999D01*
X127285383Y-138230897D01*
X127225334Y-137967805D01*
X127175031Y-137839638D01*
X127167139Y-137781374D01*
X127186975Y-137726023D01*
X127230077Y-137686032D01*
X127286757Y-137670392D01*
X127330929Y-137679783D01*
X127331480Y-137677999D01*
X127340357Y-137680737D01*
X127340359Y-137680738D01*
X127598228Y-137760280D01*
X127865071Y-137800500D01*
X128134929Y-137800500D01*
X128401772Y-137760280D01*
X128659641Y-137680738D01*
X128902775Y-137563651D01*
X129125741Y-137411635D01*
X129323561Y-137228085D01*
X129456571Y-137061296D01*
X131914848Y-137061296D01*
X133000000Y-138146447D01*
X133000001Y-138146447D01*
X134085150Y-137061296D01*
X133902519Y-136936780D01*
X133659460Y-136819729D01*
X133401660Y-136740208D01*
X133134891Y-136700000D01*
X132865109Y-136700000D01*
X132598339Y-136740208D01*
X132340542Y-136819729D01*
X132097476Y-136936783D01*
X131914848Y-137061296D01*
X129456571Y-137061296D01*
X129491815Y-137017102D01*
X129626743Y-136783398D01*
X129725334Y-136532195D01*
X129785383Y-136269103D01*
X129805549Y-136000000D01*
X129805549Y-135999999D01*
X136194450Y-135999999D01*
X136214616Y-136269100D01*
X136214617Y-136269103D01*
X136274666Y-136532195D01*
X136373257Y-136783398D01*
X136508185Y-137017102D01*
X136676439Y-137228085D01*
X136874259Y-137411635D01*
X137097226Y-137563651D01*
X137340359Y-137680738D01*
X137598228Y-137760280D01*
X137865071Y-137800500D01*
X138134929Y-137800500D01*
X138401772Y-137760280D01*
X138659641Y-137680738D01*
X138659642Y-137680737D01*
X138668520Y-137677999D01*
X138669070Y-137679785D01*
X138713233Y-137670392D01*
X138769916Y-137686029D01*
X138813022Y-137726019D01*
X138832859Y-137781371D01*
X138824967Y-137839639D01*
X138774666Y-137967802D01*
X138714616Y-138230899D01*
X138694450Y-138499999D01*
X138714616Y-138769100D01*
X138714617Y-138769103D01*
X138774666Y-139032195D01*
X138873257Y-139283398D01*
X139008185Y-139517102D01*
X139176439Y-139728085D01*
X139374259Y-139911635D01*
X139597226Y-140063651D01*
X139840359Y-140180738D01*
X140098228Y-140260280D01*
X140365071Y-140300500D01*
X140634929Y-140300500D01*
X140901772Y-140260280D01*
X141159641Y-140180738D01*
X141402775Y-140063651D01*
X141625741Y-139911635D01*
X141823561Y-139728085D01*
X141991815Y-139517102D01*
X142126743Y-139283398D01*
X142225334Y-139032195D01*
X142285383Y-138769103D01*
X142305549Y-138500000D01*
X142285383Y-138230897D01*
X142225334Y-137967805D01*
X142126743Y-137716602D01*
X141991815Y-137482898D01*
X141823561Y-137271915D01*
X141823560Y-137271914D01*
X141625743Y-137088366D01*
X141568205Y-137049137D01*
X141402775Y-136936349D01*
X141159641Y-136819262D01*
X141043373Y-136783398D01*
X140901771Y-136739719D01*
X140634929Y-136699500D01*
X140365071Y-136699500D01*
X140098228Y-136739719D01*
X139831480Y-136822001D01*
X139830929Y-136820217D01*
X139786739Y-136829606D01*
X139730066Y-136813960D01*
X139686969Y-136773968D01*
X139667139Y-136718620D01*
X139675032Y-136660360D01*
X139725334Y-136532195D01*
X139785383Y-136269103D01*
X139805549Y-136000000D01*
X139785383Y-135730897D01*
X139725334Y-135467805D01*
X139626743Y-135216602D01*
X139491815Y-134982898D01*
X139323561Y-134771915D01*
X139323560Y-134771914D01*
X139125743Y-134588366D01*
X139068205Y-134549137D01*
X138902775Y-134436349D01*
X138659641Y-134319262D01*
X138580097Y-134294726D01*
X138401771Y-134239719D01*
X138134929Y-134199500D01*
X137865071Y-134199500D01*
X137598228Y-134239719D01*
X137340359Y-134319262D01*
X137097228Y-134436347D01*
X136874257Y-134588366D01*
X136676439Y-134771915D01*
X136508184Y-134982899D01*
X136373257Y-135216601D01*
X136274666Y-135467804D01*
X136214616Y-135730899D01*
X136194450Y-135999999D01*
X129805549Y-135999999D01*
X129785383Y-135730897D01*
X129725334Y-135467805D01*
X129626743Y-135216602D01*
X129491815Y-134982898D01*
X129323561Y-134771915D01*
X129323560Y-134771914D01*
X129125743Y-134588366D01*
X129068205Y-134549137D01*
X128902775Y-134436349D01*
X128659641Y-134319262D01*
X128580097Y-134294726D01*
X128401771Y-134239719D01*
X128134929Y-134199500D01*
X127865071Y-134199500D01*
X127598228Y-134239719D01*
X127340359Y-134319262D01*
X127097228Y-134436347D01*
X126874257Y-134588366D01*
X126676439Y-134771915D01*
X126508184Y-134982899D01*
X126373257Y-135216601D01*
X126274666Y-135467804D01*
X126214616Y-135730899D01*
X126194450Y-135999999D01*
X126214616Y-136269100D01*
X126274666Y-136532197D01*
X126324967Y-136660360D01*
X126332860Y-136718623D01*
X126313027Y-136773972D01*
X126269927Y-136813964D01*
X126213251Y-136829606D01*
X126169070Y-136820216D01*
X126168520Y-136822001D01*
X126159641Y-136819262D01*
X126043373Y-136783398D01*
X125901771Y-136739719D01*
X125634929Y-136699500D01*
X125365071Y-136699500D01*
X125098228Y-136739719D01*
X124840359Y-136819262D01*
X124597228Y-136936347D01*
X124374257Y-137088366D01*
X124176439Y-137271915D01*
X124008184Y-137482899D01*
X123873257Y-137716601D01*
X123774666Y-137967804D01*
X123714616Y-138230899D01*
X123694450Y-138500000D01*
X120305549Y-138500000D01*
X120285383Y-138230897D01*
X120225334Y-137967805D01*
X120126743Y-137716602D01*
X119991815Y-137482898D01*
X119823561Y-137271915D01*
X119823560Y-137271914D01*
X119625743Y-137088366D01*
X119568205Y-137049137D01*
X119402775Y-136936349D01*
X119159641Y-136819262D01*
X119043373Y-136783398D01*
X118901771Y-136739719D01*
X118634929Y-136699500D01*
X118365071Y-136699500D01*
X118098228Y-136739719D01*
X117831480Y-136822001D01*
X117830929Y-136820217D01*
X117786739Y-136829606D01*
X117730066Y-136813960D01*
X117686969Y-136773968D01*
X117667139Y-136718620D01*
X117675032Y-136660360D01*
X117725334Y-136532195D01*
X117785383Y-136269103D01*
X117805549Y-136000000D01*
X117785383Y-135730897D01*
X117725334Y-135467805D01*
X117626743Y-135216602D01*
X117491815Y-134982898D01*
X117323561Y-134771915D01*
X117323560Y-134771914D01*
X117125743Y-134588366D01*
X117068205Y-134549137D01*
X116902775Y-134436349D01*
X116659641Y-134319262D01*
X116580097Y-134294726D01*
X116401771Y-134239719D01*
X116134929Y-134199500D01*
X115865071Y-134199500D01*
X115598228Y-134239719D01*
X115340359Y-134319262D01*
X115097228Y-134436347D01*
X114874257Y-134588366D01*
X114676439Y-134771915D01*
X114508184Y-134982899D01*
X114373257Y-135216601D01*
X114274666Y-135467804D01*
X114214616Y-135730899D01*
X114194450Y-136000000D01*
X107805549Y-136000000D01*
X107785383Y-135730897D01*
X107725334Y-135467805D01*
X107626743Y-135216602D01*
X107491815Y-134982898D01*
X107323561Y-134771915D01*
X107323560Y-134771914D01*
X107125743Y-134588366D01*
X107068205Y-134549137D01*
X106902775Y-134436349D01*
X106659641Y-134319262D01*
X106580097Y-134294726D01*
X106401771Y-134239719D01*
X106134929Y-134199500D01*
X105865071Y-134199500D01*
X105598228Y-134239719D01*
X105340359Y-134319262D01*
X105097228Y-134436347D01*
X104874257Y-134588366D01*
X104676439Y-134771915D01*
X104508184Y-134982899D01*
X104373257Y-135216601D01*
X104274666Y-135467804D01*
X104214616Y-135730899D01*
X104194450Y-136000000D01*
X104214616Y-136269100D01*
X104274666Y-136532197D01*
X104324967Y-136660360D01*
X104332860Y-136718623D01*
X104313027Y-136773972D01*
X104269927Y-136813964D01*
X104213251Y-136829606D01*
X104169070Y-136820216D01*
X104168520Y-136822001D01*
X104159641Y-136819262D01*
X104043373Y-136783398D01*
X103901771Y-136739719D01*
X103634929Y-136699500D01*
X103365071Y-136699500D01*
X103098228Y-136739719D01*
X102840359Y-136819262D01*
X102597228Y-136936347D01*
X102374257Y-137088366D01*
X102176439Y-137271915D01*
X102008184Y-137482899D01*
X101873257Y-137716601D01*
X101774666Y-137967804D01*
X101714616Y-138230899D01*
X101694450Y-138500000D01*
X98305549Y-138500000D01*
X98285383Y-138230897D01*
X98225334Y-137967805D01*
X98126743Y-137716602D01*
X97991815Y-137482898D01*
X97823561Y-137271915D01*
X97823560Y-137271914D01*
X97625743Y-137088366D01*
X97568205Y-137049137D01*
X97402775Y-136936349D01*
X97159641Y-136819262D01*
X97043373Y-136783398D01*
X96901771Y-136739719D01*
X96634929Y-136699500D01*
X96365071Y-136699500D01*
X96098228Y-136739719D01*
X95831480Y-136822001D01*
X95830929Y-136820217D01*
X95786739Y-136829606D01*
X95730066Y-136813960D01*
X95686969Y-136773968D01*
X95667139Y-136718620D01*
X95675032Y-136660360D01*
X95725334Y-136532195D01*
X95785383Y-136269103D01*
X95805549Y-136000000D01*
X95785383Y-135730897D01*
X95725334Y-135467805D01*
X95626743Y-135216602D01*
X95491815Y-134982898D01*
X95323561Y-134771915D01*
X95323560Y-134771914D01*
X95125743Y-134588366D01*
X95068205Y-134549137D01*
X94902775Y-134436349D01*
X94659641Y-134319262D01*
X94580097Y-134294726D01*
X94401771Y-134239719D01*
X94134929Y-134199500D01*
X93865071Y-134199500D01*
X93598228Y-134239719D01*
X93340359Y-134319262D01*
X93097228Y-134436347D01*
X92874257Y-134588366D01*
X92676439Y-134771915D01*
X92508184Y-134982899D01*
X92373257Y-135216601D01*
X92274666Y-135467804D01*
X92214616Y-135730899D01*
X92194450Y-136000000D01*
X85805549Y-136000000D01*
X85785383Y-135730897D01*
X85725334Y-135467805D01*
X85626743Y-135216602D01*
X85491815Y-134982898D01*
X85323561Y-134771915D01*
X85323560Y-134771914D01*
X85125743Y-134588366D01*
X85068205Y-134549137D01*
X84902775Y-134436349D01*
X84659641Y-134319262D01*
X84580097Y-134294726D01*
X84401771Y-134239719D01*
X84134929Y-134199500D01*
X83865071Y-134199500D01*
X83598228Y-134239719D01*
X83340359Y-134319262D01*
X83097228Y-134436347D01*
X82874257Y-134588366D01*
X82676439Y-134771915D01*
X82508184Y-134982899D01*
X82373257Y-135216601D01*
X82274666Y-135467804D01*
X82214616Y-135730899D01*
X82194450Y-136000000D01*
X82214616Y-136269100D01*
X82274666Y-136532197D01*
X82324967Y-136660360D01*
X82332860Y-136718623D01*
X82313027Y-136773972D01*
X82269927Y-136813964D01*
X82213251Y-136829606D01*
X82169070Y-136820216D01*
X82168520Y-136822001D01*
X82159641Y-136819262D01*
X82043373Y-136783398D01*
X81901771Y-136739719D01*
X81634929Y-136699500D01*
X81365071Y-136699500D01*
X81098228Y-136739719D01*
X80840359Y-136819262D01*
X80597228Y-136936347D01*
X80374257Y-137088366D01*
X80176439Y-137271915D01*
X80008184Y-137482899D01*
X79873257Y-137716601D01*
X79774666Y-137967804D01*
X79714616Y-138230899D01*
X79694450Y-138500000D01*
X76305549Y-138500000D01*
X76285383Y-138230897D01*
X76225334Y-137967805D01*
X76126743Y-137716602D01*
X75991815Y-137482898D01*
X75823561Y-137271915D01*
X75823560Y-137271914D01*
X75625743Y-137088366D01*
X75568205Y-137049137D01*
X75402775Y-136936349D01*
X75159641Y-136819262D01*
X75043373Y-136783398D01*
X74901771Y-136739719D01*
X74634929Y-136699500D01*
X74365071Y-136699500D01*
X74098228Y-136739719D01*
X73831480Y-136822001D01*
X73830929Y-136820217D01*
X73786739Y-136829606D01*
X73730066Y-136813960D01*
X73686969Y-136773968D01*
X73667139Y-136718620D01*
X73675032Y-136660360D01*
X73725334Y-136532195D01*
X73785383Y-136269103D01*
X73805549Y-136000000D01*
X73785383Y-135730897D01*
X73725334Y-135467805D01*
X73626743Y-135216602D01*
X73491815Y-134982898D01*
X73323561Y-134771915D01*
X73323560Y-134771914D01*
X73125743Y-134588366D01*
X73068205Y-134549137D01*
X72902775Y-134436349D01*
X72659641Y-134319262D01*
X72580097Y-134294726D01*
X72401771Y-134239719D01*
X72134929Y-134199500D01*
X71865071Y-134199500D01*
X71598228Y-134239719D01*
X71340359Y-134319262D01*
X71097228Y-134436347D01*
X70874257Y-134588366D01*
X70676439Y-134771915D01*
X70508184Y-134982899D01*
X70373257Y-135216601D01*
X70274666Y-135467804D01*
X70214616Y-135730899D01*
X70194450Y-136000000D01*
X63805549Y-136000000D01*
X63785383Y-135730897D01*
X63725334Y-135467805D01*
X63626743Y-135216602D01*
X63491815Y-134982898D01*
X63323561Y-134771915D01*
X63323560Y-134771914D01*
X63125743Y-134588366D01*
X63068205Y-134549137D01*
X62902775Y-134436349D01*
X62659641Y-134319262D01*
X62580097Y-134294726D01*
X62401771Y-134239719D01*
X62134929Y-134199500D01*
X61865071Y-134199500D01*
X61598228Y-134239719D01*
X61340359Y-134319262D01*
X61097228Y-134436347D01*
X60874257Y-134588366D01*
X60676439Y-134771915D01*
X60508184Y-134982899D01*
X60373257Y-135216601D01*
X60274666Y-135467804D01*
X60214616Y-135730899D01*
X60194450Y-136000000D01*
X60214616Y-136269100D01*
X60274666Y-136532197D01*
X60324967Y-136660360D01*
X60332860Y-136718623D01*
X60313027Y-136773972D01*
X60269927Y-136813964D01*
X60213251Y-136829606D01*
X60169070Y-136820216D01*
X60168520Y-136822001D01*
X60159641Y-136819262D01*
X60043373Y-136783398D01*
X59901771Y-136739719D01*
X59634929Y-136699500D01*
X59365071Y-136699500D01*
X59098228Y-136739719D01*
X58840359Y-136819262D01*
X58597228Y-136936347D01*
X58374257Y-137088366D01*
X58176439Y-137271915D01*
X58008184Y-137482899D01*
X57873257Y-137716601D01*
X57774666Y-137967804D01*
X57714616Y-138230899D01*
X57694450Y-138500000D01*
X52500000Y-138500000D01*
X52500000Y-130999999D01*
X72594540Y-130999999D01*
X72614326Y-131188257D01*
X72672820Y-131368284D01*
X72767466Y-131532216D01*
X72894129Y-131672889D01*
X73047269Y-131784151D01*
X73220197Y-131861144D01*
X73405352Y-131900500D01*
X73405354Y-131900500D01*
X73594646Y-131900500D01*
X73594648Y-131900500D01*
X73718084Y-131874262D01*
X73779803Y-131861144D01*
X73891930Y-131811221D01*
X73942367Y-131800500D01*
X95057633Y-131800500D01*
X95108069Y-131811221D01*
X95220197Y-131861144D01*
X95405352Y-131900500D01*
X95405354Y-131900500D01*
X95594646Y-131900500D01*
X95594648Y-131900500D01*
X95718084Y-131874262D01*
X95779803Y-131861144D01*
X95891930Y-131811221D01*
X95942367Y-131800500D01*
X109448085Y-131800500D01*
X109461967Y-131801279D01*
X109500000Y-131805565D01*
X109538032Y-131801279D01*
X109551915Y-131800500D01*
X117057633Y-131800500D01*
X117108069Y-131811221D01*
X117220197Y-131861144D01*
X117405352Y-131900500D01*
X117405354Y-131900500D01*
X117594646Y-131900500D01*
X117594648Y-131900500D01*
X117718084Y-131874262D01*
X117779803Y-131861144D01*
X117891930Y-131811221D01*
X117942367Y-131800500D01*
X139057633Y-131800500D01*
X139108069Y-131811221D01*
X139220197Y-131861144D01*
X139405352Y-131900500D01*
X139405354Y-131900500D01*
X139594646Y-131900500D01*
X139594648Y-131900500D01*
X139718084Y-131874262D01*
X139779803Y-131861144D01*
X139952730Y-131784151D01*
X140105871Y-131672888D01*
X140232533Y-131532216D01*
X140327179Y-131368284D01*
X140385674Y-131188256D01*
X140405460Y-131000000D01*
X140385674Y-130811744D01*
X140327179Y-130631716D01*
X140327179Y-130631715D01*
X140232533Y-130467783D01*
X140105870Y-130327110D01*
X139952730Y-130215848D01*
X139779802Y-130138855D01*
X139594648Y-130099500D01*
X139594646Y-130099500D01*
X139405354Y-130099500D01*
X139405352Y-130099500D01*
X139220197Y-130138855D01*
X139108069Y-130188779D01*
X139057633Y-130199500D01*
X117942367Y-130199500D01*
X117891931Y-130188779D01*
X117779802Y-130138855D01*
X117594648Y-130099500D01*
X117594646Y-130099500D01*
X117405354Y-130099500D01*
X117405352Y-130099500D01*
X117220197Y-130138855D01*
X117108069Y-130188779D01*
X117057633Y-130199500D01*
X110424500Y-130199500D01*
X110362500Y-130182887D01*
X110317113Y-130137500D01*
X110300500Y-130075500D01*
X110300500Y-121947718D01*
X110317113Y-121885718D01*
X110327179Y-121868284D01*
X110385674Y-121688256D01*
X110405460Y-121500000D01*
X110385674Y-121311744D01*
X110327179Y-121131716D01*
X110327179Y-121131715D01*
X110232533Y-120967783D01*
X110105870Y-120827110D01*
X109952730Y-120715848D01*
X109779802Y-120638855D01*
X109594648Y-120599500D01*
X109594646Y-120599500D01*
X109405354Y-120599500D01*
X109405352Y-120599500D01*
X109220197Y-120638855D01*
X109047269Y-120715848D01*
X108894129Y-120827110D01*
X108767466Y-120967783D01*
X108672820Y-121131715D01*
X108614326Y-121311742D01*
X108594540Y-121500000D01*
X108614326Y-121688257D01*
X108672821Y-121868284D01*
X108682887Y-121885718D01*
X108699500Y-121947718D01*
X108699500Y-130075500D01*
X108682887Y-130137500D01*
X108637500Y-130182887D01*
X108575500Y-130199500D01*
X95942367Y-130199500D01*
X95891931Y-130188779D01*
X95779802Y-130138855D01*
X95594648Y-130099500D01*
X95594646Y-130099500D01*
X95405354Y-130099500D01*
X95405352Y-130099500D01*
X95220197Y-130138855D01*
X95108069Y-130188779D01*
X95057633Y-130199500D01*
X74424500Y-130199500D01*
X74362500Y-130182887D01*
X74317113Y-130137500D01*
X74300500Y-130075500D01*
X74300500Y-119397869D01*
X93569500Y-119397869D01*
X93575909Y-119457484D01*
X93601056Y-119524907D01*
X93626204Y-119592331D01*
X93712454Y-119707546D01*
X93827669Y-119793796D01*
X93962517Y-119844091D01*
X94008756Y-119849062D01*
X94065003Y-119869661D01*
X94105032Y-119914224D01*
X94119500Y-119972352D01*
X94119500Y-124012282D01*
X94102887Y-124074282D01*
X94092821Y-124091715D01*
X94034326Y-124271742D01*
X94014540Y-124459999D01*
X94034326Y-124648257D01*
X94092820Y-124828284D01*
X94187466Y-124992216D01*
X94314129Y-125132889D01*
X94467269Y-125244151D01*
X94640197Y-125321144D01*
X94825352Y-125360500D01*
X94825354Y-125360500D01*
X95014646Y-125360500D01*
X95014648Y-125360500D01*
X95138084Y-125334262D01*
X95199803Y-125321144D01*
X95372730Y-125244151D01*
X95525871Y-125132888D01*
X95652533Y-124992216D01*
X95747179Y-124828284D01*
X95805674Y-124648256D01*
X95825460Y-124460000D01*
X95805674Y-124271744D01*
X95747179Y-124091716D01*
X95737112Y-124074280D01*
X95720500Y-124012282D01*
X95720500Y-119972351D01*
X95734969Y-119914223D01*
X95774998Y-119869660D01*
X95831246Y-119849061D01*
X95877483Y-119844091D01*
X96012331Y-119793796D01*
X96127546Y-119707546D01*
X96213796Y-119592331D01*
X96262810Y-119460916D01*
X96297789Y-119410537D01*
X96352634Y-119383084D01*
X96413927Y-119385273D01*
X96466671Y-119416567D01*
X96588210Y-119538106D01*
X96588601Y-119538497D01*
X96606623Y-119551116D01*
X96645489Y-119595434D01*
X96659500Y-119652691D01*
X96659500Y-125677060D01*
X96650061Y-125724513D01*
X96623181Y-125764741D01*
X95002432Y-127385488D01*
X94965187Y-127411086D01*
X94797269Y-127485848D01*
X94644129Y-127597110D01*
X94517466Y-127737783D01*
X94422820Y-127901715D01*
X94364326Y-128081742D01*
X94344540Y-128270000D01*
X94364326Y-128458257D01*
X94422820Y-128638284D01*
X94517466Y-128802216D01*
X94644129Y-128942889D01*
X94797269Y-129054151D01*
X94970197Y-129131144D01*
X95155352Y-129170500D01*
X95155354Y-129170500D01*
X95344646Y-129170500D01*
X95344648Y-129170500D01*
X95468083Y-129144262D01*
X95529803Y-129131144D01*
X95702730Y-129054151D01*
X95855871Y-128942888D01*
X95982533Y-128802216D01*
X96077179Y-128638284D01*
X96098487Y-128572702D01*
X96128734Y-128523342D01*
X98057826Y-126594252D01*
X98089815Y-126562263D01*
X98089816Y-126562262D01*
X98110182Y-126529847D01*
X98118216Y-126518523D01*
X98142091Y-126488587D01*
X98158698Y-126454100D01*
X98165426Y-126441928D01*
X98185789Y-126409522D01*
X98198431Y-126373391D01*
X98203751Y-126360549D01*
X98220360Y-126326061D01*
X98228882Y-126288721D01*
X98232720Y-126275399D01*
X98245368Y-126239255D01*
X98249655Y-126201197D01*
X98251980Y-126187520D01*
X98260500Y-126150194D01*
X98260500Y-125969806D01*
X98260500Y-119652691D01*
X98274511Y-119595434D01*
X98313377Y-119551116D01*
X98331402Y-119538494D01*
X98412413Y-119457483D01*
X98498495Y-119371401D01*
X98628428Y-119185837D01*
X98672742Y-119146975D01*
X98729999Y-119132964D01*
X98787255Y-119146974D01*
X98831573Y-119185839D01*
X98961505Y-119371401D01*
X98961507Y-119371403D01*
X98961508Y-119371404D01*
X99128599Y-119538495D01*
X99172124Y-119568972D01*
X99210989Y-119613289D01*
X99225000Y-119670546D01*
X99225000Y-121668338D01*
X99218042Y-121709291D01*
X99214631Y-121719037D01*
X99210345Y-121757073D01*
X99208017Y-121770773D01*
X99199500Y-121808096D01*
X99199500Y-123585196D01*
X99208017Y-123622518D01*
X99210345Y-123636219D01*
X99214631Y-123674252D01*
X99227272Y-123710380D01*
X99231119Y-123723736D01*
X99239638Y-123761058D01*
X99256250Y-123795553D01*
X99261570Y-123808398D01*
X99274209Y-123844520D01*
X99284770Y-123861327D01*
X99294576Y-123876933D01*
X99301298Y-123889095D01*
X99317908Y-123923586D01*
X99341772Y-123953510D01*
X99349818Y-123964850D01*
X99370184Y-123997262D01*
X103896262Y-128523340D01*
X103926512Y-128572703D01*
X103947820Y-128638284D01*
X104042466Y-128802216D01*
X104169129Y-128942889D01*
X104322269Y-129054151D01*
X104495197Y-129131144D01*
X104680352Y-129170500D01*
X104680354Y-129170500D01*
X104869646Y-129170500D01*
X104869648Y-129170500D01*
X104993083Y-129144262D01*
X105054803Y-129131144D01*
X105227730Y-129054151D01*
X105380871Y-128942888D01*
X105507533Y-128802216D01*
X105602179Y-128638284D01*
X105660674Y-128458256D01*
X105680460Y-128270000D01*
X105660674Y-128081744D01*
X105602179Y-127901716D01*
X105602179Y-127901715D01*
X105507533Y-127737783D01*
X105380870Y-127597110D01*
X105227730Y-127485848D01*
X105059809Y-127411084D01*
X105022564Y-127385486D01*
X100836819Y-123199741D01*
X100809939Y-123159513D01*
X100800500Y-123112060D01*
X100800500Y-122102747D01*
X100807458Y-122061794D01*
X100808228Y-122059590D01*
X100810868Y-122052048D01*
X100815155Y-122013994D01*
X100817482Y-122000305D01*
X100826000Y-121962989D01*
X100826000Y-119634835D01*
X100840011Y-119577578D01*
X100865769Y-119548205D01*
X100863730Y-119546166D01*
X100948979Y-119460917D01*
X101038495Y-119371401D01*
X101168428Y-119185837D01*
X101212742Y-119146975D01*
X101269999Y-119132964D01*
X101327255Y-119146974D01*
X101371573Y-119185839D01*
X101501505Y-119371401D01*
X101501507Y-119371403D01*
X101501508Y-119371404D01*
X101668597Y-119538494D01*
X101686623Y-119551116D01*
X101725489Y-119595434D01*
X101739500Y-119652691D01*
X101739500Y-122315196D01*
X101748017Y-122352518D01*
X101750345Y-122366219D01*
X101754631Y-122404252D01*
X101767272Y-122440380D01*
X101771119Y-122453736D01*
X101779638Y-122491058D01*
X101796250Y-122525553D01*
X101801570Y-122538398D01*
X101814209Y-122574520D01*
X101824770Y-122591327D01*
X101834576Y-122606933D01*
X101841298Y-122619095D01*
X101857908Y-122653586D01*
X101881772Y-122683510D01*
X101889818Y-122694850D01*
X101910184Y-122727262D01*
X103896262Y-124713340D01*
X103926512Y-124762703D01*
X103947820Y-124828284D01*
X104042466Y-124992216D01*
X104169129Y-125132889D01*
X104322269Y-125244151D01*
X104495197Y-125321144D01*
X104680352Y-125360500D01*
X104680354Y-125360500D01*
X104869646Y-125360500D01*
X104869648Y-125360500D01*
X104993084Y-125334262D01*
X105054803Y-125321144D01*
X105227730Y-125244151D01*
X105380871Y-125132888D01*
X105507533Y-124992216D01*
X105602179Y-124828284D01*
X105660674Y-124648256D01*
X105680460Y-124460000D01*
X105660674Y-124271744D01*
X105602179Y-124091716D01*
X105602179Y-124091715D01*
X105507533Y-123927783D01*
X105380870Y-123787110D01*
X105227730Y-123675848D01*
X105059809Y-123601084D01*
X105022564Y-123575486D01*
X103376819Y-121929741D01*
X103349939Y-121889513D01*
X103340500Y-121842060D01*
X103340500Y-119652691D01*
X103354511Y-119595434D01*
X103393377Y-119551116D01*
X103411402Y-119538494D01*
X103492413Y-119457483D01*
X103578495Y-119371401D01*
X103708732Y-119185402D01*
X103753048Y-119146539D01*
X103810305Y-119132528D01*
X103867562Y-119146539D01*
X103911880Y-119185404D01*
X104041893Y-119371081D01*
X104208918Y-119538106D01*
X104402423Y-119673600D01*
X104616507Y-119773430D01*
X104829999Y-119830635D01*
X104830000Y-119830636D01*
X104830000Y-118750000D01*
X105330000Y-118750000D01*
X105330000Y-119830635D01*
X105543492Y-119773430D01*
X105757576Y-119673600D01*
X105951081Y-119538106D01*
X106118106Y-119371081D01*
X106253600Y-119177576D01*
X106353430Y-118963492D01*
X106410636Y-118750000D01*
X105330000Y-118750000D01*
X104830000Y-118750000D01*
X104830000Y-117169364D01*
X105330000Y-117169364D01*
X105330000Y-118250000D01*
X106410636Y-118250000D01*
X106410635Y-118249999D01*
X106353430Y-118036507D01*
X106253599Y-117822421D01*
X106118109Y-117628921D01*
X105951081Y-117461893D01*
X105757576Y-117326399D01*
X105543492Y-117226569D01*
X105330000Y-117169364D01*
X104830000Y-117169364D01*
X104829999Y-117169364D01*
X104616507Y-117226569D01*
X104402421Y-117326400D01*
X104208921Y-117461890D01*
X104041893Y-117628918D01*
X103911880Y-117814596D01*
X103867562Y-117853461D01*
X103810305Y-117867472D01*
X103753048Y-117853461D01*
X103708730Y-117814595D01*
X103578495Y-117628599D01*
X103411401Y-117461505D01*
X103217830Y-117325965D01*
X103003663Y-117226097D01*
X102942502Y-117209709D01*
X102775407Y-117164936D01*
X102540000Y-117144340D01*
X102304592Y-117164936D01*
X102076336Y-117226097D01*
X101862170Y-117325965D01*
X101668598Y-117461505D01*
X101501508Y-117628595D01*
X101371574Y-117814160D01*
X101327255Y-117853026D01*
X101269999Y-117867036D01*
X101212742Y-117853025D01*
X101168426Y-117814161D01*
X101038495Y-117628599D01*
X100871401Y-117461505D01*
X100677830Y-117325965D01*
X100463663Y-117226097D01*
X100402502Y-117209709D01*
X100235407Y-117164936D01*
X100000000Y-117144340D01*
X99764592Y-117164936D01*
X99536336Y-117226097D01*
X99322170Y-117325965D01*
X99128598Y-117461505D01*
X98961508Y-117628595D01*
X98831574Y-117814160D01*
X98787255Y-117853026D01*
X98729999Y-117867036D01*
X98672742Y-117853025D01*
X98628426Y-117814161D01*
X98498495Y-117628599D01*
X98331401Y-117461505D01*
X98137830Y-117325965D01*
X97923663Y-117226097D01*
X97862502Y-117209709D01*
X97695407Y-117164936D01*
X97460000Y-117144340D01*
X97224592Y-117164936D01*
X96996336Y-117226097D01*
X96782170Y-117325965D01*
X96588601Y-117461503D01*
X96466673Y-117583431D01*
X96413926Y-117614726D01*
X96352634Y-117616915D01*
X96297789Y-117589462D01*
X96262810Y-117539082D01*
X96234019Y-117461890D01*
X96213796Y-117407669D01*
X96127546Y-117292454D01*
X96012331Y-117206204D01*
X95877483Y-117155909D01*
X95817873Y-117149500D01*
X95817869Y-117149500D01*
X94022130Y-117149500D01*
X93962515Y-117155909D01*
X93827669Y-117206204D01*
X93712454Y-117292454D01*
X93626204Y-117407668D01*
X93575909Y-117542516D01*
X93569500Y-117602130D01*
X93569500Y-119397869D01*
X74300500Y-119397869D01*
X74300500Y-113103659D01*
X111869392Y-113103659D01*
X111884685Y-113190386D01*
X111899668Y-113275354D01*
X111968721Y-113435438D01*
X112072832Y-113575283D01*
X112206386Y-113687349D01*
X112362185Y-113765594D01*
X112531829Y-113805800D01*
X112662433Y-113805800D01*
X112662436Y-113805800D01*
X112792164Y-113790637D01*
X112955993Y-113731008D01*
X113101654Y-113635205D01*
X113221296Y-113508393D01*
X113308467Y-113357407D01*
X113358469Y-113190388D01*
X113363521Y-113103659D01*
X113901392Y-113103659D01*
X113916685Y-113190386D01*
X113931668Y-113275354D01*
X114000721Y-113435438D01*
X114104832Y-113575283D01*
X114238386Y-113687349D01*
X114394185Y-113765594D01*
X114563829Y-113805800D01*
X114694433Y-113805800D01*
X114694436Y-113805800D01*
X114824164Y-113790637D01*
X114987993Y-113731008D01*
X115133654Y-113635205D01*
X115253296Y-113508393D01*
X115340467Y-113357407D01*
X115390469Y-113190388D01*
X115400607Y-113016340D01*
X115370332Y-112844646D01*
X115301279Y-112684562D01*
X115197168Y-112544717D01*
X115063614Y-112432651D01*
X114907815Y-112354406D01*
X114738171Y-112314200D01*
X114607564Y-112314200D01*
X114529727Y-112323297D01*
X114477834Y-112329363D01*
X114314005Y-112388992D01*
X114168346Y-112484794D01*
X114048704Y-112611606D01*
X113961533Y-112762591D01*
X113911531Y-112929613D01*
X113901392Y-113103659D01*
X113363521Y-113103659D01*
X113368607Y-113016340D01*
X113338332Y-112844646D01*
X113269279Y-112684562D01*
X113165168Y-112544717D01*
X113031614Y-112432651D01*
X112875815Y-112354406D01*
X112706171Y-112314200D01*
X112575564Y-112314200D01*
X112497727Y-112323297D01*
X112445834Y-112329363D01*
X112282005Y-112388992D01*
X112136346Y-112484794D01*
X112016704Y-112611606D01*
X111929533Y-112762591D01*
X111879531Y-112929613D01*
X111869392Y-113103659D01*
X74300500Y-113103659D01*
X74300500Y-105447718D01*
X74317113Y-105385718D01*
X74327179Y-105368284D01*
X74385674Y-105188256D01*
X74405460Y-105000000D01*
X74385674Y-104811744D01*
X74327179Y-104631716D01*
X74327179Y-104631715D01*
X74232533Y-104467783D01*
X74105870Y-104327110D01*
X73952730Y-104215848D01*
X73779802Y-104138855D01*
X73594648Y-104099500D01*
X73594646Y-104099500D01*
X73405354Y-104099500D01*
X73405352Y-104099500D01*
X73220197Y-104138855D01*
X73047269Y-104215848D01*
X72894129Y-104327110D01*
X72767466Y-104467783D01*
X72672820Y-104631715D01*
X72614326Y-104811742D01*
X72594540Y-104999999D01*
X72614326Y-105188257D01*
X72672821Y-105368284D01*
X72682887Y-105385718D01*
X72699500Y-105447718D01*
X72699500Y-130552282D01*
X72682887Y-130614282D01*
X72672821Y-130631715D01*
X72614326Y-130811742D01*
X72594540Y-130999999D01*
X52500000Y-130999999D01*
X52500000Y-97499999D01*
X104644340Y-97499999D01*
X104664936Y-97735407D01*
X104691040Y-97832827D01*
X104726097Y-97963663D01*
X104825965Y-98177830D01*
X104961505Y-98371401D01*
X105128599Y-98538495D01*
X105322170Y-98674035D01*
X105536337Y-98773903D01*
X105764592Y-98835063D01*
X106000000Y-98855659D01*
X106235408Y-98835063D01*
X106463663Y-98773903D01*
X106677830Y-98674035D01*
X106871401Y-98538495D01*
X106993717Y-98416178D01*
X107046460Y-98384885D01*
X107107752Y-98382696D01*
X107162597Y-98410149D01*
X107197577Y-98460528D01*
X107246647Y-98592088D01*
X107332811Y-98707188D01*
X107447910Y-98793352D01*
X107582624Y-98843597D01*
X107642176Y-98850000D01*
X108290000Y-98850000D01*
X108290000Y-97750000D01*
X108790000Y-97750000D01*
X108790000Y-98850000D01*
X109437824Y-98850000D01*
X109497375Y-98843597D01*
X109632089Y-98793352D01*
X109747188Y-98707188D01*
X109833352Y-98592089D01*
X109883597Y-98457375D01*
X109890000Y-98397824D01*
X109890000Y-97750000D01*
X108790000Y-97750000D01*
X108290000Y-97750000D01*
X108290000Y-96150000D01*
X108790000Y-96150000D01*
X108790000Y-97250000D01*
X109890000Y-97250000D01*
X109890000Y-96602176D01*
X109883597Y-96542624D01*
X109833352Y-96407910D01*
X109747188Y-96292811D01*
X109632089Y-96206647D01*
X109497375Y-96156402D01*
X109437824Y-96150000D01*
X108790000Y-96150000D01*
X108290000Y-96150000D01*
X107642176Y-96150000D01*
X107582624Y-96156402D01*
X107447910Y-96206647D01*
X107332811Y-96292811D01*
X107246646Y-96407913D01*
X107197576Y-96539472D01*
X107162597Y-96589850D01*
X107107753Y-96617303D01*
X107046460Y-96615114D01*
X106993714Y-96583818D01*
X106871404Y-96461508D01*
X106871401Y-96461505D01*
X106677830Y-96325965D01*
X106463663Y-96226097D01*
X106391074Y-96206647D01*
X106235407Y-96164936D01*
X106000000Y-96144340D01*
X105764592Y-96164936D01*
X105536336Y-96226097D01*
X105322170Y-96325965D01*
X105128598Y-96461505D01*
X104961505Y-96628598D01*
X104825965Y-96822170D01*
X104726097Y-97036336D01*
X104664936Y-97264592D01*
X104644340Y-97499999D01*
X52500000Y-97499999D01*
X52500000Y-89999999D01*
X67594540Y-89999999D01*
X67614326Y-90188257D01*
X67672820Y-90368284D01*
X67767466Y-90532216D01*
X67894129Y-90672889D01*
X68047269Y-90784151D01*
X68220197Y-90861144D01*
X68405352Y-90900500D01*
X68405354Y-90900500D01*
X68594646Y-90900500D01*
X68594648Y-90900500D01*
X68718083Y-90874262D01*
X68779803Y-90861144D01*
X68952730Y-90784151D01*
X69105871Y-90672888D01*
X69232533Y-90532216D01*
X69327179Y-90368284D01*
X69348487Y-90302702D01*
X69378734Y-90253342D01*
X69815258Y-89816819D01*
X69855487Y-89789939D01*
X69902940Y-89780500D01*
X110075500Y-89780500D01*
X110137500Y-89797113D01*
X110182887Y-89842500D01*
X110199500Y-89904500D01*
X110199500Y-91552282D01*
X110182887Y-91614282D01*
X110172821Y-91631715D01*
X110114326Y-91811742D01*
X110094540Y-91999999D01*
X110114326Y-92188257D01*
X110172820Y-92368284D01*
X110267466Y-92532216D01*
X110394129Y-92672889D01*
X110547269Y-92784151D01*
X110720197Y-92861144D01*
X110905352Y-92900500D01*
X110905354Y-92900500D01*
X111094646Y-92900500D01*
X111094648Y-92900500D01*
X111218083Y-92874262D01*
X111279803Y-92861144D01*
X111349193Y-92830248D01*
X111452727Y-92784153D01*
X111502615Y-92747908D01*
X111565772Y-92724609D01*
X111631795Y-92737742D01*
X111681227Y-92783437D01*
X111699500Y-92848227D01*
X111699500Y-98552282D01*
X111682887Y-98614282D01*
X111672821Y-98631715D01*
X111614326Y-98811742D01*
X111594540Y-99000000D01*
X111614326Y-99188257D01*
X111672820Y-99368284D01*
X111767466Y-99532216D01*
X111894129Y-99672889D01*
X112047269Y-99784151D01*
X112220197Y-99861144D01*
X112405352Y-99900500D01*
X112405354Y-99900500D01*
X112594646Y-99900500D01*
X112594647Y-99900500D01*
X112662960Y-99885979D01*
X112730530Y-99871617D01*
X112794629Y-99874976D01*
X112848460Y-99909934D01*
X112877601Y-99967125D01*
X112874242Y-100031224D01*
X112864327Y-100061740D01*
X112864326Y-100061744D01*
X112854140Y-100158662D01*
X112844540Y-100250000D01*
X112864326Y-100438257D01*
X112922820Y-100618284D01*
X113017466Y-100782216D01*
X113144129Y-100922889D01*
X113297269Y-101034151D01*
X113470197Y-101111144D01*
X113655352Y-101150500D01*
X113655354Y-101150500D01*
X113844646Y-101150500D01*
X113844648Y-101150500D01*
X113968084Y-101124262D01*
X114029803Y-101111144D01*
X114202730Y-101034151D01*
X114330661Y-100941204D01*
X114355870Y-100922889D01*
X114482533Y-100782216D01*
X114577179Y-100618284D01*
X114595551Y-100561742D01*
X114635674Y-100438256D01*
X114655460Y-100250000D01*
X114635674Y-100061744D01*
X114586348Y-99909934D01*
X114577179Y-99881715D01*
X114547113Y-99829640D01*
X114530500Y-99767640D01*
X114530500Y-78244002D01*
X114543099Y-78189542D01*
X114578333Y-78146152D01*
X114636791Y-78100652D01*
X114689212Y-78076802D01*
X114746761Y-78079208D01*
X114797014Y-78107355D01*
X114814692Y-78133677D01*
X114815520Y-78133058D01*
X114826203Y-78147328D01*
X114826204Y-78147331D01*
X114912454Y-78262546D01*
X115027669Y-78348796D01*
X115162517Y-78399091D01*
X115222127Y-78405500D01*
X115345500Y-78405500D01*
X115407500Y-78422113D01*
X115452887Y-78467500D01*
X115469500Y-78529500D01*
X115469500Y-100267640D01*
X115452887Y-100329640D01*
X115422820Y-100381715D01*
X115364326Y-100561742D01*
X115344540Y-100750000D01*
X115364326Y-100938257D01*
X115422820Y-101118284D01*
X115498001Y-101248500D01*
X115514614Y-101310500D01*
X115498001Y-101372500D01*
X115452614Y-101417887D01*
X115390614Y-101434500D01*
X98735263Y-101434500D01*
X98684828Y-101423780D01*
X98643114Y-101393473D01*
X98605871Y-101352111D01*
X98452730Y-101240848D01*
X98279802Y-101163855D01*
X98094648Y-101124500D01*
X98094646Y-101124500D01*
X97905354Y-101124500D01*
X97905352Y-101124500D01*
X97720197Y-101163855D01*
X97547269Y-101240848D01*
X97394129Y-101352110D01*
X97267466Y-101492783D01*
X97172820Y-101656715D01*
X97114326Y-101836742D01*
X97094540Y-102025000D01*
X97114326Y-102213257D01*
X97172820Y-102393284D01*
X97267466Y-102557216D01*
X97394129Y-102697889D01*
X97547267Y-102809150D01*
X97621605Y-102842247D01*
X97720197Y-102886144D01*
X97722103Y-102886549D01*
X97773641Y-102910894D01*
X97781413Y-102917092D01*
X97799306Y-102925708D01*
X97815910Y-102933705D01*
X97828075Y-102940429D01*
X97860478Y-102960789D01*
X97896597Y-102973427D01*
X97909446Y-102978749D01*
X97943939Y-102995360D01*
X97981250Y-103003876D01*
X97994611Y-103007725D01*
X98030745Y-103020368D01*
X98068776Y-103024653D01*
X98082481Y-103026981D01*
X98119806Y-103035500D01*
X98165046Y-103035500D01*
X98300194Y-103035500D01*
X98572485Y-103035500D01*
X98630700Y-103050015D01*
X98675286Y-103090160D01*
X98695805Y-103146536D01*
X98711853Y-103299234D01*
X98714326Y-103322757D01*
X98772820Y-103502784D01*
X98867466Y-103666716D01*
X98867650Y-103666920D01*
X98891264Y-103705455D01*
X98899500Y-103749892D01*
X98899500Y-106575079D01*
X98899274Y-106582566D01*
X98895641Y-106642607D01*
X98906483Y-106701771D01*
X98907610Y-106709172D01*
X98914860Y-106768873D01*
X98918450Y-106778339D01*
X98924475Y-106799952D01*
X98926303Y-106809929D01*
X98950991Y-106864783D01*
X98953856Y-106871701D01*
X98975180Y-106927926D01*
X98975182Y-106927930D01*
X98980941Y-106936273D01*
X98991961Y-106955813D01*
X98996120Y-106965054D01*
X99033216Y-107012405D01*
X99037651Y-107018432D01*
X99071817Y-107067929D01*
X99116847Y-107107822D01*
X99122283Y-107112940D01*
X103823495Y-111814152D01*
X103847734Y-111848449D01*
X103859134Y-111888869D01*
X103864325Y-111938254D01*
X103922820Y-112118284D01*
X104017466Y-112282216D01*
X104144129Y-112422889D01*
X104297269Y-112534151D01*
X104470197Y-112611144D01*
X104655352Y-112650500D01*
X104655354Y-112650500D01*
X104844646Y-112650500D01*
X104844648Y-112650500D01*
X104968084Y-112624262D01*
X105029803Y-112611144D01*
X105202730Y-112534151D01*
X105270663Y-112484795D01*
X105355870Y-112422889D01*
X105440082Y-112329363D01*
X105482533Y-112282216D01*
X105577179Y-112118284D01*
X105635674Y-111938256D01*
X105655460Y-111750000D01*
X105635674Y-111561744D01*
X105577179Y-111381716D01*
X105577179Y-111381715D01*
X105482533Y-111217783D01*
X105355870Y-111077110D01*
X105202730Y-110965848D01*
X105029802Y-110888855D01*
X104874872Y-110855924D01*
X104841485Y-110843607D01*
X104812972Y-110822315D01*
X101865657Y-107875000D01*
X104719540Y-107875000D01*
X104739326Y-108063257D01*
X104797820Y-108243284D01*
X104892466Y-108407216D01*
X105019129Y-108547889D01*
X105172269Y-108659151D01*
X105231661Y-108685594D01*
X105345197Y-108736144D01*
X105474734Y-108763677D01*
X105508114Y-108775992D01*
X105536628Y-108797285D01*
X107323495Y-110584152D01*
X107347734Y-110618449D01*
X107359134Y-110658869D01*
X107364325Y-110708254D01*
X107422820Y-110888284D01*
X107517466Y-111052216D01*
X107644129Y-111192889D01*
X107797269Y-111304151D01*
X107970197Y-111381144D01*
X108155352Y-111420500D01*
X108155354Y-111420500D01*
X108344646Y-111420500D01*
X108344648Y-111420500D01*
X108468084Y-111394262D01*
X108529803Y-111381144D01*
X108702730Y-111304151D01*
X108702729Y-111304151D01*
X108855870Y-111192889D01*
X108982533Y-111052216D01*
X109077179Y-110888284D01*
X109089781Y-110849500D01*
X109135674Y-110708256D01*
X109155460Y-110520000D01*
X109135674Y-110331744D01*
X109077179Y-110151716D01*
X109077179Y-110151715D01*
X108982533Y-109987783D01*
X108855870Y-109847110D01*
X108702730Y-109735848D01*
X108529802Y-109658855D01*
X108374871Y-109625924D01*
X108341484Y-109613607D01*
X108312971Y-109592315D01*
X106744315Y-108023659D01*
X112885392Y-108023659D01*
X112892375Y-108063257D01*
X112915668Y-108195354D01*
X112984721Y-108355438D01*
X113088832Y-108495283D01*
X113222386Y-108607349D01*
X113378185Y-108685594D01*
X113547829Y-108725800D01*
X113678433Y-108725800D01*
X113678436Y-108725800D01*
X113808164Y-108710637D01*
X113971993Y-108651008D01*
X114117654Y-108555205D01*
X114237296Y-108428393D01*
X114324467Y-108277407D01*
X114374469Y-108110388D01*
X114384607Y-107936340D01*
X114354332Y-107764646D01*
X114285279Y-107604562D01*
X114181168Y-107464717D01*
X114047614Y-107352651D01*
X113891815Y-107274406D01*
X113722171Y-107234200D01*
X113591564Y-107234200D01*
X113513727Y-107243297D01*
X113461834Y-107249363D01*
X113298005Y-107308992D01*
X113152346Y-107404794D01*
X113032704Y-107531606D01*
X112945533Y-107682591D01*
X112895531Y-107849613D01*
X112885392Y-108023659D01*
X106744315Y-108023659D01*
X106553852Y-107833196D01*
X106529612Y-107798897D01*
X106518212Y-107758474D01*
X106510674Y-107686742D01*
X106452179Y-107506715D01*
X106357533Y-107342783D01*
X106230870Y-107202110D01*
X106077730Y-107090848D01*
X105904802Y-107013855D01*
X105719648Y-106974500D01*
X105719646Y-106974500D01*
X105530354Y-106974500D01*
X105530352Y-106974500D01*
X105345197Y-107013855D01*
X105172269Y-107090848D01*
X105019129Y-107202110D01*
X104892466Y-107342783D01*
X104797820Y-107506715D01*
X104739326Y-107686742D01*
X104719540Y-107875000D01*
X101865657Y-107875000D01*
X100336819Y-106346162D01*
X100309939Y-106305934D01*
X100300500Y-106258481D01*
X100300500Y-103749892D01*
X100308736Y-103705455D01*
X100332350Y-103666920D01*
X100332533Y-103666716D01*
X100427179Y-103502784D01*
X100427178Y-103502784D01*
X100485674Y-103322756D01*
X100504194Y-103146536D01*
X100524714Y-103090160D01*
X100569300Y-103050015D01*
X100627515Y-103035500D01*
X121527649Y-103035500D01*
X121585777Y-103049969D01*
X121630340Y-103089998D01*
X121650938Y-103146246D01*
X121655909Y-103192483D01*
X121706204Y-103327331D01*
X121792454Y-103442546D01*
X121907669Y-103528796D01*
X122042517Y-103579091D01*
X122102127Y-103585500D01*
X123897872Y-103585499D01*
X123957483Y-103579091D01*
X124092331Y-103528796D01*
X124207546Y-103442546D01*
X124293796Y-103327331D01*
X124344091Y-103192483D01*
X124350500Y-103132873D01*
X124350499Y-101337128D01*
X124344091Y-101277517D01*
X124293796Y-101142669D01*
X124207546Y-101027454D01*
X124092331Y-100941204D01*
X124030898Y-100918291D01*
X123960916Y-100892189D01*
X123910537Y-100857209D01*
X123883084Y-100802365D01*
X123885273Y-100741072D01*
X123916566Y-100688329D01*
X124038495Y-100566401D01*
X124174035Y-100372830D01*
X124273903Y-100158663D01*
X124335063Y-99930408D01*
X124355659Y-99695000D01*
X124335063Y-99459592D01*
X124273903Y-99231337D01*
X124174035Y-99017171D01*
X124038495Y-98823599D01*
X123871401Y-98656505D01*
X123685839Y-98526573D01*
X123646975Y-98482257D01*
X123632964Y-98425000D01*
X123646975Y-98367743D01*
X123685839Y-98323426D01*
X123871401Y-98193495D01*
X124038495Y-98026401D01*
X124174035Y-97832830D01*
X124273903Y-97618663D01*
X124335063Y-97390408D01*
X124355659Y-97155000D01*
X124335063Y-96919592D01*
X124273903Y-96691337D01*
X124174035Y-96477171D01*
X124038495Y-96283599D01*
X123871401Y-96116505D01*
X123677830Y-95980965D01*
X123463663Y-95881097D01*
X123402502Y-95864709D01*
X123235407Y-95819936D01*
X123000000Y-95799340D01*
X122764592Y-95819936D01*
X122536336Y-95881097D01*
X122322170Y-95980965D01*
X122128598Y-96116505D01*
X121961505Y-96283598D01*
X121825965Y-96477170D01*
X121726097Y-96691336D01*
X121664936Y-96919592D01*
X121644340Y-97155000D01*
X121664936Y-97390407D01*
X121709709Y-97557502D01*
X121726097Y-97618663D01*
X121825965Y-97832830D01*
X121961505Y-98026401D01*
X122128599Y-98193495D01*
X122314160Y-98323426D01*
X122353024Y-98367743D01*
X122367035Y-98425000D01*
X122353024Y-98482257D01*
X122314158Y-98526575D01*
X122220597Y-98592088D01*
X122128595Y-98656508D01*
X121961505Y-98823598D01*
X121825965Y-99017170D01*
X121726097Y-99231336D01*
X121664936Y-99459592D01*
X121644340Y-99695000D01*
X121664936Y-99930407D01*
X121674775Y-99967125D01*
X121726097Y-100158663D01*
X121825965Y-100372830D01*
X121961505Y-100566401D01*
X121961508Y-100566404D01*
X122083430Y-100688326D01*
X122114726Y-100741072D01*
X122116915Y-100802365D01*
X122089462Y-100857209D01*
X122039083Y-100892189D01*
X121907669Y-100941204D01*
X121792454Y-101027454D01*
X121706204Y-101142668D01*
X121655909Y-101277516D01*
X121650938Y-101323755D01*
X121630339Y-101380003D01*
X121585776Y-101420032D01*
X121527648Y-101434500D01*
X117109386Y-101434500D01*
X117047386Y-101417887D01*
X117001999Y-101372500D01*
X116985386Y-101310500D01*
X117001999Y-101248500D01*
X117077179Y-101118284D01*
X117079499Y-101111144D01*
X117135674Y-100938256D01*
X117155460Y-100750000D01*
X117135674Y-100561744D01*
X117077179Y-100381716D01*
X117077178Y-100381715D01*
X117076569Y-100379839D01*
X117070500Y-100341521D01*
X117070500Y-81500000D01*
X123694450Y-81500000D01*
X123714616Y-81769100D01*
X123747801Y-81914493D01*
X123774666Y-82032195D01*
X123873257Y-82283398D01*
X124008185Y-82517102D01*
X124176439Y-82728085D01*
X124374259Y-82911635D01*
X124597226Y-83063651D01*
X124840359Y-83180738D01*
X125098228Y-83260280D01*
X125365071Y-83300500D01*
X125634929Y-83300500D01*
X125901772Y-83260280D01*
X126159641Y-83180738D01*
X126159642Y-83180737D01*
X126168520Y-83177999D01*
X126169070Y-83179785D01*
X126213233Y-83170392D01*
X126269916Y-83186029D01*
X126313022Y-83226019D01*
X126332859Y-83281371D01*
X126324967Y-83339639D01*
X126274666Y-83467802D01*
X126214616Y-83730899D01*
X126194450Y-84000000D01*
X126214616Y-84269100D01*
X126214617Y-84269103D01*
X126274666Y-84532195D01*
X126373257Y-84783398D01*
X126508185Y-85017102D01*
X126676439Y-85228085D01*
X126874259Y-85411635D01*
X127097226Y-85563651D01*
X127340359Y-85680738D01*
X127598228Y-85760280D01*
X127865071Y-85800500D01*
X128134929Y-85800500D01*
X128401772Y-85760280D01*
X128659641Y-85680738D01*
X128902775Y-85563651D01*
X129125741Y-85411635D01*
X129323561Y-85228085D01*
X129491815Y-85017102D01*
X129626743Y-84783398D01*
X129725334Y-84532195D01*
X129785383Y-84269103D01*
X129805549Y-84000000D01*
X129805549Y-83999999D01*
X136194450Y-83999999D01*
X136214616Y-84269100D01*
X136214617Y-84269103D01*
X136274666Y-84532195D01*
X136373257Y-84783398D01*
X136508185Y-85017102D01*
X136676439Y-85228085D01*
X136874259Y-85411635D01*
X137097226Y-85563651D01*
X137340359Y-85680738D01*
X137598228Y-85760280D01*
X137865071Y-85800500D01*
X138134929Y-85800500D01*
X138401772Y-85760280D01*
X138659641Y-85680738D01*
X138902775Y-85563651D01*
X139125741Y-85411635D01*
X139323561Y-85228085D01*
X139491815Y-85017102D01*
X139626743Y-84783398D01*
X139725334Y-84532195D01*
X139785383Y-84269103D01*
X139805549Y-84000000D01*
X139785383Y-83730897D01*
X139725334Y-83467805D01*
X139675031Y-83339638D01*
X139667139Y-83281374D01*
X139686975Y-83226023D01*
X139730077Y-83186032D01*
X139786757Y-83170392D01*
X139830929Y-83179783D01*
X139831480Y-83177999D01*
X139840357Y-83180737D01*
X139840359Y-83180738D01*
X140098228Y-83260280D01*
X140365071Y-83300500D01*
X140634929Y-83300500D01*
X140901772Y-83260280D01*
X141159641Y-83180738D01*
X141402775Y-83063651D01*
X141625741Y-82911635D01*
X141823561Y-82728085D01*
X141991815Y-82517102D01*
X142126743Y-82283398D01*
X142225334Y-82032195D01*
X142285383Y-81769103D01*
X142305549Y-81500000D01*
X142285383Y-81230897D01*
X142225334Y-80967805D01*
X142126743Y-80716602D01*
X141991815Y-80482898D01*
X141823561Y-80271915D01*
X141784119Y-80235318D01*
X141625743Y-80088366D01*
X141568205Y-80049137D01*
X141402775Y-79936349D01*
X141159641Y-79819262D01*
X141080097Y-79794726D01*
X140901771Y-79739719D01*
X140634929Y-79699500D01*
X140365071Y-79699500D01*
X140098228Y-79739719D01*
X139840359Y-79819262D01*
X139597228Y-79936347D01*
X139374257Y-80088366D01*
X139176439Y-80271915D01*
X139008184Y-80482899D01*
X138873257Y-80716601D01*
X138774666Y-80967804D01*
X138714616Y-81230899D01*
X138694450Y-81499999D01*
X138714616Y-81769100D01*
X138774666Y-82032197D01*
X138824967Y-82160360D01*
X138832860Y-82218623D01*
X138813027Y-82273972D01*
X138769927Y-82313964D01*
X138713251Y-82329606D01*
X138669070Y-82320216D01*
X138668520Y-82322001D01*
X138659641Y-82319262D01*
X138543373Y-82283398D01*
X138401771Y-82239719D01*
X138134929Y-82199500D01*
X137865071Y-82199500D01*
X137598228Y-82239719D01*
X137340359Y-82319262D01*
X137097228Y-82436347D01*
X136874257Y-82588366D01*
X136676439Y-82771915D01*
X136508184Y-82982899D01*
X136373257Y-83216601D01*
X136274666Y-83467804D01*
X136214616Y-83730899D01*
X136194450Y-83999999D01*
X129805549Y-83999999D01*
X129785383Y-83730897D01*
X129725334Y-83467805D01*
X129626743Y-83216602D01*
X129491815Y-82982898D01*
X129456570Y-82938702D01*
X131914848Y-82938702D01*
X132097479Y-83063217D01*
X132340542Y-83180270D01*
X132598339Y-83259791D01*
X132865109Y-83300000D01*
X133134891Y-83300000D01*
X133401660Y-83259791D01*
X133659460Y-83180270D01*
X133902523Y-83063217D01*
X134085150Y-82938702D01*
X133000000Y-81853553D01*
X131914848Y-82938702D01*
X129456570Y-82938702D01*
X129323561Y-82771915D01*
X129323560Y-82771914D01*
X129125743Y-82588366D01*
X129068205Y-82549137D01*
X128902775Y-82436349D01*
X128659641Y-82319262D01*
X128543373Y-82283398D01*
X128401771Y-82239719D01*
X128134929Y-82199500D01*
X127865071Y-82199500D01*
X127598228Y-82239719D01*
X127331480Y-82322001D01*
X127330929Y-82320217D01*
X127286739Y-82329606D01*
X127230066Y-82313960D01*
X127186969Y-82273968D01*
X127167139Y-82218620D01*
X127175032Y-82160360D01*
X127225334Y-82032195D01*
X127285383Y-81769103D01*
X127305549Y-81500000D01*
X131194952Y-81500000D01*
X131215113Y-81769026D01*
X131275146Y-82032049D01*
X131373708Y-82283178D01*
X131508598Y-82516816D01*
X131562295Y-82584150D01*
X132646447Y-81500000D01*
X133353553Y-81500000D01*
X134437703Y-82584151D01*
X134437704Y-82584150D01*
X134491400Y-82516818D01*
X134626291Y-82283178D01*
X134724853Y-82032049D01*
X134784886Y-81769026D01*
X134805047Y-81499999D01*
X134784886Y-81230973D01*
X134724853Y-80967950D01*
X134626291Y-80716821D01*
X134491398Y-80483178D01*
X134437704Y-80415847D01*
X133353553Y-81500000D01*
X132646447Y-81500000D01*
X131562295Y-80415848D01*
X131508598Y-80483182D01*
X131373708Y-80716821D01*
X131275146Y-80967950D01*
X131215113Y-81230973D01*
X131194952Y-81500000D01*
X127305549Y-81500000D01*
X127285383Y-81230897D01*
X127225334Y-80967805D01*
X127126743Y-80716602D01*
X126991815Y-80482898D01*
X126823561Y-80271915D01*
X126784119Y-80235318D01*
X126625743Y-80088366D01*
X126586039Y-80061296D01*
X131914848Y-80061296D01*
X133000000Y-81146447D01*
X133000001Y-81146447D01*
X134085150Y-80061296D01*
X133902519Y-79936780D01*
X133659460Y-79819729D01*
X133401660Y-79740208D01*
X133134891Y-79700000D01*
X132865109Y-79700000D01*
X132598339Y-79740208D01*
X132340542Y-79819729D01*
X132097476Y-79936783D01*
X131914848Y-80061296D01*
X126586039Y-80061296D01*
X126568205Y-80049137D01*
X126402775Y-79936349D01*
X126159641Y-79819262D01*
X126080097Y-79794726D01*
X125901771Y-79739719D01*
X125634929Y-79699500D01*
X125365071Y-79699500D01*
X125098228Y-79739719D01*
X124840359Y-79819262D01*
X124597228Y-79936347D01*
X124374257Y-80088366D01*
X124176439Y-80271915D01*
X124008184Y-80482899D01*
X123873257Y-80716601D01*
X123774666Y-80967804D01*
X123714616Y-81230899D01*
X123694450Y-81500000D01*
X117070500Y-81500000D01*
X117070500Y-78529499D01*
X117087113Y-78467499D01*
X117132500Y-78422112D01*
X117194500Y-78405499D01*
X117317870Y-78405499D01*
X117317872Y-78405499D01*
X117377483Y-78399091D01*
X117512331Y-78348796D01*
X117627546Y-78262546D01*
X117713796Y-78147331D01*
X117764091Y-78012483D01*
X117770500Y-77952873D01*
X117770499Y-76620191D01*
X124049500Y-76620191D01*
X124089066Y-76857299D01*
X124167116Y-77084652D01*
X124167117Y-77084655D01*
X124167118Y-77084656D01*
X124204004Y-77152816D01*
X124281531Y-77296072D01*
X124357660Y-77393882D01*
X124429175Y-77485764D01*
X124606031Y-77648571D01*
X124807272Y-77780049D01*
X125027409Y-77876610D01*
X125260437Y-77935620D01*
X125332266Y-77941571D01*
X125440004Y-77950500D01*
X125440010Y-77950500D01*
X125559990Y-77950500D01*
X125559996Y-77950500D01*
X125657938Y-77942383D01*
X125739563Y-77935620D01*
X125972591Y-77876610D01*
X126192728Y-77780049D01*
X126393969Y-77648571D01*
X126570825Y-77485764D01*
X126718472Y-77296067D01*
X126832882Y-77084656D01*
X126910934Y-76857297D01*
X126950500Y-76620192D01*
X126950500Y-76620191D01*
X139049500Y-76620191D01*
X139089066Y-76857299D01*
X139167116Y-77084652D01*
X139167117Y-77084655D01*
X139167118Y-77084656D01*
X139204004Y-77152816D01*
X139281531Y-77296072D01*
X139357660Y-77393882D01*
X139429175Y-77485764D01*
X139606031Y-77648571D01*
X139807272Y-77780049D01*
X140027409Y-77876610D01*
X140260437Y-77935620D01*
X140332266Y-77941571D01*
X140440004Y-77950500D01*
X140440010Y-77950500D01*
X140559990Y-77950500D01*
X140559996Y-77950500D01*
X140657938Y-77942383D01*
X140739563Y-77935620D01*
X140972591Y-77876610D01*
X141192728Y-77780049D01*
X141393969Y-77648571D01*
X141570825Y-77485764D01*
X141718472Y-77296067D01*
X141832882Y-77084656D01*
X141910934Y-76857297D01*
X141950500Y-76620192D01*
X141950500Y-76379808D01*
X141910934Y-76142703D01*
X141832882Y-75915344D01*
X141718472Y-75703933D01*
X141718469Y-75703929D01*
X141718468Y-75703927D01*
X141620040Y-75577468D01*
X141570825Y-75514236D01*
X141393969Y-75351429D01*
X141192728Y-75219951D01*
X140972591Y-75123390D01*
X140739563Y-75064380D01*
X140739561Y-75064379D01*
X140739558Y-75064379D01*
X140559996Y-75049500D01*
X140559990Y-75049500D01*
X140440010Y-75049500D01*
X140440004Y-75049500D01*
X140260441Y-75064379D01*
X140260437Y-75064379D01*
X140260437Y-75064380D01*
X140027409Y-75123390D01*
X139807272Y-75219951D01*
X139606031Y-75351429D01*
X139548381Y-75404500D01*
X139429172Y-75514239D01*
X139281531Y-75703927D01*
X139167116Y-75915347D01*
X139089066Y-76142700D01*
X139049500Y-76379809D01*
X139049500Y-76620191D01*
X126950500Y-76620191D01*
X126950500Y-76379808D01*
X126910934Y-76142703D01*
X126832882Y-75915344D01*
X126718472Y-75703933D01*
X126718469Y-75703929D01*
X126718468Y-75703927D01*
X126620040Y-75577468D01*
X126570825Y-75514236D01*
X126393969Y-75351429D01*
X126192728Y-75219951D01*
X125972591Y-75123390D01*
X125739563Y-75064380D01*
X125739561Y-75064379D01*
X125739558Y-75064379D01*
X125559996Y-75049500D01*
X125559990Y-75049500D01*
X125440010Y-75049500D01*
X125440004Y-75049500D01*
X125260441Y-75064379D01*
X125260437Y-75064379D01*
X125260437Y-75064380D01*
X125027409Y-75123390D01*
X124807272Y-75219951D01*
X124606031Y-75351429D01*
X124548381Y-75404500D01*
X124429172Y-75514239D01*
X124281531Y-75703927D01*
X124167116Y-75915347D01*
X124089066Y-76142700D01*
X124049500Y-76379809D01*
X124049500Y-76620191D01*
X117770499Y-76620191D01*
X117770499Y-75857128D01*
X117764091Y-75797517D01*
X117713796Y-75662669D01*
X117627546Y-75547454D01*
X117512331Y-75461204D01*
X117512328Y-75461203D01*
X117498058Y-75450520D01*
X117498994Y-75449268D01*
X117477474Y-75435137D01*
X117449067Y-75387919D01*
X117443923Y-75333055D01*
X117463058Y-75281379D01*
X117593733Y-75081365D01*
X117693586Y-74853721D01*
X117754613Y-74612732D01*
X117775141Y-74364999D01*
X117754613Y-74117267D01*
X117693586Y-73876278D01*
X117593730Y-73648630D01*
X117493434Y-73495116D01*
X116357680Y-74630871D01*
X116302093Y-74662965D01*
X116237905Y-74662965D01*
X116182318Y-74630871D01*
X115046562Y-73495115D01*
X115012794Y-73498618D01*
X114987211Y-73498618D01*
X114953435Y-73495115D01*
X113730000Y-74718553D01*
X112859942Y-75588610D01*
X112861343Y-75611178D01*
X112850616Y-75669842D01*
X112813744Y-75716714D01*
X112710256Y-75797261D01*
X112541837Y-75980214D01*
X112405825Y-76188395D01*
X112321864Y-76379808D01*
X112305937Y-76416119D01*
X112244892Y-76657179D01*
X112244891Y-76657183D01*
X112224356Y-76905000D01*
X112244891Y-77152816D01*
X112244891Y-77152819D01*
X112244892Y-77152821D01*
X112305937Y-77393881D01*
X112346239Y-77485760D01*
X112405825Y-77621604D01*
X112405827Y-77621607D01*
X112541836Y-77829785D01*
X112710256Y-78012738D01*
X112710259Y-78012740D01*
X112881662Y-78146149D01*
X112916900Y-78189542D01*
X112929500Y-78244002D01*
X112929500Y-80517548D01*
X112917421Y-80570931D01*
X112883536Y-80613914D01*
X112834447Y-80638122D01*
X112779719Y-80638838D01*
X112594648Y-80599500D01*
X112594646Y-80599500D01*
X112405354Y-80599500D01*
X112405352Y-80599500D01*
X112220197Y-80638855D01*
X112047269Y-80715848D01*
X111894129Y-80827110D01*
X111767466Y-80967783D01*
X111672820Y-81131715D01*
X111614326Y-81311742D01*
X111594540Y-81500000D01*
X111614326Y-81688257D01*
X111672821Y-81868284D01*
X111682887Y-81885718D01*
X111699500Y-81947718D01*
X111699500Y-88131773D01*
X111681227Y-88196563D01*
X111631795Y-88242258D01*
X111565772Y-88255391D01*
X111502615Y-88232092D01*
X111452727Y-88195846D01*
X111279802Y-88118855D01*
X111094648Y-88079500D01*
X111094646Y-88079500D01*
X110905354Y-88079500D01*
X110905352Y-88079500D01*
X110720197Y-88118855D01*
X110608069Y-88168779D01*
X110557633Y-88179500D01*
X69429803Y-88179500D01*
X69392480Y-88188017D01*
X69378780Y-88190345D01*
X69340743Y-88194631D01*
X69304623Y-88207270D01*
X69291268Y-88211118D01*
X69253939Y-88219639D01*
X69219441Y-88236251D01*
X69206604Y-88241568D01*
X69170476Y-88254211D01*
X69138067Y-88274574D01*
X69125903Y-88281297D01*
X69091415Y-88297906D01*
X69061484Y-88321774D01*
X69050153Y-88329813D01*
X69017742Y-88350180D01*
X68927162Y-88440757D01*
X68927160Y-88440761D01*
X68252432Y-89115488D01*
X68215187Y-89141086D01*
X68047269Y-89215848D01*
X67894129Y-89327110D01*
X67767466Y-89467783D01*
X67672820Y-89631715D01*
X67614326Y-89811742D01*
X67594540Y-89999999D01*
X52500000Y-89999999D01*
X52500000Y-79999999D01*
X64394842Y-79999999D01*
X64415430Y-80235318D01*
X64476569Y-80463493D01*
X64565002Y-80653137D01*
X64575961Y-80718308D01*
X64551887Y-80779853D01*
X64456204Y-80907668D01*
X64405909Y-81042516D01*
X64399500Y-81102130D01*
X64399500Y-82897869D01*
X64405909Y-82957484D01*
X64418056Y-82990051D01*
X64456204Y-83092331D01*
X64542454Y-83207546D01*
X64657669Y-83293796D01*
X64792517Y-83344091D01*
X64852127Y-83350500D01*
X66647872Y-83350499D01*
X66707483Y-83344091D01*
X66842331Y-83293796D01*
X66957546Y-83207546D01*
X67043796Y-83092331D01*
X67081943Y-82990051D01*
X67116923Y-82939671D01*
X67171768Y-82912218D01*
X67233061Y-82914407D01*
X67285806Y-82945702D01*
X67378599Y-83038495D01*
X67572170Y-83174035D01*
X67786337Y-83273903D01*
X68014592Y-83335063D01*
X68250000Y-83355659D01*
X68485408Y-83335063D01*
X68713663Y-83273903D01*
X68927830Y-83174035D01*
X69121401Y-83038495D01*
X69288495Y-82871401D01*
X69424035Y-82677830D01*
X69523903Y-82463663D01*
X69585063Y-82235408D01*
X69605659Y-82000000D01*
X69585063Y-81764592D01*
X69523903Y-81536337D01*
X69506959Y-81500000D01*
X79694450Y-81500000D01*
X79714616Y-81769100D01*
X79747801Y-81914493D01*
X79774666Y-82032195D01*
X79873257Y-82283398D01*
X80008185Y-82517102D01*
X80176439Y-82728085D01*
X80374259Y-82911635D01*
X80597226Y-83063651D01*
X80840359Y-83180738D01*
X81098228Y-83260280D01*
X81365071Y-83300500D01*
X81634929Y-83300500D01*
X81901772Y-83260280D01*
X82159641Y-83180738D01*
X82159642Y-83180737D01*
X82168520Y-83177999D01*
X82169070Y-83179785D01*
X82213233Y-83170392D01*
X82269916Y-83186029D01*
X82313022Y-83226019D01*
X82332859Y-83281371D01*
X82324967Y-83339639D01*
X82274666Y-83467802D01*
X82214616Y-83730899D01*
X82194450Y-84000000D01*
X82214616Y-84269100D01*
X82214617Y-84269103D01*
X82274666Y-84532195D01*
X82373257Y-84783398D01*
X82508185Y-85017102D01*
X82676439Y-85228085D01*
X82874259Y-85411635D01*
X83097226Y-85563651D01*
X83340359Y-85680738D01*
X83598228Y-85760280D01*
X83865071Y-85800500D01*
X84134929Y-85800500D01*
X84401772Y-85760280D01*
X84659641Y-85680738D01*
X84902775Y-85563651D01*
X85125741Y-85411635D01*
X85323561Y-85228085D01*
X85491815Y-85017102D01*
X85626743Y-84783398D01*
X85725334Y-84532195D01*
X85785383Y-84269103D01*
X85805549Y-84000000D01*
X92194450Y-84000000D01*
X92214616Y-84269100D01*
X92214617Y-84269103D01*
X92274666Y-84532195D01*
X92373257Y-84783398D01*
X92508185Y-85017102D01*
X92676439Y-85228085D01*
X92874259Y-85411635D01*
X93097226Y-85563651D01*
X93340359Y-85680738D01*
X93598228Y-85760280D01*
X93865071Y-85800500D01*
X94134929Y-85800500D01*
X94401772Y-85760280D01*
X94659641Y-85680738D01*
X94902775Y-85563651D01*
X95125741Y-85411635D01*
X95323561Y-85228085D01*
X95491815Y-85017102D01*
X95626743Y-84783398D01*
X95725334Y-84532195D01*
X95785383Y-84269103D01*
X95805549Y-84000000D01*
X95785383Y-83730897D01*
X95725334Y-83467805D01*
X95675031Y-83339638D01*
X95667139Y-83281374D01*
X95686975Y-83226023D01*
X95730077Y-83186032D01*
X95786757Y-83170392D01*
X95830929Y-83179783D01*
X95831480Y-83177999D01*
X95840357Y-83180737D01*
X95840359Y-83180738D01*
X96098228Y-83260280D01*
X96365071Y-83300500D01*
X96634929Y-83300500D01*
X96901772Y-83260280D01*
X97159641Y-83180738D01*
X97402775Y-83063651D01*
X97625741Y-82911635D01*
X97823561Y-82728085D01*
X97991815Y-82517102D01*
X98126743Y-82283398D01*
X98225334Y-82032195D01*
X98285383Y-81769103D01*
X98305549Y-81500000D01*
X98285383Y-81230897D01*
X98225334Y-80967805D01*
X98126743Y-80716602D01*
X97991815Y-80482898D01*
X97823561Y-80271915D01*
X97784119Y-80235318D01*
X97625743Y-80088366D01*
X97568205Y-80049137D01*
X97402775Y-79936349D01*
X97159641Y-79819262D01*
X97080097Y-79794726D01*
X96901771Y-79739719D01*
X96634929Y-79699500D01*
X96365071Y-79699500D01*
X96098228Y-79739719D01*
X95840359Y-79819262D01*
X95597228Y-79936347D01*
X95374257Y-80088366D01*
X95176439Y-80271915D01*
X95008184Y-80482899D01*
X94873257Y-80716601D01*
X94774666Y-80967804D01*
X94714616Y-81230899D01*
X94694450Y-81500000D01*
X94714616Y-81769100D01*
X94774666Y-82032197D01*
X94824967Y-82160360D01*
X94832860Y-82218623D01*
X94813027Y-82273972D01*
X94769927Y-82313964D01*
X94713251Y-82329606D01*
X94669070Y-82320216D01*
X94668520Y-82322001D01*
X94659641Y-82319262D01*
X94543373Y-82283398D01*
X94401771Y-82239719D01*
X94134929Y-82199500D01*
X93865071Y-82199500D01*
X93598228Y-82239719D01*
X93340359Y-82319262D01*
X93097228Y-82436347D01*
X92874257Y-82588366D01*
X92676439Y-82771915D01*
X92508184Y-82982899D01*
X92373257Y-83216601D01*
X92274666Y-83467804D01*
X92214616Y-83730899D01*
X92194450Y-84000000D01*
X85805549Y-84000000D01*
X85785383Y-83730897D01*
X85725334Y-83467805D01*
X85626743Y-83216602D01*
X85491815Y-82982898D01*
X85323561Y-82771915D01*
X85323560Y-82771914D01*
X85125743Y-82588366D01*
X85068205Y-82549137D01*
X84902775Y-82436349D01*
X84659641Y-82319262D01*
X84543373Y-82283398D01*
X84401771Y-82239719D01*
X84134929Y-82199500D01*
X83865071Y-82199500D01*
X83598228Y-82239719D01*
X83331480Y-82322001D01*
X83330929Y-82320217D01*
X83286739Y-82329606D01*
X83230066Y-82313960D01*
X83186969Y-82273968D01*
X83167139Y-82218620D01*
X83175032Y-82160360D01*
X83225334Y-82032195D01*
X83285383Y-81769103D01*
X83305549Y-81500000D01*
X87194450Y-81500000D01*
X87214616Y-81769100D01*
X87247801Y-81914493D01*
X87274666Y-82032195D01*
X87373257Y-82283398D01*
X87508185Y-82517102D01*
X87676439Y-82728085D01*
X87874259Y-82911635D01*
X88097226Y-83063651D01*
X88340359Y-83180738D01*
X88598228Y-83260280D01*
X88865071Y-83300500D01*
X89134929Y-83300500D01*
X89401772Y-83260280D01*
X89659641Y-83180738D01*
X89902775Y-83063651D01*
X90125741Y-82911635D01*
X90323561Y-82728085D01*
X90491815Y-82517102D01*
X90626743Y-82283398D01*
X90725334Y-82032195D01*
X90785383Y-81769103D01*
X90805549Y-81500000D01*
X90785383Y-81230897D01*
X90725334Y-80967805D01*
X90626743Y-80716602D01*
X90491815Y-80482898D01*
X90323561Y-80271915D01*
X90284119Y-80235318D01*
X90125743Y-80088366D01*
X90068205Y-80049137D01*
X89902775Y-79936349D01*
X89659641Y-79819262D01*
X89580097Y-79794726D01*
X89401771Y-79739719D01*
X89134929Y-79699500D01*
X88865071Y-79699500D01*
X88598228Y-79739719D01*
X88340359Y-79819262D01*
X88097228Y-79936347D01*
X87874257Y-80088366D01*
X87676439Y-80271915D01*
X87508184Y-80482899D01*
X87373257Y-80716601D01*
X87274666Y-80967804D01*
X87214616Y-81230899D01*
X87194450Y-81500000D01*
X83305549Y-81500000D01*
X83285383Y-81230897D01*
X83225334Y-80967805D01*
X83126743Y-80716602D01*
X82991815Y-80482898D01*
X82823561Y-80271915D01*
X82784119Y-80235318D01*
X82625743Y-80088366D01*
X82568205Y-80049137D01*
X82402775Y-79936349D01*
X82159641Y-79819262D01*
X82080097Y-79794726D01*
X81901771Y-79739719D01*
X81634929Y-79699500D01*
X81365071Y-79699500D01*
X81098228Y-79739719D01*
X80840359Y-79819262D01*
X80597228Y-79936347D01*
X80374257Y-80088366D01*
X80176439Y-80271915D01*
X80008184Y-80482899D01*
X79873257Y-80716601D01*
X79774666Y-80967804D01*
X79714616Y-81230899D01*
X79694450Y-81500000D01*
X69506959Y-81500000D01*
X69424035Y-81322171D01*
X69288495Y-81128599D01*
X69247577Y-81087681D01*
X69215483Y-81032094D01*
X69215483Y-80967906D01*
X69247577Y-80912319D01*
X69252228Y-80907668D01*
X69288495Y-80871401D01*
X69424035Y-80677830D01*
X69523903Y-80463663D01*
X69585063Y-80235408D01*
X69605659Y-80000000D01*
X69585063Y-79764592D01*
X69523903Y-79536337D01*
X69424035Y-79322171D01*
X69288495Y-79128599D01*
X69121401Y-78961505D01*
X68927830Y-78825965D01*
X68713663Y-78726097D01*
X68652502Y-78709709D01*
X68485407Y-78664936D01*
X68250000Y-78644340D01*
X68014592Y-78664936D01*
X67786336Y-78726097D01*
X67572170Y-78825965D01*
X67378598Y-78961505D01*
X67211507Y-79128596D01*
X67101269Y-79286032D01*
X67056950Y-79324898D01*
X66999693Y-79338908D01*
X66942437Y-79324897D01*
X66898119Y-79286031D01*
X66864926Y-79238626D01*
X66864925Y-79238625D01*
X65837680Y-80265871D01*
X65782093Y-80297965D01*
X65717905Y-80297965D01*
X65662318Y-80265871D01*
X64635072Y-79238625D01*
X64576399Y-79322422D01*
X64476569Y-79536507D01*
X64415430Y-79764681D01*
X64394842Y-79999999D01*
X52500000Y-79999999D01*
X52500000Y-77290000D01*
X58724671Y-77290000D01*
X58743966Y-77584386D01*
X58801518Y-77873719D01*
X58896347Y-78153077D01*
X59026827Y-78417664D01*
X59190726Y-78662957D01*
X59246513Y-78726569D01*
X59385242Y-78884758D01*
X59503410Y-78988389D01*
X59607042Y-79079273D01*
X59852335Y-79243172D01*
X60116922Y-79373652D01*
X60210041Y-79405261D01*
X60396278Y-79468481D01*
X60541944Y-79497455D01*
X60685613Y-79526033D01*
X60685615Y-79526033D01*
X60685620Y-79526034D01*
X60980000Y-79545329D01*
X61274380Y-79526034D01*
X61274384Y-79526033D01*
X61274386Y-79526033D01*
X61345222Y-79511942D01*
X61563722Y-79468481D01*
X61843077Y-79373652D01*
X62107665Y-79243172D01*
X62352957Y-79079273D01*
X62574400Y-78885072D01*
X64988625Y-78885072D01*
X65750000Y-79646447D01*
X65750001Y-79646447D01*
X66511373Y-78885073D01*
X66511373Y-78885072D01*
X66427580Y-78826400D01*
X66213492Y-78726569D01*
X65985318Y-78665430D01*
X65750000Y-78644842D01*
X65514681Y-78665430D01*
X65286507Y-78726569D01*
X65072422Y-78826399D01*
X64988625Y-78885072D01*
X62574400Y-78885072D01*
X62574758Y-78884758D01*
X62769273Y-78662957D01*
X62933172Y-78417665D01*
X63063652Y-78153077D01*
X63158481Y-77873722D01*
X63216034Y-77584380D01*
X63235329Y-77290000D01*
X70764671Y-77290000D01*
X70783966Y-77584386D01*
X70841518Y-77873719D01*
X70936347Y-78153077D01*
X71066827Y-78417664D01*
X71230726Y-78662957D01*
X71286513Y-78726569D01*
X71425242Y-78884758D01*
X71543410Y-78988389D01*
X71647042Y-79079273D01*
X71892335Y-79243172D01*
X72156922Y-79373652D01*
X72250041Y-79405261D01*
X72436278Y-79468481D01*
X72581944Y-79497455D01*
X72725613Y-79526033D01*
X72725615Y-79526033D01*
X72725620Y-79526034D01*
X73020000Y-79545329D01*
X73314380Y-79526034D01*
X73314384Y-79526033D01*
X73314386Y-79526033D01*
X73385222Y-79511942D01*
X73603722Y-79468481D01*
X73883077Y-79373652D01*
X74147665Y-79243172D01*
X74392957Y-79079273D01*
X74614758Y-78884758D01*
X74809273Y-78662957D01*
X74973172Y-78417665D01*
X75103652Y-78153077D01*
X75198481Y-77873722D01*
X75256034Y-77584380D01*
X75275329Y-77290000D01*
X75256034Y-76995620D01*
X75198481Y-76706278D01*
X75169258Y-76620191D01*
X80049500Y-76620191D01*
X80089066Y-76857299D01*
X80167116Y-77084652D01*
X80167117Y-77084655D01*
X80167118Y-77084656D01*
X80204004Y-77152816D01*
X80281531Y-77296072D01*
X80357660Y-77393882D01*
X80429175Y-77485764D01*
X80606031Y-77648571D01*
X80807272Y-77780049D01*
X81027409Y-77876610D01*
X81260437Y-77935620D01*
X81332266Y-77941571D01*
X81440004Y-77950500D01*
X81440010Y-77950500D01*
X81559990Y-77950500D01*
X81559996Y-77950500D01*
X81657938Y-77942383D01*
X81739563Y-77935620D01*
X81972591Y-77876610D01*
X82192728Y-77780049D01*
X82393969Y-77648571D01*
X82570825Y-77485764D01*
X82718472Y-77296067D01*
X82832882Y-77084656D01*
X82910934Y-76857297D01*
X82950500Y-76620192D01*
X82950500Y-76620191D01*
X95049500Y-76620191D01*
X95089066Y-76857299D01*
X95167116Y-77084652D01*
X95167117Y-77084655D01*
X95167118Y-77084656D01*
X95204004Y-77152816D01*
X95281531Y-77296072D01*
X95357660Y-77393882D01*
X95429175Y-77485764D01*
X95606031Y-77648571D01*
X95807272Y-77780049D01*
X96027409Y-77876610D01*
X96260437Y-77935620D01*
X96332266Y-77941571D01*
X96440004Y-77950500D01*
X96440010Y-77950500D01*
X96559990Y-77950500D01*
X96559996Y-77950500D01*
X96657938Y-77942383D01*
X96739563Y-77935620D01*
X96972591Y-77876610D01*
X97192728Y-77780049D01*
X97393969Y-77648571D01*
X97570825Y-77485764D01*
X97718472Y-77296067D01*
X97832882Y-77084656D01*
X97910934Y-76857297D01*
X97950500Y-76620192D01*
X97950500Y-76379808D01*
X97910934Y-76142703D01*
X97832882Y-75915344D01*
X97718472Y-75703933D01*
X97718469Y-75703929D01*
X97718468Y-75703927D01*
X97620040Y-75577468D01*
X97570825Y-75514236D01*
X97393969Y-75351429D01*
X97192728Y-75219951D01*
X96972591Y-75123390D01*
X96739563Y-75064380D01*
X96739561Y-75064379D01*
X96739558Y-75064379D01*
X96559996Y-75049500D01*
X96559990Y-75049500D01*
X96440010Y-75049500D01*
X96440004Y-75049500D01*
X96260441Y-75064379D01*
X96260437Y-75064379D01*
X96260437Y-75064380D01*
X96027409Y-75123390D01*
X95807272Y-75219951D01*
X95606031Y-75351429D01*
X95548381Y-75404500D01*
X95429172Y-75514239D01*
X95281531Y-75703927D01*
X95167116Y-75915347D01*
X95089066Y-76142700D01*
X95049500Y-76379809D01*
X95049500Y-76620191D01*
X82950500Y-76620191D01*
X82950500Y-76379808D01*
X82910934Y-76142703D01*
X82832882Y-75915344D01*
X82718472Y-75703933D01*
X82718469Y-75703929D01*
X82718468Y-75703927D01*
X82620040Y-75577468D01*
X82570825Y-75514236D01*
X82393969Y-75351429D01*
X82192728Y-75219951D01*
X81972591Y-75123390D01*
X81739563Y-75064380D01*
X81739561Y-75064379D01*
X81739558Y-75064379D01*
X81559996Y-75049500D01*
X81559990Y-75049500D01*
X81440010Y-75049500D01*
X81440004Y-75049500D01*
X81260441Y-75064379D01*
X81260437Y-75064379D01*
X81260437Y-75064380D01*
X81027409Y-75123390D01*
X80807272Y-75219951D01*
X80606031Y-75351429D01*
X80548381Y-75404500D01*
X80429172Y-75514239D01*
X80281531Y-75703927D01*
X80167116Y-75915347D01*
X80089066Y-76142700D01*
X80049500Y-76379809D01*
X80049500Y-76620191D01*
X75169258Y-76620191D01*
X75103652Y-76426923D01*
X75098324Y-76416119D01*
X74973172Y-76162336D01*
X74809273Y-75917043D01*
X74807783Y-75915344D01*
X74614758Y-75695242D01*
X74446239Y-75547454D01*
X74392957Y-75500726D01*
X74147664Y-75336827D01*
X73883077Y-75206347D01*
X73603719Y-75111518D01*
X73314386Y-75053966D01*
X73020000Y-75034671D01*
X72725613Y-75053966D01*
X72436280Y-75111518D01*
X72156922Y-75206347D01*
X71892336Y-75336827D01*
X71647043Y-75500726D01*
X71425242Y-75695242D01*
X71230726Y-75917043D01*
X71066827Y-76162336D01*
X70936347Y-76426922D01*
X70841518Y-76706280D01*
X70783966Y-76995613D01*
X70764671Y-77290000D01*
X63235329Y-77290000D01*
X63216034Y-76995620D01*
X63158481Y-76706278D01*
X63063652Y-76426923D01*
X63058324Y-76416119D01*
X62933172Y-76162336D01*
X62769273Y-75917043D01*
X62767783Y-75915344D01*
X62574758Y-75695242D01*
X62406239Y-75547454D01*
X62352957Y-75500726D01*
X62107664Y-75336827D01*
X61843077Y-75206347D01*
X61563719Y-75111518D01*
X61274386Y-75053966D01*
X60980000Y-75034671D01*
X60685613Y-75053966D01*
X60396280Y-75111518D01*
X60116922Y-75206347D01*
X59852336Y-75336827D01*
X59607043Y-75500726D01*
X59385242Y-75695242D01*
X59190726Y-75917043D01*
X59026827Y-76162336D01*
X58896347Y-76426922D01*
X58801518Y-76706280D01*
X58743966Y-76995613D01*
X58724671Y-77290000D01*
X52500000Y-77290000D01*
X52500000Y-74364999D01*
X112224858Y-74364999D01*
X112245386Y-74612732D01*
X112306413Y-74853721D01*
X112406268Y-75081370D01*
X112506563Y-75234882D01*
X112506564Y-75234882D01*
X113376447Y-74365001D01*
X113376447Y-74364999D01*
X112506564Y-73495116D01*
X112406266Y-73648634D01*
X112306413Y-73876278D01*
X112245386Y-74117267D01*
X112224858Y-74364999D01*
X52500000Y-74364999D01*
X52500000Y-72325000D01*
X53304699Y-72325000D01*
X53323865Y-72556299D01*
X53323865Y-72556301D01*
X53323866Y-72556305D01*
X53330918Y-72584151D01*
X53380844Y-72781303D01*
X53438013Y-72911635D01*
X53474076Y-72993849D01*
X53601021Y-73188153D01*
X53758216Y-73358913D01*
X53941374Y-73501470D01*
X54145497Y-73611936D01*
X54252383Y-73648630D01*
X54365015Y-73687297D01*
X54365017Y-73687297D01*
X54365019Y-73687298D01*
X54593951Y-73725500D01*
X54826048Y-73725500D01*
X54826049Y-73725500D01*
X55054981Y-73687298D01*
X55274503Y-73611936D01*
X55478626Y-73501470D01*
X55661784Y-73358913D01*
X55670511Y-73349432D01*
X55723132Y-73315577D01*
X55785588Y-73311727D01*
X55841971Y-73338865D01*
X55877924Y-73390079D01*
X55906647Y-73467088D01*
X55992811Y-73582188D01*
X56107910Y-73668352D01*
X56242624Y-73718597D01*
X56302176Y-73725000D01*
X57000000Y-73725000D01*
X57000000Y-72575000D01*
X57500000Y-72575000D01*
X57500000Y-73725000D01*
X58197824Y-73725000D01*
X58257375Y-73718597D01*
X58392089Y-73668352D01*
X58507188Y-73582188D01*
X58593352Y-73467089D01*
X58643597Y-73332375D01*
X58650000Y-73272824D01*
X58650000Y-72575000D01*
X57500000Y-72575000D01*
X57000000Y-72575000D01*
X57000000Y-70925000D01*
X57500000Y-70925000D01*
X57500000Y-72075000D01*
X58650000Y-72075000D01*
X58650000Y-71377176D01*
X58643597Y-71317624D01*
X58593352Y-71182910D01*
X58507188Y-71067811D01*
X58392089Y-70981647D01*
X58257375Y-70931402D01*
X58197824Y-70925000D01*
X57500000Y-70925000D01*
X57000000Y-70925000D01*
X56302176Y-70925000D01*
X56242624Y-70931402D01*
X56107910Y-70981647D01*
X55992811Y-71067811D01*
X55906645Y-71182913D01*
X55877923Y-71259920D01*
X55841971Y-71311134D01*
X55785589Y-71338271D01*
X55723135Y-71334423D01*
X55670513Y-71300569D01*
X55661784Y-71291087D01*
X55478626Y-71148530D01*
X55274503Y-71038064D01*
X55274499Y-71038062D01*
X55274498Y-71038062D01*
X55054984Y-70962702D01*
X54867410Y-70931402D01*
X54826049Y-70924500D01*
X54593951Y-70924500D01*
X54552590Y-70931402D01*
X54365015Y-70962702D01*
X54145501Y-71038062D01*
X54145497Y-71038063D01*
X54145497Y-71038064D01*
X54009414Y-71111708D01*
X53941372Y-71148531D01*
X53758215Y-71291087D01*
X53601020Y-71461848D01*
X53474076Y-71656150D01*
X53380844Y-71868696D01*
X53380842Y-71868700D01*
X53380843Y-71868700D01*
X53328601Y-72075000D01*
X53323865Y-72093700D01*
X53304699Y-72325000D01*
X52500000Y-72325000D01*
X52500000Y-70124500D01*
X52516613Y-70062500D01*
X52562000Y-70017113D01*
X52624000Y-70000500D01*
X85153008Y-70000500D01*
X85210128Y-70014439D01*
G37*
%TD.AperFunction*%
%TD*%
M02*
