%TF.GenerationSoftware,KiCad,Pcbnew,7.0.1*%
%TF.CreationDate,2023-12-17T22:32:57-05:00*%
%TF.ProjectId,channel_splitter,6368616e-6e65-46c5-9f73-706c69747465,rev?*%
%TF.SameCoordinates,Original*%
%TF.FileFunction,Copper,L2,Bot*%
%TF.FilePolarity,Positive*%
%FSLAX46Y46*%
G04 Gerber Fmt 4.6, Leading zero omitted, Abs format (unit mm)*
G04 Created by KiCad (PCBNEW 7.0.1) date 2023-12-17 22:32:57*
%MOMM*%
%LPD*%
G01*
G04 APERTURE LIST*
G04 APERTURE END LIST*
%TA.AperFunction,Conductor*%
%TO.N,GND*%
G36*
X259002854Y-70000632D02*
G01*
X259018811Y-70001369D01*
X259173088Y-70008502D01*
X259369795Y-70018166D01*
X259380787Y-70019201D01*
X259562876Y-70044601D01*
X259563781Y-70044732D01*
X259747261Y-70071949D01*
X259757413Y-70073892D01*
X259938614Y-70116510D01*
X259940023Y-70116852D01*
X260117874Y-70161401D01*
X260127091Y-70164096D01*
X260304478Y-70223550D01*
X260306618Y-70224292D01*
X260478220Y-70285692D01*
X260486519Y-70289004D01*
X260657980Y-70364712D01*
X260660909Y-70366051D01*
X260747263Y-70406892D01*
X260825119Y-70443715D01*
X260832411Y-70447465D01*
X260952564Y-70514391D01*
X260996435Y-70538827D01*
X260999810Y-70540777D01*
X261155371Y-70634017D01*
X261161670Y-70638058D01*
X261316699Y-70744256D01*
X261320459Y-70746935D01*
X261466009Y-70854882D01*
X261471305Y-70859040D01*
X261616009Y-70979200D01*
X261619947Y-70982617D01*
X261754206Y-71104303D01*
X261758590Y-71108478D01*
X261891520Y-71241408D01*
X261895698Y-71245795D01*
X262017375Y-71380045D01*
X262020805Y-71383998D01*
X262140951Y-71528684D01*
X262145124Y-71534000D01*
X262160311Y-71554477D01*
X262253041Y-71679509D01*
X262255742Y-71683299D01*
X262361940Y-71838328D01*
X262365999Y-71844656D01*
X262459200Y-72000153D01*
X262461171Y-72003563D01*
X262552525Y-72167573D01*
X262556291Y-72174896D01*
X262633947Y-72339089D01*
X262635286Y-72342018D01*
X262710994Y-72513479D01*
X262714311Y-72521791D01*
X262775666Y-72693265D01*
X262776487Y-72695634D01*
X262835894Y-72872881D01*
X262838606Y-72882157D01*
X262883104Y-73059803D01*
X262883526Y-73061543D01*
X262926101Y-73242562D01*
X262928053Y-73252758D01*
X262955257Y-73436156D01*
X262955410Y-73437218D01*
X262980794Y-73619184D01*
X262981834Y-73630232D01*
X262991512Y-73827238D01*
X262991529Y-73827595D01*
X262999368Y-73997145D01*
X262999500Y-74002872D01*
X262999500Y-96497128D01*
X262999368Y-96502855D01*
X262991529Y-96672404D01*
X262991512Y-96672761D01*
X262981834Y-96869766D01*
X262980794Y-96880814D01*
X262955410Y-97062780D01*
X262955257Y-97063842D01*
X262928053Y-97247240D01*
X262926101Y-97257436D01*
X262883526Y-97438455D01*
X262883104Y-97440195D01*
X262838606Y-97617841D01*
X262835894Y-97627117D01*
X262776487Y-97804364D01*
X262775666Y-97806733D01*
X262714311Y-97978207D01*
X262710994Y-97986519D01*
X262635286Y-98157980D01*
X262633947Y-98160909D01*
X262556291Y-98325102D01*
X262552525Y-98332425D01*
X262461171Y-98496435D01*
X262459200Y-98499845D01*
X262365999Y-98655342D01*
X262361940Y-98661670D01*
X262255742Y-98816699D01*
X262253041Y-98820489D01*
X262145135Y-98965984D01*
X262140935Y-98971334D01*
X262020851Y-99115947D01*
X262017331Y-99120004D01*
X261895717Y-99254183D01*
X261891520Y-99258590D01*
X261758590Y-99391520D01*
X261754183Y-99395717D01*
X261620004Y-99517331D01*
X261615947Y-99520851D01*
X261471334Y-99640935D01*
X261465984Y-99645135D01*
X261320489Y-99753041D01*
X261316699Y-99755742D01*
X261161670Y-99861940D01*
X261155342Y-99865999D01*
X260999845Y-99959200D01*
X260996435Y-99961171D01*
X260832425Y-100052525D01*
X260825102Y-100056291D01*
X260660909Y-100133947D01*
X260657980Y-100135286D01*
X260486519Y-100210994D01*
X260478207Y-100214311D01*
X260306733Y-100275666D01*
X260304364Y-100276487D01*
X260127117Y-100335894D01*
X260117841Y-100338606D01*
X259940195Y-100383104D01*
X259938455Y-100383526D01*
X259757436Y-100426101D01*
X259747240Y-100428053D01*
X259563842Y-100455257D01*
X259562780Y-100455410D01*
X259380814Y-100480794D01*
X259369766Y-100481834D01*
X259172931Y-100491503D01*
X259172575Y-100491520D01*
X259007393Y-100499158D01*
X259002854Y-100499368D01*
X258997128Y-100499500D01*
X164002872Y-100499500D01*
X163997145Y-100499368D01*
X163992305Y-100499144D01*
X163827423Y-100491520D01*
X163827067Y-100491503D01*
X163630232Y-100481834D01*
X163619184Y-100480794D01*
X163437218Y-100455410D01*
X163436156Y-100455257D01*
X163252758Y-100428053D01*
X163242562Y-100426101D01*
X163061543Y-100383526D01*
X163059803Y-100383104D01*
X162882157Y-100338606D01*
X162872881Y-100335894D01*
X162695634Y-100276487D01*
X162693265Y-100275666D01*
X162521791Y-100214311D01*
X162513479Y-100210994D01*
X162342018Y-100135286D01*
X162339089Y-100133947D01*
X162174896Y-100056291D01*
X162167573Y-100052525D01*
X162003563Y-99961171D01*
X162000153Y-99959200D01*
X161871289Y-99881962D01*
X161844645Y-99865992D01*
X161838328Y-99861940D01*
X161683299Y-99755742D01*
X161679509Y-99753041D01*
X161534000Y-99645124D01*
X161528684Y-99640951D01*
X161383998Y-99520805D01*
X161380045Y-99517375D01*
X161245795Y-99395698D01*
X161241408Y-99391520D01*
X161108478Y-99258590D01*
X161104303Y-99254206D01*
X160982617Y-99119947D01*
X160979200Y-99116009D01*
X160859040Y-98971305D01*
X160854882Y-98966009D01*
X160746935Y-98820459D01*
X160744256Y-98816699D01*
X160638058Y-98661670D01*
X160634017Y-98655371D01*
X160540777Y-98499810D01*
X160538827Y-98496435D01*
X160462484Y-98359374D01*
X160447465Y-98332411D01*
X160443715Y-98325119D01*
X160383868Y-98198581D01*
X160366051Y-98160909D01*
X160364712Y-98157980D01*
X160289004Y-97986519D01*
X160285692Y-97978220D01*
X160224292Y-97806618D01*
X160223550Y-97804478D01*
X160164096Y-97627091D01*
X160161401Y-97617874D01*
X160116852Y-97440023D01*
X160116510Y-97438614D01*
X160073892Y-97257413D01*
X160071949Y-97247261D01*
X160044732Y-97063781D01*
X160044588Y-97062780D01*
X160019201Y-96880787D01*
X160018166Y-96869795D01*
X160008480Y-96672611D01*
X160004814Y-96593317D01*
X160495774Y-96593317D01*
X160525545Y-96965265D01*
X160576387Y-97234906D01*
X160594685Y-97331944D01*
X160702403Y-97689186D01*
X160847490Y-98032967D01*
X161028292Y-98359371D01*
X161242772Y-98664718D01*
X161379075Y-98820489D01*
X161488484Y-98945525D01*
X161605985Y-99053997D01*
X161762659Y-99198632D01*
X162062169Y-99421150D01*
X162062175Y-99421153D01*
X162062177Y-99421155D01*
X162231370Y-99520851D01*
X162383657Y-99610585D01*
X162723449Y-99764770D01*
X162914833Y-99828083D01*
X163077702Y-99881963D01*
X163442408Y-99960838D01*
X163813431Y-100000500D01*
X164093213Y-100000500D01*
X164093218Y-100000500D01*
X164326042Y-99988090D01*
X164372608Y-99985609D01*
X164740995Y-99926256D01*
X165100986Y-99828083D01*
X165448502Y-99692201D01*
X165779606Y-99520150D01*
X166090547Y-99313880D01*
X166377800Y-99075727D01*
X166638113Y-98808391D01*
X166868534Y-98514899D01*
X167066454Y-98198578D01*
X167229630Y-97863011D01*
X167250780Y-97804364D01*
X167314698Y-97627117D01*
X167356212Y-97512000D01*
X167444768Y-97149524D01*
X167494293Y-96779688D01*
X167499256Y-96593317D01*
X255495774Y-96593317D01*
X255525545Y-96965265D01*
X255576387Y-97234906D01*
X255594685Y-97331944D01*
X255702403Y-97689186D01*
X255847490Y-98032967D01*
X256028292Y-98359371D01*
X256242772Y-98664718D01*
X256379075Y-98820489D01*
X256488484Y-98945525D01*
X256605985Y-99053997D01*
X256762659Y-99198632D01*
X257062169Y-99421150D01*
X257062175Y-99421153D01*
X257062177Y-99421155D01*
X257231370Y-99520851D01*
X257383657Y-99610585D01*
X257723449Y-99764770D01*
X257914833Y-99828083D01*
X258077702Y-99881963D01*
X258442408Y-99960838D01*
X258813431Y-100000500D01*
X259093213Y-100000500D01*
X259093218Y-100000500D01*
X259326042Y-99988090D01*
X259372608Y-99985609D01*
X259740995Y-99926256D01*
X260100986Y-99828083D01*
X260448502Y-99692201D01*
X260779606Y-99520150D01*
X261090547Y-99313880D01*
X261377800Y-99075727D01*
X261638113Y-98808391D01*
X261868534Y-98514899D01*
X262066454Y-98198578D01*
X262229630Y-97863011D01*
X262250780Y-97804364D01*
X262314698Y-97627117D01*
X262356212Y-97512000D01*
X262444768Y-97149524D01*
X262494293Y-96779688D01*
X262504226Y-96406683D01*
X262474455Y-96034735D01*
X262405316Y-95668059D01*
X262297595Y-95310809D01*
X262152510Y-94967033D01*
X261971706Y-94640626D01*
X261757231Y-94335287D01*
X261757227Y-94335281D01*
X261511518Y-94054477D01*
X261237340Y-93801367D01*
X260937830Y-93578849D01*
X260616342Y-93389414D01*
X260276550Y-93235229D01*
X259922300Y-93118037D01*
X259557595Y-93039162D01*
X259398582Y-93022164D01*
X259186569Y-92999500D01*
X258906787Y-92999500D01*
X258906782Y-92999500D01*
X258627392Y-93014390D01*
X258259005Y-93073743D01*
X257899017Y-93171916D01*
X257551500Y-93307798D01*
X257551498Y-93307798D01*
X257551498Y-93307799D01*
X257220394Y-93479850D01*
X257220391Y-93479851D01*
X257220389Y-93479853D01*
X256909454Y-93686118D01*
X256622199Y-93924274D01*
X256361884Y-94191611D01*
X256131466Y-94485099D01*
X255933547Y-94801418D01*
X255770368Y-95136990D01*
X255643787Y-95488000D01*
X255555232Y-95850473D01*
X255555232Y-95850476D01*
X255505707Y-96220312D01*
X255495774Y-96593317D01*
X167499256Y-96593317D01*
X167504226Y-96406683D01*
X167474455Y-96034735D01*
X167405316Y-95668059D01*
X167297595Y-95310809D01*
X167152510Y-94967033D01*
X166971706Y-94640626D01*
X166757231Y-94335287D01*
X166757227Y-94335281D01*
X166511518Y-94054477D01*
X166237340Y-93801367D01*
X165937830Y-93578849D01*
X165616342Y-93389414D01*
X165276550Y-93235229D01*
X164922300Y-93118037D01*
X164557595Y-93039162D01*
X164398582Y-93022164D01*
X164186569Y-92999500D01*
X163906787Y-92999500D01*
X163906782Y-92999500D01*
X163627392Y-93014390D01*
X163259005Y-93073743D01*
X162899017Y-93171916D01*
X162551500Y-93307798D01*
X162551498Y-93307798D01*
X162551498Y-93307799D01*
X162220394Y-93479850D01*
X162220391Y-93479851D01*
X162220389Y-93479853D01*
X161909454Y-93686118D01*
X161622199Y-93924274D01*
X161361884Y-94191611D01*
X161131466Y-94485099D01*
X160933547Y-94801418D01*
X160770368Y-95136990D01*
X160643787Y-95488000D01*
X160555232Y-95850473D01*
X160555232Y-95850476D01*
X160505707Y-96220312D01*
X160495774Y-96593317D01*
X160004814Y-96593317D01*
X160000632Y-96502854D01*
X160000500Y-96497128D01*
X160000500Y-91650000D01*
X193249459Y-91650000D01*
X193249500Y-91650099D01*
X193249617Y-91650383D01*
X193249618Y-91650384D01*
X193249808Y-91650462D01*
X193250000Y-91650541D01*
X193250002Y-91650539D01*
X193274616Y-91650524D01*
X193274616Y-91650528D01*
X193274760Y-91650500D01*
X199725240Y-91650500D01*
X199725383Y-91650528D01*
X199725384Y-91650524D01*
X199749997Y-91650539D01*
X199750000Y-91650541D01*
X199750383Y-91650383D01*
X199750500Y-91650099D01*
X199750541Y-91650000D01*
X238399459Y-91650000D01*
X238399500Y-91650099D01*
X238399617Y-91650383D01*
X238399618Y-91650384D01*
X238399808Y-91650462D01*
X238400000Y-91650541D01*
X238400002Y-91650539D01*
X238424616Y-91650524D01*
X238424616Y-91650528D01*
X238424760Y-91650500D01*
X250575240Y-91650500D01*
X250575383Y-91650528D01*
X250575384Y-91650524D01*
X250599997Y-91650539D01*
X250600000Y-91650541D01*
X250600383Y-91650383D01*
X250600500Y-91650099D01*
X250600541Y-91650000D01*
X250600541Y-91625446D01*
X250600500Y-91625240D01*
X250600500Y-86150000D01*
X253994356Y-86150000D01*
X254014891Y-86397816D01*
X254014891Y-86397819D01*
X254014892Y-86397821D01*
X254075937Y-86638881D01*
X254120960Y-86741523D01*
X254175825Y-86866604D01*
X254175827Y-86866607D01*
X254311836Y-87074785D01*
X254480256Y-87257738D01*
X254480259Y-87257740D01*
X254676485Y-87410470D01*
X254676487Y-87410471D01*
X254676491Y-87410474D01*
X254895190Y-87528828D01*
X255130386Y-87609571D01*
X255375665Y-87650500D01*
X255624335Y-87650500D01*
X255869614Y-87609571D01*
X256104810Y-87528828D01*
X256323509Y-87410474D01*
X256519744Y-87257738D01*
X256688164Y-87074785D01*
X256824173Y-86866607D01*
X256924063Y-86638881D01*
X256985108Y-86397821D01*
X257005643Y-86150000D01*
X256985108Y-85902179D01*
X256924063Y-85661119D01*
X256824173Y-85433393D01*
X256688164Y-85225215D01*
X256519744Y-85042262D01*
X256497612Y-85025036D01*
X256323514Y-84889529D01*
X256323510Y-84889526D01*
X256323509Y-84889526D01*
X256104810Y-84771172D01*
X256104806Y-84771170D01*
X256104805Y-84771170D01*
X255869615Y-84690429D01*
X255624335Y-84649500D01*
X255375665Y-84649500D01*
X255130384Y-84690429D01*
X254895194Y-84771170D01*
X254676485Y-84889529D01*
X254480259Y-85042259D01*
X254311837Y-85225214D01*
X254175825Y-85433395D01*
X254085780Y-85638678D01*
X254075937Y-85661119D01*
X254018207Y-85889089D01*
X254014891Y-85902183D01*
X253994356Y-86150000D01*
X250600500Y-86150000D01*
X250600500Y-80674760D01*
X250600528Y-80674616D01*
X250600524Y-80674616D01*
X250600539Y-80650002D01*
X250600541Y-80650000D01*
X250600461Y-80649808D01*
X250600384Y-80649618D01*
X250600380Y-80649614D01*
X250600194Y-80649538D01*
X250600002Y-80649459D01*
X250575446Y-80649459D01*
X250575240Y-80649500D01*
X238424760Y-80649500D01*
X238424554Y-80649459D01*
X238399998Y-80649459D01*
X238399807Y-80649538D01*
X238399619Y-80649615D01*
X238399615Y-80649618D01*
X238399459Y-80649999D01*
X238399476Y-80674616D01*
X238399471Y-80674616D01*
X238399500Y-80674760D01*
X238399500Y-91625240D01*
X238399459Y-91625446D01*
X238399459Y-91650000D01*
X199750541Y-91650000D01*
X199750541Y-91625446D01*
X199750500Y-91625240D01*
X199750500Y-81674760D01*
X199750528Y-81674616D01*
X199750524Y-81674616D01*
X199750539Y-81650002D01*
X199750541Y-81650000D01*
X207994356Y-81650000D01*
X208014891Y-81897816D01*
X208014891Y-81897819D01*
X208014892Y-81897821D01*
X208075937Y-82138881D01*
X208106443Y-82208427D01*
X208175825Y-82366604D01*
X208175827Y-82366607D01*
X208311836Y-82574785D01*
X208480256Y-82757738D01*
X208488480Y-82764139D01*
X208676485Y-82910470D01*
X208676487Y-82910471D01*
X208676491Y-82910474D01*
X208895190Y-83028828D01*
X209130386Y-83109571D01*
X209375665Y-83150500D01*
X209624335Y-83150500D01*
X209869614Y-83109571D01*
X210104810Y-83028828D01*
X210323509Y-82910474D01*
X210519744Y-82757738D01*
X210688164Y-82574785D01*
X210824173Y-82366607D01*
X210924063Y-82138881D01*
X210985108Y-81897821D01*
X211005643Y-81650000D01*
X214494622Y-81650000D01*
X214514123Y-82208417D01*
X214572531Y-82764139D01*
X214669558Y-83314404D01*
X214804739Y-83856585D01*
X214977405Y-84387997D01*
X215186726Y-84906086D01*
X215431669Y-85408293D01*
X215711051Y-85892197D01*
X215711054Y-85892202D01*
X215711055Y-85892203D01*
X216023514Y-86355443D01*
X216367525Y-86795757D01*
X216741414Y-87211002D01*
X217070532Y-87528828D01*
X217143360Y-87599157D01*
X217571398Y-87958324D01*
X217984668Y-88258581D01*
X218023450Y-88286758D01*
X218497311Y-88582860D01*
X218990674Y-88845185D01*
X219501133Y-89072456D01*
X220026202Y-89263566D01*
X220563324Y-89417583D01*
X220761355Y-89459675D01*
X221109878Y-89533757D01*
X221343176Y-89566544D01*
X221663210Y-89611523D01*
X222220616Y-89650500D01*
X222779383Y-89650500D01*
X222779384Y-89650500D01*
X223336790Y-89611523D01*
X223734588Y-89555615D01*
X223890121Y-89533757D01*
X224122468Y-89484369D01*
X224436676Y-89417583D01*
X224973798Y-89263566D01*
X225498867Y-89072456D01*
X226009326Y-88845185D01*
X226502689Y-88582860D01*
X226976550Y-88286758D01*
X227428602Y-87958323D01*
X227856643Y-87599154D01*
X228258586Y-87211002D01*
X228632475Y-86795757D01*
X228976486Y-86355443D01*
X229288945Y-85892203D01*
X229568328Y-85408297D01*
X229813276Y-84906080D01*
X230022594Y-84388000D01*
X230195262Y-83856581D01*
X230330440Y-83314411D01*
X230427469Y-82764133D01*
X230485876Y-82208427D01*
X230505377Y-81650000D01*
X230485876Y-81091573D01*
X230427469Y-80535867D01*
X230330440Y-79985589D01*
X230195262Y-79443419D01*
X230022594Y-78912000D01*
X229813276Y-78393920D01*
X229569674Y-77894462D01*
X229568330Y-77891706D01*
X229288948Y-77407802D01*
X229288945Y-77407797D01*
X228976486Y-76944557D01*
X228958202Y-76921155D01*
X228688324Y-76575727D01*
X228632475Y-76504243D01*
X228258586Y-76088998D01*
X227856643Y-75700846D01*
X227856644Y-75700846D01*
X227856639Y-75700842D01*
X227428601Y-75341675D01*
X226976553Y-75013244D01*
X226502691Y-74717141D01*
X226375521Y-74649524D01*
X226009326Y-74454815D01*
X225754096Y-74341179D01*
X225498868Y-74227544D01*
X225130083Y-74093317D01*
X255495774Y-74093317D01*
X255525545Y-74465265D01*
X255573997Y-74722230D01*
X255594685Y-74831944D01*
X255702403Y-75189186D01*
X255847490Y-75532967D01*
X256028292Y-75859371D01*
X256242772Y-76164718D01*
X256488481Y-76445522D01*
X256762659Y-76698632D01*
X257062169Y-76921150D01*
X257062175Y-76921153D01*
X257062177Y-76921155D01*
X257383655Y-77110584D01*
X257383657Y-77110585D01*
X257723449Y-77264770D01*
X257914833Y-77328083D01*
X258077702Y-77381963D01*
X258442408Y-77460838D01*
X258813431Y-77500500D01*
X259093213Y-77500500D01*
X259093218Y-77500500D01*
X259326042Y-77488090D01*
X259372608Y-77485609D01*
X259740995Y-77426256D01*
X260100986Y-77328083D01*
X260448502Y-77192201D01*
X260779606Y-77020150D01*
X261090547Y-76813880D01*
X261377800Y-76575727D01*
X261638113Y-76308391D01*
X261868534Y-76014899D01*
X262066454Y-75698578D01*
X262229630Y-75363011D01*
X262235654Y-75346308D01*
X262356212Y-75011999D01*
X262427005Y-74722230D01*
X262444768Y-74649524D01*
X262494293Y-74279688D01*
X262504226Y-73906683D01*
X262474455Y-73534735D01*
X262405316Y-73168059D01*
X262297595Y-72810809D01*
X262152510Y-72467033D01*
X261971706Y-72140626D01*
X261757231Y-71835287D01*
X261757227Y-71835281D01*
X261511518Y-71554477D01*
X261483556Y-71528664D01*
X261433181Y-71482159D01*
X261237340Y-71301367D01*
X260937830Y-71078849D01*
X260616342Y-70889414D01*
X260276550Y-70735229D01*
X259922300Y-70618037D01*
X259557595Y-70539162D01*
X259398582Y-70522164D01*
X259186569Y-70499500D01*
X258906787Y-70499500D01*
X258906782Y-70499500D01*
X258627392Y-70514390D01*
X258259005Y-70573743D01*
X257899017Y-70671916D01*
X257551500Y-70807798D01*
X257551498Y-70807798D01*
X257551498Y-70807799D01*
X257220394Y-70979850D01*
X257220391Y-70979851D01*
X257220389Y-70979853D01*
X256909454Y-71186118D01*
X256622199Y-71424274D01*
X256361884Y-71691611D01*
X256131466Y-71985099D01*
X255933547Y-72301418D01*
X255770368Y-72636990D01*
X255643787Y-72988000D01*
X255555232Y-73350473D01*
X255505707Y-73720312D01*
X255498183Y-74002872D01*
X255495774Y-74093317D01*
X225130083Y-74093317D01*
X224973787Y-74036430D01*
X224436678Y-73882417D01*
X223890121Y-73766242D01*
X223336792Y-73688477D01*
X222863373Y-73655373D01*
X222779384Y-73649500D01*
X222220616Y-73649500D01*
X222136627Y-73655373D01*
X221663207Y-73688477D01*
X221109878Y-73766242D01*
X220563321Y-73882417D01*
X220026212Y-74036430D01*
X219501131Y-74227544D01*
X218990674Y-74454815D01*
X218497309Y-74717141D01*
X218023446Y-75013244D01*
X217571398Y-75341675D01*
X217143360Y-75700842D01*
X216741412Y-76089000D01*
X216367523Y-76504245D01*
X216023519Y-76944549D01*
X215711051Y-77407802D01*
X215431669Y-77891706D01*
X215186726Y-78393913D01*
X214977405Y-78912002D01*
X214804739Y-79443414D01*
X214669558Y-79985595D01*
X214572531Y-80535860D01*
X214514123Y-81091582D01*
X214494622Y-81650000D01*
X211005643Y-81650000D01*
X210985108Y-81402179D01*
X210924063Y-81161119D01*
X210824173Y-80933393D01*
X210688164Y-80725215D01*
X210519744Y-80542262D01*
X210497612Y-80525036D01*
X210323514Y-80389529D01*
X210323510Y-80389526D01*
X210323509Y-80389526D01*
X210104810Y-80271172D01*
X210104806Y-80271170D01*
X210104805Y-80271170D01*
X209869615Y-80190429D01*
X209624335Y-80149500D01*
X209375665Y-80149500D01*
X209130384Y-80190429D01*
X208895194Y-80271170D01*
X208676485Y-80389529D01*
X208480259Y-80542259D01*
X208311837Y-80725214D01*
X208175825Y-80933395D01*
X208106439Y-81091582D01*
X208075937Y-81161119D01*
X208014892Y-81402179D01*
X208014891Y-81402183D01*
X207994356Y-81650000D01*
X199750541Y-81650000D01*
X199750462Y-81649808D01*
X199750384Y-81649618D01*
X199750380Y-81649614D01*
X199750194Y-81649538D01*
X199750002Y-81649459D01*
X199725446Y-81649459D01*
X199725240Y-81649500D01*
X193274760Y-81649500D01*
X193274554Y-81649459D01*
X193249998Y-81649459D01*
X193249807Y-81649538D01*
X193249619Y-81649615D01*
X193249615Y-81649618D01*
X193249459Y-81649999D01*
X193249476Y-81674616D01*
X193249471Y-81674616D01*
X193249500Y-81674760D01*
X193249500Y-91625240D01*
X193249459Y-91625446D01*
X193249459Y-91650000D01*
X160000500Y-91650000D01*
X160000500Y-81650000D01*
X170494622Y-81650000D01*
X170514123Y-82208417D01*
X170572531Y-82764139D01*
X170669558Y-83314404D01*
X170804739Y-83856585D01*
X170977405Y-84387997D01*
X171186726Y-84906086D01*
X171431669Y-85408293D01*
X171711051Y-85892197D01*
X171711054Y-85892202D01*
X171711055Y-85892203D01*
X172023514Y-86355443D01*
X172367525Y-86795757D01*
X172741414Y-87211002D01*
X173070532Y-87528828D01*
X173143360Y-87599157D01*
X173571398Y-87958324D01*
X173984668Y-88258581D01*
X174023450Y-88286758D01*
X174497311Y-88582860D01*
X174990674Y-88845185D01*
X175501133Y-89072456D01*
X176026202Y-89263566D01*
X176563324Y-89417583D01*
X176761355Y-89459675D01*
X177109878Y-89533757D01*
X177343176Y-89566544D01*
X177663210Y-89611523D01*
X178220616Y-89650500D01*
X178779383Y-89650500D01*
X178779384Y-89650500D01*
X179336790Y-89611523D01*
X179734588Y-89555615D01*
X179890121Y-89533757D01*
X180122468Y-89484369D01*
X180436676Y-89417583D01*
X180973798Y-89263566D01*
X181498867Y-89072456D01*
X182009326Y-88845185D01*
X182502689Y-88582860D01*
X182976550Y-88286758D01*
X183428602Y-87958323D01*
X183856643Y-87599154D01*
X184258586Y-87211002D01*
X184632475Y-86795757D01*
X184976486Y-86355443D01*
X185288945Y-85892203D01*
X185568328Y-85408297D01*
X185813276Y-84906080D01*
X186022594Y-84388000D01*
X186195262Y-83856581D01*
X186330440Y-83314411D01*
X186427469Y-82764133D01*
X186485876Y-82208427D01*
X186505377Y-81650000D01*
X186485876Y-81091573D01*
X186427469Y-80535867D01*
X186330440Y-79985589D01*
X186195262Y-79443419D01*
X186022594Y-78912000D01*
X185813276Y-78393920D01*
X185569674Y-77894462D01*
X185568330Y-77891706D01*
X185288948Y-77407802D01*
X185288945Y-77407797D01*
X184976486Y-76944557D01*
X184958202Y-76921155D01*
X184688324Y-76575727D01*
X184632475Y-76504243D01*
X184258586Y-76088998D01*
X183856643Y-75700846D01*
X183856644Y-75700846D01*
X183856639Y-75700842D01*
X183428601Y-75341675D01*
X182976553Y-75013244D01*
X182502691Y-74717141D01*
X182375521Y-74649524D01*
X182009326Y-74454815D01*
X181754096Y-74341179D01*
X181498868Y-74227544D01*
X180973787Y-74036430D01*
X180436678Y-73882417D01*
X179890121Y-73766242D01*
X179336792Y-73688477D01*
X178863373Y-73655373D01*
X178779384Y-73649500D01*
X178220616Y-73649500D01*
X178136627Y-73655373D01*
X177663207Y-73688477D01*
X177109878Y-73766242D01*
X176563321Y-73882417D01*
X176026212Y-74036430D01*
X175501131Y-74227544D01*
X174990674Y-74454815D01*
X174497309Y-74717141D01*
X174023446Y-75013244D01*
X173571398Y-75341675D01*
X173143360Y-75700842D01*
X172741412Y-76089000D01*
X172367523Y-76504245D01*
X172023519Y-76944549D01*
X171711051Y-77407802D01*
X171431669Y-77891706D01*
X171186726Y-78393913D01*
X170977405Y-78912002D01*
X170804739Y-79443414D01*
X170669558Y-79985595D01*
X170572531Y-80535860D01*
X170514123Y-81091582D01*
X170494622Y-81650000D01*
X160000500Y-81650000D01*
X160000500Y-74093317D01*
X160495774Y-74093317D01*
X160525545Y-74465265D01*
X160573997Y-74722230D01*
X160594685Y-74831944D01*
X160702403Y-75189186D01*
X160847490Y-75532967D01*
X161028292Y-75859371D01*
X161242772Y-76164718D01*
X161488481Y-76445522D01*
X161762659Y-76698632D01*
X162062169Y-76921150D01*
X162062175Y-76921153D01*
X162062177Y-76921155D01*
X162383655Y-77110584D01*
X162383657Y-77110585D01*
X162723449Y-77264770D01*
X162914833Y-77328083D01*
X163077702Y-77381963D01*
X163442408Y-77460838D01*
X163813431Y-77500500D01*
X164093213Y-77500500D01*
X164093218Y-77500500D01*
X164326042Y-77488090D01*
X164372608Y-77485609D01*
X164740995Y-77426256D01*
X165100986Y-77328083D01*
X165448502Y-77192201D01*
X165779606Y-77020150D01*
X166090547Y-76813880D01*
X166377800Y-76575727D01*
X166638113Y-76308391D01*
X166868534Y-76014899D01*
X167066454Y-75698578D01*
X167229630Y-75363011D01*
X167235654Y-75346308D01*
X167356212Y-75011999D01*
X167427005Y-74722230D01*
X167444768Y-74649524D01*
X167494293Y-74279688D01*
X167504226Y-73906683D01*
X167474455Y-73534735D01*
X167405316Y-73168059D01*
X167297595Y-72810809D01*
X167152510Y-72467033D01*
X166971706Y-72140626D01*
X166757231Y-71835287D01*
X166757227Y-71835281D01*
X166511518Y-71554477D01*
X166483556Y-71528664D01*
X166433181Y-71482159D01*
X166237340Y-71301367D01*
X165937830Y-71078849D01*
X165616342Y-70889414D01*
X165276550Y-70735229D01*
X164922300Y-70618037D01*
X164557595Y-70539162D01*
X164398582Y-70522164D01*
X164186569Y-70499500D01*
X163906787Y-70499500D01*
X163906782Y-70499500D01*
X163627392Y-70514390D01*
X163259005Y-70573743D01*
X162899017Y-70671916D01*
X162551500Y-70807798D01*
X162551498Y-70807798D01*
X162551498Y-70807799D01*
X162220394Y-70979850D01*
X162220391Y-70979851D01*
X162220389Y-70979853D01*
X161909454Y-71186118D01*
X161622199Y-71424274D01*
X161361884Y-71691611D01*
X161131466Y-71985099D01*
X160933547Y-72301418D01*
X160770368Y-72636990D01*
X160643787Y-72988000D01*
X160555232Y-73350473D01*
X160505707Y-73720312D01*
X160498183Y-74002872D01*
X160495774Y-74093317D01*
X160000500Y-74093317D01*
X160000500Y-74002872D01*
X160000632Y-73997146D01*
X160004814Y-73906683D01*
X160008490Y-73827168D01*
X160018166Y-73630200D01*
X160019200Y-73619217D01*
X160044611Y-73437054D01*
X160044722Y-73436286D01*
X160071950Y-73252729D01*
X160073890Y-73242595D01*
X160116526Y-73061318D01*
X160116837Y-73060037D01*
X160161405Y-72882111D01*
X160164091Y-72872922D01*
X160223572Y-72695457D01*
X160224270Y-72693442D01*
X160285699Y-72521759D01*
X160288996Y-72513497D01*
X160364713Y-72342015D01*
X160366051Y-72339089D01*
X160383868Y-72301418D01*
X160443727Y-72174855D01*
X160447452Y-72167612D01*
X160538864Y-72003497D01*
X160540745Y-72000243D01*
X160634036Y-71844598D01*
X160638034Y-71838363D01*
X160744270Y-71683278D01*
X160746899Y-71679590D01*
X160854909Y-71533954D01*
X160859011Y-71528728D01*
X160979239Y-71383944D01*
X160982577Y-71380097D01*
X161104340Y-71245752D01*
X161108437Y-71241450D01*
X161241450Y-71108437D01*
X161245752Y-71104340D01*
X161380097Y-70982577D01*
X161383944Y-70979239D01*
X161528728Y-70859011D01*
X161533954Y-70854909D01*
X161679590Y-70746899D01*
X161683278Y-70744270D01*
X161838363Y-70638034D01*
X161844598Y-70634036D01*
X162000243Y-70540745D01*
X162003497Y-70538864D01*
X162167612Y-70447452D01*
X162174855Y-70443727D01*
X162339098Y-70366046D01*
X162342018Y-70364712D01*
X162406007Y-70336458D01*
X162513497Y-70288996D01*
X162521759Y-70285699D01*
X162693442Y-70224270D01*
X162695457Y-70223572D01*
X162872922Y-70164091D01*
X162882111Y-70161405D01*
X163060037Y-70116837D01*
X163061318Y-70116526D01*
X163242595Y-70073890D01*
X163252729Y-70071950D01*
X163436286Y-70044722D01*
X163437054Y-70044611D01*
X163619217Y-70019200D01*
X163630200Y-70018166D01*
X163826898Y-70008502D01*
X163991674Y-70000884D01*
X163997146Y-70000632D01*
X164002872Y-70000500D01*
X258997128Y-70000500D01*
X259002854Y-70000632D01*
G37*
%TD.AperFunction*%
%TD*%
M02*
