%TF.GenerationSoftware,KiCad,Pcbnew,7.0.1*%
%TF.CreationDate,2023-12-17T22:32:57-05:00*%
%TF.ProjectId,channel_splitter,6368616e-6e65-46c5-9f73-706c69747465,rev?*%
%TF.SameCoordinates,Original*%
%TF.FileFunction,Legend,Bot*%
%TF.FilePolarity,Positive*%
%FSLAX46Y46*%
G04 Gerber Fmt 4.6, Leading zero omitted, Abs format (unit mm)*
G04 Created by KiCad (PCBNEW 7.0.1) date 2023-12-17 22:32:57*
%MOMM*%
%LPD*%
G01*
G04 APERTURE LIST*
%ADD10C,0.150000*%
%ADD11C,4.000000*%
G04 APERTURE END LIST*
D10*
X216119048Y-98962619D02*
X216119048Y-99676904D01*
X216119048Y-99676904D02*
X216166667Y-99819761D01*
X216166667Y-99819761D02*
X216261905Y-99915000D01*
X216261905Y-99915000D02*
X216404762Y-99962619D01*
X216404762Y-99962619D02*
X216500000Y-99962619D01*
X215166667Y-99962619D02*
X215642857Y-99962619D01*
X215642857Y-99962619D02*
X215642857Y-98962619D01*
X214261905Y-99867380D02*
X214309524Y-99915000D01*
X214309524Y-99915000D02*
X214452381Y-99962619D01*
X214452381Y-99962619D02*
X214547619Y-99962619D01*
X214547619Y-99962619D02*
X214690476Y-99915000D01*
X214690476Y-99915000D02*
X214785714Y-99819761D01*
X214785714Y-99819761D02*
X214833333Y-99724523D01*
X214833333Y-99724523D02*
X214880952Y-99534047D01*
X214880952Y-99534047D02*
X214880952Y-99391190D01*
X214880952Y-99391190D02*
X214833333Y-99200714D01*
X214833333Y-99200714D02*
X214785714Y-99105476D01*
X214785714Y-99105476D02*
X214690476Y-99010238D01*
X214690476Y-99010238D02*
X214547619Y-98962619D01*
X214547619Y-98962619D02*
X214452381Y-98962619D01*
X214452381Y-98962619D02*
X214309524Y-99010238D01*
X214309524Y-99010238D02*
X214261905Y-99057857D01*
X213547619Y-98962619D02*
X213547619Y-99676904D01*
X213547619Y-99676904D02*
X213595238Y-99819761D01*
X213595238Y-99819761D02*
X213690476Y-99915000D01*
X213690476Y-99915000D02*
X213833333Y-99962619D01*
X213833333Y-99962619D02*
X213928571Y-99962619D01*
X212595238Y-99962619D02*
X213071428Y-99962619D01*
X213071428Y-99962619D02*
X213071428Y-98962619D01*
X211690476Y-99867380D02*
X211738095Y-99915000D01*
X211738095Y-99915000D02*
X211880952Y-99962619D01*
X211880952Y-99962619D02*
X211976190Y-99962619D01*
X211976190Y-99962619D02*
X212119047Y-99915000D01*
X212119047Y-99915000D02*
X212214285Y-99819761D01*
X212214285Y-99819761D02*
X212261904Y-99724523D01*
X212261904Y-99724523D02*
X212309523Y-99534047D01*
X212309523Y-99534047D02*
X212309523Y-99391190D01*
X212309523Y-99391190D02*
X212261904Y-99200714D01*
X212261904Y-99200714D02*
X212214285Y-99105476D01*
X212214285Y-99105476D02*
X212119047Y-99010238D01*
X212119047Y-99010238D02*
X211976190Y-98962619D01*
X211976190Y-98962619D02*
X211880952Y-98962619D01*
X211880952Y-98962619D02*
X211738095Y-99010238D01*
X211738095Y-99010238D02*
X211690476Y-99057857D01*
X210976190Y-98962619D02*
X210976190Y-99676904D01*
X210976190Y-99676904D02*
X211023809Y-99819761D01*
X211023809Y-99819761D02*
X211119047Y-99915000D01*
X211119047Y-99915000D02*
X211261904Y-99962619D01*
X211261904Y-99962619D02*
X211357142Y-99962619D01*
X210023809Y-99962619D02*
X210499999Y-99962619D01*
X210499999Y-99962619D02*
X210499999Y-98962619D01*
X209119047Y-99867380D02*
X209166666Y-99915000D01*
X209166666Y-99915000D02*
X209309523Y-99962619D01*
X209309523Y-99962619D02*
X209404761Y-99962619D01*
X209404761Y-99962619D02*
X209547618Y-99915000D01*
X209547618Y-99915000D02*
X209642856Y-99819761D01*
X209642856Y-99819761D02*
X209690475Y-99724523D01*
X209690475Y-99724523D02*
X209738094Y-99534047D01*
X209738094Y-99534047D02*
X209738094Y-99391190D01*
X209738094Y-99391190D02*
X209690475Y-99200714D01*
X209690475Y-99200714D02*
X209642856Y-99105476D01*
X209642856Y-99105476D02*
X209547618Y-99010238D01*
X209547618Y-99010238D02*
X209404761Y-98962619D01*
X209404761Y-98962619D02*
X209309523Y-98962619D01*
X209309523Y-98962619D02*
X209166666Y-99010238D01*
X209166666Y-99010238D02*
X209119047Y-99057857D01*
X208404761Y-98962619D02*
X208404761Y-99676904D01*
X208404761Y-99676904D02*
X208452380Y-99819761D01*
X208452380Y-99819761D02*
X208547618Y-99915000D01*
X208547618Y-99915000D02*
X208690475Y-99962619D01*
X208690475Y-99962619D02*
X208785713Y-99962619D01*
X207452380Y-99962619D02*
X207928570Y-99962619D01*
X207928570Y-99962619D02*
X207928570Y-98962619D01*
X206547618Y-99867380D02*
X206595237Y-99915000D01*
X206595237Y-99915000D02*
X206738094Y-99962619D01*
X206738094Y-99962619D02*
X206833332Y-99962619D01*
X206833332Y-99962619D02*
X206976189Y-99915000D01*
X206976189Y-99915000D02*
X207071427Y-99819761D01*
X207071427Y-99819761D02*
X207119046Y-99724523D01*
X207119046Y-99724523D02*
X207166665Y-99534047D01*
X207166665Y-99534047D02*
X207166665Y-99391190D01*
X207166665Y-99391190D02*
X207119046Y-99200714D01*
X207119046Y-99200714D02*
X207071427Y-99105476D01*
X207071427Y-99105476D02*
X206976189Y-99010238D01*
X206976189Y-99010238D02*
X206833332Y-98962619D01*
X206833332Y-98962619D02*
X206738094Y-98962619D01*
X206738094Y-98962619D02*
X206595237Y-99010238D01*
X206595237Y-99010238D02*
X206547618Y-99057857D01*
%LPC*%
D11*
%TO.C,H2*%
X259000000Y-74000000D03*
%TD*%
%TO.C,H6*%
X164000000Y-74000000D03*
%TD*%
%TO.C,H1*%
X259000000Y-96500000D03*
%TD*%
%TO.C,H5*%
X164000000Y-96500000D03*
%TD*%
M02*
