%TF.GenerationSoftware,KiCad,Pcbnew,7.0.1*%
%TF.CreationDate,2023-12-18T14:15:39-05:00*%
%TF.ProjectId,channel_splitter,6368616e-6e65-46c5-9f73-706c69747465,rev?*%
%TF.SameCoordinates,Original*%
%TF.FileFunction,Legend,Bot*%
%TF.FilePolarity,Positive*%
%FSLAX46Y46*%
G04 Gerber Fmt 4.6, Leading zero omitted, Abs format (unit mm)*
G04 Created by KiCad (PCBNEW 7.0.1) date 2023-12-18 14:15:39*
%MOMM*%
%LPD*%
G01*
G04 APERTURE LIST*
%ADD10C,0.150000*%
%ADD11C,4.000000*%
G04 APERTURE END LIST*
D10*
X216119048Y-98962619D02*
X216119048Y-99676904D01*
X216119048Y-99676904D02*
X216166667Y-99819761D01*
X216166667Y-99819761D02*
X216261905Y-99915000D01*
X216261905Y-99915000D02*
X216404762Y-99962619D01*
X216404762Y-99962619D02*
X216500000Y-99962619D01*
X215166667Y-99962619D02*
X215642857Y-99962619D01*
X215642857Y-99962619D02*
X215642857Y-98962619D01*
X214261905Y-99867380D02*
X214309524Y-99915000D01*
X214309524Y-99915000D02*
X214452381Y-99962619D01*
X214452381Y-99962619D02*
X214547619Y-99962619D01*
X214547619Y-99962619D02*
X214690476Y-99915000D01*
X214690476Y-99915000D02*
X214785714Y-99819761D01*
X214785714Y-99819761D02*
X214833333Y-99724523D01*
X214833333Y-99724523D02*
X214880952Y-99534047D01*
X214880952Y-99534047D02*
X214880952Y-99391190D01*
X214880952Y-99391190D02*
X214833333Y-99200714D01*
X214833333Y-99200714D02*
X214785714Y-99105476D01*
X214785714Y-99105476D02*
X214690476Y-99010238D01*
X214690476Y-99010238D02*
X214547619Y-98962619D01*
X214547619Y-98962619D02*
X214452381Y-98962619D01*
X214452381Y-98962619D02*
X214309524Y-99010238D01*
X214309524Y-99010238D02*
X214261905Y-99057857D01*
X213547619Y-98962619D02*
X213547619Y-99676904D01*
X213547619Y-99676904D02*
X213595238Y-99819761D01*
X213595238Y-99819761D02*
X213690476Y-99915000D01*
X213690476Y-99915000D02*
X213833333Y-99962619D01*
X213833333Y-99962619D02*
X213928571Y-99962619D01*
X212595238Y-99962619D02*
X213071428Y-99962619D01*
X213071428Y-99962619D02*
X213071428Y-98962619D01*
X211690476Y-99867380D02*
X211738095Y-99915000D01*
X211738095Y-99915000D02*
X211880952Y-99962619D01*
X211880952Y-99962619D02*
X211976190Y-99962619D01*
X211976190Y-99962619D02*
X212119047Y-99915000D01*
X212119047Y-99915000D02*
X212214285Y-99819761D01*
X212214285Y-99819761D02*
X212261904Y-99724523D01*
X212261904Y-99724523D02*
X212309523Y-99534047D01*
X212309523Y-99534047D02*
X212309523Y-99391190D01*
X212309523Y-99391190D02*
X212261904Y-99200714D01*
X212261904Y-99200714D02*
X212214285Y-99105476D01*
X212214285Y-99105476D02*
X212119047Y-99010238D01*
X212119047Y-99010238D02*
X211976190Y-98962619D01*
X211976190Y-98962619D02*
X211880952Y-98962619D01*
X211880952Y-98962619D02*
X211738095Y-99010238D01*
X211738095Y-99010238D02*
X211690476Y-99057857D01*
X210976190Y-98962619D02*
X210976190Y-99676904D01*
X210976190Y-99676904D02*
X211023809Y-99819761D01*
X211023809Y-99819761D02*
X211119047Y-99915000D01*
X211119047Y-99915000D02*
X211261904Y-99962619D01*
X211261904Y-99962619D02*
X211357142Y-99962619D01*
X210023809Y-99962619D02*
X210499999Y-99962619D01*
X210499999Y-99962619D02*
X210499999Y-98962619D01*
X209119047Y-99867380D02*
X209166666Y-99915000D01*
X209166666Y-99915000D02*
X209309523Y-99962619D01*
X209309523Y-99962619D02*
X209404761Y-99962619D01*
X209404761Y-99962619D02*
X209547618Y-99915000D01*
X209547618Y-99915000D02*
X209642856Y-99819761D01*
X209642856Y-99819761D02*
X209690475Y-99724523D01*
X209690475Y-99724523D02*
X209738094Y-99534047D01*
X209738094Y-99534047D02*
X209738094Y-99391190D01*
X209738094Y-99391190D02*
X209690475Y-99200714D01*
X209690475Y-99200714D02*
X209642856Y-99105476D01*
X209642856Y-99105476D02*
X209547618Y-99010238D01*
X209547618Y-99010238D02*
X209404761Y-98962619D01*
X209404761Y-98962619D02*
X209309523Y-98962619D01*
X209309523Y-98962619D02*
X209166666Y-99010238D01*
X209166666Y-99010238D02*
X209119047Y-99057857D01*
X208404761Y-98962619D02*
X208404761Y-99676904D01*
X208404761Y-99676904D02*
X208452380Y-99819761D01*
X208452380Y-99819761D02*
X208547618Y-99915000D01*
X208547618Y-99915000D02*
X208690475Y-99962619D01*
X208690475Y-99962619D02*
X208785713Y-99962619D01*
X207452380Y-99962619D02*
X207928570Y-99962619D01*
X207928570Y-99962619D02*
X207928570Y-98962619D01*
X206547618Y-99867380D02*
X206595237Y-99915000D01*
X206595237Y-99915000D02*
X206738094Y-99962619D01*
X206738094Y-99962619D02*
X206833332Y-99962619D01*
X206833332Y-99962619D02*
X206976189Y-99915000D01*
X206976189Y-99915000D02*
X207071427Y-99819761D01*
X207071427Y-99819761D02*
X207119046Y-99724523D01*
X207119046Y-99724523D02*
X207166665Y-99534047D01*
X207166665Y-99534047D02*
X207166665Y-99391190D01*
X207166665Y-99391190D02*
X207119046Y-99200714D01*
X207119046Y-99200714D02*
X207071427Y-99105476D01*
X207071427Y-99105476D02*
X206976189Y-99010238D01*
X206976189Y-99010238D02*
X206833332Y-98962619D01*
X206833332Y-98962619D02*
X206738094Y-98962619D01*
X206738094Y-98962619D02*
X206595237Y-99010238D01*
X206595237Y-99010238D02*
X206547618Y-99057857D01*
X223857144Y-93842619D02*
X223857144Y-92842619D01*
X223857144Y-92842619D02*
X223523811Y-93556904D01*
X223523811Y-93556904D02*
X223190478Y-92842619D01*
X223190478Y-92842619D02*
X223190478Y-93842619D01*
X222714287Y-93842619D02*
X222714287Y-92842619D01*
X222238097Y-93842619D02*
X222238097Y-92842619D01*
X222238097Y-92842619D02*
X222000002Y-92842619D01*
X222000002Y-92842619D02*
X221857145Y-92890238D01*
X221857145Y-92890238D02*
X221761907Y-92985476D01*
X221761907Y-92985476D02*
X221714288Y-93080714D01*
X221714288Y-93080714D02*
X221666669Y-93271190D01*
X221666669Y-93271190D02*
X221666669Y-93414047D01*
X221666669Y-93414047D02*
X221714288Y-93604523D01*
X221714288Y-93604523D02*
X221761907Y-93699761D01*
X221761907Y-93699761D02*
X221857145Y-93795000D01*
X221857145Y-93795000D02*
X222000002Y-93842619D01*
X222000002Y-93842619D02*
X222238097Y-93842619D01*
X221238097Y-93842619D02*
X221238097Y-92842619D01*
X219428574Y-93747380D02*
X219476193Y-93795000D01*
X219476193Y-93795000D02*
X219619050Y-93842619D01*
X219619050Y-93842619D02*
X219714288Y-93842619D01*
X219714288Y-93842619D02*
X219857145Y-93795000D01*
X219857145Y-93795000D02*
X219952383Y-93699761D01*
X219952383Y-93699761D02*
X220000002Y-93604523D01*
X220000002Y-93604523D02*
X220047621Y-93414047D01*
X220047621Y-93414047D02*
X220047621Y-93271190D01*
X220047621Y-93271190D02*
X220000002Y-93080714D01*
X220000002Y-93080714D02*
X219952383Y-92985476D01*
X219952383Y-92985476D02*
X219857145Y-92890238D01*
X219857145Y-92890238D02*
X219714288Y-92842619D01*
X219714288Y-92842619D02*
X219619050Y-92842619D01*
X219619050Y-92842619D02*
X219476193Y-92890238D01*
X219476193Y-92890238D02*
X219428574Y-92937857D01*
X219000002Y-93842619D02*
X219000002Y-92842619D01*
X218571431Y-93842619D02*
X218571431Y-93318809D01*
X218571431Y-93318809D02*
X218619050Y-93223571D01*
X218619050Y-93223571D02*
X218714288Y-93175952D01*
X218714288Y-93175952D02*
X218857145Y-93175952D01*
X218857145Y-93175952D02*
X218952383Y-93223571D01*
X218952383Y-93223571D02*
X219000002Y-93271190D01*
X217666669Y-93842619D02*
X217666669Y-93318809D01*
X217666669Y-93318809D02*
X217714288Y-93223571D01*
X217714288Y-93223571D02*
X217809526Y-93175952D01*
X217809526Y-93175952D02*
X218000002Y-93175952D01*
X218000002Y-93175952D02*
X218095240Y-93223571D01*
X217666669Y-93795000D02*
X217761907Y-93842619D01*
X217761907Y-93842619D02*
X218000002Y-93842619D01*
X218000002Y-93842619D02*
X218095240Y-93795000D01*
X218095240Y-93795000D02*
X218142859Y-93699761D01*
X218142859Y-93699761D02*
X218142859Y-93604523D01*
X218142859Y-93604523D02*
X218095240Y-93509285D01*
X218095240Y-93509285D02*
X218000002Y-93461666D01*
X218000002Y-93461666D02*
X217761907Y-93461666D01*
X217761907Y-93461666D02*
X217666669Y-93414047D01*
X217190478Y-93175952D02*
X217190478Y-93842619D01*
X217190478Y-93271190D02*
X217142859Y-93223571D01*
X217142859Y-93223571D02*
X217047621Y-93175952D01*
X217047621Y-93175952D02*
X216904764Y-93175952D01*
X216904764Y-93175952D02*
X216809526Y-93223571D01*
X216809526Y-93223571D02*
X216761907Y-93318809D01*
X216761907Y-93318809D02*
X216761907Y-93842619D01*
X216285716Y-93175952D02*
X216285716Y-93842619D01*
X216285716Y-93271190D02*
X216238097Y-93223571D01*
X216238097Y-93223571D02*
X216142859Y-93175952D01*
X216142859Y-93175952D02*
X216000002Y-93175952D01*
X216000002Y-93175952D02*
X215904764Y-93223571D01*
X215904764Y-93223571D02*
X215857145Y-93318809D01*
X215857145Y-93318809D02*
X215857145Y-93842619D01*
X215000002Y-93795000D02*
X215095240Y-93842619D01*
X215095240Y-93842619D02*
X215285716Y-93842619D01*
X215285716Y-93842619D02*
X215380954Y-93795000D01*
X215380954Y-93795000D02*
X215428573Y-93699761D01*
X215428573Y-93699761D02*
X215428573Y-93318809D01*
X215428573Y-93318809D02*
X215380954Y-93223571D01*
X215380954Y-93223571D02*
X215285716Y-93175952D01*
X215285716Y-93175952D02*
X215095240Y-93175952D01*
X215095240Y-93175952D02*
X215000002Y-93223571D01*
X215000002Y-93223571D02*
X214952383Y-93318809D01*
X214952383Y-93318809D02*
X214952383Y-93414047D01*
X214952383Y-93414047D02*
X215428573Y-93509285D01*
X214380954Y-93842619D02*
X214476192Y-93795000D01*
X214476192Y-93795000D02*
X214523811Y-93699761D01*
X214523811Y-93699761D02*
X214523811Y-92842619D01*
X213285715Y-93795000D02*
X213142858Y-93842619D01*
X213142858Y-93842619D02*
X212904763Y-93842619D01*
X212904763Y-93842619D02*
X212809525Y-93795000D01*
X212809525Y-93795000D02*
X212761906Y-93747380D01*
X212761906Y-93747380D02*
X212714287Y-93652142D01*
X212714287Y-93652142D02*
X212714287Y-93556904D01*
X212714287Y-93556904D02*
X212761906Y-93461666D01*
X212761906Y-93461666D02*
X212809525Y-93414047D01*
X212809525Y-93414047D02*
X212904763Y-93366428D01*
X212904763Y-93366428D02*
X213095239Y-93318809D01*
X213095239Y-93318809D02*
X213190477Y-93271190D01*
X213190477Y-93271190D02*
X213238096Y-93223571D01*
X213238096Y-93223571D02*
X213285715Y-93128333D01*
X213285715Y-93128333D02*
X213285715Y-93033095D01*
X213285715Y-93033095D02*
X213238096Y-92937857D01*
X213238096Y-92937857D02*
X213190477Y-92890238D01*
X213190477Y-92890238D02*
X213095239Y-92842619D01*
X213095239Y-92842619D02*
X212857144Y-92842619D01*
X212857144Y-92842619D02*
X212714287Y-92890238D01*
X212285715Y-93175952D02*
X212285715Y-94175952D01*
X212285715Y-93223571D02*
X212190477Y-93175952D01*
X212190477Y-93175952D02*
X212000001Y-93175952D01*
X212000001Y-93175952D02*
X211904763Y-93223571D01*
X211904763Y-93223571D02*
X211857144Y-93271190D01*
X211857144Y-93271190D02*
X211809525Y-93366428D01*
X211809525Y-93366428D02*
X211809525Y-93652142D01*
X211809525Y-93652142D02*
X211857144Y-93747380D01*
X211857144Y-93747380D02*
X211904763Y-93795000D01*
X211904763Y-93795000D02*
X212000001Y-93842619D01*
X212000001Y-93842619D02*
X212190477Y-93842619D01*
X212190477Y-93842619D02*
X212285715Y-93795000D01*
X211238096Y-93842619D02*
X211333334Y-93795000D01*
X211333334Y-93795000D02*
X211380953Y-93699761D01*
X211380953Y-93699761D02*
X211380953Y-92842619D01*
X210857143Y-93842619D02*
X210857143Y-93175952D01*
X210857143Y-92842619D02*
X210904762Y-92890238D01*
X210904762Y-92890238D02*
X210857143Y-92937857D01*
X210857143Y-92937857D02*
X210809524Y-92890238D01*
X210809524Y-92890238D02*
X210857143Y-92842619D01*
X210857143Y-92842619D02*
X210857143Y-92937857D01*
X210523810Y-93175952D02*
X210142858Y-93175952D01*
X210380953Y-92842619D02*
X210380953Y-93699761D01*
X210380953Y-93699761D02*
X210333334Y-93795000D01*
X210333334Y-93795000D02*
X210238096Y-93842619D01*
X210238096Y-93842619D02*
X210142858Y-93842619D01*
X209952381Y-93175952D02*
X209571429Y-93175952D01*
X209809524Y-92842619D02*
X209809524Y-93699761D01*
X209809524Y-93699761D02*
X209761905Y-93795000D01*
X209761905Y-93795000D02*
X209666667Y-93842619D01*
X209666667Y-93842619D02*
X209571429Y-93842619D01*
X208857143Y-93795000D02*
X208952381Y-93842619D01*
X208952381Y-93842619D02*
X209142857Y-93842619D01*
X209142857Y-93842619D02*
X209238095Y-93795000D01*
X209238095Y-93795000D02*
X209285714Y-93699761D01*
X209285714Y-93699761D02*
X209285714Y-93318809D01*
X209285714Y-93318809D02*
X209238095Y-93223571D01*
X209238095Y-93223571D02*
X209142857Y-93175952D01*
X209142857Y-93175952D02*
X208952381Y-93175952D01*
X208952381Y-93175952D02*
X208857143Y-93223571D01*
X208857143Y-93223571D02*
X208809524Y-93318809D01*
X208809524Y-93318809D02*
X208809524Y-93414047D01*
X208809524Y-93414047D02*
X209285714Y-93509285D01*
X208380952Y-93842619D02*
X208380952Y-93175952D01*
X208380952Y-93366428D02*
X208333333Y-93271190D01*
X208333333Y-93271190D02*
X208285714Y-93223571D01*
X208285714Y-93223571D02*
X208190476Y-93175952D01*
X208190476Y-93175952D02*
X208095238Y-93175952D01*
X206428571Y-93842619D02*
X206761904Y-93366428D01*
X206999999Y-93842619D02*
X206999999Y-92842619D01*
X206999999Y-92842619D02*
X206619047Y-92842619D01*
X206619047Y-92842619D02*
X206523809Y-92890238D01*
X206523809Y-92890238D02*
X206476190Y-92937857D01*
X206476190Y-92937857D02*
X206428571Y-93033095D01*
X206428571Y-93033095D02*
X206428571Y-93175952D01*
X206428571Y-93175952D02*
X206476190Y-93271190D01*
X206476190Y-93271190D02*
X206523809Y-93318809D01*
X206523809Y-93318809D02*
X206619047Y-93366428D01*
X206619047Y-93366428D02*
X206999999Y-93366428D01*
X205619047Y-93795000D02*
X205714285Y-93842619D01*
X205714285Y-93842619D02*
X205904761Y-93842619D01*
X205904761Y-93842619D02*
X205999999Y-93795000D01*
X205999999Y-93795000D02*
X206047618Y-93699761D01*
X206047618Y-93699761D02*
X206047618Y-93318809D01*
X206047618Y-93318809D02*
X205999999Y-93223571D01*
X205999999Y-93223571D02*
X205904761Y-93175952D01*
X205904761Y-93175952D02*
X205714285Y-93175952D01*
X205714285Y-93175952D02*
X205619047Y-93223571D01*
X205619047Y-93223571D02*
X205571428Y-93318809D01*
X205571428Y-93318809D02*
X205571428Y-93414047D01*
X205571428Y-93414047D02*
X206047618Y-93509285D01*
X204714285Y-93842619D02*
X204714285Y-93318809D01*
X204714285Y-93318809D02*
X204761904Y-93223571D01*
X204761904Y-93223571D02*
X204857142Y-93175952D01*
X204857142Y-93175952D02*
X205047618Y-93175952D01*
X205047618Y-93175952D02*
X205142856Y-93223571D01*
X204714285Y-93795000D02*
X204809523Y-93842619D01*
X204809523Y-93842619D02*
X205047618Y-93842619D01*
X205047618Y-93842619D02*
X205142856Y-93795000D01*
X205142856Y-93795000D02*
X205190475Y-93699761D01*
X205190475Y-93699761D02*
X205190475Y-93604523D01*
X205190475Y-93604523D02*
X205142856Y-93509285D01*
X205142856Y-93509285D02*
X205047618Y-93461666D01*
X205047618Y-93461666D02*
X204809523Y-93461666D01*
X204809523Y-93461666D02*
X204714285Y-93414047D01*
X204238094Y-93842619D02*
X204238094Y-93175952D01*
X204238094Y-93366428D02*
X204190475Y-93271190D01*
X204190475Y-93271190D02*
X204142856Y-93223571D01*
X204142856Y-93223571D02*
X204047618Y-93175952D01*
X204047618Y-93175952D02*
X203952380Y-93175952D01*
X202857141Y-93842619D02*
X202857141Y-92842619D01*
X202857141Y-92842619D02*
X202476189Y-92842619D01*
X202476189Y-92842619D02*
X202380951Y-92890238D01*
X202380951Y-92890238D02*
X202333332Y-92937857D01*
X202333332Y-92937857D02*
X202285713Y-93033095D01*
X202285713Y-93033095D02*
X202285713Y-93175952D01*
X202285713Y-93175952D02*
X202333332Y-93271190D01*
X202333332Y-93271190D02*
X202380951Y-93318809D01*
X202380951Y-93318809D02*
X202476189Y-93366428D01*
X202476189Y-93366428D02*
X202857141Y-93366428D01*
X201428570Y-93842619D02*
X201428570Y-93318809D01*
X201428570Y-93318809D02*
X201476189Y-93223571D01*
X201476189Y-93223571D02*
X201571427Y-93175952D01*
X201571427Y-93175952D02*
X201761903Y-93175952D01*
X201761903Y-93175952D02*
X201857141Y-93223571D01*
X201428570Y-93795000D02*
X201523808Y-93842619D01*
X201523808Y-93842619D02*
X201761903Y-93842619D01*
X201761903Y-93842619D02*
X201857141Y-93795000D01*
X201857141Y-93795000D02*
X201904760Y-93699761D01*
X201904760Y-93699761D02*
X201904760Y-93604523D01*
X201904760Y-93604523D02*
X201857141Y-93509285D01*
X201857141Y-93509285D02*
X201761903Y-93461666D01*
X201761903Y-93461666D02*
X201523808Y-93461666D01*
X201523808Y-93461666D02*
X201428570Y-93414047D01*
X200952379Y-93175952D02*
X200952379Y-93842619D01*
X200952379Y-93271190D02*
X200904760Y-93223571D01*
X200904760Y-93223571D02*
X200809522Y-93175952D01*
X200809522Y-93175952D02*
X200666665Y-93175952D01*
X200666665Y-93175952D02*
X200571427Y-93223571D01*
X200571427Y-93223571D02*
X200523808Y-93318809D01*
X200523808Y-93318809D02*
X200523808Y-93842619D01*
X199666665Y-93795000D02*
X199761903Y-93842619D01*
X199761903Y-93842619D02*
X199952379Y-93842619D01*
X199952379Y-93842619D02*
X200047617Y-93795000D01*
X200047617Y-93795000D02*
X200095236Y-93699761D01*
X200095236Y-93699761D02*
X200095236Y-93318809D01*
X200095236Y-93318809D02*
X200047617Y-93223571D01*
X200047617Y-93223571D02*
X199952379Y-93175952D01*
X199952379Y-93175952D02*
X199761903Y-93175952D01*
X199761903Y-93175952D02*
X199666665Y-93223571D01*
X199666665Y-93223571D02*
X199619046Y-93318809D01*
X199619046Y-93318809D02*
X199619046Y-93414047D01*
X199619046Y-93414047D02*
X200095236Y-93509285D01*
X199047617Y-93842619D02*
X199142855Y-93795000D01*
X199142855Y-93795000D02*
X199190474Y-93699761D01*
X199190474Y-93699761D02*
X199190474Y-92842619D01*
X224285715Y-95462619D02*
X224285715Y-94462619D01*
X224285715Y-94462619D02*
X223952382Y-95176904D01*
X223952382Y-95176904D02*
X223619049Y-94462619D01*
X223619049Y-94462619D02*
X223619049Y-95462619D01*
X222714287Y-95462619D02*
X222714287Y-94938809D01*
X222714287Y-94938809D02*
X222761906Y-94843571D01*
X222761906Y-94843571D02*
X222857144Y-94795952D01*
X222857144Y-94795952D02*
X223047620Y-94795952D01*
X223047620Y-94795952D02*
X223142858Y-94843571D01*
X222714287Y-95415000D02*
X222809525Y-95462619D01*
X222809525Y-95462619D02*
X223047620Y-95462619D01*
X223047620Y-95462619D02*
X223142858Y-95415000D01*
X223142858Y-95415000D02*
X223190477Y-95319761D01*
X223190477Y-95319761D02*
X223190477Y-95224523D01*
X223190477Y-95224523D02*
X223142858Y-95129285D01*
X223142858Y-95129285D02*
X223047620Y-95081666D01*
X223047620Y-95081666D02*
X222809525Y-95081666D01*
X222809525Y-95081666D02*
X222714287Y-95034047D01*
X222333334Y-95462619D02*
X221809525Y-94795952D01*
X222333334Y-94795952D02*
X221809525Y-95462619D01*
X220666667Y-95462619D02*
X220666667Y-94462619D01*
X220666667Y-94462619D02*
X220285715Y-94462619D01*
X220285715Y-94462619D02*
X220190477Y-94510238D01*
X220190477Y-94510238D02*
X220142858Y-94557857D01*
X220142858Y-94557857D02*
X220095239Y-94653095D01*
X220095239Y-94653095D02*
X220095239Y-94795952D01*
X220095239Y-94795952D02*
X220142858Y-94891190D01*
X220142858Y-94891190D02*
X220190477Y-94938809D01*
X220190477Y-94938809D02*
X220285715Y-94986428D01*
X220285715Y-94986428D02*
X220666667Y-94986428D01*
X219666667Y-95462619D02*
X219666667Y-94795952D01*
X219666667Y-94986428D02*
X219619048Y-94891190D01*
X219619048Y-94891190D02*
X219571429Y-94843571D01*
X219571429Y-94843571D02*
X219476191Y-94795952D01*
X219476191Y-94795952D02*
X219380953Y-94795952D01*
X218904762Y-95462619D02*
X219000000Y-95415000D01*
X219000000Y-95415000D02*
X219047619Y-95367380D01*
X219047619Y-95367380D02*
X219095238Y-95272142D01*
X219095238Y-95272142D02*
X219095238Y-94986428D01*
X219095238Y-94986428D02*
X219047619Y-94891190D01*
X219047619Y-94891190D02*
X219000000Y-94843571D01*
X219000000Y-94843571D02*
X218904762Y-94795952D01*
X218904762Y-94795952D02*
X218761905Y-94795952D01*
X218761905Y-94795952D02*
X218666667Y-94843571D01*
X218666667Y-94843571D02*
X218619048Y-94891190D01*
X218619048Y-94891190D02*
X218571429Y-94986428D01*
X218571429Y-94986428D02*
X218571429Y-95272142D01*
X218571429Y-95272142D02*
X218619048Y-95367380D01*
X218619048Y-95367380D02*
X218666667Y-95415000D01*
X218666667Y-95415000D02*
X218761905Y-95462619D01*
X218761905Y-95462619D02*
X218904762Y-95462619D01*
X218190476Y-95415000D02*
X218095238Y-95462619D01*
X218095238Y-95462619D02*
X217904762Y-95462619D01*
X217904762Y-95462619D02*
X217809524Y-95415000D01*
X217809524Y-95415000D02*
X217761905Y-95319761D01*
X217761905Y-95319761D02*
X217761905Y-95272142D01*
X217761905Y-95272142D02*
X217809524Y-95176904D01*
X217809524Y-95176904D02*
X217904762Y-95129285D01*
X217904762Y-95129285D02*
X218047619Y-95129285D01*
X218047619Y-95129285D02*
X218142857Y-95081666D01*
X218142857Y-95081666D02*
X218190476Y-94986428D01*
X218190476Y-94986428D02*
X218190476Y-94938809D01*
X218190476Y-94938809D02*
X218142857Y-94843571D01*
X218142857Y-94843571D02*
X218047619Y-94795952D01*
X218047619Y-94795952D02*
X217904762Y-94795952D01*
X217904762Y-94795952D02*
X217809524Y-94843571D01*
X217333333Y-95462619D02*
X217333333Y-94462619D01*
X217238095Y-95081666D02*
X216952381Y-95462619D01*
X216952381Y-94795952D02*
X217333333Y-95176904D01*
X216095238Y-95462619D02*
X216095238Y-94938809D01*
X216095238Y-94938809D02*
X216142857Y-94843571D01*
X216142857Y-94843571D02*
X216238095Y-94795952D01*
X216238095Y-94795952D02*
X216428571Y-94795952D01*
X216428571Y-94795952D02*
X216523809Y-94843571D01*
X216095238Y-95415000D02*
X216190476Y-95462619D01*
X216190476Y-95462619D02*
X216428571Y-95462619D01*
X216428571Y-95462619D02*
X216523809Y-95415000D01*
X216523809Y-95415000D02*
X216571428Y-95319761D01*
X216571428Y-95319761D02*
X216571428Y-95224523D01*
X216571428Y-95224523D02*
X216523809Y-95129285D01*
X216523809Y-95129285D02*
X216428571Y-95081666D01*
X216428571Y-95081666D02*
X216190476Y-95081666D01*
X216190476Y-95081666D02*
X216095238Y-95034047D01*
X215190476Y-94795952D02*
X215190476Y-95462619D01*
X215619047Y-94795952D02*
X215619047Y-95319761D01*
X215619047Y-95319761D02*
X215571428Y-95415000D01*
X215571428Y-95415000D02*
X215476190Y-95462619D01*
X215476190Y-95462619D02*
X215333333Y-95462619D01*
X215333333Y-95462619D02*
X215238095Y-95415000D01*
X215238095Y-95415000D02*
X215190476Y-95367380D01*
X214333333Y-95415000D02*
X214428571Y-95462619D01*
X214428571Y-95462619D02*
X214619047Y-95462619D01*
X214619047Y-95462619D02*
X214714285Y-95415000D01*
X214714285Y-95415000D02*
X214761904Y-95319761D01*
X214761904Y-95319761D02*
X214761904Y-94938809D01*
X214761904Y-94938809D02*
X214714285Y-94843571D01*
X214714285Y-94843571D02*
X214619047Y-94795952D01*
X214619047Y-94795952D02*
X214428571Y-94795952D01*
X214428571Y-94795952D02*
X214333333Y-94843571D01*
X214333333Y-94843571D02*
X214285714Y-94938809D01*
X214285714Y-94938809D02*
X214285714Y-95034047D01*
X214285714Y-95034047D02*
X214761904Y-95129285D01*
X213857142Y-95462619D02*
X213857142Y-94795952D01*
X213857142Y-94986428D02*
X213809523Y-94891190D01*
X213809523Y-94891190D02*
X213761904Y-94843571D01*
X213761904Y-94843571D02*
X213666666Y-94795952D01*
X213666666Y-94795952D02*
X213571428Y-94795952D01*
X210952379Y-95462619D02*
X210952379Y-94462619D01*
X210952379Y-94462619D02*
X210714284Y-94462619D01*
X210714284Y-94462619D02*
X210571427Y-94510238D01*
X210571427Y-94510238D02*
X210476189Y-94605476D01*
X210476189Y-94605476D02*
X210428570Y-94700714D01*
X210428570Y-94700714D02*
X210380951Y-94891190D01*
X210380951Y-94891190D02*
X210380951Y-95034047D01*
X210380951Y-95034047D02*
X210428570Y-95224523D01*
X210428570Y-95224523D02*
X210476189Y-95319761D01*
X210476189Y-95319761D02*
X210571427Y-95415000D01*
X210571427Y-95415000D02*
X210714284Y-95462619D01*
X210714284Y-95462619D02*
X210952379Y-95462619D01*
X209571427Y-95415000D02*
X209666665Y-95462619D01*
X209666665Y-95462619D02*
X209857141Y-95462619D01*
X209857141Y-95462619D02*
X209952379Y-95415000D01*
X209952379Y-95415000D02*
X209999998Y-95319761D01*
X209999998Y-95319761D02*
X209999998Y-94938809D01*
X209999998Y-94938809D02*
X209952379Y-94843571D01*
X209952379Y-94843571D02*
X209857141Y-94795952D01*
X209857141Y-94795952D02*
X209666665Y-94795952D01*
X209666665Y-94795952D02*
X209571427Y-94843571D01*
X209571427Y-94843571D02*
X209523808Y-94938809D01*
X209523808Y-94938809D02*
X209523808Y-95034047D01*
X209523808Y-95034047D02*
X209999998Y-95129285D01*
X208666665Y-95415000D02*
X208761903Y-95462619D01*
X208761903Y-95462619D02*
X208952379Y-95462619D01*
X208952379Y-95462619D02*
X209047617Y-95415000D01*
X209047617Y-95415000D02*
X209095236Y-95367380D01*
X209095236Y-95367380D02*
X209142855Y-95272142D01*
X209142855Y-95272142D02*
X209142855Y-94986428D01*
X209142855Y-94986428D02*
X209095236Y-94891190D01*
X209095236Y-94891190D02*
X209047617Y-94843571D01*
X209047617Y-94843571D02*
X208952379Y-94795952D01*
X208952379Y-94795952D02*
X208761903Y-94795952D01*
X208761903Y-94795952D02*
X208666665Y-94843571D01*
X207523807Y-94557857D02*
X207476188Y-94510238D01*
X207476188Y-94510238D02*
X207380950Y-94462619D01*
X207380950Y-94462619D02*
X207142855Y-94462619D01*
X207142855Y-94462619D02*
X207047617Y-94510238D01*
X207047617Y-94510238D02*
X206999998Y-94557857D01*
X206999998Y-94557857D02*
X206952379Y-94653095D01*
X206952379Y-94653095D02*
X206952379Y-94748333D01*
X206952379Y-94748333D02*
X206999998Y-94891190D01*
X206999998Y-94891190D02*
X207571426Y-95462619D01*
X207571426Y-95462619D02*
X206952379Y-95462619D01*
X206333331Y-94462619D02*
X206238093Y-94462619D01*
X206238093Y-94462619D02*
X206142855Y-94510238D01*
X206142855Y-94510238D02*
X206095236Y-94557857D01*
X206095236Y-94557857D02*
X206047617Y-94653095D01*
X206047617Y-94653095D02*
X205999998Y-94843571D01*
X205999998Y-94843571D02*
X205999998Y-95081666D01*
X205999998Y-95081666D02*
X206047617Y-95272142D01*
X206047617Y-95272142D02*
X206095236Y-95367380D01*
X206095236Y-95367380D02*
X206142855Y-95415000D01*
X206142855Y-95415000D02*
X206238093Y-95462619D01*
X206238093Y-95462619D02*
X206333331Y-95462619D01*
X206333331Y-95462619D02*
X206428569Y-95415000D01*
X206428569Y-95415000D02*
X206476188Y-95367380D01*
X206476188Y-95367380D02*
X206523807Y-95272142D01*
X206523807Y-95272142D02*
X206571426Y-95081666D01*
X206571426Y-95081666D02*
X206571426Y-94843571D01*
X206571426Y-94843571D02*
X206523807Y-94653095D01*
X206523807Y-94653095D02*
X206476188Y-94557857D01*
X206476188Y-94557857D02*
X206428569Y-94510238D01*
X206428569Y-94510238D02*
X206333331Y-94462619D01*
X205619045Y-94557857D02*
X205571426Y-94510238D01*
X205571426Y-94510238D02*
X205476188Y-94462619D01*
X205476188Y-94462619D02*
X205238093Y-94462619D01*
X205238093Y-94462619D02*
X205142855Y-94510238D01*
X205142855Y-94510238D02*
X205095236Y-94557857D01*
X205095236Y-94557857D02*
X205047617Y-94653095D01*
X205047617Y-94653095D02*
X205047617Y-94748333D01*
X205047617Y-94748333D02*
X205095236Y-94891190D01*
X205095236Y-94891190D02*
X205666664Y-95462619D01*
X205666664Y-95462619D02*
X205047617Y-95462619D01*
X204714283Y-94462619D02*
X204095236Y-94462619D01*
X204095236Y-94462619D02*
X204428569Y-94843571D01*
X204428569Y-94843571D02*
X204285712Y-94843571D01*
X204285712Y-94843571D02*
X204190474Y-94891190D01*
X204190474Y-94891190D02*
X204142855Y-94938809D01*
X204142855Y-94938809D02*
X204095236Y-95034047D01*
X204095236Y-95034047D02*
X204095236Y-95272142D01*
X204095236Y-95272142D02*
X204142855Y-95367380D01*
X204142855Y-95367380D02*
X204190474Y-95415000D01*
X204190474Y-95415000D02*
X204285712Y-95462619D01*
X204285712Y-95462619D02*
X204571426Y-95462619D01*
X204571426Y-95462619D02*
X204666664Y-95415000D01*
X204666664Y-95415000D02*
X204714283Y-95367380D01*
X201476187Y-94795952D02*
X201238092Y-95462619D01*
X201238092Y-95462619D02*
X200999997Y-94795952D01*
X200428568Y-94462619D02*
X200333330Y-94462619D01*
X200333330Y-94462619D02*
X200238092Y-94510238D01*
X200238092Y-94510238D02*
X200190473Y-94557857D01*
X200190473Y-94557857D02*
X200142854Y-94653095D01*
X200142854Y-94653095D02*
X200095235Y-94843571D01*
X200095235Y-94843571D02*
X200095235Y-95081666D01*
X200095235Y-95081666D02*
X200142854Y-95272142D01*
X200142854Y-95272142D02*
X200190473Y-95367380D01*
X200190473Y-95367380D02*
X200238092Y-95415000D01*
X200238092Y-95415000D02*
X200333330Y-95462619D01*
X200333330Y-95462619D02*
X200428568Y-95462619D01*
X200428568Y-95462619D02*
X200523806Y-95415000D01*
X200523806Y-95415000D02*
X200571425Y-95367380D01*
X200571425Y-95367380D02*
X200619044Y-95272142D01*
X200619044Y-95272142D02*
X200666663Y-95081666D01*
X200666663Y-95081666D02*
X200666663Y-94843571D01*
X200666663Y-94843571D02*
X200619044Y-94653095D01*
X200619044Y-94653095D02*
X200571425Y-94557857D01*
X200571425Y-94557857D02*
X200523806Y-94510238D01*
X200523806Y-94510238D02*
X200428568Y-94462619D01*
X199666663Y-95367380D02*
X199619044Y-95415000D01*
X199619044Y-95415000D02*
X199666663Y-95462619D01*
X199666663Y-95462619D02*
X199714282Y-95415000D01*
X199714282Y-95415000D02*
X199666663Y-95367380D01*
X199666663Y-95367380D02*
X199666663Y-95462619D01*
X198666664Y-95462619D02*
X199238092Y-95462619D01*
X198952378Y-95462619D02*
X198952378Y-94462619D01*
X198952378Y-94462619D02*
X199047616Y-94605476D01*
X199047616Y-94605476D02*
X199142854Y-94700714D01*
X199142854Y-94700714D02*
X199238092Y-94748333D01*
X230238096Y-97082619D02*
X230238096Y-96082619D01*
X229809525Y-97082619D02*
X229809525Y-96558809D01*
X229809525Y-96558809D02*
X229857144Y-96463571D01*
X229857144Y-96463571D02*
X229952382Y-96415952D01*
X229952382Y-96415952D02*
X230095239Y-96415952D01*
X230095239Y-96415952D02*
X230190477Y-96463571D01*
X230190477Y-96463571D02*
X230238096Y-96511190D01*
X229476191Y-96415952D02*
X229095239Y-96415952D01*
X229333334Y-96082619D02*
X229333334Y-96939761D01*
X229333334Y-96939761D02*
X229285715Y-97035000D01*
X229285715Y-97035000D02*
X229190477Y-97082619D01*
X229190477Y-97082619D02*
X229095239Y-97082619D01*
X228904762Y-96415952D02*
X228523810Y-96415952D01*
X228761905Y-96082619D02*
X228761905Y-96939761D01*
X228761905Y-96939761D02*
X228714286Y-97035000D01*
X228714286Y-97035000D02*
X228619048Y-97082619D01*
X228619048Y-97082619D02*
X228523810Y-97082619D01*
X228190476Y-96415952D02*
X228190476Y-97415952D01*
X228190476Y-96463571D02*
X228095238Y-96415952D01*
X228095238Y-96415952D02*
X227904762Y-96415952D01*
X227904762Y-96415952D02*
X227809524Y-96463571D01*
X227809524Y-96463571D02*
X227761905Y-96511190D01*
X227761905Y-96511190D02*
X227714286Y-96606428D01*
X227714286Y-96606428D02*
X227714286Y-96892142D01*
X227714286Y-96892142D02*
X227761905Y-96987380D01*
X227761905Y-96987380D02*
X227809524Y-97035000D01*
X227809524Y-97035000D02*
X227904762Y-97082619D01*
X227904762Y-97082619D02*
X228095238Y-97082619D01*
X228095238Y-97082619D02*
X228190476Y-97035000D01*
X227333333Y-97035000D02*
X227238095Y-97082619D01*
X227238095Y-97082619D02*
X227047619Y-97082619D01*
X227047619Y-97082619D02*
X226952381Y-97035000D01*
X226952381Y-97035000D02*
X226904762Y-96939761D01*
X226904762Y-96939761D02*
X226904762Y-96892142D01*
X226904762Y-96892142D02*
X226952381Y-96796904D01*
X226952381Y-96796904D02*
X227047619Y-96749285D01*
X227047619Y-96749285D02*
X227190476Y-96749285D01*
X227190476Y-96749285D02*
X227285714Y-96701666D01*
X227285714Y-96701666D02*
X227333333Y-96606428D01*
X227333333Y-96606428D02*
X227333333Y-96558809D01*
X227333333Y-96558809D02*
X227285714Y-96463571D01*
X227285714Y-96463571D02*
X227190476Y-96415952D01*
X227190476Y-96415952D02*
X227047619Y-96415952D01*
X227047619Y-96415952D02*
X226952381Y-96463571D01*
X226476190Y-96987380D02*
X226428571Y-97035000D01*
X226428571Y-97035000D02*
X226476190Y-97082619D01*
X226476190Y-97082619D02*
X226523809Y-97035000D01*
X226523809Y-97035000D02*
X226476190Y-96987380D01*
X226476190Y-96987380D02*
X226476190Y-97082619D01*
X226476190Y-96463571D02*
X226428571Y-96511190D01*
X226428571Y-96511190D02*
X226476190Y-96558809D01*
X226476190Y-96558809D02*
X226523809Y-96511190D01*
X226523809Y-96511190D02*
X226476190Y-96463571D01*
X226476190Y-96463571D02*
X226476190Y-96558809D01*
X225285715Y-96035000D02*
X226142857Y-97320714D01*
X224238096Y-96035000D02*
X225095238Y-97320714D01*
X223476191Y-96415952D02*
X223476191Y-97225476D01*
X223476191Y-97225476D02*
X223523810Y-97320714D01*
X223523810Y-97320714D02*
X223571429Y-97368333D01*
X223571429Y-97368333D02*
X223666667Y-97415952D01*
X223666667Y-97415952D02*
X223809524Y-97415952D01*
X223809524Y-97415952D02*
X223904762Y-97368333D01*
X223476191Y-97035000D02*
X223571429Y-97082619D01*
X223571429Y-97082619D02*
X223761905Y-97082619D01*
X223761905Y-97082619D02*
X223857143Y-97035000D01*
X223857143Y-97035000D02*
X223904762Y-96987380D01*
X223904762Y-96987380D02*
X223952381Y-96892142D01*
X223952381Y-96892142D02*
X223952381Y-96606428D01*
X223952381Y-96606428D02*
X223904762Y-96511190D01*
X223904762Y-96511190D02*
X223857143Y-96463571D01*
X223857143Y-96463571D02*
X223761905Y-96415952D01*
X223761905Y-96415952D02*
X223571429Y-96415952D01*
X223571429Y-96415952D02*
X223476191Y-96463571D01*
X223000000Y-97082619D02*
X223000000Y-96415952D01*
X223000000Y-96082619D02*
X223047619Y-96130238D01*
X223047619Y-96130238D02*
X223000000Y-96177857D01*
X223000000Y-96177857D02*
X222952381Y-96130238D01*
X222952381Y-96130238D02*
X223000000Y-96082619D01*
X223000000Y-96082619D02*
X223000000Y-96177857D01*
X222666667Y-96415952D02*
X222285715Y-96415952D01*
X222523810Y-96082619D02*
X222523810Y-96939761D01*
X222523810Y-96939761D02*
X222476191Y-97035000D01*
X222476191Y-97035000D02*
X222380953Y-97082619D01*
X222380953Y-97082619D02*
X222285715Y-97082619D01*
X221952381Y-97082619D02*
X221952381Y-96082619D01*
X221523810Y-97082619D02*
X221523810Y-96558809D01*
X221523810Y-96558809D02*
X221571429Y-96463571D01*
X221571429Y-96463571D02*
X221666667Y-96415952D01*
X221666667Y-96415952D02*
X221809524Y-96415952D01*
X221809524Y-96415952D02*
X221904762Y-96463571D01*
X221904762Y-96463571D02*
X221952381Y-96511190D01*
X220619048Y-96415952D02*
X220619048Y-97082619D01*
X221047619Y-96415952D02*
X221047619Y-96939761D01*
X221047619Y-96939761D02*
X221000000Y-97035000D01*
X221000000Y-97035000D02*
X220904762Y-97082619D01*
X220904762Y-97082619D02*
X220761905Y-97082619D01*
X220761905Y-97082619D02*
X220666667Y-97035000D01*
X220666667Y-97035000D02*
X220619048Y-96987380D01*
X220142857Y-97082619D02*
X220142857Y-96082619D01*
X220142857Y-96463571D02*
X220047619Y-96415952D01*
X220047619Y-96415952D02*
X219857143Y-96415952D01*
X219857143Y-96415952D02*
X219761905Y-96463571D01*
X219761905Y-96463571D02*
X219714286Y-96511190D01*
X219714286Y-96511190D02*
X219666667Y-96606428D01*
X219666667Y-96606428D02*
X219666667Y-96892142D01*
X219666667Y-96892142D02*
X219714286Y-96987380D01*
X219714286Y-96987380D02*
X219761905Y-97035000D01*
X219761905Y-97035000D02*
X219857143Y-97082619D01*
X219857143Y-97082619D02*
X220047619Y-97082619D01*
X220047619Y-97082619D02*
X220142857Y-97035000D01*
X219238095Y-96987380D02*
X219190476Y-97035000D01*
X219190476Y-97035000D02*
X219238095Y-97082619D01*
X219238095Y-97082619D02*
X219285714Y-97035000D01*
X219285714Y-97035000D02*
X219238095Y-96987380D01*
X219238095Y-96987380D02*
X219238095Y-97082619D01*
X218333334Y-97035000D02*
X218428572Y-97082619D01*
X218428572Y-97082619D02*
X218619048Y-97082619D01*
X218619048Y-97082619D02*
X218714286Y-97035000D01*
X218714286Y-97035000D02*
X218761905Y-96987380D01*
X218761905Y-96987380D02*
X218809524Y-96892142D01*
X218809524Y-96892142D02*
X218809524Y-96606428D01*
X218809524Y-96606428D02*
X218761905Y-96511190D01*
X218761905Y-96511190D02*
X218714286Y-96463571D01*
X218714286Y-96463571D02*
X218619048Y-96415952D01*
X218619048Y-96415952D02*
X218428572Y-96415952D01*
X218428572Y-96415952D02*
X218333334Y-96463571D01*
X217761905Y-97082619D02*
X217857143Y-97035000D01*
X217857143Y-97035000D02*
X217904762Y-96987380D01*
X217904762Y-96987380D02*
X217952381Y-96892142D01*
X217952381Y-96892142D02*
X217952381Y-96606428D01*
X217952381Y-96606428D02*
X217904762Y-96511190D01*
X217904762Y-96511190D02*
X217857143Y-96463571D01*
X217857143Y-96463571D02*
X217761905Y-96415952D01*
X217761905Y-96415952D02*
X217619048Y-96415952D01*
X217619048Y-96415952D02*
X217523810Y-96463571D01*
X217523810Y-96463571D02*
X217476191Y-96511190D01*
X217476191Y-96511190D02*
X217428572Y-96606428D01*
X217428572Y-96606428D02*
X217428572Y-96892142D01*
X217428572Y-96892142D02*
X217476191Y-96987380D01*
X217476191Y-96987380D02*
X217523810Y-97035000D01*
X217523810Y-97035000D02*
X217619048Y-97082619D01*
X217619048Y-97082619D02*
X217761905Y-97082619D01*
X217000000Y-97082619D02*
X217000000Y-96415952D01*
X217000000Y-96511190D02*
X216952381Y-96463571D01*
X216952381Y-96463571D02*
X216857143Y-96415952D01*
X216857143Y-96415952D02*
X216714286Y-96415952D01*
X216714286Y-96415952D02*
X216619048Y-96463571D01*
X216619048Y-96463571D02*
X216571429Y-96558809D01*
X216571429Y-96558809D02*
X216571429Y-97082619D01*
X216571429Y-96558809D02*
X216523810Y-96463571D01*
X216523810Y-96463571D02*
X216428572Y-96415952D01*
X216428572Y-96415952D02*
X216285715Y-96415952D01*
X216285715Y-96415952D02*
X216190476Y-96463571D01*
X216190476Y-96463571D02*
X216142857Y-96558809D01*
X216142857Y-96558809D02*
X216142857Y-97082619D01*
X214952382Y-96035000D02*
X215809524Y-97320714D01*
X214619048Y-97082619D02*
X214619048Y-96415952D01*
X214619048Y-96511190D02*
X214571429Y-96463571D01*
X214571429Y-96463571D02*
X214476191Y-96415952D01*
X214476191Y-96415952D02*
X214333334Y-96415952D01*
X214333334Y-96415952D02*
X214238096Y-96463571D01*
X214238096Y-96463571D02*
X214190477Y-96558809D01*
X214190477Y-96558809D02*
X214190477Y-97082619D01*
X214190477Y-96558809D02*
X214142858Y-96463571D01*
X214142858Y-96463571D02*
X214047620Y-96415952D01*
X214047620Y-96415952D02*
X213904763Y-96415952D01*
X213904763Y-96415952D02*
X213809524Y-96463571D01*
X213809524Y-96463571D02*
X213761905Y-96558809D01*
X213761905Y-96558809D02*
X213761905Y-97082619D01*
X213285715Y-96415952D02*
X213285715Y-97415952D01*
X213285715Y-96463571D02*
X213190477Y-96415952D01*
X213190477Y-96415952D02*
X213000001Y-96415952D01*
X213000001Y-96415952D02*
X212904763Y-96463571D01*
X212904763Y-96463571D02*
X212857144Y-96511190D01*
X212857144Y-96511190D02*
X212809525Y-96606428D01*
X212809525Y-96606428D02*
X212809525Y-96892142D01*
X212809525Y-96892142D02*
X212857144Y-96987380D01*
X212857144Y-96987380D02*
X212904763Y-97035000D01*
X212904763Y-97035000D02*
X213000001Y-97082619D01*
X213000001Y-97082619D02*
X213190477Y-97082619D01*
X213190477Y-97082619D02*
X213285715Y-97035000D01*
X212380953Y-97082619D02*
X212380953Y-96415952D01*
X212380953Y-96606428D02*
X212333334Y-96511190D01*
X212333334Y-96511190D02*
X212285715Y-96463571D01*
X212285715Y-96463571D02*
X212190477Y-96415952D01*
X212190477Y-96415952D02*
X212095239Y-96415952D01*
X211619048Y-97082619D02*
X211714286Y-97035000D01*
X211714286Y-97035000D02*
X211761905Y-96987380D01*
X211761905Y-96987380D02*
X211809524Y-96892142D01*
X211809524Y-96892142D02*
X211809524Y-96606428D01*
X211809524Y-96606428D02*
X211761905Y-96511190D01*
X211761905Y-96511190D02*
X211714286Y-96463571D01*
X211714286Y-96463571D02*
X211619048Y-96415952D01*
X211619048Y-96415952D02*
X211476191Y-96415952D01*
X211476191Y-96415952D02*
X211380953Y-96463571D01*
X211380953Y-96463571D02*
X211333334Y-96511190D01*
X211333334Y-96511190D02*
X211285715Y-96606428D01*
X211285715Y-96606428D02*
X211285715Y-96892142D01*
X211285715Y-96892142D02*
X211333334Y-96987380D01*
X211333334Y-96987380D02*
X211380953Y-97035000D01*
X211380953Y-97035000D02*
X211476191Y-97082619D01*
X211476191Y-97082619D02*
X211619048Y-97082619D01*
X210904762Y-97035000D02*
X210809524Y-97082619D01*
X210809524Y-97082619D02*
X210619048Y-97082619D01*
X210619048Y-97082619D02*
X210523810Y-97035000D01*
X210523810Y-97035000D02*
X210476191Y-96939761D01*
X210476191Y-96939761D02*
X210476191Y-96892142D01*
X210476191Y-96892142D02*
X210523810Y-96796904D01*
X210523810Y-96796904D02*
X210619048Y-96749285D01*
X210619048Y-96749285D02*
X210761905Y-96749285D01*
X210761905Y-96749285D02*
X210857143Y-96701666D01*
X210857143Y-96701666D02*
X210904762Y-96606428D01*
X210904762Y-96606428D02*
X210904762Y-96558809D01*
X210904762Y-96558809D02*
X210857143Y-96463571D01*
X210857143Y-96463571D02*
X210761905Y-96415952D01*
X210761905Y-96415952D02*
X210619048Y-96415952D01*
X210619048Y-96415952D02*
X210523810Y-96463571D01*
X210047619Y-97082619D02*
X210047619Y-96082619D01*
X209952381Y-96701666D02*
X209666667Y-97082619D01*
X209666667Y-96415952D02*
X210047619Y-96796904D01*
X208523810Y-96035000D02*
X209380952Y-97320714D01*
X208190476Y-97082619D02*
X208190476Y-96415952D01*
X208190476Y-96511190D02*
X208142857Y-96463571D01*
X208142857Y-96463571D02*
X208047619Y-96415952D01*
X208047619Y-96415952D02*
X207904762Y-96415952D01*
X207904762Y-96415952D02*
X207809524Y-96463571D01*
X207809524Y-96463571D02*
X207761905Y-96558809D01*
X207761905Y-96558809D02*
X207761905Y-97082619D01*
X207761905Y-96558809D02*
X207714286Y-96463571D01*
X207714286Y-96463571D02*
X207619048Y-96415952D01*
X207619048Y-96415952D02*
X207476191Y-96415952D01*
X207476191Y-96415952D02*
X207380952Y-96463571D01*
X207380952Y-96463571D02*
X207333333Y-96558809D01*
X207333333Y-96558809D02*
X207333333Y-97082619D01*
X206857143Y-97082619D02*
X206857143Y-96415952D01*
X206857143Y-96082619D02*
X206904762Y-96130238D01*
X206904762Y-96130238D02*
X206857143Y-96177857D01*
X206857143Y-96177857D02*
X206809524Y-96130238D01*
X206809524Y-96130238D02*
X206857143Y-96082619D01*
X206857143Y-96082619D02*
X206857143Y-96177857D01*
X205952382Y-97082619D02*
X205952382Y-96082619D01*
X205952382Y-97035000D02*
X206047620Y-97082619D01*
X206047620Y-97082619D02*
X206238096Y-97082619D01*
X206238096Y-97082619D02*
X206333334Y-97035000D01*
X206333334Y-97035000D02*
X206380953Y-96987380D01*
X206380953Y-96987380D02*
X206428572Y-96892142D01*
X206428572Y-96892142D02*
X206428572Y-96606428D01*
X206428572Y-96606428D02*
X206380953Y-96511190D01*
X206380953Y-96511190D02*
X206333334Y-96463571D01*
X206333334Y-96463571D02*
X206238096Y-96415952D01*
X206238096Y-96415952D02*
X206047620Y-96415952D01*
X206047620Y-96415952D02*
X205952382Y-96463571D01*
X205476191Y-97082619D02*
X205476191Y-96415952D01*
X205476191Y-96082619D02*
X205523810Y-96130238D01*
X205523810Y-96130238D02*
X205476191Y-96177857D01*
X205476191Y-96177857D02*
X205428572Y-96130238D01*
X205428572Y-96130238D02*
X205476191Y-96082619D01*
X205476191Y-96082619D02*
X205476191Y-96177857D01*
X205238097Y-97177857D02*
X204476192Y-97177857D01*
X203809525Y-97035000D02*
X203904763Y-97082619D01*
X203904763Y-97082619D02*
X204095239Y-97082619D01*
X204095239Y-97082619D02*
X204190477Y-97035000D01*
X204190477Y-97035000D02*
X204238096Y-96987380D01*
X204238096Y-96987380D02*
X204285715Y-96892142D01*
X204285715Y-96892142D02*
X204285715Y-96606428D01*
X204285715Y-96606428D02*
X204238096Y-96511190D01*
X204238096Y-96511190D02*
X204190477Y-96463571D01*
X204190477Y-96463571D02*
X204095239Y-96415952D01*
X204095239Y-96415952D02*
X203904763Y-96415952D01*
X203904763Y-96415952D02*
X203809525Y-96463571D01*
X203380953Y-97082619D02*
X203380953Y-96082619D01*
X202952382Y-97082619D02*
X202952382Y-96558809D01*
X202952382Y-96558809D02*
X203000001Y-96463571D01*
X203000001Y-96463571D02*
X203095239Y-96415952D01*
X203095239Y-96415952D02*
X203238096Y-96415952D01*
X203238096Y-96415952D02*
X203333334Y-96463571D01*
X203333334Y-96463571D02*
X203380953Y-96511190D01*
X202047620Y-97082619D02*
X202047620Y-96558809D01*
X202047620Y-96558809D02*
X202095239Y-96463571D01*
X202095239Y-96463571D02*
X202190477Y-96415952D01*
X202190477Y-96415952D02*
X202380953Y-96415952D01*
X202380953Y-96415952D02*
X202476191Y-96463571D01*
X202047620Y-97035000D02*
X202142858Y-97082619D01*
X202142858Y-97082619D02*
X202380953Y-97082619D01*
X202380953Y-97082619D02*
X202476191Y-97035000D01*
X202476191Y-97035000D02*
X202523810Y-96939761D01*
X202523810Y-96939761D02*
X202523810Y-96844523D01*
X202523810Y-96844523D02*
X202476191Y-96749285D01*
X202476191Y-96749285D02*
X202380953Y-96701666D01*
X202380953Y-96701666D02*
X202142858Y-96701666D01*
X202142858Y-96701666D02*
X202047620Y-96654047D01*
X201571429Y-96415952D02*
X201571429Y-97082619D01*
X201571429Y-96511190D02*
X201523810Y-96463571D01*
X201523810Y-96463571D02*
X201428572Y-96415952D01*
X201428572Y-96415952D02*
X201285715Y-96415952D01*
X201285715Y-96415952D02*
X201190477Y-96463571D01*
X201190477Y-96463571D02*
X201142858Y-96558809D01*
X201142858Y-96558809D02*
X201142858Y-97082619D01*
X200666667Y-96415952D02*
X200666667Y-97082619D01*
X200666667Y-96511190D02*
X200619048Y-96463571D01*
X200619048Y-96463571D02*
X200523810Y-96415952D01*
X200523810Y-96415952D02*
X200380953Y-96415952D01*
X200380953Y-96415952D02*
X200285715Y-96463571D01*
X200285715Y-96463571D02*
X200238096Y-96558809D01*
X200238096Y-96558809D02*
X200238096Y-97082619D01*
X199380953Y-97035000D02*
X199476191Y-97082619D01*
X199476191Y-97082619D02*
X199666667Y-97082619D01*
X199666667Y-97082619D02*
X199761905Y-97035000D01*
X199761905Y-97035000D02*
X199809524Y-96939761D01*
X199809524Y-96939761D02*
X199809524Y-96558809D01*
X199809524Y-96558809D02*
X199761905Y-96463571D01*
X199761905Y-96463571D02*
X199666667Y-96415952D01*
X199666667Y-96415952D02*
X199476191Y-96415952D01*
X199476191Y-96415952D02*
X199380953Y-96463571D01*
X199380953Y-96463571D02*
X199333334Y-96558809D01*
X199333334Y-96558809D02*
X199333334Y-96654047D01*
X199333334Y-96654047D02*
X199809524Y-96749285D01*
X198761905Y-97082619D02*
X198857143Y-97035000D01*
X198857143Y-97035000D02*
X198904762Y-96939761D01*
X198904762Y-96939761D02*
X198904762Y-96082619D01*
X198619048Y-97177857D02*
X197857143Y-97177857D01*
X197666666Y-97035000D02*
X197571428Y-97082619D01*
X197571428Y-97082619D02*
X197380952Y-97082619D01*
X197380952Y-97082619D02*
X197285714Y-97035000D01*
X197285714Y-97035000D02*
X197238095Y-96939761D01*
X197238095Y-96939761D02*
X197238095Y-96892142D01*
X197238095Y-96892142D02*
X197285714Y-96796904D01*
X197285714Y-96796904D02*
X197380952Y-96749285D01*
X197380952Y-96749285D02*
X197523809Y-96749285D01*
X197523809Y-96749285D02*
X197619047Y-96701666D01*
X197619047Y-96701666D02*
X197666666Y-96606428D01*
X197666666Y-96606428D02*
X197666666Y-96558809D01*
X197666666Y-96558809D02*
X197619047Y-96463571D01*
X197619047Y-96463571D02*
X197523809Y-96415952D01*
X197523809Y-96415952D02*
X197380952Y-96415952D01*
X197380952Y-96415952D02*
X197285714Y-96463571D01*
X196809523Y-96415952D02*
X196809523Y-97415952D01*
X196809523Y-96463571D02*
X196714285Y-96415952D01*
X196714285Y-96415952D02*
X196523809Y-96415952D01*
X196523809Y-96415952D02*
X196428571Y-96463571D01*
X196428571Y-96463571D02*
X196380952Y-96511190D01*
X196380952Y-96511190D02*
X196333333Y-96606428D01*
X196333333Y-96606428D02*
X196333333Y-96892142D01*
X196333333Y-96892142D02*
X196380952Y-96987380D01*
X196380952Y-96987380D02*
X196428571Y-97035000D01*
X196428571Y-97035000D02*
X196523809Y-97082619D01*
X196523809Y-97082619D02*
X196714285Y-97082619D01*
X196714285Y-97082619D02*
X196809523Y-97035000D01*
X195761904Y-97082619D02*
X195857142Y-97035000D01*
X195857142Y-97035000D02*
X195904761Y-96939761D01*
X195904761Y-96939761D02*
X195904761Y-96082619D01*
X195380951Y-97082619D02*
X195380951Y-96415952D01*
X195380951Y-96082619D02*
X195428570Y-96130238D01*
X195428570Y-96130238D02*
X195380951Y-96177857D01*
X195380951Y-96177857D02*
X195333332Y-96130238D01*
X195333332Y-96130238D02*
X195380951Y-96082619D01*
X195380951Y-96082619D02*
X195380951Y-96177857D01*
X195047618Y-96415952D02*
X194666666Y-96415952D01*
X194904761Y-96082619D02*
X194904761Y-96939761D01*
X194904761Y-96939761D02*
X194857142Y-97035000D01*
X194857142Y-97035000D02*
X194761904Y-97082619D01*
X194761904Y-97082619D02*
X194666666Y-97082619D01*
X194476189Y-96415952D02*
X194095237Y-96415952D01*
X194333332Y-96082619D02*
X194333332Y-96939761D01*
X194333332Y-96939761D02*
X194285713Y-97035000D01*
X194285713Y-97035000D02*
X194190475Y-97082619D01*
X194190475Y-97082619D02*
X194095237Y-97082619D01*
X193380951Y-97035000D02*
X193476189Y-97082619D01*
X193476189Y-97082619D02*
X193666665Y-97082619D01*
X193666665Y-97082619D02*
X193761903Y-97035000D01*
X193761903Y-97035000D02*
X193809522Y-96939761D01*
X193809522Y-96939761D02*
X193809522Y-96558809D01*
X193809522Y-96558809D02*
X193761903Y-96463571D01*
X193761903Y-96463571D02*
X193666665Y-96415952D01*
X193666665Y-96415952D02*
X193476189Y-96415952D01*
X193476189Y-96415952D02*
X193380951Y-96463571D01*
X193380951Y-96463571D02*
X193333332Y-96558809D01*
X193333332Y-96558809D02*
X193333332Y-96654047D01*
X193333332Y-96654047D02*
X193809522Y-96749285D01*
X192904760Y-97082619D02*
X192904760Y-96415952D01*
X192904760Y-96606428D02*
X192857141Y-96511190D01*
X192857141Y-96511190D02*
X192809522Y-96463571D01*
X192809522Y-96463571D02*
X192714284Y-96415952D01*
X192714284Y-96415952D02*
X192619046Y-96415952D01*
%LPC*%
D11*
%TO.C,H5*%
X164000000Y-96500000D03*
%TD*%
%TO.C,H6*%
X164000000Y-74000000D03*
%TD*%
%TO.C,H2*%
X259000000Y-74000000D03*
%TD*%
%TO.C,H1*%
X259000000Y-96500000D03*
%TD*%
M02*
