%TF.GenerationSoftware,KiCad,Pcbnew,7.0.1*%
%TF.CreationDate,2023-12-17T22:32:21-05:00*%
%TF.ProjectId,channel_splitter,6368616e-6e65-46c5-9f73-706c69747465,rev?*%
%TF.SameCoordinates,Original*%
%TF.FileFunction,Legend,Bot*%
%TF.FilePolarity,Positive*%
%FSLAX46Y46*%
G04 Gerber Fmt 4.6, Leading zero omitted, Abs format (unit mm)*
G04 Created by KiCad (PCBNEW 7.0.1) date 2023-12-17 22:32:21*
%MOMM*%
%LPD*%
G01*
G04 APERTURE LIST*
%ADD10C,0.150000*%
%ADD11C,4.000000*%
G04 APERTURE END LIST*
D10*
X216119048Y-148462619D02*
X216119048Y-149176904D01*
X216119048Y-149176904D02*
X216166667Y-149319761D01*
X216166667Y-149319761D02*
X216261905Y-149415000D01*
X216261905Y-149415000D02*
X216404762Y-149462619D01*
X216404762Y-149462619D02*
X216500000Y-149462619D01*
X215166667Y-149462619D02*
X215642857Y-149462619D01*
X215642857Y-149462619D02*
X215642857Y-148462619D01*
X214261905Y-149367380D02*
X214309524Y-149415000D01*
X214309524Y-149415000D02*
X214452381Y-149462619D01*
X214452381Y-149462619D02*
X214547619Y-149462619D01*
X214547619Y-149462619D02*
X214690476Y-149415000D01*
X214690476Y-149415000D02*
X214785714Y-149319761D01*
X214785714Y-149319761D02*
X214833333Y-149224523D01*
X214833333Y-149224523D02*
X214880952Y-149034047D01*
X214880952Y-149034047D02*
X214880952Y-148891190D01*
X214880952Y-148891190D02*
X214833333Y-148700714D01*
X214833333Y-148700714D02*
X214785714Y-148605476D01*
X214785714Y-148605476D02*
X214690476Y-148510238D01*
X214690476Y-148510238D02*
X214547619Y-148462619D01*
X214547619Y-148462619D02*
X214452381Y-148462619D01*
X214452381Y-148462619D02*
X214309524Y-148510238D01*
X214309524Y-148510238D02*
X214261905Y-148557857D01*
X213547619Y-148462619D02*
X213547619Y-149176904D01*
X213547619Y-149176904D02*
X213595238Y-149319761D01*
X213595238Y-149319761D02*
X213690476Y-149415000D01*
X213690476Y-149415000D02*
X213833333Y-149462619D01*
X213833333Y-149462619D02*
X213928571Y-149462619D01*
X212595238Y-149462619D02*
X213071428Y-149462619D01*
X213071428Y-149462619D02*
X213071428Y-148462619D01*
X211690476Y-149367380D02*
X211738095Y-149415000D01*
X211738095Y-149415000D02*
X211880952Y-149462619D01*
X211880952Y-149462619D02*
X211976190Y-149462619D01*
X211976190Y-149462619D02*
X212119047Y-149415000D01*
X212119047Y-149415000D02*
X212214285Y-149319761D01*
X212214285Y-149319761D02*
X212261904Y-149224523D01*
X212261904Y-149224523D02*
X212309523Y-149034047D01*
X212309523Y-149034047D02*
X212309523Y-148891190D01*
X212309523Y-148891190D02*
X212261904Y-148700714D01*
X212261904Y-148700714D02*
X212214285Y-148605476D01*
X212214285Y-148605476D02*
X212119047Y-148510238D01*
X212119047Y-148510238D02*
X211976190Y-148462619D01*
X211976190Y-148462619D02*
X211880952Y-148462619D01*
X211880952Y-148462619D02*
X211738095Y-148510238D01*
X211738095Y-148510238D02*
X211690476Y-148557857D01*
X210976190Y-148462619D02*
X210976190Y-149176904D01*
X210976190Y-149176904D02*
X211023809Y-149319761D01*
X211023809Y-149319761D02*
X211119047Y-149415000D01*
X211119047Y-149415000D02*
X211261904Y-149462619D01*
X211261904Y-149462619D02*
X211357142Y-149462619D01*
X210023809Y-149462619D02*
X210499999Y-149462619D01*
X210499999Y-149462619D02*
X210499999Y-148462619D01*
X209119047Y-149367380D02*
X209166666Y-149415000D01*
X209166666Y-149415000D02*
X209309523Y-149462619D01*
X209309523Y-149462619D02*
X209404761Y-149462619D01*
X209404761Y-149462619D02*
X209547618Y-149415000D01*
X209547618Y-149415000D02*
X209642856Y-149319761D01*
X209642856Y-149319761D02*
X209690475Y-149224523D01*
X209690475Y-149224523D02*
X209738094Y-149034047D01*
X209738094Y-149034047D02*
X209738094Y-148891190D01*
X209738094Y-148891190D02*
X209690475Y-148700714D01*
X209690475Y-148700714D02*
X209642856Y-148605476D01*
X209642856Y-148605476D02*
X209547618Y-148510238D01*
X209547618Y-148510238D02*
X209404761Y-148462619D01*
X209404761Y-148462619D02*
X209309523Y-148462619D01*
X209309523Y-148462619D02*
X209166666Y-148510238D01*
X209166666Y-148510238D02*
X209119047Y-148557857D01*
X208404761Y-148462619D02*
X208404761Y-149176904D01*
X208404761Y-149176904D02*
X208452380Y-149319761D01*
X208452380Y-149319761D02*
X208547618Y-149415000D01*
X208547618Y-149415000D02*
X208690475Y-149462619D01*
X208690475Y-149462619D02*
X208785713Y-149462619D01*
X207452380Y-149462619D02*
X207928570Y-149462619D01*
X207928570Y-149462619D02*
X207928570Y-148462619D01*
X206547618Y-149367380D02*
X206595237Y-149415000D01*
X206595237Y-149415000D02*
X206738094Y-149462619D01*
X206738094Y-149462619D02*
X206833332Y-149462619D01*
X206833332Y-149462619D02*
X206976189Y-149415000D01*
X206976189Y-149415000D02*
X207071427Y-149319761D01*
X207071427Y-149319761D02*
X207119046Y-149224523D01*
X207119046Y-149224523D02*
X207166665Y-149034047D01*
X207166665Y-149034047D02*
X207166665Y-148891190D01*
X207166665Y-148891190D02*
X207119046Y-148700714D01*
X207119046Y-148700714D02*
X207071427Y-148605476D01*
X207071427Y-148605476D02*
X206976189Y-148510238D01*
X206976189Y-148510238D02*
X206833332Y-148462619D01*
X206833332Y-148462619D02*
X206738094Y-148462619D01*
X206738094Y-148462619D02*
X206595237Y-148510238D01*
X206595237Y-148510238D02*
X206547618Y-148557857D01*
%LPC*%
D11*
%TO.C,H4*%
X164000000Y-146000000D03*
%TD*%
%TO.C,H7*%
X259000000Y-123500000D03*
%TD*%
%TO.C,H8*%
X259000000Y-146000000D03*
%TD*%
%TO.C,H3*%
X164000000Y-123500000D03*
%TD*%
M02*
