%TF.GenerationSoftware,KiCad,Pcbnew,7.0.1*%
%TF.CreationDate,2023-12-18T14:15:22-05:00*%
%TF.ProjectId,channel_splitter,6368616e-6e65-46c5-9f73-706c69747465,rev?*%
%TF.SameCoordinates,Original*%
%TF.FileFunction,Legend,Bot*%
%TF.FilePolarity,Positive*%
%FSLAX46Y46*%
G04 Gerber Fmt 4.6, Leading zero omitted, Abs format (unit mm)*
G04 Created by KiCad (PCBNEW 7.0.1) date 2023-12-18 14:15:22*
%MOMM*%
%LPD*%
G01*
G04 APERTURE LIST*
%ADD10C,0.150000*%
%ADD11C,4.000000*%
G04 APERTURE END LIST*
D10*
X216119048Y-148462619D02*
X216119048Y-149176904D01*
X216119048Y-149176904D02*
X216166667Y-149319761D01*
X216166667Y-149319761D02*
X216261905Y-149415000D01*
X216261905Y-149415000D02*
X216404762Y-149462619D01*
X216404762Y-149462619D02*
X216500000Y-149462619D01*
X215166667Y-149462619D02*
X215642857Y-149462619D01*
X215642857Y-149462619D02*
X215642857Y-148462619D01*
X214261905Y-149367380D02*
X214309524Y-149415000D01*
X214309524Y-149415000D02*
X214452381Y-149462619D01*
X214452381Y-149462619D02*
X214547619Y-149462619D01*
X214547619Y-149462619D02*
X214690476Y-149415000D01*
X214690476Y-149415000D02*
X214785714Y-149319761D01*
X214785714Y-149319761D02*
X214833333Y-149224523D01*
X214833333Y-149224523D02*
X214880952Y-149034047D01*
X214880952Y-149034047D02*
X214880952Y-148891190D01*
X214880952Y-148891190D02*
X214833333Y-148700714D01*
X214833333Y-148700714D02*
X214785714Y-148605476D01*
X214785714Y-148605476D02*
X214690476Y-148510238D01*
X214690476Y-148510238D02*
X214547619Y-148462619D01*
X214547619Y-148462619D02*
X214452381Y-148462619D01*
X214452381Y-148462619D02*
X214309524Y-148510238D01*
X214309524Y-148510238D02*
X214261905Y-148557857D01*
X213547619Y-148462619D02*
X213547619Y-149176904D01*
X213547619Y-149176904D02*
X213595238Y-149319761D01*
X213595238Y-149319761D02*
X213690476Y-149415000D01*
X213690476Y-149415000D02*
X213833333Y-149462619D01*
X213833333Y-149462619D02*
X213928571Y-149462619D01*
X212595238Y-149462619D02*
X213071428Y-149462619D01*
X213071428Y-149462619D02*
X213071428Y-148462619D01*
X211690476Y-149367380D02*
X211738095Y-149415000D01*
X211738095Y-149415000D02*
X211880952Y-149462619D01*
X211880952Y-149462619D02*
X211976190Y-149462619D01*
X211976190Y-149462619D02*
X212119047Y-149415000D01*
X212119047Y-149415000D02*
X212214285Y-149319761D01*
X212214285Y-149319761D02*
X212261904Y-149224523D01*
X212261904Y-149224523D02*
X212309523Y-149034047D01*
X212309523Y-149034047D02*
X212309523Y-148891190D01*
X212309523Y-148891190D02*
X212261904Y-148700714D01*
X212261904Y-148700714D02*
X212214285Y-148605476D01*
X212214285Y-148605476D02*
X212119047Y-148510238D01*
X212119047Y-148510238D02*
X211976190Y-148462619D01*
X211976190Y-148462619D02*
X211880952Y-148462619D01*
X211880952Y-148462619D02*
X211738095Y-148510238D01*
X211738095Y-148510238D02*
X211690476Y-148557857D01*
X210976190Y-148462619D02*
X210976190Y-149176904D01*
X210976190Y-149176904D02*
X211023809Y-149319761D01*
X211023809Y-149319761D02*
X211119047Y-149415000D01*
X211119047Y-149415000D02*
X211261904Y-149462619D01*
X211261904Y-149462619D02*
X211357142Y-149462619D01*
X210023809Y-149462619D02*
X210499999Y-149462619D01*
X210499999Y-149462619D02*
X210499999Y-148462619D01*
X209119047Y-149367380D02*
X209166666Y-149415000D01*
X209166666Y-149415000D02*
X209309523Y-149462619D01*
X209309523Y-149462619D02*
X209404761Y-149462619D01*
X209404761Y-149462619D02*
X209547618Y-149415000D01*
X209547618Y-149415000D02*
X209642856Y-149319761D01*
X209642856Y-149319761D02*
X209690475Y-149224523D01*
X209690475Y-149224523D02*
X209738094Y-149034047D01*
X209738094Y-149034047D02*
X209738094Y-148891190D01*
X209738094Y-148891190D02*
X209690475Y-148700714D01*
X209690475Y-148700714D02*
X209642856Y-148605476D01*
X209642856Y-148605476D02*
X209547618Y-148510238D01*
X209547618Y-148510238D02*
X209404761Y-148462619D01*
X209404761Y-148462619D02*
X209309523Y-148462619D01*
X209309523Y-148462619D02*
X209166666Y-148510238D01*
X209166666Y-148510238D02*
X209119047Y-148557857D01*
X208404761Y-148462619D02*
X208404761Y-149176904D01*
X208404761Y-149176904D02*
X208452380Y-149319761D01*
X208452380Y-149319761D02*
X208547618Y-149415000D01*
X208547618Y-149415000D02*
X208690475Y-149462619D01*
X208690475Y-149462619D02*
X208785713Y-149462619D01*
X207452380Y-149462619D02*
X207928570Y-149462619D01*
X207928570Y-149462619D02*
X207928570Y-148462619D01*
X206547618Y-149367380D02*
X206595237Y-149415000D01*
X206595237Y-149415000D02*
X206738094Y-149462619D01*
X206738094Y-149462619D02*
X206833332Y-149462619D01*
X206833332Y-149462619D02*
X206976189Y-149415000D01*
X206976189Y-149415000D02*
X207071427Y-149319761D01*
X207071427Y-149319761D02*
X207119046Y-149224523D01*
X207119046Y-149224523D02*
X207166665Y-149034047D01*
X207166665Y-149034047D02*
X207166665Y-148891190D01*
X207166665Y-148891190D02*
X207119046Y-148700714D01*
X207119046Y-148700714D02*
X207071427Y-148605476D01*
X207071427Y-148605476D02*
X206976189Y-148510238D01*
X206976189Y-148510238D02*
X206833332Y-148462619D01*
X206833332Y-148462619D02*
X206738094Y-148462619D01*
X206738094Y-148462619D02*
X206595237Y-148510238D01*
X206595237Y-148510238D02*
X206547618Y-148557857D01*
X224095239Y-143342619D02*
X224095239Y-142342619D01*
X224095239Y-142342619D02*
X223761906Y-143056904D01*
X223761906Y-143056904D02*
X223428573Y-142342619D01*
X223428573Y-142342619D02*
X223428573Y-143342619D01*
X222952382Y-143342619D02*
X222952382Y-142342619D01*
X222476192Y-143342619D02*
X222476192Y-142342619D01*
X222476192Y-142342619D02*
X222238097Y-142342619D01*
X222238097Y-142342619D02*
X222095240Y-142390238D01*
X222095240Y-142390238D02*
X222000002Y-142485476D01*
X222000002Y-142485476D02*
X221952383Y-142580714D01*
X221952383Y-142580714D02*
X221904764Y-142771190D01*
X221904764Y-142771190D02*
X221904764Y-142914047D01*
X221904764Y-142914047D02*
X221952383Y-143104523D01*
X221952383Y-143104523D02*
X222000002Y-143199761D01*
X222000002Y-143199761D02*
X222095240Y-143295000D01*
X222095240Y-143295000D02*
X222238097Y-143342619D01*
X222238097Y-143342619D02*
X222476192Y-143342619D01*
X221476192Y-143342619D02*
X221476192Y-142342619D01*
X219666669Y-143247380D02*
X219714288Y-143295000D01*
X219714288Y-143295000D02*
X219857145Y-143342619D01*
X219857145Y-143342619D02*
X219952383Y-143342619D01*
X219952383Y-143342619D02*
X220095240Y-143295000D01*
X220095240Y-143295000D02*
X220190478Y-143199761D01*
X220190478Y-143199761D02*
X220238097Y-143104523D01*
X220238097Y-143104523D02*
X220285716Y-142914047D01*
X220285716Y-142914047D02*
X220285716Y-142771190D01*
X220285716Y-142771190D02*
X220238097Y-142580714D01*
X220238097Y-142580714D02*
X220190478Y-142485476D01*
X220190478Y-142485476D02*
X220095240Y-142390238D01*
X220095240Y-142390238D02*
X219952383Y-142342619D01*
X219952383Y-142342619D02*
X219857145Y-142342619D01*
X219857145Y-142342619D02*
X219714288Y-142390238D01*
X219714288Y-142390238D02*
X219666669Y-142437857D01*
X219238097Y-143342619D02*
X219238097Y-142342619D01*
X218809526Y-143342619D02*
X218809526Y-142818809D01*
X218809526Y-142818809D02*
X218857145Y-142723571D01*
X218857145Y-142723571D02*
X218952383Y-142675952D01*
X218952383Y-142675952D02*
X219095240Y-142675952D01*
X219095240Y-142675952D02*
X219190478Y-142723571D01*
X219190478Y-142723571D02*
X219238097Y-142771190D01*
X217904764Y-143342619D02*
X217904764Y-142818809D01*
X217904764Y-142818809D02*
X217952383Y-142723571D01*
X217952383Y-142723571D02*
X218047621Y-142675952D01*
X218047621Y-142675952D02*
X218238097Y-142675952D01*
X218238097Y-142675952D02*
X218333335Y-142723571D01*
X217904764Y-143295000D02*
X218000002Y-143342619D01*
X218000002Y-143342619D02*
X218238097Y-143342619D01*
X218238097Y-143342619D02*
X218333335Y-143295000D01*
X218333335Y-143295000D02*
X218380954Y-143199761D01*
X218380954Y-143199761D02*
X218380954Y-143104523D01*
X218380954Y-143104523D02*
X218333335Y-143009285D01*
X218333335Y-143009285D02*
X218238097Y-142961666D01*
X218238097Y-142961666D02*
X218000002Y-142961666D01*
X218000002Y-142961666D02*
X217904764Y-142914047D01*
X217428573Y-142675952D02*
X217428573Y-143342619D01*
X217428573Y-142771190D02*
X217380954Y-142723571D01*
X217380954Y-142723571D02*
X217285716Y-142675952D01*
X217285716Y-142675952D02*
X217142859Y-142675952D01*
X217142859Y-142675952D02*
X217047621Y-142723571D01*
X217047621Y-142723571D02*
X217000002Y-142818809D01*
X217000002Y-142818809D02*
X217000002Y-143342619D01*
X216523811Y-142675952D02*
X216523811Y-143342619D01*
X216523811Y-142771190D02*
X216476192Y-142723571D01*
X216476192Y-142723571D02*
X216380954Y-142675952D01*
X216380954Y-142675952D02*
X216238097Y-142675952D01*
X216238097Y-142675952D02*
X216142859Y-142723571D01*
X216142859Y-142723571D02*
X216095240Y-142818809D01*
X216095240Y-142818809D02*
X216095240Y-143342619D01*
X215238097Y-143295000D02*
X215333335Y-143342619D01*
X215333335Y-143342619D02*
X215523811Y-143342619D01*
X215523811Y-143342619D02*
X215619049Y-143295000D01*
X215619049Y-143295000D02*
X215666668Y-143199761D01*
X215666668Y-143199761D02*
X215666668Y-142818809D01*
X215666668Y-142818809D02*
X215619049Y-142723571D01*
X215619049Y-142723571D02*
X215523811Y-142675952D01*
X215523811Y-142675952D02*
X215333335Y-142675952D01*
X215333335Y-142675952D02*
X215238097Y-142723571D01*
X215238097Y-142723571D02*
X215190478Y-142818809D01*
X215190478Y-142818809D02*
X215190478Y-142914047D01*
X215190478Y-142914047D02*
X215666668Y-143009285D01*
X214619049Y-143342619D02*
X214714287Y-143295000D01*
X214714287Y-143295000D02*
X214761906Y-143199761D01*
X214761906Y-143199761D02*
X214761906Y-142342619D01*
X213523810Y-143295000D02*
X213380953Y-143342619D01*
X213380953Y-143342619D02*
X213142858Y-143342619D01*
X213142858Y-143342619D02*
X213047620Y-143295000D01*
X213047620Y-143295000D02*
X213000001Y-143247380D01*
X213000001Y-143247380D02*
X212952382Y-143152142D01*
X212952382Y-143152142D02*
X212952382Y-143056904D01*
X212952382Y-143056904D02*
X213000001Y-142961666D01*
X213000001Y-142961666D02*
X213047620Y-142914047D01*
X213047620Y-142914047D02*
X213142858Y-142866428D01*
X213142858Y-142866428D02*
X213333334Y-142818809D01*
X213333334Y-142818809D02*
X213428572Y-142771190D01*
X213428572Y-142771190D02*
X213476191Y-142723571D01*
X213476191Y-142723571D02*
X213523810Y-142628333D01*
X213523810Y-142628333D02*
X213523810Y-142533095D01*
X213523810Y-142533095D02*
X213476191Y-142437857D01*
X213476191Y-142437857D02*
X213428572Y-142390238D01*
X213428572Y-142390238D02*
X213333334Y-142342619D01*
X213333334Y-142342619D02*
X213095239Y-142342619D01*
X213095239Y-142342619D02*
X212952382Y-142390238D01*
X212523810Y-142675952D02*
X212523810Y-143675952D01*
X212523810Y-142723571D02*
X212428572Y-142675952D01*
X212428572Y-142675952D02*
X212238096Y-142675952D01*
X212238096Y-142675952D02*
X212142858Y-142723571D01*
X212142858Y-142723571D02*
X212095239Y-142771190D01*
X212095239Y-142771190D02*
X212047620Y-142866428D01*
X212047620Y-142866428D02*
X212047620Y-143152142D01*
X212047620Y-143152142D02*
X212095239Y-143247380D01*
X212095239Y-143247380D02*
X212142858Y-143295000D01*
X212142858Y-143295000D02*
X212238096Y-143342619D01*
X212238096Y-143342619D02*
X212428572Y-143342619D01*
X212428572Y-143342619D02*
X212523810Y-143295000D01*
X211476191Y-143342619D02*
X211571429Y-143295000D01*
X211571429Y-143295000D02*
X211619048Y-143199761D01*
X211619048Y-143199761D02*
X211619048Y-142342619D01*
X211095238Y-143342619D02*
X211095238Y-142675952D01*
X211095238Y-142342619D02*
X211142857Y-142390238D01*
X211142857Y-142390238D02*
X211095238Y-142437857D01*
X211095238Y-142437857D02*
X211047619Y-142390238D01*
X211047619Y-142390238D02*
X211095238Y-142342619D01*
X211095238Y-142342619D02*
X211095238Y-142437857D01*
X210761905Y-142675952D02*
X210380953Y-142675952D01*
X210619048Y-142342619D02*
X210619048Y-143199761D01*
X210619048Y-143199761D02*
X210571429Y-143295000D01*
X210571429Y-143295000D02*
X210476191Y-143342619D01*
X210476191Y-143342619D02*
X210380953Y-143342619D01*
X210190476Y-142675952D02*
X209809524Y-142675952D01*
X210047619Y-142342619D02*
X210047619Y-143199761D01*
X210047619Y-143199761D02*
X210000000Y-143295000D01*
X210000000Y-143295000D02*
X209904762Y-143342619D01*
X209904762Y-143342619D02*
X209809524Y-143342619D01*
X209095238Y-143295000D02*
X209190476Y-143342619D01*
X209190476Y-143342619D02*
X209380952Y-143342619D01*
X209380952Y-143342619D02*
X209476190Y-143295000D01*
X209476190Y-143295000D02*
X209523809Y-143199761D01*
X209523809Y-143199761D02*
X209523809Y-142818809D01*
X209523809Y-142818809D02*
X209476190Y-142723571D01*
X209476190Y-142723571D02*
X209380952Y-142675952D01*
X209380952Y-142675952D02*
X209190476Y-142675952D01*
X209190476Y-142675952D02*
X209095238Y-142723571D01*
X209095238Y-142723571D02*
X209047619Y-142818809D01*
X209047619Y-142818809D02*
X209047619Y-142914047D01*
X209047619Y-142914047D02*
X209523809Y-143009285D01*
X208619047Y-143342619D02*
X208619047Y-142675952D01*
X208619047Y-142866428D02*
X208571428Y-142771190D01*
X208571428Y-142771190D02*
X208523809Y-142723571D01*
X208523809Y-142723571D02*
X208428571Y-142675952D01*
X208428571Y-142675952D02*
X208333333Y-142675952D01*
X206904761Y-142818809D02*
X207238094Y-142818809D01*
X207238094Y-143342619D02*
X207238094Y-142342619D01*
X207238094Y-142342619D02*
X206761904Y-142342619D01*
X206380951Y-143342619D02*
X206380951Y-142675952D01*
X206380951Y-142866428D02*
X206333332Y-142771190D01*
X206333332Y-142771190D02*
X206285713Y-142723571D01*
X206285713Y-142723571D02*
X206190475Y-142675952D01*
X206190475Y-142675952D02*
X206095237Y-142675952D01*
X205619046Y-143342619D02*
X205714284Y-143295000D01*
X205714284Y-143295000D02*
X205761903Y-143247380D01*
X205761903Y-143247380D02*
X205809522Y-143152142D01*
X205809522Y-143152142D02*
X205809522Y-142866428D01*
X205809522Y-142866428D02*
X205761903Y-142771190D01*
X205761903Y-142771190D02*
X205714284Y-142723571D01*
X205714284Y-142723571D02*
X205619046Y-142675952D01*
X205619046Y-142675952D02*
X205476189Y-142675952D01*
X205476189Y-142675952D02*
X205380951Y-142723571D01*
X205380951Y-142723571D02*
X205333332Y-142771190D01*
X205333332Y-142771190D02*
X205285713Y-142866428D01*
X205285713Y-142866428D02*
X205285713Y-143152142D01*
X205285713Y-143152142D02*
X205333332Y-143247380D01*
X205333332Y-143247380D02*
X205380951Y-143295000D01*
X205380951Y-143295000D02*
X205476189Y-143342619D01*
X205476189Y-143342619D02*
X205619046Y-143342619D01*
X204857141Y-142675952D02*
X204857141Y-143342619D01*
X204857141Y-142771190D02*
X204809522Y-142723571D01*
X204809522Y-142723571D02*
X204714284Y-142675952D01*
X204714284Y-142675952D02*
X204571427Y-142675952D01*
X204571427Y-142675952D02*
X204476189Y-142723571D01*
X204476189Y-142723571D02*
X204428570Y-142818809D01*
X204428570Y-142818809D02*
X204428570Y-143342619D01*
X204095236Y-142675952D02*
X203714284Y-142675952D01*
X203952379Y-142342619D02*
X203952379Y-143199761D01*
X203952379Y-143199761D02*
X203904760Y-143295000D01*
X203904760Y-143295000D02*
X203809522Y-143342619D01*
X203809522Y-143342619D02*
X203714284Y-143342619D01*
X202619045Y-143342619D02*
X202619045Y-142342619D01*
X202619045Y-142342619D02*
X202238093Y-142342619D01*
X202238093Y-142342619D02*
X202142855Y-142390238D01*
X202142855Y-142390238D02*
X202095236Y-142437857D01*
X202095236Y-142437857D02*
X202047617Y-142533095D01*
X202047617Y-142533095D02*
X202047617Y-142675952D01*
X202047617Y-142675952D02*
X202095236Y-142771190D01*
X202095236Y-142771190D02*
X202142855Y-142818809D01*
X202142855Y-142818809D02*
X202238093Y-142866428D01*
X202238093Y-142866428D02*
X202619045Y-142866428D01*
X201190474Y-143342619D02*
X201190474Y-142818809D01*
X201190474Y-142818809D02*
X201238093Y-142723571D01*
X201238093Y-142723571D02*
X201333331Y-142675952D01*
X201333331Y-142675952D02*
X201523807Y-142675952D01*
X201523807Y-142675952D02*
X201619045Y-142723571D01*
X201190474Y-143295000D02*
X201285712Y-143342619D01*
X201285712Y-143342619D02*
X201523807Y-143342619D01*
X201523807Y-143342619D02*
X201619045Y-143295000D01*
X201619045Y-143295000D02*
X201666664Y-143199761D01*
X201666664Y-143199761D02*
X201666664Y-143104523D01*
X201666664Y-143104523D02*
X201619045Y-143009285D01*
X201619045Y-143009285D02*
X201523807Y-142961666D01*
X201523807Y-142961666D02*
X201285712Y-142961666D01*
X201285712Y-142961666D02*
X201190474Y-142914047D01*
X200714283Y-142675952D02*
X200714283Y-143342619D01*
X200714283Y-142771190D02*
X200666664Y-142723571D01*
X200666664Y-142723571D02*
X200571426Y-142675952D01*
X200571426Y-142675952D02*
X200428569Y-142675952D01*
X200428569Y-142675952D02*
X200333331Y-142723571D01*
X200333331Y-142723571D02*
X200285712Y-142818809D01*
X200285712Y-142818809D02*
X200285712Y-143342619D01*
X199428569Y-143295000D02*
X199523807Y-143342619D01*
X199523807Y-143342619D02*
X199714283Y-143342619D01*
X199714283Y-143342619D02*
X199809521Y-143295000D01*
X199809521Y-143295000D02*
X199857140Y-143199761D01*
X199857140Y-143199761D02*
X199857140Y-142818809D01*
X199857140Y-142818809D02*
X199809521Y-142723571D01*
X199809521Y-142723571D02*
X199714283Y-142675952D01*
X199714283Y-142675952D02*
X199523807Y-142675952D01*
X199523807Y-142675952D02*
X199428569Y-142723571D01*
X199428569Y-142723571D02*
X199380950Y-142818809D01*
X199380950Y-142818809D02*
X199380950Y-142914047D01*
X199380950Y-142914047D02*
X199857140Y-143009285D01*
X198809521Y-143342619D02*
X198904759Y-143295000D01*
X198904759Y-143295000D02*
X198952378Y-143199761D01*
X198952378Y-143199761D02*
X198952378Y-142342619D01*
X224285715Y-144962619D02*
X224285715Y-143962619D01*
X224285715Y-143962619D02*
X223952382Y-144676904D01*
X223952382Y-144676904D02*
X223619049Y-143962619D01*
X223619049Y-143962619D02*
X223619049Y-144962619D01*
X222714287Y-144962619D02*
X222714287Y-144438809D01*
X222714287Y-144438809D02*
X222761906Y-144343571D01*
X222761906Y-144343571D02*
X222857144Y-144295952D01*
X222857144Y-144295952D02*
X223047620Y-144295952D01*
X223047620Y-144295952D02*
X223142858Y-144343571D01*
X222714287Y-144915000D02*
X222809525Y-144962619D01*
X222809525Y-144962619D02*
X223047620Y-144962619D01*
X223047620Y-144962619D02*
X223142858Y-144915000D01*
X223142858Y-144915000D02*
X223190477Y-144819761D01*
X223190477Y-144819761D02*
X223190477Y-144724523D01*
X223190477Y-144724523D02*
X223142858Y-144629285D01*
X223142858Y-144629285D02*
X223047620Y-144581666D01*
X223047620Y-144581666D02*
X222809525Y-144581666D01*
X222809525Y-144581666D02*
X222714287Y-144534047D01*
X222333334Y-144962619D02*
X221809525Y-144295952D01*
X222333334Y-144295952D02*
X221809525Y-144962619D01*
X220666667Y-144962619D02*
X220666667Y-143962619D01*
X220666667Y-143962619D02*
X220285715Y-143962619D01*
X220285715Y-143962619D02*
X220190477Y-144010238D01*
X220190477Y-144010238D02*
X220142858Y-144057857D01*
X220142858Y-144057857D02*
X220095239Y-144153095D01*
X220095239Y-144153095D02*
X220095239Y-144295952D01*
X220095239Y-144295952D02*
X220142858Y-144391190D01*
X220142858Y-144391190D02*
X220190477Y-144438809D01*
X220190477Y-144438809D02*
X220285715Y-144486428D01*
X220285715Y-144486428D02*
X220666667Y-144486428D01*
X219666667Y-144962619D02*
X219666667Y-144295952D01*
X219666667Y-144486428D02*
X219619048Y-144391190D01*
X219619048Y-144391190D02*
X219571429Y-144343571D01*
X219571429Y-144343571D02*
X219476191Y-144295952D01*
X219476191Y-144295952D02*
X219380953Y-144295952D01*
X218904762Y-144962619D02*
X219000000Y-144915000D01*
X219000000Y-144915000D02*
X219047619Y-144867380D01*
X219047619Y-144867380D02*
X219095238Y-144772142D01*
X219095238Y-144772142D02*
X219095238Y-144486428D01*
X219095238Y-144486428D02*
X219047619Y-144391190D01*
X219047619Y-144391190D02*
X219000000Y-144343571D01*
X219000000Y-144343571D02*
X218904762Y-144295952D01*
X218904762Y-144295952D02*
X218761905Y-144295952D01*
X218761905Y-144295952D02*
X218666667Y-144343571D01*
X218666667Y-144343571D02*
X218619048Y-144391190D01*
X218619048Y-144391190D02*
X218571429Y-144486428D01*
X218571429Y-144486428D02*
X218571429Y-144772142D01*
X218571429Y-144772142D02*
X218619048Y-144867380D01*
X218619048Y-144867380D02*
X218666667Y-144915000D01*
X218666667Y-144915000D02*
X218761905Y-144962619D01*
X218761905Y-144962619D02*
X218904762Y-144962619D01*
X218190476Y-144915000D02*
X218095238Y-144962619D01*
X218095238Y-144962619D02*
X217904762Y-144962619D01*
X217904762Y-144962619D02*
X217809524Y-144915000D01*
X217809524Y-144915000D02*
X217761905Y-144819761D01*
X217761905Y-144819761D02*
X217761905Y-144772142D01*
X217761905Y-144772142D02*
X217809524Y-144676904D01*
X217809524Y-144676904D02*
X217904762Y-144629285D01*
X217904762Y-144629285D02*
X218047619Y-144629285D01*
X218047619Y-144629285D02*
X218142857Y-144581666D01*
X218142857Y-144581666D02*
X218190476Y-144486428D01*
X218190476Y-144486428D02*
X218190476Y-144438809D01*
X218190476Y-144438809D02*
X218142857Y-144343571D01*
X218142857Y-144343571D02*
X218047619Y-144295952D01*
X218047619Y-144295952D02*
X217904762Y-144295952D01*
X217904762Y-144295952D02*
X217809524Y-144343571D01*
X217333333Y-144962619D02*
X217333333Y-143962619D01*
X217238095Y-144581666D02*
X216952381Y-144962619D01*
X216952381Y-144295952D02*
X217333333Y-144676904D01*
X216095238Y-144962619D02*
X216095238Y-144438809D01*
X216095238Y-144438809D02*
X216142857Y-144343571D01*
X216142857Y-144343571D02*
X216238095Y-144295952D01*
X216238095Y-144295952D02*
X216428571Y-144295952D01*
X216428571Y-144295952D02*
X216523809Y-144343571D01*
X216095238Y-144915000D02*
X216190476Y-144962619D01*
X216190476Y-144962619D02*
X216428571Y-144962619D01*
X216428571Y-144962619D02*
X216523809Y-144915000D01*
X216523809Y-144915000D02*
X216571428Y-144819761D01*
X216571428Y-144819761D02*
X216571428Y-144724523D01*
X216571428Y-144724523D02*
X216523809Y-144629285D01*
X216523809Y-144629285D02*
X216428571Y-144581666D01*
X216428571Y-144581666D02*
X216190476Y-144581666D01*
X216190476Y-144581666D02*
X216095238Y-144534047D01*
X215190476Y-144295952D02*
X215190476Y-144962619D01*
X215619047Y-144295952D02*
X215619047Y-144819761D01*
X215619047Y-144819761D02*
X215571428Y-144915000D01*
X215571428Y-144915000D02*
X215476190Y-144962619D01*
X215476190Y-144962619D02*
X215333333Y-144962619D01*
X215333333Y-144962619D02*
X215238095Y-144915000D01*
X215238095Y-144915000D02*
X215190476Y-144867380D01*
X214333333Y-144915000D02*
X214428571Y-144962619D01*
X214428571Y-144962619D02*
X214619047Y-144962619D01*
X214619047Y-144962619D02*
X214714285Y-144915000D01*
X214714285Y-144915000D02*
X214761904Y-144819761D01*
X214761904Y-144819761D02*
X214761904Y-144438809D01*
X214761904Y-144438809D02*
X214714285Y-144343571D01*
X214714285Y-144343571D02*
X214619047Y-144295952D01*
X214619047Y-144295952D02*
X214428571Y-144295952D01*
X214428571Y-144295952D02*
X214333333Y-144343571D01*
X214333333Y-144343571D02*
X214285714Y-144438809D01*
X214285714Y-144438809D02*
X214285714Y-144534047D01*
X214285714Y-144534047D02*
X214761904Y-144629285D01*
X213857142Y-144962619D02*
X213857142Y-144295952D01*
X213857142Y-144486428D02*
X213809523Y-144391190D01*
X213809523Y-144391190D02*
X213761904Y-144343571D01*
X213761904Y-144343571D02*
X213666666Y-144295952D01*
X213666666Y-144295952D02*
X213571428Y-144295952D01*
X210952379Y-144962619D02*
X210952379Y-143962619D01*
X210952379Y-143962619D02*
X210714284Y-143962619D01*
X210714284Y-143962619D02*
X210571427Y-144010238D01*
X210571427Y-144010238D02*
X210476189Y-144105476D01*
X210476189Y-144105476D02*
X210428570Y-144200714D01*
X210428570Y-144200714D02*
X210380951Y-144391190D01*
X210380951Y-144391190D02*
X210380951Y-144534047D01*
X210380951Y-144534047D02*
X210428570Y-144724523D01*
X210428570Y-144724523D02*
X210476189Y-144819761D01*
X210476189Y-144819761D02*
X210571427Y-144915000D01*
X210571427Y-144915000D02*
X210714284Y-144962619D01*
X210714284Y-144962619D02*
X210952379Y-144962619D01*
X209571427Y-144915000D02*
X209666665Y-144962619D01*
X209666665Y-144962619D02*
X209857141Y-144962619D01*
X209857141Y-144962619D02*
X209952379Y-144915000D01*
X209952379Y-144915000D02*
X209999998Y-144819761D01*
X209999998Y-144819761D02*
X209999998Y-144438809D01*
X209999998Y-144438809D02*
X209952379Y-144343571D01*
X209952379Y-144343571D02*
X209857141Y-144295952D01*
X209857141Y-144295952D02*
X209666665Y-144295952D01*
X209666665Y-144295952D02*
X209571427Y-144343571D01*
X209571427Y-144343571D02*
X209523808Y-144438809D01*
X209523808Y-144438809D02*
X209523808Y-144534047D01*
X209523808Y-144534047D02*
X209999998Y-144629285D01*
X208666665Y-144915000D02*
X208761903Y-144962619D01*
X208761903Y-144962619D02*
X208952379Y-144962619D01*
X208952379Y-144962619D02*
X209047617Y-144915000D01*
X209047617Y-144915000D02*
X209095236Y-144867380D01*
X209095236Y-144867380D02*
X209142855Y-144772142D01*
X209142855Y-144772142D02*
X209142855Y-144486428D01*
X209142855Y-144486428D02*
X209095236Y-144391190D01*
X209095236Y-144391190D02*
X209047617Y-144343571D01*
X209047617Y-144343571D02*
X208952379Y-144295952D01*
X208952379Y-144295952D02*
X208761903Y-144295952D01*
X208761903Y-144295952D02*
X208666665Y-144343571D01*
X207523807Y-144057857D02*
X207476188Y-144010238D01*
X207476188Y-144010238D02*
X207380950Y-143962619D01*
X207380950Y-143962619D02*
X207142855Y-143962619D01*
X207142855Y-143962619D02*
X207047617Y-144010238D01*
X207047617Y-144010238D02*
X206999998Y-144057857D01*
X206999998Y-144057857D02*
X206952379Y-144153095D01*
X206952379Y-144153095D02*
X206952379Y-144248333D01*
X206952379Y-144248333D02*
X206999998Y-144391190D01*
X206999998Y-144391190D02*
X207571426Y-144962619D01*
X207571426Y-144962619D02*
X206952379Y-144962619D01*
X206333331Y-143962619D02*
X206238093Y-143962619D01*
X206238093Y-143962619D02*
X206142855Y-144010238D01*
X206142855Y-144010238D02*
X206095236Y-144057857D01*
X206095236Y-144057857D02*
X206047617Y-144153095D01*
X206047617Y-144153095D02*
X205999998Y-144343571D01*
X205999998Y-144343571D02*
X205999998Y-144581666D01*
X205999998Y-144581666D02*
X206047617Y-144772142D01*
X206047617Y-144772142D02*
X206095236Y-144867380D01*
X206095236Y-144867380D02*
X206142855Y-144915000D01*
X206142855Y-144915000D02*
X206238093Y-144962619D01*
X206238093Y-144962619D02*
X206333331Y-144962619D01*
X206333331Y-144962619D02*
X206428569Y-144915000D01*
X206428569Y-144915000D02*
X206476188Y-144867380D01*
X206476188Y-144867380D02*
X206523807Y-144772142D01*
X206523807Y-144772142D02*
X206571426Y-144581666D01*
X206571426Y-144581666D02*
X206571426Y-144343571D01*
X206571426Y-144343571D02*
X206523807Y-144153095D01*
X206523807Y-144153095D02*
X206476188Y-144057857D01*
X206476188Y-144057857D02*
X206428569Y-144010238D01*
X206428569Y-144010238D02*
X206333331Y-143962619D01*
X205619045Y-144057857D02*
X205571426Y-144010238D01*
X205571426Y-144010238D02*
X205476188Y-143962619D01*
X205476188Y-143962619D02*
X205238093Y-143962619D01*
X205238093Y-143962619D02*
X205142855Y-144010238D01*
X205142855Y-144010238D02*
X205095236Y-144057857D01*
X205095236Y-144057857D02*
X205047617Y-144153095D01*
X205047617Y-144153095D02*
X205047617Y-144248333D01*
X205047617Y-144248333D02*
X205095236Y-144391190D01*
X205095236Y-144391190D02*
X205666664Y-144962619D01*
X205666664Y-144962619D02*
X205047617Y-144962619D01*
X204714283Y-143962619D02*
X204095236Y-143962619D01*
X204095236Y-143962619D02*
X204428569Y-144343571D01*
X204428569Y-144343571D02*
X204285712Y-144343571D01*
X204285712Y-144343571D02*
X204190474Y-144391190D01*
X204190474Y-144391190D02*
X204142855Y-144438809D01*
X204142855Y-144438809D02*
X204095236Y-144534047D01*
X204095236Y-144534047D02*
X204095236Y-144772142D01*
X204095236Y-144772142D02*
X204142855Y-144867380D01*
X204142855Y-144867380D02*
X204190474Y-144915000D01*
X204190474Y-144915000D02*
X204285712Y-144962619D01*
X204285712Y-144962619D02*
X204571426Y-144962619D01*
X204571426Y-144962619D02*
X204666664Y-144915000D01*
X204666664Y-144915000D02*
X204714283Y-144867380D01*
X201476187Y-144295952D02*
X201238092Y-144962619D01*
X201238092Y-144962619D02*
X200999997Y-144295952D01*
X200428568Y-143962619D02*
X200333330Y-143962619D01*
X200333330Y-143962619D02*
X200238092Y-144010238D01*
X200238092Y-144010238D02*
X200190473Y-144057857D01*
X200190473Y-144057857D02*
X200142854Y-144153095D01*
X200142854Y-144153095D02*
X200095235Y-144343571D01*
X200095235Y-144343571D02*
X200095235Y-144581666D01*
X200095235Y-144581666D02*
X200142854Y-144772142D01*
X200142854Y-144772142D02*
X200190473Y-144867380D01*
X200190473Y-144867380D02*
X200238092Y-144915000D01*
X200238092Y-144915000D02*
X200333330Y-144962619D01*
X200333330Y-144962619D02*
X200428568Y-144962619D01*
X200428568Y-144962619D02*
X200523806Y-144915000D01*
X200523806Y-144915000D02*
X200571425Y-144867380D01*
X200571425Y-144867380D02*
X200619044Y-144772142D01*
X200619044Y-144772142D02*
X200666663Y-144581666D01*
X200666663Y-144581666D02*
X200666663Y-144343571D01*
X200666663Y-144343571D02*
X200619044Y-144153095D01*
X200619044Y-144153095D02*
X200571425Y-144057857D01*
X200571425Y-144057857D02*
X200523806Y-144010238D01*
X200523806Y-144010238D02*
X200428568Y-143962619D01*
X199666663Y-144867380D02*
X199619044Y-144915000D01*
X199619044Y-144915000D02*
X199666663Y-144962619D01*
X199666663Y-144962619D02*
X199714282Y-144915000D01*
X199714282Y-144915000D02*
X199666663Y-144867380D01*
X199666663Y-144867380D02*
X199666663Y-144962619D01*
X198666664Y-144962619D02*
X199238092Y-144962619D01*
X198952378Y-144962619D02*
X198952378Y-143962619D01*
X198952378Y-143962619D02*
X199047616Y-144105476D01*
X199047616Y-144105476D02*
X199142854Y-144200714D01*
X199142854Y-144200714D02*
X199238092Y-144248333D01*
X230238096Y-146582619D02*
X230238096Y-145582619D01*
X229809525Y-146582619D02*
X229809525Y-146058809D01*
X229809525Y-146058809D02*
X229857144Y-145963571D01*
X229857144Y-145963571D02*
X229952382Y-145915952D01*
X229952382Y-145915952D02*
X230095239Y-145915952D01*
X230095239Y-145915952D02*
X230190477Y-145963571D01*
X230190477Y-145963571D02*
X230238096Y-146011190D01*
X229476191Y-145915952D02*
X229095239Y-145915952D01*
X229333334Y-145582619D02*
X229333334Y-146439761D01*
X229333334Y-146439761D02*
X229285715Y-146535000D01*
X229285715Y-146535000D02*
X229190477Y-146582619D01*
X229190477Y-146582619D02*
X229095239Y-146582619D01*
X228904762Y-145915952D02*
X228523810Y-145915952D01*
X228761905Y-145582619D02*
X228761905Y-146439761D01*
X228761905Y-146439761D02*
X228714286Y-146535000D01*
X228714286Y-146535000D02*
X228619048Y-146582619D01*
X228619048Y-146582619D02*
X228523810Y-146582619D01*
X228190476Y-145915952D02*
X228190476Y-146915952D01*
X228190476Y-145963571D02*
X228095238Y-145915952D01*
X228095238Y-145915952D02*
X227904762Y-145915952D01*
X227904762Y-145915952D02*
X227809524Y-145963571D01*
X227809524Y-145963571D02*
X227761905Y-146011190D01*
X227761905Y-146011190D02*
X227714286Y-146106428D01*
X227714286Y-146106428D02*
X227714286Y-146392142D01*
X227714286Y-146392142D02*
X227761905Y-146487380D01*
X227761905Y-146487380D02*
X227809524Y-146535000D01*
X227809524Y-146535000D02*
X227904762Y-146582619D01*
X227904762Y-146582619D02*
X228095238Y-146582619D01*
X228095238Y-146582619D02*
X228190476Y-146535000D01*
X227333333Y-146535000D02*
X227238095Y-146582619D01*
X227238095Y-146582619D02*
X227047619Y-146582619D01*
X227047619Y-146582619D02*
X226952381Y-146535000D01*
X226952381Y-146535000D02*
X226904762Y-146439761D01*
X226904762Y-146439761D02*
X226904762Y-146392142D01*
X226904762Y-146392142D02*
X226952381Y-146296904D01*
X226952381Y-146296904D02*
X227047619Y-146249285D01*
X227047619Y-146249285D02*
X227190476Y-146249285D01*
X227190476Y-146249285D02*
X227285714Y-146201666D01*
X227285714Y-146201666D02*
X227333333Y-146106428D01*
X227333333Y-146106428D02*
X227333333Y-146058809D01*
X227333333Y-146058809D02*
X227285714Y-145963571D01*
X227285714Y-145963571D02*
X227190476Y-145915952D01*
X227190476Y-145915952D02*
X227047619Y-145915952D01*
X227047619Y-145915952D02*
X226952381Y-145963571D01*
X226476190Y-146487380D02*
X226428571Y-146535000D01*
X226428571Y-146535000D02*
X226476190Y-146582619D01*
X226476190Y-146582619D02*
X226523809Y-146535000D01*
X226523809Y-146535000D02*
X226476190Y-146487380D01*
X226476190Y-146487380D02*
X226476190Y-146582619D01*
X226476190Y-145963571D02*
X226428571Y-146011190D01*
X226428571Y-146011190D02*
X226476190Y-146058809D01*
X226476190Y-146058809D02*
X226523809Y-146011190D01*
X226523809Y-146011190D02*
X226476190Y-145963571D01*
X226476190Y-145963571D02*
X226476190Y-146058809D01*
X225285715Y-145535000D02*
X226142857Y-146820714D01*
X224238096Y-145535000D02*
X225095238Y-146820714D01*
X223476191Y-145915952D02*
X223476191Y-146725476D01*
X223476191Y-146725476D02*
X223523810Y-146820714D01*
X223523810Y-146820714D02*
X223571429Y-146868333D01*
X223571429Y-146868333D02*
X223666667Y-146915952D01*
X223666667Y-146915952D02*
X223809524Y-146915952D01*
X223809524Y-146915952D02*
X223904762Y-146868333D01*
X223476191Y-146535000D02*
X223571429Y-146582619D01*
X223571429Y-146582619D02*
X223761905Y-146582619D01*
X223761905Y-146582619D02*
X223857143Y-146535000D01*
X223857143Y-146535000D02*
X223904762Y-146487380D01*
X223904762Y-146487380D02*
X223952381Y-146392142D01*
X223952381Y-146392142D02*
X223952381Y-146106428D01*
X223952381Y-146106428D02*
X223904762Y-146011190D01*
X223904762Y-146011190D02*
X223857143Y-145963571D01*
X223857143Y-145963571D02*
X223761905Y-145915952D01*
X223761905Y-145915952D02*
X223571429Y-145915952D01*
X223571429Y-145915952D02*
X223476191Y-145963571D01*
X223000000Y-146582619D02*
X223000000Y-145915952D01*
X223000000Y-145582619D02*
X223047619Y-145630238D01*
X223047619Y-145630238D02*
X223000000Y-145677857D01*
X223000000Y-145677857D02*
X222952381Y-145630238D01*
X222952381Y-145630238D02*
X223000000Y-145582619D01*
X223000000Y-145582619D02*
X223000000Y-145677857D01*
X222666667Y-145915952D02*
X222285715Y-145915952D01*
X222523810Y-145582619D02*
X222523810Y-146439761D01*
X222523810Y-146439761D02*
X222476191Y-146535000D01*
X222476191Y-146535000D02*
X222380953Y-146582619D01*
X222380953Y-146582619D02*
X222285715Y-146582619D01*
X221952381Y-146582619D02*
X221952381Y-145582619D01*
X221523810Y-146582619D02*
X221523810Y-146058809D01*
X221523810Y-146058809D02*
X221571429Y-145963571D01*
X221571429Y-145963571D02*
X221666667Y-145915952D01*
X221666667Y-145915952D02*
X221809524Y-145915952D01*
X221809524Y-145915952D02*
X221904762Y-145963571D01*
X221904762Y-145963571D02*
X221952381Y-146011190D01*
X220619048Y-145915952D02*
X220619048Y-146582619D01*
X221047619Y-145915952D02*
X221047619Y-146439761D01*
X221047619Y-146439761D02*
X221000000Y-146535000D01*
X221000000Y-146535000D02*
X220904762Y-146582619D01*
X220904762Y-146582619D02*
X220761905Y-146582619D01*
X220761905Y-146582619D02*
X220666667Y-146535000D01*
X220666667Y-146535000D02*
X220619048Y-146487380D01*
X220142857Y-146582619D02*
X220142857Y-145582619D01*
X220142857Y-145963571D02*
X220047619Y-145915952D01*
X220047619Y-145915952D02*
X219857143Y-145915952D01*
X219857143Y-145915952D02*
X219761905Y-145963571D01*
X219761905Y-145963571D02*
X219714286Y-146011190D01*
X219714286Y-146011190D02*
X219666667Y-146106428D01*
X219666667Y-146106428D02*
X219666667Y-146392142D01*
X219666667Y-146392142D02*
X219714286Y-146487380D01*
X219714286Y-146487380D02*
X219761905Y-146535000D01*
X219761905Y-146535000D02*
X219857143Y-146582619D01*
X219857143Y-146582619D02*
X220047619Y-146582619D01*
X220047619Y-146582619D02*
X220142857Y-146535000D01*
X219238095Y-146487380D02*
X219190476Y-146535000D01*
X219190476Y-146535000D02*
X219238095Y-146582619D01*
X219238095Y-146582619D02*
X219285714Y-146535000D01*
X219285714Y-146535000D02*
X219238095Y-146487380D01*
X219238095Y-146487380D02*
X219238095Y-146582619D01*
X218333334Y-146535000D02*
X218428572Y-146582619D01*
X218428572Y-146582619D02*
X218619048Y-146582619D01*
X218619048Y-146582619D02*
X218714286Y-146535000D01*
X218714286Y-146535000D02*
X218761905Y-146487380D01*
X218761905Y-146487380D02*
X218809524Y-146392142D01*
X218809524Y-146392142D02*
X218809524Y-146106428D01*
X218809524Y-146106428D02*
X218761905Y-146011190D01*
X218761905Y-146011190D02*
X218714286Y-145963571D01*
X218714286Y-145963571D02*
X218619048Y-145915952D01*
X218619048Y-145915952D02*
X218428572Y-145915952D01*
X218428572Y-145915952D02*
X218333334Y-145963571D01*
X217761905Y-146582619D02*
X217857143Y-146535000D01*
X217857143Y-146535000D02*
X217904762Y-146487380D01*
X217904762Y-146487380D02*
X217952381Y-146392142D01*
X217952381Y-146392142D02*
X217952381Y-146106428D01*
X217952381Y-146106428D02*
X217904762Y-146011190D01*
X217904762Y-146011190D02*
X217857143Y-145963571D01*
X217857143Y-145963571D02*
X217761905Y-145915952D01*
X217761905Y-145915952D02*
X217619048Y-145915952D01*
X217619048Y-145915952D02*
X217523810Y-145963571D01*
X217523810Y-145963571D02*
X217476191Y-146011190D01*
X217476191Y-146011190D02*
X217428572Y-146106428D01*
X217428572Y-146106428D02*
X217428572Y-146392142D01*
X217428572Y-146392142D02*
X217476191Y-146487380D01*
X217476191Y-146487380D02*
X217523810Y-146535000D01*
X217523810Y-146535000D02*
X217619048Y-146582619D01*
X217619048Y-146582619D02*
X217761905Y-146582619D01*
X217000000Y-146582619D02*
X217000000Y-145915952D01*
X217000000Y-146011190D02*
X216952381Y-145963571D01*
X216952381Y-145963571D02*
X216857143Y-145915952D01*
X216857143Y-145915952D02*
X216714286Y-145915952D01*
X216714286Y-145915952D02*
X216619048Y-145963571D01*
X216619048Y-145963571D02*
X216571429Y-146058809D01*
X216571429Y-146058809D02*
X216571429Y-146582619D01*
X216571429Y-146058809D02*
X216523810Y-145963571D01*
X216523810Y-145963571D02*
X216428572Y-145915952D01*
X216428572Y-145915952D02*
X216285715Y-145915952D01*
X216285715Y-145915952D02*
X216190476Y-145963571D01*
X216190476Y-145963571D02*
X216142857Y-146058809D01*
X216142857Y-146058809D02*
X216142857Y-146582619D01*
X214952382Y-145535000D02*
X215809524Y-146820714D01*
X214619048Y-146582619D02*
X214619048Y-145915952D01*
X214619048Y-146011190D02*
X214571429Y-145963571D01*
X214571429Y-145963571D02*
X214476191Y-145915952D01*
X214476191Y-145915952D02*
X214333334Y-145915952D01*
X214333334Y-145915952D02*
X214238096Y-145963571D01*
X214238096Y-145963571D02*
X214190477Y-146058809D01*
X214190477Y-146058809D02*
X214190477Y-146582619D01*
X214190477Y-146058809D02*
X214142858Y-145963571D01*
X214142858Y-145963571D02*
X214047620Y-145915952D01*
X214047620Y-145915952D02*
X213904763Y-145915952D01*
X213904763Y-145915952D02*
X213809524Y-145963571D01*
X213809524Y-145963571D02*
X213761905Y-146058809D01*
X213761905Y-146058809D02*
X213761905Y-146582619D01*
X213285715Y-145915952D02*
X213285715Y-146915952D01*
X213285715Y-145963571D02*
X213190477Y-145915952D01*
X213190477Y-145915952D02*
X213000001Y-145915952D01*
X213000001Y-145915952D02*
X212904763Y-145963571D01*
X212904763Y-145963571D02*
X212857144Y-146011190D01*
X212857144Y-146011190D02*
X212809525Y-146106428D01*
X212809525Y-146106428D02*
X212809525Y-146392142D01*
X212809525Y-146392142D02*
X212857144Y-146487380D01*
X212857144Y-146487380D02*
X212904763Y-146535000D01*
X212904763Y-146535000D02*
X213000001Y-146582619D01*
X213000001Y-146582619D02*
X213190477Y-146582619D01*
X213190477Y-146582619D02*
X213285715Y-146535000D01*
X212380953Y-146582619D02*
X212380953Y-145915952D01*
X212380953Y-146106428D02*
X212333334Y-146011190D01*
X212333334Y-146011190D02*
X212285715Y-145963571D01*
X212285715Y-145963571D02*
X212190477Y-145915952D01*
X212190477Y-145915952D02*
X212095239Y-145915952D01*
X211619048Y-146582619D02*
X211714286Y-146535000D01*
X211714286Y-146535000D02*
X211761905Y-146487380D01*
X211761905Y-146487380D02*
X211809524Y-146392142D01*
X211809524Y-146392142D02*
X211809524Y-146106428D01*
X211809524Y-146106428D02*
X211761905Y-146011190D01*
X211761905Y-146011190D02*
X211714286Y-145963571D01*
X211714286Y-145963571D02*
X211619048Y-145915952D01*
X211619048Y-145915952D02*
X211476191Y-145915952D01*
X211476191Y-145915952D02*
X211380953Y-145963571D01*
X211380953Y-145963571D02*
X211333334Y-146011190D01*
X211333334Y-146011190D02*
X211285715Y-146106428D01*
X211285715Y-146106428D02*
X211285715Y-146392142D01*
X211285715Y-146392142D02*
X211333334Y-146487380D01*
X211333334Y-146487380D02*
X211380953Y-146535000D01*
X211380953Y-146535000D02*
X211476191Y-146582619D01*
X211476191Y-146582619D02*
X211619048Y-146582619D01*
X210904762Y-146535000D02*
X210809524Y-146582619D01*
X210809524Y-146582619D02*
X210619048Y-146582619D01*
X210619048Y-146582619D02*
X210523810Y-146535000D01*
X210523810Y-146535000D02*
X210476191Y-146439761D01*
X210476191Y-146439761D02*
X210476191Y-146392142D01*
X210476191Y-146392142D02*
X210523810Y-146296904D01*
X210523810Y-146296904D02*
X210619048Y-146249285D01*
X210619048Y-146249285D02*
X210761905Y-146249285D01*
X210761905Y-146249285D02*
X210857143Y-146201666D01*
X210857143Y-146201666D02*
X210904762Y-146106428D01*
X210904762Y-146106428D02*
X210904762Y-146058809D01*
X210904762Y-146058809D02*
X210857143Y-145963571D01*
X210857143Y-145963571D02*
X210761905Y-145915952D01*
X210761905Y-145915952D02*
X210619048Y-145915952D01*
X210619048Y-145915952D02*
X210523810Y-145963571D01*
X210047619Y-146582619D02*
X210047619Y-145582619D01*
X209952381Y-146201666D02*
X209666667Y-146582619D01*
X209666667Y-145915952D02*
X210047619Y-146296904D01*
X208523810Y-145535000D02*
X209380952Y-146820714D01*
X208190476Y-146582619D02*
X208190476Y-145915952D01*
X208190476Y-146011190D02*
X208142857Y-145963571D01*
X208142857Y-145963571D02*
X208047619Y-145915952D01*
X208047619Y-145915952D02*
X207904762Y-145915952D01*
X207904762Y-145915952D02*
X207809524Y-145963571D01*
X207809524Y-145963571D02*
X207761905Y-146058809D01*
X207761905Y-146058809D02*
X207761905Y-146582619D01*
X207761905Y-146058809D02*
X207714286Y-145963571D01*
X207714286Y-145963571D02*
X207619048Y-145915952D01*
X207619048Y-145915952D02*
X207476191Y-145915952D01*
X207476191Y-145915952D02*
X207380952Y-145963571D01*
X207380952Y-145963571D02*
X207333333Y-146058809D01*
X207333333Y-146058809D02*
X207333333Y-146582619D01*
X206857143Y-146582619D02*
X206857143Y-145915952D01*
X206857143Y-145582619D02*
X206904762Y-145630238D01*
X206904762Y-145630238D02*
X206857143Y-145677857D01*
X206857143Y-145677857D02*
X206809524Y-145630238D01*
X206809524Y-145630238D02*
X206857143Y-145582619D01*
X206857143Y-145582619D02*
X206857143Y-145677857D01*
X205952382Y-146582619D02*
X205952382Y-145582619D01*
X205952382Y-146535000D02*
X206047620Y-146582619D01*
X206047620Y-146582619D02*
X206238096Y-146582619D01*
X206238096Y-146582619D02*
X206333334Y-146535000D01*
X206333334Y-146535000D02*
X206380953Y-146487380D01*
X206380953Y-146487380D02*
X206428572Y-146392142D01*
X206428572Y-146392142D02*
X206428572Y-146106428D01*
X206428572Y-146106428D02*
X206380953Y-146011190D01*
X206380953Y-146011190D02*
X206333334Y-145963571D01*
X206333334Y-145963571D02*
X206238096Y-145915952D01*
X206238096Y-145915952D02*
X206047620Y-145915952D01*
X206047620Y-145915952D02*
X205952382Y-145963571D01*
X205476191Y-146582619D02*
X205476191Y-145915952D01*
X205476191Y-145582619D02*
X205523810Y-145630238D01*
X205523810Y-145630238D02*
X205476191Y-145677857D01*
X205476191Y-145677857D02*
X205428572Y-145630238D01*
X205428572Y-145630238D02*
X205476191Y-145582619D01*
X205476191Y-145582619D02*
X205476191Y-145677857D01*
X205238097Y-146677857D02*
X204476192Y-146677857D01*
X203809525Y-146535000D02*
X203904763Y-146582619D01*
X203904763Y-146582619D02*
X204095239Y-146582619D01*
X204095239Y-146582619D02*
X204190477Y-146535000D01*
X204190477Y-146535000D02*
X204238096Y-146487380D01*
X204238096Y-146487380D02*
X204285715Y-146392142D01*
X204285715Y-146392142D02*
X204285715Y-146106428D01*
X204285715Y-146106428D02*
X204238096Y-146011190D01*
X204238096Y-146011190D02*
X204190477Y-145963571D01*
X204190477Y-145963571D02*
X204095239Y-145915952D01*
X204095239Y-145915952D02*
X203904763Y-145915952D01*
X203904763Y-145915952D02*
X203809525Y-145963571D01*
X203380953Y-146582619D02*
X203380953Y-145582619D01*
X202952382Y-146582619D02*
X202952382Y-146058809D01*
X202952382Y-146058809D02*
X203000001Y-145963571D01*
X203000001Y-145963571D02*
X203095239Y-145915952D01*
X203095239Y-145915952D02*
X203238096Y-145915952D01*
X203238096Y-145915952D02*
X203333334Y-145963571D01*
X203333334Y-145963571D02*
X203380953Y-146011190D01*
X202047620Y-146582619D02*
X202047620Y-146058809D01*
X202047620Y-146058809D02*
X202095239Y-145963571D01*
X202095239Y-145963571D02*
X202190477Y-145915952D01*
X202190477Y-145915952D02*
X202380953Y-145915952D01*
X202380953Y-145915952D02*
X202476191Y-145963571D01*
X202047620Y-146535000D02*
X202142858Y-146582619D01*
X202142858Y-146582619D02*
X202380953Y-146582619D01*
X202380953Y-146582619D02*
X202476191Y-146535000D01*
X202476191Y-146535000D02*
X202523810Y-146439761D01*
X202523810Y-146439761D02*
X202523810Y-146344523D01*
X202523810Y-146344523D02*
X202476191Y-146249285D01*
X202476191Y-146249285D02*
X202380953Y-146201666D01*
X202380953Y-146201666D02*
X202142858Y-146201666D01*
X202142858Y-146201666D02*
X202047620Y-146154047D01*
X201571429Y-145915952D02*
X201571429Y-146582619D01*
X201571429Y-146011190D02*
X201523810Y-145963571D01*
X201523810Y-145963571D02*
X201428572Y-145915952D01*
X201428572Y-145915952D02*
X201285715Y-145915952D01*
X201285715Y-145915952D02*
X201190477Y-145963571D01*
X201190477Y-145963571D02*
X201142858Y-146058809D01*
X201142858Y-146058809D02*
X201142858Y-146582619D01*
X200666667Y-145915952D02*
X200666667Y-146582619D01*
X200666667Y-146011190D02*
X200619048Y-145963571D01*
X200619048Y-145963571D02*
X200523810Y-145915952D01*
X200523810Y-145915952D02*
X200380953Y-145915952D01*
X200380953Y-145915952D02*
X200285715Y-145963571D01*
X200285715Y-145963571D02*
X200238096Y-146058809D01*
X200238096Y-146058809D02*
X200238096Y-146582619D01*
X199380953Y-146535000D02*
X199476191Y-146582619D01*
X199476191Y-146582619D02*
X199666667Y-146582619D01*
X199666667Y-146582619D02*
X199761905Y-146535000D01*
X199761905Y-146535000D02*
X199809524Y-146439761D01*
X199809524Y-146439761D02*
X199809524Y-146058809D01*
X199809524Y-146058809D02*
X199761905Y-145963571D01*
X199761905Y-145963571D02*
X199666667Y-145915952D01*
X199666667Y-145915952D02*
X199476191Y-145915952D01*
X199476191Y-145915952D02*
X199380953Y-145963571D01*
X199380953Y-145963571D02*
X199333334Y-146058809D01*
X199333334Y-146058809D02*
X199333334Y-146154047D01*
X199333334Y-146154047D02*
X199809524Y-146249285D01*
X198761905Y-146582619D02*
X198857143Y-146535000D01*
X198857143Y-146535000D02*
X198904762Y-146439761D01*
X198904762Y-146439761D02*
X198904762Y-145582619D01*
X198619048Y-146677857D02*
X197857143Y-146677857D01*
X197666666Y-146535000D02*
X197571428Y-146582619D01*
X197571428Y-146582619D02*
X197380952Y-146582619D01*
X197380952Y-146582619D02*
X197285714Y-146535000D01*
X197285714Y-146535000D02*
X197238095Y-146439761D01*
X197238095Y-146439761D02*
X197238095Y-146392142D01*
X197238095Y-146392142D02*
X197285714Y-146296904D01*
X197285714Y-146296904D02*
X197380952Y-146249285D01*
X197380952Y-146249285D02*
X197523809Y-146249285D01*
X197523809Y-146249285D02*
X197619047Y-146201666D01*
X197619047Y-146201666D02*
X197666666Y-146106428D01*
X197666666Y-146106428D02*
X197666666Y-146058809D01*
X197666666Y-146058809D02*
X197619047Y-145963571D01*
X197619047Y-145963571D02*
X197523809Y-145915952D01*
X197523809Y-145915952D02*
X197380952Y-145915952D01*
X197380952Y-145915952D02*
X197285714Y-145963571D01*
X196809523Y-145915952D02*
X196809523Y-146915952D01*
X196809523Y-145963571D02*
X196714285Y-145915952D01*
X196714285Y-145915952D02*
X196523809Y-145915952D01*
X196523809Y-145915952D02*
X196428571Y-145963571D01*
X196428571Y-145963571D02*
X196380952Y-146011190D01*
X196380952Y-146011190D02*
X196333333Y-146106428D01*
X196333333Y-146106428D02*
X196333333Y-146392142D01*
X196333333Y-146392142D02*
X196380952Y-146487380D01*
X196380952Y-146487380D02*
X196428571Y-146535000D01*
X196428571Y-146535000D02*
X196523809Y-146582619D01*
X196523809Y-146582619D02*
X196714285Y-146582619D01*
X196714285Y-146582619D02*
X196809523Y-146535000D01*
X195761904Y-146582619D02*
X195857142Y-146535000D01*
X195857142Y-146535000D02*
X195904761Y-146439761D01*
X195904761Y-146439761D02*
X195904761Y-145582619D01*
X195380951Y-146582619D02*
X195380951Y-145915952D01*
X195380951Y-145582619D02*
X195428570Y-145630238D01*
X195428570Y-145630238D02*
X195380951Y-145677857D01*
X195380951Y-145677857D02*
X195333332Y-145630238D01*
X195333332Y-145630238D02*
X195380951Y-145582619D01*
X195380951Y-145582619D02*
X195380951Y-145677857D01*
X195047618Y-145915952D02*
X194666666Y-145915952D01*
X194904761Y-145582619D02*
X194904761Y-146439761D01*
X194904761Y-146439761D02*
X194857142Y-146535000D01*
X194857142Y-146535000D02*
X194761904Y-146582619D01*
X194761904Y-146582619D02*
X194666666Y-146582619D01*
X194476189Y-145915952D02*
X194095237Y-145915952D01*
X194333332Y-145582619D02*
X194333332Y-146439761D01*
X194333332Y-146439761D02*
X194285713Y-146535000D01*
X194285713Y-146535000D02*
X194190475Y-146582619D01*
X194190475Y-146582619D02*
X194095237Y-146582619D01*
X193380951Y-146535000D02*
X193476189Y-146582619D01*
X193476189Y-146582619D02*
X193666665Y-146582619D01*
X193666665Y-146582619D02*
X193761903Y-146535000D01*
X193761903Y-146535000D02*
X193809522Y-146439761D01*
X193809522Y-146439761D02*
X193809522Y-146058809D01*
X193809522Y-146058809D02*
X193761903Y-145963571D01*
X193761903Y-145963571D02*
X193666665Y-145915952D01*
X193666665Y-145915952D02*
X193476189Y-145915952D01*
X193476189Y-145915952D02*
X193380951Y-145963571D01*
X193380951Y-145963571D02*
X193333332Y-146058809D01*
X193333332Y-146058809D02*
X193333332Y-146154047D01*
X193333332Y-146154047D02*
X193809522Y-146249285D01*
X192904760Y-146582619D02*
X192904760Y-145915952D01*
X192904760Y-146106428D02*
X192857141Y-146011190D01*
X192857141Y-146011190D02*
X192809522Y-145963571D01*
X192809522Y-145963571D02*
X192714284Y-145915952D01*
X192714284Y-145915952D02*
X192619046Y-145915952D01*
%LPC*%
D11*
%TO.C,H3*%
X164000000Y-123500000D03*
%TD*%
%TO.C,H4*%
X164000000Y-146000000D03*
%TD*%
%TO.C,H8*%
X259000000Y-146000000D03*
%TD*%
%TO.C,H7*%
X259000000Y-123500000D03*
%TD*%
M02*
